%TF.GenerationSoftware,KiCad,Pcbnew,7.0.1-0*%
%TF.CreationDate,2023-10-20T13:53:54+13:00*%
%TF.ProjectId,Punkys-new-brew_control,50756e6b-7973-42d6-9e65-772d62726577,001*%
%TF.SameCoordinates,Original*%
%TF.FileFunction,Soldermask,Bot*%
%TF.FilePolarity,Negative*%
%FSLAX46Y46*%
G04 Gerber Fmt 4.6, Leading zero omitted, Abs format (unit mm)*
G04 Created by KiCad (PCBNEW 7.0.1-0) date 2023-10-20 13:53:54*
%MOMM*%
%LPD*%
G01*
G04 APERTURE LIST*
%ADD10C,3.240000*%
%ADD11R,1.800000X1.800000*%
%ADD12C,1.800000*%
%ADD13R,1.930000X1.830000*%
%ADD14C,2.130000*%
%ADD15C,1.600000*%
%ADD16O,1.600000X1.600000*%
%ADD17R,1.700000X1.700000*%
%ADD18O,1.700000X1.700000*%
G04 APERTURE END LIST*
D10*
%TO.C,RV4*%
X126000000Y-59825000D03*
X135600000Y-59825000D03*
D11*
X128300000Y-67325000D03*
D12*
X130800000Y-67325000D03*
X133300000Y-67325000D03*
%TD*%
D10*
%TO.C,RV5*%
X145700000Y-59825000D03*
X155300000Y-59825000D03*
D11*
X148000000Y-67325000D03*
D12*
X150500000Y-67325000D03*
X153000000Y-67325000D03*
%TD*%
D13*
%TO.C,J7*%
X125580000Y-131100000D03*
D14*
X125580000Y-142500000D03*
X125580000Y-134200000D03*
%TD*%
D13*
%TO.C,J9*%
X145660000Y-131100000D03*
D14*
X145660000Y-142500000D03*
X145660000Y-134200000D03*
%TD*%
D13*
%TO.C,J2*%
X135630000Y-116610000D03*
D14*
X135630000Y-128010000D03*
X135630000Y-119710000D03*
%TD*%
D13*
%TO.C,J6*%
X155720000Y-116600000D03*
D14*
X155720000Y-128000000D03*
X155720000Y-119700000D03*
%TD*%
D13*
%TO.C,J4*%
X125600000Y-116610000D03*
D14*
X125600000Y-128010000D03*
X125600000Y-119710000D03*
%TD*%
D10*
%TO.C,RV6*%
X125980000Y-101025000D03*
X135580000Y-101025000D03*
D11*
X128280000Y-108525000D03*
D12*
X130780000Y-108525000D03*
X133280000Y-108525000D03*
%TD*%
D10*
%TO.C,RV2*%
X145730000Y-39205000D03*
X155330000Y-39205000D03*
D11*
X148030000Y-46705000D03*
D12*
X150530000Y-46705000D03*
X153030000Y-46705000D03*
%TD*%
D15*
%TO.C,R13*%
X141350000Y-100530000D03*
D16*
X141350000Y-97990000D03*
%TD*%
D10*
%TO.C,RV3*%
X126000000Y-80425000D03*
X135600000Y-80425000D03*
D11*
X128300000Y-87925000D03*
D12*
X130800000Y-87925000D03*
X133300000Y-87925000D03*
%TD*%
D13*
%TO.C,J3*%
X145660000Y-116610000D03*
D14*
X145660000Y-128010000D03*
X145660000Y-119710000D03*
%TD*%
D10*
%TO.C,RV7*%
X145700000Y-80425000D03*
X155300000Y-80425000D03*
D11*
X148000000Y-87925000D03*
D12*
X150500000Y-87925000D03*
X153000000Y-87925000D03*
%TD*%
D13*
%TO.C,J10*%
X155710000Y-102130000D03*
D14*
X155710000Y-113530000D03*
X155710000Y-105230000D03*
%TD*%
D10*
%TO.C,RV1*%
X126000000Y-39225000D03*
X135600000Y-39225000D03*
D11*
X128300000Y-46725000D03*
D12*
X130800000Y-46725000D03*
X133300000Y-46725000D03*
%TD*%
D13*
%TO.C,J5*%
X155690000Y-131100000D03*
D14*
X155690000Y-142500000D03*
X155690000Y-134200000D03*
%TD*%
D11*
%TO.C,D11*%
X146600000Y-101440000D03*
D12*
X146600000Y-98900000D03*
%TD*%
D13*
%TO.C,J8*%
X135630000Y-131100000D03*
D14*
X135630000Y-142500000D03*
X135630000Y-134200000D03*
%TD*%
D17*
%TO.C,J12*%
X122430000Y-113450000D03*
D18*
X124970000Y-113450000D03*
X127510000Y-113450000D03*
X130050000Y-113450000D03*
X132590000Y-113450000D03*
X135130000Y-113450000D03*
X137670000Y-113450000D03*
X140210000Y-113450000D03*
X142750000Y-113450000D03*
X145290000Y-113450000D03*
%TD*%
D17*
%TO.C,J14*%
X122350000Y-35900000D03*
D18*
X122350000Y-38440000D03*
X122350000Y-40980000D03*
X122350000Y-43520000D03*
X122350000Y-46060000D03*
X122350000Y-48600000D03*
X122350000Y-51140000D03*
X122350000Y-53680000D03*
X122350000Y-56220000D03*
X122350000Y-58760000D03*
X122350000Y-61300000D03*
X122350000Y-63840000D03*
%TD*%
D17*
%TO.C,J15*%
X158900000Y-35900000D03*
D18*
X158900000Y-38440000D03*
X158900000Y-40980000D03*
X158900000Y-43520000D03*
X158900000Y-46060000D03*
X158900000Y-48600000D03*
X158900000Y-51140000D03*
X158900000Y-53680000D03*
X158900000Y-56220000D03*
X158900000Y-58760000D03*
X158900000Y-61300000D03*
X158900000Y-63840000D03*
%TD*%
M02*
