%TF.GenerationSoftware,KiCad,Pcbnew,7.0.1-0*%
%TF.CreationDate,2023-11-10T19:31:01+13:00*%
%TF.ProjectId,Punkys-new-brew_control,50756e6b-7973-42d6-9e65-772d62726577,003*%
%TF.SameCoordinates,Original*%
%TF.FileFunction,Copper,L2,Bot*%
%TF.FilePolarity,Positive*%
%FSLAX46Y46*%
G04 Gerber Fmt 4.6, Leading zero omitted, Abs format (unit mm)*
G04 Created by KiCad (PCBNEW 7.0.1-0) date 2023-11-10 19:31:01*
%MOMM*%
%LPD*%
G01*
G04 APERTURE LIST*
%TA.AperFunction,ComponentPad*%
%ADD10C,3.240000*%
%TD*%
%TA.AperFunction,ComponentPad*%
%ADD11R,1.800000X1.800000*%
%TD*%
%TA.AperFunction,ComponentPad*%
%ADD12C,1.800000*%
%TD*%
%TA.AperFunction,ComponentPad*%
%ADD13R,1.930000X1.830000*%
%TD*%
%TA.AperFunction,ComponentPad*%
%ADD14C,2.130000*%
%TD*%
%TA.AperFunction,ComponentPad*%
%ADD15C,1.600000*%
%TD*%
%TA.AperFunction,ComponentPad*%
%ADD16O,1.600000X1.600000*%
%TD*%
%TA.AperFunction,ComponentPad*%
%ADD17R,1.700000X1.700000*%
%TD*%
%TA.AperFunction,ComponentPad*%
%ADD18O,1.700000X1.700000*%
%TD*%
%TA.AperFunction,ViaPad*%
%ADD19C,0.800000*%
%TD*%
%TA.AperFunction,Conductor*%
%ADD20C,0.250000*%
%TD*%
%TA.AperFunction,Conductor*%
%ADD21C,0.350000*%
%TD*%
G04 APERTURE END LIST*
D10*
%TO.P,RV4,*%
%TO.N,*%
X126000000Y-59825000D03*
X135600000Y-59825000D03*
D11*
%TO.P,RV4,1,1*%
%TO.N,Env1_A_C*%
X128300000Y-67325000D03*
D12*
%TO.P,RV4,2,2*%
%TO.N,Env1_AR_C*%
X130800000Y-67325000D03*
%TO.P,RV4,3,3*%
X133300000Y-67325000D03*
%TD*%
D10*
%TO.P,RV5,*%
%TO.N,*%
X145700000Y-59825000D03*
X155300000Y-59825000D03*
D11*
%TO.P,RV5,1,1*%
%TO.N,Env1_R_C*%
X148000000Y-67325000D03*
D12*
%TO.P,RV5,2,2*%
%TO.N,Env1_AR_C*%
X150500000Y-67325000D03*
%TO.P,RV5,3,3*%
X153000000Y-67325000D03*
%TD*%
D13*
%TO.P,J7,1*%
%TO.N,GND*%
X125580000Y-131100000D03*
D14*
%TO.P,J7,2*%
%TO.N,ENV1-Out_C*%
X125580000Y-142500000D03*
%TO.P,J7,3*%
%TO.N,unconnected-(J7-Pad3)*%
X125580000Y-134200000D03*
%TD*%
D13*
%TO.P,J9,1*%
%TO.N,GND*%
X145660000Y-131100000D03*
D14*
%TO.P,J9,2*%
%TO.N,ENV2_C*%
X145660000Y-142500000D03*
%TO.P,J9,3*%
%TO.N,unconnected-(J9-Pad3)*%
X145660000Y-134200000D03*
%TD*%
D13*
%TO.P,J2,1*%
%TO.N,GND*%
X135630000Y-116610000D03*
D14*
%TO.P,J2,2*%
%TO.N,CV1-In_C*%
X135630000Y-128010000D03*
%TO.P,J2,3*%
%TO.N,unconnected-(J2-Pad3)*%
X135630000Y-119710000D03*
%TD*%
D13*
%TO.P,J6,1*%
%TO.N,GND*%
X155720000Y-116600000D03*
D14*
%TO.P,J6,2*%
%TO.N,Ext_In_C*%
X155720000Y-128000000D03*
%TO.P,J6,3*%
%TO.N,APC_Out_C*%
X155720000Y-119700000D03*
%TD*%
D13*
%TO.P,J4,1*%
%TO.N,GND*%
X125600000Y-116610000D03*
D14*
%TO.P,J4,2*%
%TO.N,Gate_In_C*%
X125600000Y-128010000D03*
%TO.P,J4,3*%
%TO.N,5V_Ref_C*%
X125600000Y-119710000D03*
%TD*%
D10*
%TO.P,RV6,*%
%TO.N,*%
X125980000Y-101025000D03*
X135580000Y-101025000D03*
D11*
%TO.P,RV6,1,1*%
%TO.N,Net-(J10-Pad2)*%
X128280000Y-108525000D03*
D12*
%TO.P,RV6,2,2*%
X130780000Y-108525000D03*
%TO.P,RV6,3,3*%
%TO.N,Net-(R13-Pad1)*%
X133280000Y-108525000D03*
%TD*%
D10*
%TO.P,RV2,*%
%TO.N,*%
X145730000Y-39205000D03*
X155330000Y-39205000D03*
D11*
%TO.P,RV2,1,1*%
%TO.N,+12V*%
X148030000Y-46705000D03*
D12*
%TO.P,RV2,2,2*%
X150530000Y-46705000D03*
%TO.P,RV2,3,3*%
%TO.N,Freq_2_C*%
X153030000Y-46705000D03*
%TD*%
D15*
%TO.P,R13,1*%
%TO.N,Net-(R13-Pad1)*%
X141350000Y-100530000D03*
D16*
%TO.P,R13,2*%
%TO.N,VCA_CV_C*%
X141350000Y-97990000D03*
%TD*%
D10*
%TO.P,RV3,*%
%TO.N,*%
X126000000Y-80425000D03*
X135600000Y-80425000D03*
D11*
%TO.P,RV3,1,1*%
%TO.N,10V_REF_C*%
X128300000Y-87925000D03*
D12*
%TO.P,RV3,2,2*%
%TO.N,INV_REF_C*%
X130800000Y-87925000D03*
%TO.P,RV3,3,3*%
%TO.N,GND*%
X133300000Y-87925000D03*
%TD*%
D13*
%TO.P,J3,1*%
%TO.N,GND*%
X145660000Y-116610000D03*
D14*
%TO.P,J3,2*%
%TO.N,CV2-In_C*%
X145660000Y-128010000D03*
%TO.P,J3,3*%
%TO.N,unconnected-(J3-Pad3)*%
X145660000Y-119710000D03*
%TD*%
D10*
%TO.P,RV7,*%
%TO.N,*%
X145700000Y-80425000D03*
X155300000Y-80425000D03*
D11*
%TO.P,RV7,1,1*%
%TO.N,Env2_R_C*%
X148000000Y-87925000D03*
D12*
%TO.P,RV7,2,2*%
%TO.N,Env2_AR_C*%
X150500000Y-87925000D03*
%TO.P,RV7,3,3*%
X153000000Y-87925000D03*
%TD*%
D13*
%TO.P,J10,1*%
%TO.N,GND*%
X155710000Y-102130000D03*
D14*
%TO.P,J10,2*%
%TO.N,Net-(J10-Pad2)*%
X155710000Y-113530000D03*
%TO.P,J10,3*%
%TO.N,ENV1_C*%
X155710000Y-105230000D03*
%TD*%
D10*
%TO.P,RV1,*%
%TO.N,*%
X126000000Y-39225000D03*
X135600000Y-39225000D03*
D11*
%TO.P,RV1,1,1*%
%TO.N,+12V*%
X128300000Y-46725000D03*
D12*
%TO.P,RV1,2,2*%
X130800000Y-46725000D03*
%TO.P,RV1,3,3*%
%TO.N,Freq_1_C*%
X133300000Y-46725000D03*
%TD*%
D13*
%TO.P,J5,1*%
%TO.N,GND*%
X155690000Y-131100000D03*
D14*
%TO.P,J5,2*%
%TO.N,Audio_Out_C*%
X155690000Y-142500000D03*
%TO.P,J5,3*%
%TO.N,unconnected-(J5-Pad3)*%
X155690000Y-134200000D03*
%TD*%
D11*
%TO.P,D11,1,K*%
%TO.N,GND*%
X146600000Y-101440000D03*
D12*
%TO.P,D11,2,A*%
%TO.N,VCA_CV_C*%
X146600000Y-98900000D03*
%TD*%
D13*
%TO.P,J8,1*%
%TO.N,GND*%
X135630000Y-131100000D03*
D14*
%TO.P,J8,2*%
%TO.N,INV_ENV_C*%
X135630000Y-142500000D03*
%TO.P,J8,3*%
%TO.N,unconnected-(J8-Pad3)*%
X135630000Y-134200000D03*
%TD*%
D17*
%TO.P,J12,1,Pin_1*%
%TO.N,ENV1-Out_C*%
X122430000Y-113450000D03*
D18*
%TO.P,J12,2,Pin_2*%
%TO.N,5V_Ref_C*%
X124970000Y-113450000D03*
%TO.P,J12,3,Pin_3*%
%TO.N,Gate_In_C*%
X127510000Y-113450000D03*
%TO.P,J12,4,Pin_4*%
%TO.N,GND*%
X130050000Y-113450000D03*
%TO.P,J12,5,Pin_5*%
%TO.N,INV_ENV_C*%
X132590000Y-113450000D03*
%TO.P,J12,6,Pin_6*%
%TO.N,GND*%
X135130000Y-113450000D03*
%TO.P,J12,7,Pin_7*%
%TO.N,CV1-In_C*%
X137670000Y-113450000D03*
%TO.P,J12,8,Pin_8*%
%TO.N,ENV2_C*%
X140210000Y-113450000D03*
%TO.P,J12,9,Pin_9*%
%TO.N,CV2-In_C*%
X142750000Y-113450000D03*
%TO.P,J12,10,Pin_10*%
%TO.N,Audio_Out_C*%
X145290000Y-113450000D03*
%TD*%
D17*
%TO.P,J14,1,Pin_1*%
%TO.N,GND*%
X122350000Y-35900000D03*
D18*
%TO.P,J14,2,Pin_2*%
X122350000Y-38440000D03*
%TO.P,J14,3,Pin_3*%
%TO.N,+12V*%
X122350000Y-40980000D03*
%TO.P,J14,4,Pin_4*%
%TO.N,GND*%
X122350000Y-43520000D03*
%TO.P,J14,5,Pin_5*%
%TO.N,Freq_1_C*%
X122350000Y-46060000D03*
%TO.P,J14,6,Pin_6*%
%TO.N,Env1_AR_C*%
X122350000Y-48600000D03*
%TO.P,J14,7,Pin_7*%
%TO.N,Env1_A_C*%
X122350000Y-51140000D03*
%TO.P,J14,8,Pin_8*%
%TO.N,GND*%
X122350000Y-53680000D03*
%TO.P,J14,9,Pin_9*%
%TO.N,INV_REF_C*%
X122350000Y-56220000D03*
%TO.P,J14,10,Pin_10*%
%TO.N,GND*%
X122350000Y-58760000D03*
%TO.P,J14,11,Pin_11*%
%TO.N,10V_REF_C*%
X122350000Y-61300000D03*
%TO.P,J14,12,Pin_12*%
%TO.N,VCA_CV_C*%
X122350000Y-63840000D03*
%TD*%
D17*
%TO.P,J15,1,Pin_1*%
%TO.N,GND*%
X158900000Y-35900000D03*
D18*
%TO.P,J15,2,Pin_2*%
X158900000Y-38440000D03*
%TO.P,J15,3,Pin_3*%
%TO.N,+12V*%
X158900000Y-40980000D03*
%TO.P,J15,4,Pin_4*%
%TO.N,GND*%
X158900000Y-43520000D03*
%TO.P,J15,5,Pin_5*%
%TO.N,Freq_2_C*%
X158900000Y-46060000D03*
%TO.P,J15,6,Pin_6*%
%TO.N,Env1_R_C*%
X158900000Y-48600000D03*
%TO.P,J15,7,Pin_7*%
%TO.N,Env2_R_C*%
X158900000Y-51140000D03*
%TO.P,J15,8,Pin_8*%
%TO.N,Env2_AR_C*%
X158900000Y-53680000D03*
%TO.P,J15,9,Pin_9*%
%TO.N,ENV1_C*%
X158900000Y-56220000D03*
%TO.P,J15,10,Pin_10*%
%TO.N,GND*%
X158900000Y-58760000D03*
%TO.P,J15,11,Pin_11*%
%TO.N,APC_Out_C*%
X158900000Y-61300000D03*
%TO.P,J15,12,Pin_12*%
%TO.N,Ext_In_C*%
X158900000Y-63840000D03*
%TD*%
D19*
%TO.N,GND*%
X155300000Y-54870000D03*
X155950000Y-52330000D03*
X150960000Y-64380000D03*
X140330000Y-53320000D03*
X157030000Y-49960000D03*
X150550000Y-85070000D03*
%TD*%
D20*
%TO.N,Net-(J10-Pad2)*%
X152080000Y-113530000D02*
X155710000Y-113530000D01*
X130780000Y-108525000D02*
X130780000Y-107530000D01*
X132960000Y-105350000D02*
X143900000Y-105350000D01*
X143900000Y-105350000D02*
X152080000Y-113530000D01*
X130780000Y-107530000D02*
X132960000Y-105350000D01*
%TO.N,INV_REF_C*%
X128524000Y-61214000D02*
X125730000Y-64008000D01*
X122350000Y-56220000D02*
X126324000Y-56220000D01*
X125730000Y-71710000D02*
X125730000Y-64008000D01*
X128524000Y-58420000D02*
X128524000Y-61214000D01*
X129700000Y-86825000D02*
X129700000Y-75680000D01*
X130800000Y-87925000D02*
X129700000Y-86825000D01*
X129700000Y-75680000D02*
X125730000Y-71710000D01*
X126324000Y-56220000D02*
X128524000Y-58420000D01*
D21*
%TO.N,10V_REF_C*%
X128300000Y-87925000D02*
X128300000Y-85380000D01*
X123022000Y-61300000D02*
X122350000Y-61300000D01*
X125230000Y-63508000D02*
X123022000Y-61300000D01*
X129200000Y-75887106D02*
X125230000Y-71917107D01*
X129200000Y-84480000D02*
X129200000Y-75887106D01*
X128300000Y-85380000D02*
X129200000Y-84480000D01*
X125230000Y-71917107D02*
X125230000Y-63508000D01*
%TD*%
%TA.AperFunction,Conductor*%
%TO.N,GND*%
G36*
X157579360Y-34619005D02*
G01*
X157625077Y-34668996D01*
X157637699Y-34735553D01*
X157613460Y-34798811D01*
X157606647Y-34807911D01*
X157556402Y-34942624D01*
X157550000Y-35002176D01*
X157550000Y-35650000D01*
X159026000Y-35650000D01*
X159088000Y-35666613D01*
X159133387Y-35712000D01*
X159150000Y-35774000D01*
X159150000Y-38566000D01*
X159133387Y-38628000D01*
X159088000Y-38673387D01*
X159026000Y-38690000D01*
X157553991Y-38690000D01*
X157538283Y-38701893D01*
X157472974Y-38709217D01*
X157413094Y-38682136D01*
X157375464Y-38628258D01*
X157279492Y-38358219D01*
X157279491Y-38358216D01*
X157146030Y-38100648D01*
X157146028Y-38100644D01*
X156978743Y-37863656D01*
X156978741Y-37863653D01*
X156978739Y-37863651D01*
X156780736Y-37651641D01*
X156555708Y-37468567D01*
X156307848Y-37317840D01*
X156041772Y-37202267D01*
X155902104Y-37163134D01*
X155762435Y-37124000D01*
X155475046Y-37084500D01*
X155184954Y-37084500D01*
X154897564Y-37124000D01*
X154674358Y-37186540D01*
X154618228Y-37202267D01*
X154618226Y-37202267D01*
X154618225Y-37202268D01*
X154352151Y-37317840D01*
X154104293Y-37468566D01*
X153879267Y-37651638D01*
X153879264Y-37651640D01*
X153879264Y-37651641D01*
X153805012Y-37731144D01*
X153681256Y-37863656D01*
X153513971Y-38100644D01*
X153380507Y-38358219D01*
X153283362Y-38631560D01*
X153224342Y-38915579D01*
X153204544Y-39204999D01*
X153224342Y-39494420D01*
X153283362Y-39778439D01*
X153380507Y-40051780D01*
X153513971Y-40309355D01*
X153681256Y-40546343D01*
X153681259Y-40546346D01*
X153681261Y-40546349D01*
X153879264Y-40758359D01*
X154104292Y-40941433D01*
X154352152Y-41092160D01*
X154618228Y-41207733D01*
X154897563Y-41285999D01*
X155184954Y-41325500D01*
X155475046Y-41325500D01*
X155762437Y-41285999D01*
X156041772Y-41207733D01*
X156307848Y-41092160D01*
X156555708Y-40941433D01*
X156780736Y-40758359D01*
X156978739Y-40546349D01*
X157131910Y-40329355D01*
X157146028Y-40309355D01*
X157146030Y-40309352D01*
X157279491Y-40051784D01*
X157376637Y-39778441D01*
X157435658Y-39494416D01*
X157455455Y-39205000D01*
X157447334Y-39086292D01*
X157461428Y-39019865D01*
X157508395Y-38970821D01*
X157574151Y-38953869D01*
X157638975Y-38974092D01*
X157683428Y-39025425D01*
X157726399Y-39117576D01*
X157861893Y-39311081D01*
X158028918Y-39478106D01*
X158214595Y-39608119D01*
X158253460Y-39652437D01*
X158267471Y-39709694D01*
X158253460Y-39766951D01*
X158214595Y-39811269D01*
X158028595Y-39941508D01*
X157861505Y-40108598D01*
X157725965Y-40302170D01*
X157626097Y-40516336D01*
X157564936Y-40744592D01*
X157544340Y-40980000D01*
X157564936Y-41215407D01*
X157600500Y-41348133D01*
X157626097Y-41443663D01*
X157725965Y-41657830D01*
X157861505Y-41851401D01*
X158028599Y-42018495D01*
X158214597Y-42148732D01*
X158253460Y-42193048D01*
X158267471Y-42250305D01*
X158253461Y-42307561D01*
X158214595Y-42351880D01*
X158028919Y-42481892D01*
X157861890Y-42648921D01*
X157726400Y-42842421D01*
X157626569Y-43056507D01*
X157569364Y-43269999D01*
X157569364Y-43270000D01*
X159026000Y-43270000D01*
X159088000Y-43286613D01*
X159133387Y-43332000D01*
X159150000Y-43394000D01*
X159150000Y-43646000D01*
X159133387Y-43708000D01*
X159088000Y-43753387D01*
X159026000Y-43770000D01*
X157569364Y-43770000D01*
X157626569Y-43983492D01*
X157726399Y-44197576D01*
X157861893Y-44391081D01*
X158028918Y-44558106D01*
X158214595Y-44688119D01*
X158253460Y-44732437D01*
X158267471Y-44789694D01*
X158253460Y-44846951D01*
X158214595Y-44891269D01*
X158028595Y-45021508D01*
X157861505Y-45188598D01*
X157725965Y-45382170D01*
X157626097Y-45596336D01*
X157564936Y-45824592D01*
X157544340Y-46060000D01*
X157564936Y-46295407D01*
X157600500Y-46428133D01*
X157626097Y-46523663D01*
X157725965Y-46737830D01*
X157861505Y-46931401D01*
X158028599Y-47098495D01*
X158214160Y-47228426D01*
X158253024Y-47272743D01*
X158267035Y-47330000D01*
X158253024Y-47387257D01*
X158214160Y-47431574D01*
X158071887Y-47531195D01*
X158028595Y-47561508D01*
X157861505Y-47728598D01*
X157725965Y-47922170D01*
X157626097Y-48136336D01*
X157564936Y-48364592D01*
X157544340Y-48599999D01*
X157564936Y-48835407D01*
X157600500Y-48968133D01*
X157626097Y-49063663D01*
X157725965Y-49277830D01*
X157861505Y-49471401D01*
X158028599Y-49638495D01*
X158214160Y-49768426D01*
X158253024Y-49812743D01*
X158267035Y-49870000D01*
X158253024Y-49927257D01*
X158214159Y-49971575D01*
X158028595Y-50101508D01*
X157861505Y-50268598D01*
X157725965Y-50462170D01*
X157626097Y-50676336D01*
X157564936Y-50904592D01*
X157544340Y-51140000D01*
X157564936Y-51375407D01*
X157600500Y-51508133D01*
X157626097Y-51603663D01*
X157725965Y-51817830D01*
X157861505Y-52011401D01*
X158028599Y-52178495D01*
X158214160Y-52308426D01*
X158253024Y-52352743D01*
X158267035Y-52410000D01*
X158253024Y-52467257D01*
X158214159Y-52511575D01*
X158028595Y-52641508D01*
X157861505Y-52808598D01*
X157725965Y-53002170D01*
X157626097Y-53216336D01*
X157564936Y-53444592D01*
X157544340Y-53679999D01*
X157564936Y-53915407D01*
X157600500Y-54048133D01*
X157626097Y-54143663D01*
X157725965Y-54357830D01*
X157861505Y-54551401D01*
X158028599Y-54718495D01*
X158214160Y-54848426D01*
X158253024Y-54892743D01*
X158267035Y-54950000D01*
X158253024Y-55007257D01*
X158214159Y-55051575D01*
X158028595Y-55181508D01*
X157861505Y-55348598D01*
X157725965Y-55542170D01*
X157626097Y-55756336D01*
X157564936Y-55984592D01*
X157544340Y-56220000D01*
X157564936Y-56455407D01*
X157600500Y-56588133D01*
X157626097Y-56683663D01*
X157725965Y-56897830D01*
X157861505Y-57091401D01*
X158028599Y-57258495D01*
X158214597Y-57388732D01*
X158253460Y-57433048D01*
X158267471Y-57490305D01*
X158253461Y-57547561D01*
X158214595Y-57591880D01*
X158028919Y-57721892D01*
X157861890Y-57888921D01*
X157726400Y-58082421D01*
X157626569Y-58296507D01*
X157569364Y-58509999D01*
X157569364Y-58510000D01*
X159026000Y-58510000D01*
X159088000Y-58526613D01*
X159133387Y-58572000D01*
X159150000Y-58634000D01*
X159150000Y-58886000D01*
X159133387Y-58948000D01*
X159088000Y-58993387D01*
X159026000Y-59010000D01*
X157569364Y-59010000D01*
X157626569Y-59223492D01*
X157726399Y-59437576D01*
X157861893Y-59631081D01*
X158028918Y-59798106D01*
X158214595Y-59928119D01*
X158253460Y-59972437D01*
X158267471Y-60029694D01*
X158253460Y-60086951D01*
X158214595Y-60131269D01*
X158028595Y-60261508D01*
X157861505Y-60428598D01*
X157725965Y-60622170D01*
X157626097Y-60836336D01*
X157564936Y-61064592D01*
X157544340Y-61300000D01*
X157564936Y-61535407D01*
X157589873Y-61628473D01*
X157626097Y-61763663D01*
X157725965Y-61977830D01*
X157861505Y-62171401D01*
X158028599Y-62338495D01*
X158214160Y-62468426D01*
X158253024Y-62512743D01*
X158267035Y-62570000D01*
X158253024Y-62627257D01*
X158214158Y-62671575D01*
X158058985Y-62780229D01*
X158028595Y-62801508D01*
X157861505Y-62968598D01*
X157725965Y-63162170D01*
X157626097Y-63376336D01*
X157564936Y-63604592D01*
X157544340Y-63839999D01*
X157564936Y-64075407D01*
X157600500Y-64208133D01*
X157626097Y-64303663D01*
X157725965Y-64517830D01*
X157861505Y-64711401D01*
X158028599Y-64878495D01*
X158222170Y-65014035D01*
X158436337Y-65113903D01*
X158664592Y-65175063D01*
X158900000Y-65195659D01*
X159135408Y-65175063D01*
X159363663Y-65113903D01*
X159577830Y-65014035D01*
X159771401Y-64878495D01*
X159938495Y-64711401D01*
X159973926Y-64660799D01*
X160021142Y-64620474D01*
X160081989Y-64608094D01*
X160141210Y-64626766D01*
X160183953Y-64671808D01*
X160199500Y-64731924D01*
X160199500Y-143475500D01*
X160182887Y-143537500D01*
X160137500Y-143582887D01*
X160075500Y-143599500D01*
X157073705Y-143599500D01*
X157011003Y-143582479D01*
X156965515Y-143536089D01*
X156949729Y-143473065D01*
X156967978Y-143410710D01*
X157089184Y-143212920D01*
X157183483Y-142985262D01*
X157241007Y-142745655D01*
X157260341Y-142500000D01*
X157241007Y-142254345D01*
X157183483Y-142014738D01*
X157089184Y-141787080D01*
X156960433Y-141576977D01*
X156800399Y-141389601D01*
X156613023Y-141229567D01*
X156402920Y-141100816D01*
X156289091Y-141053666D01*
X156175261Y-141006516D01*
X155935656Y-140948993D01*
X155812827Y-140939325D01*
X155690000Y-140929659D01*
X155689999Y-140929659D01*
X155444343Y-140948993D01*
X155204738Y-141006516D01*
X154977078Y-141100817D01*
X154766978Y-141229566D01*
X154579601Y-141389601D01*
X154419566Y-141576978D01*
X154290817Y-141787078D01*
X154196516Y-142014738D01*
X154138993Y-142254343D01*
X154119659Y-142500000D01*
X154138993Y-142745656D01*
X154196516Y-142985261D01*
X154243666Y-143099091D01*
X154290816Y-143212920D01*
X154290817Y-143212921D01*
X154412022Y-143410710D01*
X154430271Y-143473065D01*
X154414485Y-143536089D01*
X154368997Y-143582479D01*
X154306295Y-143599500D01*
X147043705Y-143599500D01*
X146981003Y-143582479D01*
X146935515Y-143536089D01*
X146919729Y-143473065D01*
X146937978Y-143410710D01*
X147059184Y-143212920D01*
X147153483Y-142985262D01*
X147211007Y-142745655D01*
X147230341Y-142500000D01*
X147211007Y-142254345D01*
X147153483Y-142014738D01*
X147059184Y-141787080D01*
X146930433Y-141576977D01*
X146770399Y-141389601D01*
X146583023Y-141229567D01*
X146372920Y-141100816D01*
X146259091Y-141053666D01*
X146145261Y-141006516D01*
X145905656Y-140948993D01*
X145782827Y-140939325D01*
X145660000Y-140929659D01*
X145659999Y-140929659D01*
X145414343Y-140948993D01*
X145174738Y-141006516D01*
X144947078Y-141100817D01*
X144736978Y-141229566D01*
X144549601Y-141389601D01*
X144389566Y-141576978D01*
X144260817Y-141787078D01*
X144166516Y-142014738D01*
X144108993Y-142254343D01*
X144089659Y-142500000D01*
X144108993Y-142745656D01*
X144166516Y-142985261D01*
X144213666Y-143099091D01*
X144260816Y-143212920D01*
X144260817Y-143212921D01*
X144382022Y-143410710D01*
X144400271Y-143473065D01*
X144384485Y-143536089D01*
X144338997Y-143582479D01*
X144276295Y-143599500D01*
X137013705Y-143599500D01*
X136951003Y-143582479D01*
X136905515Y-143536089D01*
X136889729Y-143473065D01*
X136907978Y-143410710D01*
X137029184Y-143212920D01*
X137123483Y-142985262D01*
X137181007Y-142745655D01*
X137200341Y-142500000D01*
X137181007Y-142254345D01*
X137123483Y-142014738D01*
X137029184Y-141787080D01*
X136900433Y-141576977D01*
X136740399Y-141389601D01*
X136553023Y-141229567D01*
X136342920Y-141100816D01*
X136229091Y-141053666D01*
X136115261Y-141006516D01*
X135875656Y-140948993D01*
X135752827Y-140939325D01*
X135630000Y-140929659D01*
X135629999Y-140929659D01*
X135384343Y-140948993D01*
X135144738Y-141006516D01*
X134917078Y-141100817D01*
X134706978Y-141229566D01*
X134519601Y-141389601D01*
X134359566Y-141576978D01*
X134230817Y-141787078D01*
X134136516Y-142014738D01*
X134078993Y-142254343D01*
X134059659Y-142500000D01*
X134078993Y-142745656D01*
X134136516Y-142985261D01*
X134183666Y-143099091D01*
X134230816Y-143212920D01*
X134230817Y-143212921D01*
X134352022Y-143410710D01*
X134370271Y-143473065D01*
X134354485Y-143536089D01*
X134308997Y-143582479D01*
X134246295Y-143599500D01*
X126963705Y-143599500D01*
X126901003Y-143582479D01*
X126855515Y-143536089D01*
X126839729Y-143473065D01*
X126857978Y-143410710D01*
X126979184Y-143212920D01*
X127073483Y-142985262D01*
X127131007Y-142745655D01*
X127150341Y-142500000D01*
X127131007Y-142254345D01*
X127073483Y-142014738D01*
X126979184Y-141787080D01*
X126850433Y-141576977D01*
X126690399Y-141389601D01*
X126503023Y-141229567D01*
X126292920Y-141100816D01*
X126179091Y-141053666D01*
X126065261Y-141006516D01*
X125825656Y-140948993D01*
X125702827Y-140939325D01*
X125580000Y-140929659D01*
X125579999Y-140929659D01*
X125334343Y-140948993D01*
X125094738Y-141006516D01*
X124867078Y-141100817D01*
X124656978Y-141229566D01*
X124469601Y-141389601D01*
X124309566Y-141576978D01*
X124180817Y-141787078D01*
X124086516Y-142014738D01*
X124028993Y-142254343D01*
X124009659Y-142500000D01*
X124028993Y-142745656D01*
X124086516Y-142985261D01*
X124133666Y-143099091D01*
X124180816Y-143212920D01*
X124180817Y-143212921D01*
X124302022Y-143410710D01*
X124320271Y-143473065D01*
X124304485Y-143536089D01*
X124258997Y-143582479D01*
X124196295Y-143599500D01*
X121224500Y-143599500D01*
X121162500Y-143582887D01*
X121117113Y-143537500D01*
X121100500Y-143475500D01*
X121100500Y-134200000D01*
X124009659Y-134200000D01*
X124028993Y-134445656D01*
X124086516Y-134685261D01*
X124133666Y-134799090D01*
X124180816Y-134912920D01*
X124309567Y-135123023D01*
X124469601Y-135310399D01*
X124656977Y-135470433D01*
X124867080Y-135599184D01*
X125094738Y-135693483D01*
X125334345Y-135751007D01*
X125580000Y-135770341D01*
X125825655Y-135751007D01*
X126065262Y-135693483D01*
X126292920Y-135599184D01*
X126503023Y-135470433D01*
X126690399Y-135310399D01*
X126850433Y-135123023D01*
X126979184Y-134912920D01*
X127073483Y-134685262D01*
X127131007Y-134445655D01*
X127150341Y-134200000D01*
X134059659Y-134200000D01*
X134078993Y-134445656D01*
X134136516Y-134685261D01*
X134183666Y-134799090D01*
X134230816Y-134912920D01*
X134359567Y-135123023D01*
X134519601Y-135310399D01*
X134706977Y-135470433D01*
X134917080Y-135599184D01*
X135144738Y-135693483D01*
X135384345Y-135751007D01*
X135630000Y-135770341D01*
X135875655Y-135751007D01*
X136115262Y-135693483D01*
X136342920Y-135599184D01*
X136553023Y-135470433D01*
X136740399Y-135310399D01*
X136900433Y-135123023D01*
X137029184Y-134912920D01*
X137123483Y-134685262D01*
X137181007Y-134445655D01*
X137200341Y-134200000D01*
X144089659Y-134200000D01*
X144108993Y-134445656D01*
X144166516Y-134685261D01*
X144213666Y-134799090D01*
X144260816Y-134912920D01*
X144389567Y-135123023D01*
X144549601Y-135310399D01*
X144736977Y-135470433D01*
X144947080Y-135599184D01*
X145174738Y-135693483D01*
X145414345Y-135751007D01*
X145660000Y-135770341D01*
X145905655Y-135751007D01*
X146145262Y-135693483D01*
X146372920Y-135599184D01*
X146583023Y-135470433D01*
X146770399Y-135310399D01*
X146930433Y-135123023D01*
X147059184Y-134912920D01*
X147153483Y-134685262D01*
X147211007Y-134445655D01*
X147230341Y-134200000D01*
X154119659Y-134200000D01*
X154138993Y-134445656D01*
X154196516Y-134685261D01*
X154243666Y-134799090D01*
X154290816Y-134912920D01*
X154419567Y-135123023D01*
X154579601Y-135310399D01*
X154766977Y-135470433D01*
X154977080Y-135599184D01*
X155204738Y-135693483D01*
X155444345Y-135751007D01*
X155690000Y-135770341D01*
X155935655Y-135751007D01*
X156175262Y-135693483D01*
X156402920Y-135599184D01*
X156613023Y-135470433D01*
X156800399Y-135310399D01*
X156960433Y-135123023D01*
X157089184Y-134912920D01*
X157183483Y-134685262D01*
X157241007Y-134445655D01*
X157260341Y-134200000D01*
X157241007Y-133954345D01*
X157183483Y-133714738D01*
X157089184Y-133487080D01*
X156960433Y-133276977D01*
X156800399Y-133089601D01*
X156613023Y-132929567D01*
X156402920Y-132800816D01*
X156288835Y-132753560D01*
X156235971Y-132711885D01*
X156212671Y-132648729D01*
X156225804Y-132582705D01*
X156271499Y-132533273D01*
X156336289Y-132515000D01*
X156702824Y-132515000D01*
X156762375Y-132508597D01*
X156897089Y-132458352D01*
X157012188Y-132372188D01*
X157098352Y-132257089D01*
X157148597Y-132122375D01*
X157155000Y-132062824D01*
X157155000Y-131350000D01*
X154225000Y-131350000D01*
X154225000Y-132062824D01*
X154231402Y-132122375D01*
X154281647Y-132257089D01*
X154367811Y-132372188D01*
X154482910Y-132458352D01*
X154617624Y-132508597D01*
X154677176Y-132515000D01*
X155043711Y-132515000D01*
X155108501Y-132533273D01*
X155154196Y-132582705D01*
X155167329Y-132648729D01*
X155144029Y-132711885D01*
X155091164Y-132753561D01*
X154977078Y-132800817D01*
X154766978Y-132929566D01*
X154579601Y-133089601D01*
X154419566Y-133276978D01*
X154290817Y-133487078D01*
X154196516Y-133714738D01*
X154138993Y-133954343D01*
X154119659Y-134200000D01*
X147230341Y-134200000D01*
X147211007Y-133954345D01*
X147153483Y-133714738D01*
X147059184Y-133487080D01*
X146930433Y-133276977D01*
X146770399Y-133089601D01*
X146583023Y-132929567D01*
X146372920Y-132800816D01*
X146258835Y-132753560D01*
X146205971Y-132711885D01*
X146182671Y-132648729D01*
X146195804Y-132582705D01*
X146241499Y-132533273D01*
X146306289Y-132515000D01*
X146672824Y-132515000D01*
X146732375Y-132508597D01*
X146867089Y-132458352D01*
X146982188Y-132372188D01*
X147068352Y-132257089D01*
X147118597Y-132122375D01*
X147125000Y-132062824D01*
X147125000Y-131350000D01*
X144195000Y-131350000D01*
X144195000Y-132062824D01*
X144201402Y-132122375D01*
X144251647Y-132257089D01*
X144337811Y-132372188D01*
X144452910Y-132458352D01*
X144587624Y-132508597D01*
X144647176Y-132515000D01*
X145013711Y-132515000D01*
X145078501Y-132533273D01*
X145124196Y-132582705D01*
X145137329Y-132648729D01*
X145114029Y-132711885D01*
X145061164Y-132753561D01*
X144947078Y-132800817D01*
X144736978Y-132929566D01*
X144549601Y-133089601D01*
X144389566Y-133276978D01*
X144260817Y-133487078D01*
X144166516Y-133714738D01*
X144108993Y-133954343D01*
X144089659Y-134200000D01*
X137200341Y-134200000D01*
X137181007Y-133954345D01*
X137123483Y-133714738D01*
X137029184Y-133487080D01*
X136900433Y-133276977D01*
X136740399Y-133089601D01*
X136553023Y-132929567D01*
X136342920Y-132800816D01*
X136228835Y-132753560D01*
X136175971Y-132711885D01*
X136152671Y-132648729D01*
X136165804Y-132582705D01*
X136211499Y-132533273D01*
X136276289Y-132515000D01*
X136642824Y-132515000D01*
X136702375Y-132508597D01*
X136837089Y-132458352D01*
X136952188Y-132372188D01*
X137038352Y-132257089D01*
X137088597Y-132122375D01*
X137095000Y-132062824D01*
X137095000Y-131350000D01*
X134165000Y-131350000D01*
X134165000Y-132062824D01*
X134171402Y-132122375D01*
X134221647Y-132257089D01*
X134307811Y-132372188D01*
X134422910Y-132458352D01*
X134557624Y-132508597D01*
X134617176Y-132515000D01*
X134983711Y-132515000D01*
X135048501Y-132533273D01*
X135094196Y-132582705D01*
X135107329Y-132648729D01*
X135084029Y-132711885D01*
X135031164Y-132753561D01*
X134917078Y-132800817D01*
X134706978Y-132929566D01*
X134519601Y-133089601D01*
X134359566Y-133276978D01*
X134230817Y-133487078D01*
X134136516Y-133714738D01*
X134078993Y-133954343D01*
X134059659Y-134200000D01*
X127150341Y-134200000D01*
X127131007Y-133954345D01*
X127073483Y-133714738D01*
X126979184Y-133487080D01*
X126850433Y-133276977D01*
X126690399Y-133089601D01*
X126503023Y-132929567D01*
X126292920Y-132800816D01*
X126178835Y-132753560D01*
X126125971Y-132711885D01*
X126102671Y-132648729D01*
X126115804Y-132582705D01*
X126161499Y-132533273D01*
X126226289Y-132515000D01*
X126592824Y-132515000D01*
X126652375Y-132508597D01*
X126787089Y-132458352D01*
X126902188Y-132372188D01*
X126988352Y-132257089D01*
X127038597Y-132122375D01*
X127045000Y-132062824D01*
X127045000Y-131350000D01*
X124115000Y-131350000D01*
X124115000Y-132062824D01*
X124121402Y-132122375D01*
X124171647Y-132257089D01*
X124257811Y-132372188D01*
X124372910Y-132458352D01*
X124507624Y-132508597D01*
X124567176Y-132515000D01*
X124933711Y-132515000D01*
X124998501Y-132533273D01*
X125044196Y-132582705D01*
X125057329Y-132648729D01*
X125034029Y-132711885D01*
X124981164Y-132753561D01*
X124867078Y-132800817D01*
X124656978Y-132929566D01*
X124469601Y-133089601D01*
X124309566Y-133276978D01*
X124180817Y-133487078D01*
X124086516Y-133714738D01*
X124028993Y-133954343D01*
X124009659Y-134200000D01*
X121100500Y-134200000D01*
X121100500Y-128010000D01*
X124029659Y-128010000D01*
X124048993Y-128255656D01*
X124106516Y-128495261D01*
X124153666Y-128609091D01*
X124200816Y-128722920D01*
X124329567Y-128933023D01*
X124489601Y-129120399D01*
X124676977Y-129280433D01*
X124887080Y-129409184D01*
X124977022Y-129446439D01*
X125029887Y-129488115D01*
X125053187Y-129551271D01*
X125040054Y-129617295D01*
X124994359Y-129666727D01*
X124929569Y-129685000D01*
X124567176Y-129685000D01*
X124507624Y-129691402D01*
X124372910Y-129741647D01*
X124257811Y-129827811D01*
X124171647Y-129942910D01*
X124121402Y-130077624D01*
X124115000Y-130137176D01*
X124115000Y-130850000D01*
X127045000Y-130850000D01*
X127045000Y-130137176D01*
X127038597Y-130077624D01*
X126988352Y-129942910D01*
X126902188Y-129827811D01*
X126787089Y-129741647D01*
X126652375Y-129691402D01*
X126592824Y-129685000D01*
X126270431Y-129685000D01*
X126205641Y-129666727D01*
X126159946Y-129617295D01*
X126146813Y-129551271D01*
X126170113Y-129488115D01*
X126222978Y-129446439D01*
X126312920Y-129409184D01*
X126523023Y-129280433D01*
X126710399Y-129120399D01*
X126870433Y-128933023D01*
X126999184Y-128722920D01*
X127093483Y-128495262D01*
X127151007Y-128255655D01*
X127170341Y-128010000D01*
X134059659Y-128010000D01*
X134078993Y-128255656D01*
X134136516Y-128495261D01*
X134183666Y-128609091D01*
X134230816Y-128722920D01*
X134359567Y-128933023D01*
X134519601Y-129120399D01*
X134706977Y-129280433D01*
X134917080Y-129409184D01*
X135007022Y-129446439D01*
X135059887Y-129488115D01*
X135083187Y-129551271D01*
X135070054Y-129617295D01*
X135024359Y-129666727D01*
X134959569Y-129685000D01*
X134617176Y-129685000D01*
X134557624Y-129691402D01*
X134422910Y-129741647D01*
X134307811Y-129827811D01*
X134221647Y-129942910D01*
X134171402Y-130077624D01*
X134165000Y-130137176D01*
X134165000Y-130850000D01*
X137095000Y-130850000D01*
X137095000Y-130137176D01*
X137088597Y-130077624D01*
X137038352Y-129942910D01*
X136952188Y-129827811D01*
X136837089Y-129741647D01*
X136702375Y-129691402D01*
X136642824Y-129685000D01*
X136300431Y-129685000D01*
X136235641Y-129666727D01*
X136189946Y-129617295D01*
X136176813Y-129551271D01*
X136200113Y-129488115D01*
X136252978Y-129446439D01*
X136342920Y-129409184D01*
X136553023Y-129280433D01*
X136740399Y-129120399D01*
X136900433Y-128933023D01*
X137029184Y-128722920D01*
X137123483Y-128495262D01*
X137181007Y-128255655D01*
X137200341Y-128010000D01*
X144089659Y-128010000D01*
X144108993Y-128255656D01*
X144166516Y-128495261D01*
X144213666Y-128609091D01*
X144260816Y-128722920D01*
X144389567Y-128933023D01*
X144549601Y-129120399D01*
X144736977Y-129280433D01*
X144947080Y-129409184D01*
X145037022Y-129446439D01*
X145089887Y-129488115D01*
X145113187Y-129551271D01*
X145100054Y-129617295D01*
X145054359Y-129666727D01*
X144989569Y-129685000D01*
X144647176Y-129685000D01*
X144587624Y-129691402D01*
X144452910Y-129741647D01*
X144337811Y-129827811D01*
X144251647Y-129942910D01*
X144201402Y-130077624D01*
X144195000Y-130137176D01*
X144195000Y-130850000D01*
X147125000Y-130850000D01*
X147125000Y-130137176D01*
X147118597Y-130077624D01*
X147068352Y-129942910D01*
X146982188Y-129827811D01*
X146867089Y-129741647D01*
X146732375Y-129691402D01*
X146672824Y-129685000D01*
X146330431Y-129685000D01*
X146265641Y-129666727D01*
X146219946Y-129617295D01*
X146206813Y-129551271D01*
X146230113Y-129488115D01*
X146282978Y-129446439D01*
X146372920Y-129409184D01*
X146583023Y-129280433D01*
X146770399Y-129120399D01*
X146930433Y-128933023D01*
X147059184Y-128722920D01*
X147153483Y-128495262D01*
X147211007Y-128255655D01*
X147230341Y-128010000D01*
X147229554Y-128000000D01*
X154149659Y-128000000D01*
X154168993Y-128245656D01*
X154226516Y-128485261D01*
X154230659Y-128495262D01*
X154320816Y-128712920D01*
X154449567Y-128923023D01*
X154609601Y-129110399D01*
X154796977Y-129270433D01*
X155007080Y-129399184D01*
X155121164Y-129446439D01*
X155174029Y-129488115D01*
X155197329Y-129551271D01*
X155184196Y-129617295D01*
X155138501Y-129666727D01*
X155073711Y-129685000D01*
X154677176Y-129685000D01*
X154617624Y-129691402D01*
X154482910Y-129741647D01*
X154367811Y-129827811D01*
X154281647Y-129942910D01*
X154231402Y-130077624D01*
X154225000Y-130137176D01*
X154225000Y-130850000D01*
X157155000Y-130850000D01*
X157155000Y-130137176D01*
X157148597Y-130077624D01*
X157098352Y-129942910D01*
X157012188Y-129827811D01*
X156897089Y-129741647D01*
X156762375Y-129691402D01*
X156702824Y-129685000D01*
X156366289Y-129685000D01*
X156301499Y-129666727D01*
X156255804Y-129617295D01*
X156242671Y-129551271D01*
X156265971Y-129488115D01*
X156318836Y-129446439D01*
X156432920Y-129399184D01*
X156643023Y-129270433D01*
X156830399Y-129110399D01*
X156990433Y-128923023D01*
X157119184Y-128712920D01*
X157213483Y-128485262D01*
X157271007Y-128245655D01*
X157290341Y-128000000D01*
X157271007Y-127754345D01*
X157213483Y-127514738D01*
X157119184Y-127287080D01*
X156990433Y-127076977D01*
X156830399Y-126889601D01*
X156643023Y-126729567D01*
X156432920Y-126600816D01*
X156319091Y-126553666D01*
X156205261Y-126506516D01*
X155965656Y-126448993D01*
X155720000Y-126429659D01*
X155474343Y-126448993D01*
X155234738Y-126506516D01*
X155007078Y-126600817D01*
X154796978Y-126729566D01*
X154609601Y-126889601D01*
X154449566Y-127076978D01*
X154320817Y-127287078D01*
X154226516Y-127514738D01*
X154168993Y-127754343D01*
X154149659Y-128000000D01*
X147229554Y-128000000D01*
X147211007Y-127764345D01*
X147153483Y-127524738D01*
X147059184Y-127297080D01*
X146930433Y-127086977D01*
X146770399Y-126899601D01*
X146583023Y-126739567D01*
X146372920Y-126610816D01*
X146259091Y-126563666D01*
X146145261Y-126516516D01*
X145905656Y-126458993D01*
X145660000Y-126439659D01*
X145414343Y-126458993D01*
X145174738Y-126516516D01*
X144947078Y-126610817D01*
X144736978Y-126739566D01*
X144549601Y-126899601D01*
X144389566Y-127086978D01*
X144260817Y-127297078D01*
X144166516Y-127524738D01*
X144108993Y-127764343D01*
X144089659Y-128010000D01*
X137200341Y-128010000D01*
X137181007Y-127764345D01*
X137123483Y-127524738D01*
X137029184Y-127297080D01*
X136900433Y-127086977D01*
X136740399Y-126899601D01*
X136553023Y-126739567D01*
X136342920Y-126610816D01*
X136229091Y-126563666D01*
X136115261Y-126516516D01*
X135875656Y-126458993D01*
X135630000Y-126439659D01*
X135384343Y-126458993D01*
X135144738Y-126516516D01*
X134917078Y-126610817D01*
X134706978Y-126739566D01*
X134519601Y-126899601D01*
X134359566Y-127086978D01*
X134230817Y-127297078D01*
X134136516Y-127524738D01*
X134078993Y-127764343D01*
X134059659Y-128010000D01*
X127170341Y-128010000D01*
X127151007Y-127764345D01*
X127093483Y-127524738D01*
X126999184Y-127297080D01*
X126870433Y-127086977D01*
X126710399Y-126899601D01*
X126523023Y-126739567D01*
X126312920Y-126610816D01*
X126199091Y-126563666D01*
X126085261Y-126516516D01*
X125845656Y-126458993D01*
X125600000Y-126439659D01*
X125354343Y-126458993D01*
X125114738Y-126516516D01*
X124887078Y-126610817D01*
X124676978Y-126739566D01*
X124489601Y-126899601D01*
X124329566Y-127086978D01*
X124200817Y-127297078D01*
X124106516Y-127524738D01*
X124048993Y-127764343D01*
X124029659Y-128010000D01*
X121100500Y-128010000D01*
X121100500Y-119709999D01*
X124029659Y-119709999D01*
X124048993Y-119955656D01*
X124106516Y-120195261D01*
X124153666Y-120309091D01*
X124200816Y-120422920D01*
X124329567Y-120633023D01*
X124489601Y-120820399D01*
X124676977Y-120980433D01*
X124887080Y-121109184D01*
X125114738Y-121203483D01*
X125354345Y-121261007D01*
X125600000Y-121280341D01*
X125845655Y-121261007D01*
X126085262Y-121203483D01*
X126312920Y-121109184D01*
X126523023Y-120980433D01*
X126710399Y-120820399D01*
X126870433Y-120633023D01*
X126999184Y-120422920D01*
X127093483Y-120195262D01*
X127151007Y-119955655D01*
X127170341Y-119710000D01*
X127170341Y-119709999D01*
X134059659Y-119709999D01*
X134078993Y-119955656D01*
X134136516Y-120195261D01*
X134183666Y-120309091D01*
X134230816Y-120422920D01*
X134359567Y-120633023D01*
X134519601Y-120820399D01*
X134706977Y-120980433D01*
X134917080Y-121109184D01*
X135144738Y-121203483D01*
X135384345Y-121261007D01*
X135630000Y-121280341D01*
X135875655Y-121261007D01*
X136115262Y-121203483D01*
X136342920Y-121109184D01*
X136553023Y-120980433D01*
X136740399Y-120820399D01*
X136900433Y-120633023D01*
X137029184Y-120422920D01*
X137123483Y-120195262D01*
X137181007Y-119955655D01*
X137200341Y-119710000D01*
X137200341Y-119709999D01*
X144089659Y-119709999D01*
X144108993Y-119955656D01*
X144166516Y-120195261D01*
X144213666Y-120309091D01*
X144260816Y-120422920D01*
X144389567Y-120633023D01*
X144549601Y-120820399D01*
X144736977Y-120980433D01*
X144947080Y-121109184D01*
X145174738Y-121203483D01*
X145414345Y-121261007D01*
X145660000Y-121280341D01*
X145905655Y-121261007D01*
X146145262Y-121203483D01*
X146372920Y-121109184D01*
X146583023Y-120980433D01*
X146770399Y-120820399D01*
X146930433Y-120633023D01*
X147059184Y-120422920D01*
X147153483Y-120195262D01*
X147211007Y-119955655D01*
X147230341Y-119710000D01*
X147229554Y-119700000D01*
X154149659Y-119700000D01*
X154168993Y-119945656D01*
X154226516Y-120185261D01*
X154230659Y-120195262D01*
X154320816Y-120412920D01*
X154449567Y-120623023D01*
X154609601Y-120810399D01*
X154796977Y-120970433D01*
X155007080Y-121099184D01*
X155234738Y-121193483D01*
X155474345Y-121251007D01*
X155720000Y-121270341D01*
X155965655Y-121251007D01*
X156205262Y-121193483D01*
X156432920Y-121099184D01*
X156643023Y-120970433D01*
X156830399Y-120810399D01*
X156990433Y-120623023D01*
X157119184Y-120412920D01*
X157213483Y-120185262D01*
X157271007Y-119945655D01*
X157290341Y-119700000D01*
X157271007Y-119454345D01*
X157213483Y-119214738D01*
X157119184Y-118987080D01*
X156990433Y-118776977D01*
X156830399Y-118589601D01*
X156643023Y-118429567D01*
X156432920Y-118300816D01*
X156318835Y-118253560D01*
X156265971Y-118211885D01*
X156242671Y-118148729D01*
X156255804Y-118082705D01*
X156301499Y-118033273D01*
X156366289Y-118015000D01*
X156732824Y-118015000D01*
X156792375Y-118008597D01*
X156927089Y-117958352D01*
X157042188Y-117872188D01*
X157128352Y-117757089D01*
X157178597Y-117622375D01*
X157185000Y-117562824D01*
X157185000Y-116850000D01*
X154255000Y-116850000D01*
X154255000Y-117562824D01*
X154261402Y-117622375D01*
X154311647Y-117757089D01*
X154397811Y-117872188D01*
X154512910Y-117958352D01*
X154647624Y-118008597D01*
X154707176Y-118015000D01*
X155073711Y-118015000D01*
X155138501Y-118033273D01*
X155184196Y-118082705D01*
X155197329Y-118148729D01*
X155174029Y-118211885D01*
X155121164Y-118253561D01*
X155007078Y-118300817D01*
X154796978Y-118429566D01*
X154609601Y-118589601D01*
X154449566Y-118776978D01*
X154320817Y-118987078D01*
X154226516Y-119214738D01*
X154168993Y-119454343D01*
X154149659Y-119700000D01*
X147229554Y-119700000D01*
X147211007Y-119464345D01*
X147153483Y-119224738D01*
X147059184Y-118997080D01*
X146930433Y-118786977D01*
X146770399Y-118599601D01*
X146583023Y-118439567D01*
X146372920Y-118310816D01*
X146258835Y-118263560D01*
X146205971Y-118221885D01*
X146182671Y-118158729D01*
X146195804Y-118092705D01*
X146241499Y-118043273D01*
X146306289Y-118025000D01*
X146672824Y-118025000D01*
X146732375Y-118018597D01*
X146867089Y-117968352D01*
X146982188Y-117882188D01*
X147068352Y-117767089D01*
X147118597Y-117632375D01*
X147125000Y-117572824D01*
X147125000Y-116860000D01*
X144195000Y-116860000D01*
X144195000Y-117572824D01*
X144201402Y-117632375D01*
X144251647Y-117767089D01*
X144337811Y-117882188D01*
X144452910Y-117968352D01*
X144587624Y-118018597D01*
X144647176Y-118025000D01*
X145013711Y-118025000D01*
X145078501Y-118043273D01*
X145124196Y-118092705D01*
X145137329Y-118158729D01*
X145114029Y-118221885D01*
X145061164Y-118263560D01*
X144971223Y-118300816D01*
X144947078Y-118310817D01*
X144736978Y-118439566D01*
X144549601Y-118599601D01*
X144389566Y-118786978D01*
X144260817Y-118997078D01*
X144166516Y-119224738D01*
X144108993Y-119464343D01*
X144089659Y-119709999D01*
X137200341Y-119709999D01*
X137181007Y-119464345D01*
X137123483Y-119224738D01*
X137029184Y-118997080D01*
X136900433Y-118786977D01*
X136740399Y-118599601D01*
X136553023Y-118439567D01*
X136342920Y-118310816D01*
X136228835Y-118263560D01*
X136175971Y-118221885D01*
X136152671Y-118158729D01*
X136165804Y-118092705D01*
X136211499Y-118043273D01*
X136276289Y-118025000D01*
X136642824Y-118025000D01*
X136702375Y-118018597D01*
X136837089Y-117968352D01*
X136952188Y-117882188D01*
X137038352Y-117767089D01*
X137088597Y-117632375D01*
X137095000Y-117572824D01*
X137095000Y-116860000D01*
X134165000Y-116860000D01*
X134165000Y-117572824D01*
X134171402Y-117632375D01*
X134221647Y-117767089D01*
X134307811Y-117882188D01*
X134422910Y-117968352D01*
X134557624Y-118018597D01*
X134617176Y-118025000D01*
X134983711Y-118025000D01*
X135048501Y-118043273D01*
X135094196Y-118092705D01*
X135107329Y-118158729D01*
X135084029Y-118221885D01*
X135031164Y-118263560D01*
X134941223Y-118300816D01*
X134917078Y-118310817D01*
X134706978Y-118439566D01*
X134519601Y-118599601D01*
X134359566Y-118786978D01*
X134230817Y-118997078D01*
X134136516Y-119224738D01*
X134078993Y-119464343D01*
X134059659Y-119709999D01*
X127170341Y-119709999D01*
X127151007Y-119464345D01*
X127093483Y-119224738D01*
X126999184Y-118997080D01*
X126870433Y-118786977D01*
X126710399Y-118599601D01*
X126523023Y-118439567D01*
X126312920Y-118310816D01*
X126198835Y-118263560D01*
X126145971Y-118221885D01*
X126122671Y-118158729D01*
X126135804Y-118092705D01*
X126181499Y-118043273D01*
X126246289Y-118025000D01*
X126612824Y-118025000D01*
X126672375Y-118018597D01*
X126807089Y-117968352D01*
X126922188Y-117882188D01*
X127008352Y-117767089D01*
X127058597Y-117632375D01*
X127065000Y-117572824D01*
X127065000Y-116860000D01*
X124135000Y-116860000D01*
X124135000Y-117572824D01*
X124141402Y-117632375D01*
X124191647Y-117767089D01*
X124277811Y-117882188D01*
X124392910Y-117968352D01*
X124527624Y-118018597D01*
X124587176Y-118025000D01*
X124953711Y-118025000D01*
X125018501Y-118043273D01*
X125064196Y-118092705D01*
X125077329Y-118158729D01*
X125054029Y-118221885D01*
X125001164Y-118263560D01*
X124911223Y-118300816D01*
X124887078Y-118310817D01*
X124676978Y-118439566D01*
X124489601Y-118599601D01*
X124329566Y-118786978D01*
X124200817Y-118997078D01*
X124106516Y-119224738D01*
X124048993Y-119464343D01*
X124029659Y-119709999D01*
X121100500Y-119709999D01*
X121100500Y-116360000D01*
X124135000Y-116360000D01*
X125350000Y-116360000D01*
X125350000Y-115195000D01*
X125850000Y-115195000D01*
X125850000Y-116360000D01*
X127065000Y-116360000D01*
X134165000Y-116360000D01*
X135380000Y-116360000D01*
X135380000Y-115195000D01*
X135880000Y-115195000D01*
X135880000Y-116360000D01*
X137095000Y-116360000D01*
X144195000Y-116360000D01*
X145410000Y-116360000D01*
X145410000Y-115195000D01*
X145910000Y-115195000D01*
X145910000Y-116360000D01*
X147125000Y-116360000D01*
X147125000Y-115647176D01*
X147118597Y-115587624D01*
X147068352Y-115452910D01*
X146982188Y-115337811D01*
X146867089Y-115251647D01*
X146732375Y-115201402D01*
X146672824Y-115195000D01*
X145910000Y-115195000D01*
X145410000Y-115195000D01*
X144647176Y-115195000D01*
X144587624Y-115201402D01*
X144452910Y-115251647D01*
X144337811Y-115337811D01*
X144251647Y-115452910D01*
X144201402Y-115587624D01*
X144195000Y-115647176D01*
X144195000Y-116360000D01*
X137095000Y-116360000D01*
X137095000Y-115647176D01*
X137088597Y-115587624D01*
X137038352Y-115452910D01*
X136952188Y-115337811D01*
X136837089Y-115251647D01*
X136702375Y-115201402D01*
X136642824Y-115195000D01*
X135880000Y-115195000D01*
X135380000Y-115195000D01*
X134617176Y-115195000D01*
X134557624Y-115201402D01*
X134422910Y-115251647D01*
X134307811Y-115337811D01*
X134221647Y-115452910D01*
X134171402Y-115587624D01*
X134165000Y-115647176D01*
X134165000Y-116360000D01*
X127065000Y-116360000D01*
X127065000Y-115647176D01*
X127058597Y-115587624D01*
X127008352Y-115452910D01*
X126922188Y-115337811D01*
X126807089Y-115251647D01*
X126672375Y-115201402D01*
X126612824Y-115195000D01*
X125850000Y-115195000D01*
X125350000Y-115195000D01*
X124587176Y-115195000D01*
X124527624Y-115201402D01*
X124392910Y-115251647D01*
X124277811Y-115337811D01*
X124191647Y-115452910D01*
X124141402Y-115587624D01*
X124135000Y-115647176D01*
X124135000Y-116360000D01*
X121100500Y-116360000D01*
X121100500Y-114813973D01*
X121119005Y-114748806D01*
X121168996Y-114703089D01*
X121235553Y-114690467D01*
X121298808Y-114714705D01*
X121337669Y-114743796D01*
X121472517Y-114794091D01*
X121532127Y-114800500D01*
X123327872Y-114800499D01*
X123387483Y-114794091D01*
X123522331Y-114743796D01*
X123637546Y-114657546D01*
X123723796Y-114542331D01*
X123772810Y-114410916D01*
X123807789Y-114360537D01*
X123862634Y-114333084D01*
X123923927Y-114335273D01*
X123976673Y-114366569D01*
X124098599Y-114488495D01*
X124292170Y-114624035D01*
X124506337Y-114723903D01*
X124734592Y-114785063D01*
X124970000Y-114805659D01*
X125205408Y-114785063D01*
X125433663Y-114723903D01*
X125647830Y-114624035D01*
X125841401Y-114488495D01*
X126008495Y-114321401D01*
X126138426Y-114135839D01*
X126182743Y-114096975D01*
X126240000Y-114082964D01*
X126297257Y-114096975D01*
X126341573Y-114135839D01*
X126471505Y-114321401D01*
X126638599Y-114488495D01*
X126832170Y-114624035D01*
X127046337Y-114723903D01*
X127274592Y-114785063D01*
X127510000Y-114805659D01*
X127745408Y-114785063D01*
X127973663Y-114723903D01*
X128187830Y-114624035D01*
X128381401Y-114488495D01*
X128548495Y-114321401D01*
X128678732Y-114135402D01*
X128723048Y-114096539D01*
X128780305Y-114082528D01*
X128837562Y-114096539D01*
X128881880Y-114135404D01*
X129011893Y-114321081D01*
X129178918Y-114488106D01*
X129372423Y-114623600D01*
X129586507Y-114723430D01*
X129799999Y-114780635D01*
X129800000Y-114780636D01*
X129800000Y-114780635D01*
X130300000Y-114780635D01*
X130513492Y-114723430D01*
X130727576Y-114623600D01*
X130921081Y-114488106D01*
X131088109Y-114321078D01*
X131218119Y-114135405D01*
X131262437Y-114096539D01*
X131319694Y-114082528D01*
X131376951Y-114096539D01*
X131421267Y-114135402D01*
X131551505Y-114321401D01*
X131718599Y-114488495D01*
X131912170Y-114624035D01*
X132126337Y-114723903D01*
X132354592Y-114785063D01*
X132590000Y-114805659D01*
X132825408Y-114785063D01*
X133053663Y-114723903D01*
X133267830Y-114624035D01*
X133461401Y-114488495D01*
X133628495Y-114321401D01*
X133758732Y-114135402D01*
X133803048Y-114096539D01*
X133860305Y-114082528D01*
X133917562Y-114096539D01*
X133961880Y-114135404D01*
X134091893Y-114321081D01*
X134258918Y-114488106D01*
X134452423Y-114623600D01*
X134666507Y-114723430D01*
X134879999Y-114780635D01*
X134880000Y-114780636D01*
X134880000Y-114780635D01*
X135380000Y-114780635D01*
X135593492Y-114723430D01*
X135807576Y-114623600D01*
X136001081Y-114488106D01*
X136168109Y-114321078D01*
X136298119Y-114135405D01*
X136342437Y-114096539D01*
X136399694Y-114082528D01*
X136456951Y-114096539D01*
X136501267Y-114135402D01*
X136631505Y-114321401D01*
X136798599Y-114488495D01*
X136992170Y-114624035D01*
X137206337Y-114723903D01*
X137434592Y-114785063D01*
X137670000Y-114805659D01*
X137905408Y-114785063D01*
X138133663Y-114723903D01*
X138347830Y-114624035D01*
X138541401Y-114488495D01*
X138708495Y-114321401D01*
X138838426Y-114135839D01*
X138882743Y-114096975D01*
X138940000Y-114082964D01*
X138997257Y-114096975D01*
X139041573Y-114135839D01*
X139171505Y-114321401D01*
X139338599Y-114488495D01*
X139532170Y-114624035D01*
X139746337Y-114723903D01*
X139974592Y-114785063D01*
X140210000Y-114805659D01*
X140445408Y-114785063D01*
X140673663Y-114723903D01*
X140887830Y-114624035D01*
X141081401Y-114488495D01*
X141248495Y-114321401D01*
X141378426Y-114135839D01*
X141422743Y-114096975D01*
X141480000Y-114082964D01*
X141537257Y-114096975D01*
X141581573Y-114135839D01*
X141711505Y-114321401D01*
X141878599Y-114488495D01*
X142072170Y-114624035D01*
X142286337Y-114723903D01*
X142514592Y-114785063D01*
X142750000Y-114805659D01*
X142985408Y-114785063D01*
X143213663Y-114723903D01*
X143427830Y-114624035D01*
X143621401Y-114488495D01*
X143788495Y-114321401D01*
X143918426Y-114135839D01*
X143962743Y-114096975D01*
X144020000Y-114082964D01*
X144077257Y-114096975D01*
X144121573Y-114135839D01*
X144251505Y-114321401D01*
X144418599Y-114488495D01*
X144612170Y-114624035D01*
X144826337Y-114723903D01*
X145054592Y-114785063D01*
X145290000Y-114805659D01*
X145525408Y-114785063D01*
X145753663Y-114723903D01*
X145967830Y-114624035D01*
X146161401Y-114488495D01*
X146328495Y-114321401D01*
X146464035Y-114127830D01*
X146563903Y-113913663D01*
X146625063Y-113685408D01*
X146645659Y-113450000D01*
X146625063Y-113214592D01*
X146563903Y-112986337D01*
X146464035Y-112772171D01*
X146328495Y-112578599D01*
X146161401Y-112411505D01*
X145967830Y-112275965D01*
X145753663Y-112176097D01*
X145692502Y-112159709D01*
X145525407Y-112114936D01*
X145290000Y-112094340D01*
X145054592Y-112114936D01*
X144826336Y-112176097D01*
X144612170Y-112275965D01*
X144418598Y-112411505D01*
X144251505Y-112578598D01*
X144121575Y-112764159D01*
X144077257Y-112803025D01*
X144020000Y-112817036D01*
X143962743Y-112803025D01*
X143918425Y-112764159D01*
X143788494Y-112578598D01*
X143621404Y-112411508D01*
X143621404Y-112411507D01*
X143621401Y-112411505D01*
X143427830Y-112275965D01*
X143213663Y-112176097D01*
X143152502Y-112159709D01*
X142985407Y-112114936D01*
X142750000Y-112094340D01*
X142514592Y-112114936D01*
X142286336Y-112176097D01*
X142072170Y-112275965D01*
X141878598Y-112411505D01*
X141711505Y-112578598D01*
X141581575Y-112764159D01*
X141537257Y-112803025D01*
X141480000Y-112817036D01*
X141422743Y-112803025D01*
X141378425Y-112764159D01*
X141248494Y-112578598D01*
X141081404Y-112411508D01*
X141081404Y-112411507D01*
X141081401Y-112411505D01*
X140887830Y-112275965D01*
X140673663Y-112176097D01*
X140612502Y-112159709D01*
X140445407Y-112114936D01*
X140210000Y-112094340D01*
X139974592Y-112114936D01*
X139746336Y-112176097D01*
X139532170Y-112275965D01*
X139338598Y-112411505D01*
X139171505Y-112578598D01*
X139041575Y-112764159D01*
X138997257Y-112803025D01*
X138940000Y-112817036D01*
X138882743Y-112803025D01*
X138838425Y-112764159D01*
X138708494Y-112578598D01*
X138541404Y-112411508D01*
X138541404Y-112411507D01*
X138541401Y-112411505D01*
X138347830Y-112275965D01*
X138133663Y-112176097D01*
X138072502Y-112159709D01*
X137905407Y-112114936D01*
X137670000Y-112094340D01*
X137434592Y-112114936D01*
X137206336Y-112176097D01*
X136992170Y-112275965D01*
X136798598Y-112411505D01*
X136631508Y-112578595D01*
X136501269Y-112764596D01*
X136456951Y-112803461D01*
X136399694Y-112817472D01*
X136342437Y-112803461D01*
X136298119Y-112764595D01*
X136168109Y-112578921D01*
X136001081Y-112411893D01*
X135807576Y-112276399D01*
X135593492Y-112176569D01*
X135380000Y-112119364D01*
X135380000Y-114780635D01*
X134880000Y-114780635D01*
X134880000Y-112119364D01*
X134879999Y-112119364D01*
X134666507Y-112176569D01*
X134452421Y-112276400D01*
X134258921Y-112411890D01*
X134091893Y-112578918D01*
X133961880Y-112764596D01*
X133917562Y-112803461D01*
X133860305Y-112817472D01*
X133803048Y-112803461D01*
X133758730Y-112764595D01*
X133628494Y-112578598D01*
X133461404Y-112411508D01*
X133461403Y-112411507D01*
X133461401Y-112411505D01*
X133267830Y-112275965D01*
X133053663Y-112176097D01*
X132992502Y-112159709D01*
X132825407Y-112114936D01*
X132590000Y-112094340D01*
X132354592Y-112114936D01*
X132126336Y-112176097D01*
X131912170Y-112275965D01*
X131718598Y-112411505D01*
X131551508Y-112578595D01*
X131421269Y-112764596D01*
X131376951Y-112803461D01*
X131319694Y-112817472D01*
X131262437Y-112803461D01*
X131218119Y-112764595D01*
X131088109Y-112578921D01*
X130921081Y-112411893D01*
X130727576Y-112276399D01*
X130513492Y-112176569D01*
X130300000Y-112119364D01*
X130300000Y-114780635D01*
X129800000Y-114780635D01*
X129800000Y-112119364D01*
X129799999Y-112119364D01*
X129586507Y-112176569D01*
X129372421Y-112276400D01*
X129178921Y-112411890D01*
X129011893Y-112578918D01*
X128881880Y-112764596D01*
X128837562Y-112803461D01*
X128780305Y-112817472D01*
X128723048Y-112803461D01*
X128678730Y-112764595D01*
X128548494Y-112578598D01*
X128381404Y-112411508D01*
X128381403Y-112411507D01*
X128381401Y-112411505D01*
X128187830Y-112275965D01*
X127973663Y-112176097D01*
X127912502Y-112159709D01*
X127745407Y-112114936D01*
X127510000Y-112094340D01*
X127274592Y-112114936D01*
X127046336Y-112176097D01*
X126832170Y-112275965D01*
X126638598Y-112411505D01*
X126471505Y-112578598D01*
X126341575Y-112764159D01*
X126297257Y-112803025D01*
X126240000Y-112817036D01*
X126182743Y-112803025D01*
X126138425Y-112764159D01*
X126008494Y-112578598D01*
X125841404Y-112411508D01*
X125841403Y-112411507D01*
X125841401Y-112411505D01*
X125647830Y-112275965D01*
X125433663Y-112176097D01*
X125372502Y-112159709D01*
X125205407Y-112114936D01*
X124970000Y-112094340D01*
X124734592Y-112114936D01*
X124506336Y-112176097D01*
X124292170Y-112275965D01*
X124098601Y-112411503D01*
X123976673Y-112533431D01*
X123923926Y-112564726D01*
X123862634Y-112566915D01*
X123807789Y-112539462D01*
X123772810Y-112489082D01*
X123744019Y-112411890D01*
X123723796Y-112357669D01*
X123637546Y-112242454D01*
X123522331Y-112156204D01*
X123387483Y-112105909D01*
X123327873Y-112099500D01*
X123327869Y-112099500D01*
X121532130Y-112099500D01*
X121472515Y-112105909D01*
X121337670Y-112156203D01*
X121337668Y-112156204D01*
X121337669Y-112156204D01*
X121298808Y-112185294D01*
X121235553Y-112209533D01*
X121168996Y-112196911D01*
X121119005Y-112151194D01*
X121100500Y-112086027D01*
X121100500Y-109472869D01*
X126879500Y-109472869D01*
X126885909Y-109532483D01*
X126936204Y-109667331D01*
X127022454Y-109782546D01*
X127137669Y-109868796D01*
X127272517Y-109919091D01*
X127332127Y-109925500D01*
X129227872Y-109925499D01*
X129287483Y-109919091D01*
X129422331Y-109868796D01*
X129537546Y-109782546D01*
X129623796Y-109667331D01*
X129642093Y-109618272D01*
X129674205Y-109570458D01*
X129724458Y-109542308D01*
X129782007Y-109539900D01*
X129834435Y-109563753D01*
X130011374Y-109701470D01*
X130215497Y-109811936D01*
X130325257Y-109849616D01*
X130435015Y-109887297D01*
X130435017Y-109887297D01*
X130435019Y-109887298D01*
X130663951Y-109925500D01*
X130896048Y-109925500D01*
X130896049Y-109925500D01*
X131124981Y-109887298D01*
X131344503Y-109811936D01*
X131548626Y-109701470D01*
X131731784Y-109558913D01*
X131888979Y-109388153D01*
X131926193Y-109331191D01*
X131970980Y-109289962D01*
X132029998Y-109275016D01*
X132089016Y-109289961D01*
X132133807Y-109331194D01*
X132171018Y-109388149D01*
X132171021Y-109388153D01*
X132328216Y-109558913D01*
X132511374Y-109701470D01*
X132715497Y-109811936D01*
X132825257Y-109849616D01*
X132935015Y-109887297D01*
X132935017Y-109887297D01*
X132935019Y-109887298D01*
X133163951Y-109925500D01*
X133396048Y-109925500D01*
X133396049Y-109925500D01*
X133624981Y-109887298D01*
X133844503Y-109811936D01*
X134048626Y-109701470D01*
X134231784Y-109558913D01*
X134388979Y-109388153D01*
X134515924Y-109193849D01*
X134609157Y-108981300D01*
X134666134Y-108756305D01*
X134685300Y-108525000D01*
X134666134Y-108293695D01*
X134609157Y-108068700D01*
X134515924Y-107856151D01*
X134388979Y-107661847D01*
X134231784Y-107491087D01*
X134048626Y-107348530D01*
X133844503Y-107238064D01*
X133844499Y-107238062D01*
X133844498Y-107238062D01*
X133624984Y-107162702D01*
X133414458Y-107127572D01*
X133396049Y-107124500D01*
X133163951Y-107124500D01*
X133145542Y-107127572D01*
X132935015Y-107162702D01*
X132715501Y-107238062D01*
X132511372Y-107348531D01*
X132328215Y-107491087D01*
X132249010Y-107577128D01*
X132171021Y-107661847D01*
X132171021Y-107661848D01*
X132133809Y-107718805D01*
X132089017Y-107760038D01*
X132030000Y-107774983D01*
X131970983Y-107760038D01*
X131926191Y-107718805D01*
X131888979Y-107661847D01*
X131798807Y-107563894D01*
X131769424Y-107508693D01*
X131770717Y-107446171D01*
X131802355Y-107392233D01*
X133182770Y-106011819D01*
X133222999Y-105984939D01*
X133270452Y-105975500D01*
X143589548Y-105975500D01*
X143637001Y-105984939D01*
X143677229Y-106011819D01*
X151579196Y-113913787D01*
X151592096Y-113929888D01*
X151643223Y-113977900D01*
X151646019Y-113980610D01*
X151665529Y-114000120D01*
X151668711Y-114002588D01*
X151677571Y-114010155D01*
X151709418Y-114040062D01*
X151726972Y-114049712D01*
X151743236Y-114060396D01*
X151754972Y-114069499D01*
X151759064Y-114072673D01*
X151781838Y-114082528D01*
X151799152Y-114090021D01*
X151809631Y-114095154D01*
X151847908Y-114116197D01*
X151867306Y-114121177D01*
X151885708Y-114127477D01*
X151904104Y-114135438D01*
X151947261Y-114142273D01*
X151958664Y-114144634D01*
X152000981Y-114155500D01*
X152021016Y-114155500D01*
X152040413Y-114157026D01*
X152060196Y-114160160D01*
X152103674Y-114156050D01*
X152115344Y-114155500D01*
X154191752Y-114155500D01*
X154239205Y-114164939D01*
X154279434Y-114191819D01*
X154306311Y-114232045D01*
X154310816Y-114242920D01*
X154439567Y-114453023D01*
X154599601Y-114640399D01*
X154786977Y-114800433D01*
X154997080Y-114929184D01*
X155038738Y-114946439D01*
X155091603Y-114988115D01*
X155114903Y-115051271D01*
X155101770Y-115117295D01*
X155056075Y-115166727D01*
X154991285Y-115185000D01*
X154707176Y-115185000D01*
X154647624Y-115191402D01*
X154512910Y-115241647D01*
X154397811Y-115327811D01*
X154311647Y-115442910D01*
X154261402Y-115577624D01*
X154255000Y-115637176D01*
X154255000Y-116350000D01*
X157185000Y-116350000D01*
X157185000Y-115637176D01*
X157178597Y-115577624D01*
X157128352Y-115442910D01*
X157042188Y-115327811D01*
X156927089Y-115241647D01*
X156792375Y-115191402D01*
X156732824Y-115185000D01*
X156428715Y-115185000D01*
X156363925Y-115166727D01*
X156318230Y-115117295D01*
X156305097Y-115051271D01*
X156328397Y-114988115D01*
X156381261Y-114946439D01*
X156422920Y-114929184D01*
X156633023Y-114800433D01*
X156820399Y-114640399D01*
X156980433Y-114453023D01*
X157109184Y-114242920D01*
X157203483Y-114015262D01*
X157261007Y-113775655D01*
X157280341Y-113530000D01*
X157261007Y-113284345D01*
X157203483Y-113044738D01*
X157109184Y-112817080D01*
X156980433Y-112606977D01*
X156820399Y-112419601D01*
X156633023Y-112259567D01*
X156422920Y-112130816D01*
X156309091Y-112083666D01*
X156195261Y-112036516D01*
X155955656Y-111978993D01*
X155710000Y-111959659D01*
X155464343Y-111978993D01*
X155224738Y-112036516D01*
X154997078Y-112130817D01*
X154786978Y-112259566D01*
X154599601Y-112419601D01*
X154439566Y-112606978D01*
X154319162Y-112803461D01*
X154310816Y-112817080D01*
X154306311Y-112827954D01*
X154279434Y-112868181D01*
X154239205Y-112895061D01*
X154191752Y-112904500D01*
X152390452Y-112904500D01*
X152342999Y-112895061D01*
X152302771Y-112868181D01*
X144664591Y-105230000D01*
X154139659Y-105230000D01*
X154158993Y-105475656D01*
X154216516Y-105715261D01*
X154263666Y-105829090D01*
X154310816Y-105942920D01*
X154439567Y-106153023D01*
X154599601Y-106340399D01*
X154786977Y-106500433D01*
X154997080Y-106629184D01*
X155224738Y-106723483D01*
X155464345Y-106781007D01*
X155710000Y-106800341D01*
X155955655Y-106781007D01*
X156195262Y-106723483D01*
X156422920Y-106629184D01*
X156633023Y-106500433D01*
X156820399Y-106340399D01*
X156980433Y-106153023D01*
X157109184Y-105942920D01*
X157203483Y-105715262D01*
X157261007Y-105475655D01*
X157280341Y-105230000D01*
X157261007Y-104984345D01*
X157203483Y-104744738D01*
X157109184Y-104517080D01*
X156980433Y-104306977D01*
X156820399Y-104119601D01*
X156633023Y-103959567D01*
X156422920Y-103830816D01*
X156308835Y-103783560D01*
X156255971Y-103741885D01*
X156232671Y-103678729D01*
X156245804Y-103612705D01*
X156291499Y-103563273D01*
X156356289Y-103545000D01*
X156722824Y-103545000D01*
X156782375Y-103538597D01*
X156917089Y-103488352D01*
X157032188Y-103402188D01*
X157118352Y-103287089D01*
X157168597Y-103152375D01*
X157175000Y-103092824D01*
X157175000Y-102380000D01*
X154245000Y-102380000D01*
X154245000Y-103092824D01*
X154251402Y-103152375D01*
X154301647Y-103287089D01*
X154387811Y-103402188D01*
X154502910Y-103488352D01*
X154637624Y-103538597D01*
X154697176Y-103545000D01*
X155063711Y-103545000D01*
X155128501Y-103563273D01*
X155174196Y-103612705D01*
X155187329Y-103678729D01*
X155164029Y-103741885D01*
X155111164Y-103783561D01*
X154997078Y-103830817D01*
X154786978Y-103959566D01*
X154599601Y-104119601D01*
X154439566Y-104306978D01*
X154310817Y-104517078D01*
X154216516Y-104744738D01*
X154158993Y-104984343D01*
X154139659Y-105230000D01*
X144664591Y-105230000D01*
X144400802Y-104966211D01*
X144387906Y-104950113D01*
X144336775Y-104902098D01*
X144333978Y-104899387D01*
X144314470Y-104879879D01*
X144311290Y-104877412D01*
X144302424Y-104869839D01*
X144270582Y-104839938D01*
X144253024Y-104830285D01*
X144236764Y-104819604D01*
X144220936Y-104807327D01*
X144180851Y-104789980D01*
X144170361Y-104784841D01*
X144132091Y-104763802D01*
X144112691Y-104758821D01*
X144094284Y-104752519D01*
X144075897Y-104744562D01*
X144032758Y-104737729D01*
X144021324Y-104735361D01*
X143979019Y-104724500D01*
X143958984Y-104724500D01*
X143939586Y-104722973D01*
X143932162Y-104721797D01*
X143919805Y-104719840D01*
X143919804Y-104719840D01*
X143894468Y-104722235D01*
X143876325Y-104723950D01*
X143864656Y-104724500D01*
X133042744Y-104724500D01*
X133022236Y-104722235D01*
X132952113Y-104724439D01*
X132948219Y-104724500D01*
X132920650Y-104724500D01*
X132916671Y-104725002D01*
X132905041Y-104725917D01*
X132861372Y-104727289D01*
X132842128Y-104732880D01*
X132823084Y-104736824D01*
X132803208Y-104739335D01*
X132762600Y-104755413D01*
X132751554Y-104759194D01*
X132709610Y-104771382D01*
X132709607Y-104771383D01*
X132692365Y-104781579D01*
X132674904Y-104790133D01*
X132656267Y-104797512D01*
X132620931Y-104823185D01*
X132611174Y-104829595D01*
X132573580Y-104851829D01*
X132559413Y-104865996D01*
X132544624Y-104878626D01*
X132528413Y-104890404D01*
X132500572Y-104924058D01*
X132492711Y-104932697D01*
X130396208Y-107029199D01*
X130380110Y-107042096D01*
X130332096Y-107093225D01*
X130329391Y-107096017D01*
X130309874Y-107115534D01*
X130307415Y-107118705D01*
X130299842Y-107127572D01*
X130269935Y-107159420D01*
X130260285Y-107176974D01*
X130249607Y-107193230D01*
X130230354Y-107218052D01*
X130191391Y-107251108D01*
X130011377Y-107348528D01*
X129834436Y-107486245D01*
X129782007Y-107510099D01*
X129724458Y-107507691D01*
X129674205Y-107479541D01*
X129642092Y-107431724D01*
X129627362Y-107392231D01*
X129623796Y-107382669D01*
X129537546Y-107267454D01*
X129422331Y-107181204D01*
X129287483Y-107130909D01*
X129227873Y-107124500D01*
X129227869Y-107124500D01*
X127332130Y-107124500D01*
X127272515Y-107130909D01*
X127137669Y-107181204D01*
X127022454Y-107267454D01*
X126936204Y-107382668D01*
X126885909Y-107517516D01*
X126879500Y-107577130D01*
X126879500Y-109472869D01*
X121100500Y-109472869D01*
X121100500Y-101025000D01*
X123854544Y-101025000D01*
X123874342Y-101314420D01*
X123933362Y-101598439D01*
X124030507Y-101871780D01*
X124163971Y-102129355D01*
X124331256Y-102366343D01*
X124331259Y-102366346D01*
X124331261Y-102366349D01*
X124529264Y-102578359D01*
X124754292Y-102761433D01*
X125002152Y-102912160D01*
X125268228Y-103027733D01*
X125547563Y-103105999D01*
X125834954Y-103145500D01*
X126125046Y-103145500D01*
X126412437Y-103105999D01*
X126691772Y-103027733D01*
X126957848Y-102912160D01*
X127205708Y-102761433D01*
X127430736Y-102578359D01*
X127628739Y-102366349D01*
X127796030Y-102129352D01*
X127929491Y-101871784D01*
X128026637Y-101598441D01*
X128085658Y-101314416D01*
X128105455Y-101025000D01*
X133454544Y-101025000D01*
X133474342Y-101314420D01*
X133533362Y-101598439D01*
X133630507Y-101871780D01*
X133763971Y-102129355D01*
X133931256Y-102366343D01*
X133931259Y-102366346D01*
X133931261Y-102366349D01*
X134129264Y-102578359D01*
X134354292Y-102761433D01*
X134602152Y-102912160D01*
X134868228Y-103027733D01*
X135147563Y-103105999D01*
X135434954Y-103145500D01*
X135725046Y-103145500D01*
X136012437Y-103105999D01*
X136291772Y-103027733D01*
X136557848Y-102912160D01*
X136805708Y-102761433D01*
X137030736Y-102578359D01*
X137228739Y-102366349D01*
X137396030Y-102129352D01*
X137529491Y-101871784D01*
X137626637Y-101598441D01*
X137685658Y-101314416D01*
X137705455Y-101025000D01*
X137685658Y-100735584D01*
X137642937Y-100529999D01*
X140044531Y-100529999D01*
X140064364Y-100756689D01*
X140123261Y-100976497D01*
X140219432Y-101182735D01*
X140349953Y-101369140D01*
X140510859Y-101530046D01*
X140697264Y-101660567D01*
X140697265Y-101660567D01*
X140697266Y-101660568D01*
X140903504Y-101756739D01*
X141123308Y-101815635D01*
X141350000Y-101835468D01*
X141576692Y-101815635D01*
X141796496Y-101756739D01*
X141939617Y-101690000D01*
X145200000Y-101690000D01*
X145200000Y-102387824D01*
X145206402Y-102447375D01*
X145256647Y-102582089D01*
X145342811Y-102697188D01*
X145457910Y-102783352D01*
X145592624Y-102833597D01*
X145652176Y-102840000D01*
X146350000Y-102840000D01*
X146350000Y-101690000D01*
X146850000Y-101690000D01*
X146850000Y-102840000D01*
X147547824Y-102840000D01*
X147607375Y-102833597D01*
X147742089Y-102783352D01*
X147857188Y-102697188D01*
X147943352Y-102582089D01*
X147993597Y-102447375D01*
X148000000Y-102387824D01*
X148000000Y-101880000D01*
X154245000Y-101880000D01*
X155460000Y-101880000D01*
X155460000Y-100715000D01*
X155960000Y-100715000D01*
X155960000Y-101880000D01*
X157175000Y-101880000D01*
X157175000Y-101167176D01*
X157168597Y-101107624D01*
X157118352Y-100972910D01*
X157032188Y-100857811D01*
X156917089Y-100771647D01*
X156782375Y-100721402D01*
X156722824Y-100715000D01*
X155960000Y-100715000D01*
X155460000Y-100715000D01*
X154697176Y-100715000D01*
X154637624Y-100721402D01*
X154502910Y-100771647D01*
X154387811Y-100857811D01*
X154301647Y-100972910D01*
X154251402Y-101107624D01*
X154245000Y-101167176D01*
X154245000Y-101880000D01*
X148000000Y-101880000D01*
X148000000Y-101690000D01*
X146850000Y-101690000D01*
X146350000Y-101690000D01*
X145200000Y-101690000D01*
X141939617Y-101690000D01*
X142002734Y-101660568D01*
X142189139Y-101530047D01*
X142350047Y-101369139D01*
X142480568Y-101182734D01*
X142576739Y-100976496D01*
X142635635Y-100756692D01*
X142655468Y-100530000D01*
X142635635Y-100303308D01*
X142576739Y-100083504D01*
X142480568Y-99877266D01*
X142350047Y-99690861D01*
X142350046Y-99690859D01*
X142189140Y-99529953D01*
X142002732Y-99399430D01*
X141944724Y-99372380D01*
X141892549Y-99326623D01*
X141873130Y-99259997D01*
X141892550Y-99193373D01*
X141944721Y-99147619D01*
X142002734Y-99120568D01*
X142189139Y-98990047D01*
X142279187Y-98899999D01*
X145194699Y-98899999D01*
X145213865Y-99131299D01*
X145213865Y-99131301D01*
X145213866Y-99131305D01*
X145263328Y-99326623D01*
X145270844Y-99356303D01*
X145321435Y-99471638D01*
X145364076Y-99568849D01*
X145491021Y-99763153D01*
X145586167Y-99866509D01*
X145614940Y-99919262D01*
X145615533Y-99979348D01*
X145587806Y-100032658D01*
X145538272Y-100066673D01*
X145457913Y-100096646D01*
X145342811Y-100182811D01*
X145256647Y-100297910D01*
X145206402Y-100432624D01*
X145200000Y-100492176D01*
X145200000Y-101190000D01*
X148000000Y-101190000D01*
X148000000Y-100492176D01*
X147993597Y-100432624D01*
X147943352Y-100297910D01*
X147857188Y-100182811D01*
X147742088Y-100096647D01*
X147661728Y-100066674D01*
X147612193Y-100032658D01*
X147584466Y-99979348D01*
X147585059Y-99919262D01*
X147613829Y-99866512D01*
X147708979Y-99763153D01*
X147835924Y-99568849D01*
X147929157Y-99356300D01*
X147986134Y-99131305D01*
X148005300Y-98900000D01*
X147986134Y-98668695D01*
X147929157Y-98443700D01*
X147835924Y-98231151D01*
X147708979Y-98036847D01*
X147551784Y-97866087D01*
X147368626Y-97723530D01*
X147164503Y-97613064D01*
X147164499Y-97613062D01*
X147164498Y-97613062D01*
X146944984Y-97537702D01*
X146773282Y-97509050D01*
X146716049Y-97499500D01*
X146483951Y-97499500D01*
X146438164Y-97507140D01*
X146255015Y-97537702D01*
X146035501Y-97613062D01*
X145831372Y-97723531D01*
X145648215Y-97866087D01*
X145491020Y-98036848D01*
X145364076Y-98231150D01*
X145270844Y-98443696D01*
X145270842Y-98443700D01*
X145270843Y-98443700D01*
X145220441Y-98642734D01*
X145213865Y-98668700D01*
X145194699Y-98899999D01*
X142279187Y-98899999D01*
X142350047Y-98829139D01*
X142480568Y-98642734D01*
X142576739Y-98436496D01*
X142635635Y-98216692D01*
X142655468Y-97990000D01*
X142635635Y-97763308D01*
X142576739Y-97543504D01*
X142480568Y-97337266D01*
X142350047Y-97150861D01*
X142350046Y-97150859D01*
X142189140Y-96989953D01*
X142002735Y-96859432D01*
X141796497Y-96763261D01*
X141576689Y-96704364D01*
X141350000Y-96684531D01*
X141123310Y-96704364D01*
X140903502Y-96763261D01*
X140697264Y-96859432D01*
X140510859Y-96989953D01*
X140349953Y-97150859D01*
X140219432Y-97337264D01*
X140123261Y-97543502D01*
X140064364Y-97763310D01*
X140044531Y-97989999D01*
X140064364Y-98216689D01*
X140123261Y-98436497D01*
X140219432Y-98642735D01*
X140349953Y-98829140D01*
X140510859Y-98990046D01*
X140697262Y-99120565D01*
X140697266Y-99120568D01*
X140755273Y-99147617D01*
X140807449Y-99193373D01*
X140826869Y-99259997D01*
X140807451Y-99326622D01*
X140755276Y-99372380D01*
X140697266Y-99399431D01*
X140510859Y-99529953D01*
X140349953Y-99690859D01*
X140219432Y-99877264D01*
X140123261Y-100083502D01*
X140064364Y-100303310D01*
X140044531Y-100529999D01*
X137642937Y-100529999D01*
X137626637Y-100451559D01*
X137529491Y-100178216D01*
X137396030Y-99920648D01*
X137396028Y-99920644D01*
X137228743Y-99683656D01*
X137228741Y-99683653D01*
X137228739Y-99683651D01*
X137030736Y-99471641D01*
X136805708Y-99288567D01*
X136557848Y-99137840D01*
X136291772Y-99022267D01*
X136152104Y-98983134D01*
X136012435Y-98944000D01*
X135725046Y-98904500D01*
X135434954Y-98904500D01*
X135147564Y-98944000D01*
X134918878Y-99008075D01*
X134868228Y-99022267D01*
X134868226Y-99022267D01*
X134868225Y-99022268D01*
X134602151Y-99137840D01*
X134354293Y-99288566D01*
X134129267Y-99471638D01*
X133931256Y-99683656D01*
X133763971Y-99920644D01*
X133630507Y-100178219D01*
X133533362Y-100451560D01*
X133474342Y-100735579D01*
X133454544Y-101025000D01*
X128105455Y-101025000D01*
X128085658Y-100735584D01*
X128026637Y-100451559D01*
X127929491Y-100178216D01*
X127796030Y-99920648D01*
X127796028Y-99920644D01*
X127628743Y-99683656D01*
X127628741Y-99683653D01*
X127628739Y-99683651D01*
X127430736Y-99471641D01*
X127205708Y-99288567D01*
X126957848Y-99137840D01*
X126691772Y-99022267D01*
X126552104Y-98983134D01*
X126412435Y-98944000D01*
X126125046Y-98904500D01*
X125834954Y-98904500D01*
X125547564Y-98944000D01*
X125318878Y-99008075D01*
X125268228Y-99022267D01*
X125268226Y-99022267D01*
X125268225Y-99022268D01*
X125002151Y-99137840D01*
X124754293Y-99288566D01*
X124529267Y-99471638D01*
X124331256Y-99683656D01*
X124163971Y-99920644D01*
X124030507Y-100178219D01*
X123933362Y-100451560D01*
X123874342Y-100735579D01*
X123854544Y-101025000D01*
X121100500Y-101025000D01*
X121100500Y-80425000D01*
X123874544Y-80425000D01*
X123894342Y-80714420D01*
X123953362Y-80998439D01*
X124050507Y-81271780D01*
X124183971Y-81529355D01*
X124351256Y-81766343D01*
X124351259Y-81766346D01*
X124351261Y-81766349D01*
X124549264Y-81978359D01*
X124774292Y-82161433D01*
X125022152Y-82312160D01*
X125288228Y-82427733D01*
X125567563Y-82505999D01*
X125854954Y-82545500D01*
X126145046Y-82545500D01*
X126432437Y-82505999D01*
X126711772Y-82427733D01*
X126977848Y-82312160D01*
X127225708Y-82161433D01*
X127450736Y-81978359D01*
X127648739Y-81766349D01*
X127816030Y-81529352D01*
X127949491Y-81271784D01*
X128046637Y-80998441D01*
X128105658Y-80714416D01*
X128125455Y-80425000D01*
X128105658Y-80135584D01*
X128046637Y-79851559D01*
X127949491Y-79578216D01*
X127816030Y-79320648D01*
X127816028Y-79320644D01*
X127648743Y-79083656D01*
X127648741Y-79083653D01*
X127648739Y-79083651D01*
X127450736Y-78871641D01*
X127225708Y-78688567D01*
X126977848Y-78537840D01*
X126711772Y-78422267D01*
X126572104Y-78383134D01*
X126432435Y-78344000D01*
X126145046Y-78304500D01*
X125854954Y-78304500D01*
X125567564Y-78344000D01*
X125338878Y-78408075D01*
X125288228Y-78422267D01*
X125288226Y-78422267D01*
X125288225Y-78422268D01*
X125022151Y-78537840D01*
X124774293Y-78688566D01*
X124549267Y-78871638D01*
X124351256Y-79083656D01*
X124183971Y-79320644D01*
X124050507Y-79578219D01*
X123953362Y-79851560D01*
X123894342Y-80135579D01*
X123874544Y-80425000D01*
X121100500Y-80425000D01*
X121100500Y-64799758D01*
X121114015Y-64743463D01*
X121151615Y-64699440D01*
X121205102Y-64677285D01*
X121262818Y-64681827D01*
X121312181Y-64712077D01*
X121478599Y-64878495D01*
X121672170Y-65014035D01*
X121886337Y-65113903D01*
X122114592Y-65175063D01*
X122350000Y-65195659D01*
X122585408Y-65175063D01*
X122813663Y-65113903D01*
X123027830Y-65014035D01*
X123221401Y-64878495D01*
X123388495Y-64711401D01*
X123524035Y-64517830D01*
X123623903Y-64303663D01*
X123685063Y-64075408D01*
X123705659Y-63840000D01*
X123685063Y-63604592D01*
X123623903Y-63376337D01*
X123524035Y-63162171D01*
X123391428Y-62972788D01*
X123369842Y-62916063D01*
X123377765Y-62855885D01*
X123413298Y-62806677D01*
X123467929Y-62780229D01*
X123528568Y-62782876D01*
X123580685Y-62813986D01*
X124518181Y-63751482D01*
X124545061Y-63791710D01*
X124554500Y-63839163D01*
X124554500Y-71892956D01*
X124554274Y-71900443D01*
X124550780Y-71958194D01*
X124561207Y-72015094D01*
X124562334Y-72022493D01*
X124569312Y-72079954D01*
X124572636Y-72088719D01*
X124578660Y-72110330D01*
X124580348Y-72119543D01*
X124592643Y-72146861D01*
X124604101Y-72172322D01*
X124606960Y-72179224D01*
X124627482Y-72233334D01*
X124632804Y-72241045D01*
X124643824Y-72260583D01*
X124647673Y-72269133D01*
X124647674Y-72269135D01*
X124683360Y-72314684D01*
X124687800Y-72320718D01*
X124720668Y-72368336D01*
X124763989Y-72406715D01*
X124769426Y-72411834D01*
X128488181Y-76130588D01*
X128515061Y-76170816D01*
X128524500Y-76218269D01*
X128524500Y-84148836D01*
X128515061Y-84196289D01*
X128488181Y-84236517D01*
X127839424Y-84885273D01*
X127833972Y-84890406D01*
X127790668Y-84928770D01*
X127757800Y-84976387D01*
X127753363Y-84982417D01*
X127717673Y-85027973D01*
X127713824Y-85036524D01*
X127702807Y-85056058D01*
X127697481Y-85063775D01*
X127676965Y-85117868D01*
X127674102Y-85124782D01*
X127650349Y-85177562D01*
X127648661Y-85186776D01*
X127642638Y-85208383D01*
X127639310Y-85217157D01*
X127632333Y-85274612D01*
X127631207Y-85282011D01*
X127620780Y-85338912D01*
X127624274Y-85396664D01*
X127624500Y-85404151D01*
X127624500Y-86400501D01*
X127607887Y-86462501D01*
X127562500Y-86507888D01*
X127500500Y-86524501D01*
X127352128Y-86524501D01*
X127322322Y-86527705D01*
X127292515Y-86530909D01*
X127157669Y-86581204D01*
X127042454Y-86667454D01*
X126956204Y-86782668D01*
X126905909Y-86917516D01*
X126899500Y-86977130D01*
X126899500Y-88872869D01*
X126905909Y-88932483D01*
X126956204Y-89067331D01*
X127042454Y-89182546D01*
X127157669Y-89268796D01*
X127292517Y-89319091D01*
X127352127Y-89325500D01*
X129247872Y-89325499D01*
X129307483Y-89319091D01*
X129442331Y-89268796D01*
X129557546Y-89182546D01*
X129643796Y-89067331D01*
X129662093Y-89018272D01*
X129694205Y-88970458D01*
X129744458Y-88942308D01*
X129802007Y-88939900D01*
X129854435Y-88963753D01*
X130031374Y-89101470D01*
X130235497Y-89211936D01*
X130345258Y-89249617D01*
X130455015Y-89287297D01*
X130455017Y-89287297D01*
X130455019Y-89287298D01*
X130683951Y-89325500D01*
X130916048Y-89325500D01*
X130916049Y-89325500D01*
X131144981Y-89287298D01*
X131364503Y-89211936D01*
X131568626Y-89101470D01*
X131599614Y-89077351D01*
X132501199Y-89077351D01*
X132531650Y-89101051D01*
X132735700Y-89211477D01*
X132955140Y-89286811D01*
X133183993Y-89325000D01*
X133416007Y-89325000D01*
X133644859Y-89286811D01*
X133864296Y-89211478D01*
X134068353Y-89101048D01*
X134098798Y-89077351D01*
X133894316Y-88872869D01*
X146599500Y-88872869D01*
X146605909Y-88932483D01*
X146656204Y-89067331D01*
X146742454Y-89182546D01*
X146857669Y-89268796D01*
X146992517Y-89319091D01*
X147052127Y-89325500D01*
X148947872Y-89325499D01*
X149007483Y-89319091D01*
X149142331Y-89268796D01*
X149257546Y-89182546D01*
X149343796Y-89067331D01*
X149362093Y-89018272D01*
X149394205Y-88970458D01*
X149444458Y-88942308D01*
X149502007Y-88939900D01*
X149554435Y-88963753D01*
X149731374Y-89101470D01*
X149935497Y-89211936D01*
X150045258Y-89249617D01*
X150155015Y-89287297D01*
X150155017Y-89287297D01*
X150155019Y-89287298D01*
X150383951Y-89325500D01*
X150616048Y-89325500D01*
X150616049Y-89325500D01*
X150844981Y-89287298D01*
X151064503Y-89211936D01*
X151268626Y-89101470D01*
X151451784Y-88958913D01*
X151608979Y-88788153D01*
X151646192Y-88731193D01*
X151690982Y-88689961D01*
X151750000Y-88675016D01*
X151809018Y-88689961D01*
X151853807Y-88731193D01*
X151891021Y-88788153D01*
X152048216Y-88958913D01*
X152231374Y-89101470D01*
X152435497Y-89211936D01*
X152545258Y-89249617D01*
X152655015Y-89287297D01*
X152655017Y-89287297D01*
X152655019Y-89287298D01*
X152883951Y-89325500D01*
X153116048Y-89325500D01*
X153116049Y-89325500D01*
X153344981Y-89287298D01*
X153564503Y-89211936D01*
X153768626Y-89101470D01*
X153951784Y-88958913D01*
X154108979Y-88788153D01*
X154235924Y-88593849D01*
X154329157Y-88381300D01*
X154386134Y-88156305D01*
X154405300Y-87925000D01*
X154386134Y-87693695D01*
X154329157Y-87468700D01*
X154235924Y-87256151D01*
X154108979Y-87061847D01*
X153951784Y-86891087D01*
X153768626Y-86748530D01*
X153564503Y-86638064D01*
X153564499Y-86638062D01*
X153564498Y-86638062D01*
X153344984Y-86562702D01*
X153154456Y-86530909D01*
X153116049Y-86524500D01*
X152883951Y-86524500D01*
X152845544Y-86530909D01*
X152655015Y-86562702D01*
X152435501Y-86638062D01*
X152231372Y-86748531D01*
X152048215Y-86891087D01*
X151969010Y-86977128D01*
X151891021Y-87061847D01*
X151891021Y-87061848D01*
X151853809Y-87118805D01*
X151809017Y-87160038D01*
X151750000Y-87174983D01*
X151690983Y-87160038D01*
X151646191Y-87118805D01*
X151608979Y-87061847D01*
X151451784Y-86891087D01*
X151268626Y-86748530D01*
X151064503Y-86638064D01*
X151064499Y-86638062D01*
X151064498Y-86638062D01*
X150844984Y-86562702D01*
X150654456Y-86530909D01*
X150616049Y-86524500D01*
X150383951Y-86524500D01*
X150345544Y-86530909D01*
X150155015Y-86562702D01*
X149935501Y-86638062D01*
X149731372Y-86748531D01*
X149554436Y-86886245D01*
X149502007Y-86910099D01*
X149444458Y-86907691D01*
X149394205Y-86879541D01*
X149362092Y-86831724D01*
X149343796Y-86782669D01*
X149257546Y-86667454D01*
X149142331Y-86581204D01*
X149007483Y-86530909D01*
X148947873Y-86524500D01*
X148947869Y-86524500D01*
X147052130Y-86524500D01*
X146992515Y-86530909D01*
X146857669Y-86581204D01*
X146742454Y-86667454D01*
X146656204Y-86782668D01*
X146605909Y-86917516D01*
X146599500Y-86977130D01*
X146599500Y-88872869D01*
X133894316Y-88872869D01*
X133300000Y-88278553D01*
X132501199Y-89077351D01*
X131599614Y-89077351D01*
X131751784Y-88958913D01*
X131908979Y-88788153D01*
X131946489Y-88730738D01*
X131991280Y-88689505D01*
X132050298Y-88674560D01*
X132109315Y-88689505D01*
X132144858Y-88722224D01*
X132148811Y-88722634D01*
X132946447Y-87925001D01*
X132946447Y-87925000D01*
X133653553Y-87925000D01*
X134451186Y-88722634D01*
X134535483Y-88593607D01*
X134628680Y-88381138D01*
X134685638Y-88156217D01*
X134704798Y-87925000D01*
X134685638Y-87693782D01*
X134628680Y-87468860D01*
X134535484Y-87256392D01*
X134451186Y-87127364D01*
X133653553Y-87925000D01*
X132946447Y-87925000D01*
X132148811Y-87127364D01*
X132144857Y-87127774D01*
X132109313Y-87160495D01*
X132050295Y-87175439D01*
X131991278Y-87160493D01*
X131946489Y-87119261D01*
X131908979Y-87061847D01*
X131751784Y-86891087D01*
X131599612Y-86772647D01*
X132501200Y-86772647D01*
X133300000Y-87571447D01*
X133300001Y-87571447D01*
X134098799Y-86772648D01*
X134098799Y-86772647D01*
X134068349Y-86748948D01*
X133864299Y-86638522D01*
X133644859Y-86563188D01*
X133416007Y-86525000D01*
X133183993Y-86525000D01*
X132955140Y-86563188D01*
X132735703Y-86638521D01*
X132531645Y-86748952D01*
X132501200Y-86772646D01*
X132501200Y-86772647D01*
X131599612Y-86772647D01*
X131568626Y-86748530D01*
X131364503Y-86638064D01*
X131364499Y-86638062D01*
X131364498Y-86638062D01*
X131144984Y-86562702D01*
X130954456Y-86530909D01*
X130916049Y-86524500D01*
X130683951Y-86524500D01*
X130635830Y-86532530D01*
X130469910Y-86560217D01*
X130416582Y-86557459D01*
X130369359Y-86532530D01*
X130336998Y-86490054D01*
X130325500Y-86437908D01*
X130325500Y-80424999D01*
X133474544Y-80424999D01*
X133494342Y-80714420D01*
X133553362Y-80998439D01*
X133650507Y-81271780D01*
X133783971Y-81529355D01*
X133951256Y-81766343D01*
X133951259Y-81766346D01*
X133951261Y-81766349D01*
X134149264Y-81978359D01*
X134374292Y-82161433D01*
X134622152Y-82312160D01*
X134888228Y-82427733D01*
X135167563Y-82505999D01*
X135454954Y-82545500D01*
X135745046Y-82545500D01*
X136032437Y-82505999D01*
X136311772Y-82427733D01*
X136577848Y-82312160D01*
X136825708Y-82161433D01*
X137050736Y-81978359D01*
X137248739Y-81766349D01*
X137416030Y-81529352D01*
X137549491Y-81271784D01*
X137646637Y-80998441D01*
X137705658Y-80714416D01*
X137725455Y-80425000D01*
X137725455Y-80424999D01*
X143574544Y-80424999D01*
X143594342Y-80714420D01*
X143653362Y-80998439D01*
X143750507Y-81271780D01*
X143883971Y-81529355D01*
X144051256Y-81766343D01*
X144051259Y-81766346D01*
X144051261Y-81766349D01*
X144249264Y-81978359D01*
X144474292Y-82161433D01*
X144722152Y-82312160D01*
X144988228Y-82427733D01*
X145267563Y-82505999D01*
X145554954Y-82545500D01*
X145845046Y-82545500D01*
X146132437Y-82505999D01*
X146411772Y-82427733D01*
X146677848Y-82312160D01*
X146925708Y-82161433D01*
X147150736Y-81978359D01*
X147348739Y-81766349D01*
X147516030Y-81529352D01*
X147649491Y-81271784D01*
X147746637Y-80998441D01*
X147805658Y-80714416D01*
X147825455Y-80425000D01*
X147825455Y-80424999D01*
X153174544Y-80424999D01*
X153194342Y-80714420D01*
X153253362Y-80998439D01*
X153350507Y-81271780D01*
X153483971Y-81529355D01*
X153651256Y-81766343D01*
X153651259Y-81766346D01*
X153651261Y-81766349D01*
X153849264Y-81978359D01*
X154074292Y-82161433D01*
X154322152Y-82312160D01*
X154588228Y-82427733D01*
X154867563Y-82505999D01*
X155154954Y-82545500D01*
X155445046Y-82545500D01*
X155732437Y-82505999D01*
X156011772Y-82427733D01*
X156277848Y-82312160D01*
X156525708Y-82161433D01*
X156750736Y-81978359D01*
X156948739Y-81766349D01*
X157116030Y-81529352D01*
X157249491Y-81271784D01*
X157346637Y-80998441D01*
X157405658Y-80714416D01*
X157425455Y-80425000D01*
X157405658Y-80135584D01*
X157346637Y-79851559D01*
X157249491Y-79578216D01*
X157116030Y-79320648D01*
X157116028Y-79320644D01*
X156948743Y-79083656D01*
X156948741Y-79083653D01*
X156948739Y-79083651D01*
X156750736Y-78871641D01*
X156525708Y-78688567D01*
X156277848Y-78537840D01*
X156011772Y-78422267D01*
X155872104Y-78383134D01*
X155732435Y-78344000D01*
X155445046Y-78304500D01*
X155154954Y-78304500D01*
X154867564Y-78344000D01*
X154638878Y-78408075D01*
X154588228Y-78422267D01*
X154588226Y-78422267D01*
X154588225Y-78422268D01*
X154322151Y-78537840D01*
X154074293Y-78688566D01*
X153849267Y-78871638D01*
X153651256Y-79083656D01*
X153483971Y-79320644D01*
X153350507Y-79578219D01*
X153253362Y-79851560D01*
X153194342Y-80135579D01*
X153174544Y-80424999D01*
X147825455Y-80424999D01*
X147805658Y-80135584D01*
X147746637Y-79851559D01*
X147649491Y-79578216D01*
X147516030Y-79320648D01*
X147516028Y-79320644D01*
X147348743Y-79083656D01*
X147348741Y-79083653D01*
X147348739Y-79083651D01*
X147150736Y-78871641D01*
X146925708Y-78688567D01*
X146677848Y-78537840D01*
X146411772Y-78422267D01*
X146272104Y-78383134D01*
X146132435Y-78344000D01*
X145845046Y-78304500D01*
X145554954Y-78304500D01*
X145267564Y-78344000D01*
X145038878Y-78408075D01*
X144988228Y-78422267D01*
X144988226Y-78422267D01*
X144988225Y-78422268D01*
X144722151Y-78537840D01*
X144474293Y-78688566D01*
X144249267Y-78871638D01*
X144051256Y-79083656D01*
X143883971Y-79320644D01*
X143750507Y-79578219D01*
X143653362Y-79851560D01*
X143594342Y-80135579D01*
X143574544Y-80424999D01*
X137725455Y-80424999D01*
X137705658Y-80135584D01*
X137646637Y-79851559D01*
X137549491Y-79578216D01*
X137416030Y-79320648D01*
X137416028Y-79320644D01*
X137248743Y-79083656D01*
X137248741Y-79083653D01*
X137248739Y-79083651D01*
X137050736Y-78871641D01*
X136825708Y-78688567D01*
X136577848Y-78537840D01*
X136311772Y-78422267D01*
X136172104Y-78383134D01*
X136032435Y-78344000D01*
X135745046Y-78304500D01*
X135454954Y-78304500D01*
X135167564Y-78344000D01*
X134938878Y-78408075D01*
X134888228Y-78422267D01*
X134888226Y-78422267D01*
X134888225Y-78422268D01*
X134622151Y-78537840D01*
X134374293Y-78688566D01*
X134149267Y-78871638D01*
X133951256Y-79083656D01*
X133783971Y-79320644D01*
X133650507Y-79578219D01*
X133553362Y-79851560D01*
X133494342Y-80135579D01*
X133474544Y-80424999D01*
X130325500Y-80424999D01*
X130325500Y-75762744D01*
X130327764Y-75742237D01*
X130325561Y-75672127D01*
X130325500Y-75668232D01*
X130325500Y-75640653D01*
X130324997Y-75636672D01*
X130324080Y-75625019D01*
X130322709Y-75581373D01*
X130317120Y-75562140D01*
X130313174Y-75543082D01*
X130310664Y-75523206D01*
X130294588Y-75482604D01*
X130290804Y-75471553D01*
X130284881Y-75451168D01*
X130278618Y-75429610D01*
X130268414Y-75412355D01*
X130259861Y-75394895D01*
X130252486Y-75376269D01*
X130252486Y-75376268D01*
X130226808Y-75340925D01*
X130220401Y-75331171D01*
X130198169Y-75293579D01*
X130184006Y-75279416D01*
X130171367Y-75264617D01*
X130159595Y-75248413D01*
X130125941Y-75220573D01*
X130117299Y-75212709D01*
X126391819Y-71487228D01*
X126364939Y-71447000D01*
X126355500Y-71399547D01*
X126355500Y-68272869D01*
X126899500Y-68272869D01*
X126905909Y-68332483D01*
X126956204Y-68467331D01*
X127042454Y-68582546D01*
X127157669Y-68668796D01*
X127292517Y-68719091D01*
X127352127Y-68725500D01*
X129247872Y-68725499D01*
X129307483Y-68719091D01*
X129442331Y-68668796D01*
X129557546Y-68582546D01*
X129643796Y-68467331D01*
X129662093Y-68418272D01*
X129694205Y-68370458D01*
X129744458Y-68342308D01*
X129802007Y-68339900D01*
X129854435Y-68363753D01*
X130031374Y-68501470D01*
X130235497Y-68611936D01*
X130345257Y-68649616D01*
X130455015Y-68687297D01*
X130455017Y-68687297D01*
X130455019Y-68687298D01*
X130683951Y-68725500D01*
X130916048Y-68725500D01*
X130916049Y-68725500D01*
X131144981Y-68687298D01*
X131364503Y-68611936D01*
X131568626Y-68501470D01*
X131751784Y-68358913D01*
X131908979Y-68188153D01*
X131946192Y-68131193D01*
X131990982Y-68089961D01*
X132050000Y-68075016D01*
X132109018Y-68089961D01*
X132153807Y-68131193D01*
X132191021Y-68188153D01*
X132348216Y-68358913D01*
X132531374Y-68501470D01*
X132735497Y-68611936D01*
X132845257Y-68649616D01*
X132955015Y-68687297D01*
X132955017Y-68687297D01*
X132955019Y-68687298D01*
X133183951Y-68725500D01*
X133416048Y-68725500D01*
X133416049Y-68725500D01*
X133644981Y-68687298D01*
X133864503Y-68611936D01*
X134068626Y-68501470D01*
X134251784Y-68358913D01*
X134330993Y-68272869D01*
X146599500Y-68272869D01*
X146605909Y-68332483D01*
X146656204Y-68467331D01*
X146742454Y-68582546D01*
X146857669Y-68668796D01*
X146992517Y-68719091D01*
X147052127Y-68725500D01*
X148947872Y-68725499D01*
X149007483Y-68719091D01*
X149142331Y-68668796D01*
X149257546Y-68582546D01*
X149343796Y-68467331D01*
X149362093Y-68418272D01*
X149394205Y-68370458D01*
X149444458Y-68342308D01*
X149502007Y-68339900D01*
X149554435Y-68363753D01*
X149731374Y-68501470D01*
X149935497Y-68611936D01*
X150045257Y-68649616D01*
X150155015Y-68687297D01*
X150155017Y-68687297D01*
X150155019Y-68687298D01*
X150383951Y-68725500D01*
X150616048Y-68725500D01*
X150616049Y-68725500D01*
X150844981Y-68687298D01*
X151064503Y-68611936D01*
X151268626Y-68501470D01*
X151451784Y-68358913D01*
X151608979Y-68188153D01*
X151646192Y-68131193D01*
X151690982Y-68089961D01*
X151750000Y-68075016D01*
X151809018Y-68089961D01*
X151853807Y-68131193D01*
X151891021Y-68188153D01*
X152048216Y-68358913D01*
X152231374Y-68501470D01*
X152435497Y-68611936D01*
X152545257Y-68649616D01*
X152655015Y-68687297D01*
X152655017Y-68687297D01*
X152655019Y-68687298D01*
X152883951Y-68725500D01*
X153116048Y-68725500D01*
X153116049Y-68725500D01*
X153344981Y-68687298D01*
X153564503Y-68611936D01*
X153768626Y-68501470D01*
X153951784Y-68358913D01*
X154108979Y-68188153D01*
X154235924Y-67993849D01*
X154329157Y-67781300D01*
X154386134Y-67556305D01*
X154405300Y-67325000D01*
X154386134Y-67093695D01*
X154329157Y-66868700D01*
X154235924Y-66656151D01*
X154108979Y-66461847D01*
X153951784Y-66291087D01*
X153768626Y-66148530D01*
X153564503Y-66038064D01*
X153564499Y-66038062D01*
X153564498Y-66038062D01*
X153344984Y-65962702D01*
X153154456Y-65930909D01*
X153116049Y-65924500D01*
X152883951Y-65924500D01*
X152845544Y-65930909D01*
X152655015Y-65962702D01*
X152435501Y-66038062D01*
X152231372Y-66148531D01*
X152048215Y-66291087D01*
X151969010Y-66377128D01*
X151891021Y-66461847D01*
X151891021Y-66461848D01*
X151853809Y-66518805D01*
X151809017Y-66560038D01*
X151750000Y-66574983D01*
X151690983Y-66560038D01*
X151646191Y-66518805D01*
X151608979Y-66461847D01*
X151451784Y-66291087D01*
X151268626Y-66148530D01*
X151064503Y-66038064D01*
X151064499Y-66038062D01*
X151064498Y-66038062D01*
X150844984Y-65962702D01*
X150654456Y-65930909D01*
X150616049Y-65924500D01*
X150383951Y-65924500D01*
X150345544Y-65930909D01*
X150155015Y-65962702D01*
X149935501Y-66038062D01*
X149731372Y-66148531D01*
X149554436Y-66286245D01*
X149502007Y-66310099D01*
X149444458Y-66307691D01*
X149394205Y-66279541D01*
X149362092Y-66231724D01*
X149343796Y-66182669D01*
X149257546Y-66067454D01*
X149142331Y-65981204D01*
X149007483Y-65930909D01*
X148947873Y-65924500D01*
X148947869Y-65924500D01*
X147052130Y-65924500D01*
X146992515Y-65930909D01*
X146857669Y-65981204D01*
X146742454Y-66067454D01*
X146656204Y-66182668D01*
X146605909Y-66317516D01*
X146599500Y-66377130D01*
X146599500Y-68272869D01*
X134330993Y-68272869D01*
X134408979Y-68188153D01*
X134535924Y-67993849D01*
X134629157Y-67781300D01*
X134686134Y-67556305D01*
X134705300Y-67325000D01*
X134686134Y-67093695D01*
X134629157Y-66868700D01*
X134535924Y-66656151D01*
X134408979Y-66461847D01*
X134251784Y-66291087D01*
X134068626Y-66148530D01*
X133864503Y-66038064D01*
X133864499Y-66038062D01*
X133864498Y-66038062D01*
X133644984Y-65962702D01*
X133454456Y-65930909D01*
X133416049Y-65924500D01*
X133183951Y-65924500D01*
X133145544Y-65930909D01*
X132955015Y-65962702D01*
X132735501Y-66038062D01*
X132531372Y-66148531D01*
X132348215Y-66291087D01*
X132269010Y-66377128D01*
X132191021Y-66461847D01*
X132191021Y-66461848D01*
X132153809Y-66518805D01*
X132109017Y-66560038D01*
X132050000Y-66574983D01*
X131990983Y-66560038D01*
X131946191Y-66518805D01*
X131908979Y-66461847D01*
X131751784Y-66291087D01*
X131568626Y-66148530D01*
X131364503Y-66038064D01*
X131364499Y-66038062D01*
X131364498Y-66038062D01*
X131144984Y-65962702D01*
X130954456Y-65930909D01*
X130916049Y-65924500D01*
X130683951Y-65924500D01*
X130645544Y-65930909D01*
X130455015Y-65962702D01*
X130235501Y-66038062D01*
X130031372Y-66148531D01*
X129854436Y-66286245D01*
X129802007Y-66310099D01*
X129744458Y-66307691D01*
X129694205Y-66279541D01*
X129662092Y-66231724D01*
X129643796Y-66182669D01*
X129557546Y-66067454D01*
X129442331Y-65981204D01*
X129307483Y-65930909D01*
X129247873Y-65924500D01*
X129247869Y-65924500D01*
X127352130Y-65924500D01*
X127292515Y-65930909D01*
X127157669Y-65981204D01*
X127042454Y-66067454D01*
X126956204Y-66182668D01*
X126905909Y-66317516D01*
X126899500Y-66377130D01*
X126899500Y-68272869D01*
X126355500Y-68272869D01*
X126355500Y-64318452D01*
X126364939Y-64270999D01*
X126391819Y-64230771D01*
X127017998Y-63604592D01*
X128907786Y-61714802D01*
X128923887Y-61701904D01*
X128925874Y-61699787D01*
X128925877Y-61699786D01*
X128971932Y-61650741D01*
X128974613Y-61647976D01*
X128994120Y-61628470D01*
X128996581Y-61625295D01*
X129004152Y-61616431D01*
X129034062Y-61584582D01*
X129043713Y-61567026D01*
X129054393Y-61550767D01*
X129066674Y-61534936D01*
X129084018Y-61494851D01*
X129089160Y-61484356D01*
X129110197Y-61446092D01*
X129115178Y-61426688D01*
X129121480Y-61408283D01*
X129129438Y-61389895D01*
X129136270Y-61346748D01*
X129138639Y-61335316D01*
X129149500Y-61293020D01*
X129149500Y-61272984D01*
X129151027Y-61253585D01*
X129154160Y-61233804D01*
X129150050Y-61190325D01*
X129149500Y-61178656D01*
X129149500Y-59825000D01*
X133474544Y-59825000D01*
X133494342Y-60114420D01*
X133553362Y-60398439D01*
X133650507Y-60671780D01*
X133783971Y-60929355D01*
X133951256Y-61166343D01*
X133951259Y-61166346D01*
X133951261Y-61166349D01*
X134149264Y-61378359D01*
X134374292Y-61561433D01*
X134622152Y-61712160D01*
X134888228Y-61827733D01*
X135167563Y-61905999D01*
X135454954Y-61945500D01*
X135745046Y-61945500D01*
X136032437Y-61905999D01*
X136311772Y-61827733D01*
X136577848Y-61712160D01*
X136825708Y-61561433D01*
X137050736Y-61378359D01*
X137248739Y-61166349D01*
X137416030Y-60929352D01*
X137549491Y-60671784D01*
X137646637Y-60398441D01*
X137705658Y-60114416D01*
X137725455Y-59825000D01*
X143574544Y-59825000D01*
X143594342Y-60114420D01*
X143653362Y-60398439D01*
X143750507Y-60671780D01*
X143883971Y-60929355D01*
X144051256Y-61166343D01*
X144051259Y-61166346D01*
X144051261Y-61166349D01*
X144249264Y-61378359D01*
X144474292Y-61561433D01*
X144722152Y-61712160D01*
X144988228Y-61827733D01*
X145267563Y-61905999D01*
X145554954Y-61945500D01*
X145845046Y-61945500D01*
X146132437Y-61905999D01*
X146411772Y-61827733D01*
X146677848Y-61712160D01*
X146925708Y-61561433D01*
X147150736Y-61378359D01*
X147348739Y-61166349D01*
X147516030Y-60929352D01*
X147649491Y-60671784D01*
X147746637Y-60398441D01*
X147805658Y-60114416D01*
X147825455Y-59825000D01*
X153174544Y-59825000D01*
X153194342Y-60114420D01*
X153253362Y-60398439D01*
X153350507Y-60671780D01*
X153483971Y-60929355D01*
X153651256Y-61166343D01*
X153651259Y-61166346D01*
X153651261Y-61166349D01*
X153849264Y-61378359D01*
X154074292Y-61561433D01*
X154322152Y-61712160D01*
X154588228Y-61827733D01*
X154867563Y-61905999D01*
X155154954Y-61945500D01*
X155445046Y-61945500D01*
X155732437Y-61905999D01*
X156011772Y-61827733D01*
X156277848Y-61712160D01*
X156525708Y-61561433D01*
X156750736Y-61378359D01*
X156948739Y-61166349D01*
X157116030Y-60929352D01*
X157249491Y-60671784D01*
X157346637Y-60398441D01*
X157405658Y-60114416D01*
X157425455Y-59825000D01*
X157405658Y-59535584D01*
X157346637Y-59251559D01*
X157249491Y-58978216D01*
X157116030Y-58720648D01*
X157116028Y-58720644D01*
X156948743Y-58483656D01*
X156948741Y-58483653D01*
X156948739Y-58483651D01*
X156750736Y-58271641D01*
X156525708Y-58088567D01*
X156277848Y-57937840D01*
X156011772Y-57822267D01*
X155872104Y-57783133D01*
X155732435Y-57744000D01*
X155445046Y-57704500D01*
X155154954Y-57704500D01*
X154867564Y-57744000D01*
X154664309Y-57800950D01*
X154588228Y-57822267D01*
X154588226Y-57822267D01*
X154588225Y-57822268D01*
X154322151Y-57937840D01*
X154074293Y-58088566D01*
X153849267Y-58271638D01*
X153849264Y-58271640D01*
X153849264Y-58271641D01*
X153802818Y-58321373D01*
X153651256Y-58483656D01*
X153483971Y-58720644D01*
X153350507Y-58978219D01*
X153253362Y-59251560D01*
X153194342Y-59535579D01*
X153174544Y-59825000D01*
X147825455Y-59825000D01*
X147805658Y-59535584D01*
X147746637Y-59251559D01*
X147649491Y-58978216D01*
X147516030Y-58720648D01*
X147516028Y-58720644D01*
X147348743Y-58483656D01*
X147348741Y-58483653D01*
X147348739Y-58483651D01*
X147150736Y-58271641D01*
X146925708Y-58088567D01*
X146677848Y-57937840D01*
X146411772Y-57822267D01*
X146272104Y-57783133D01*
X146132435Y-57744000D01*
X145845046Y-57704500D01*
X145554954Y-57704500D01*
X145267564Y-57744000D01*
X145064309Y-57800950D01*
X144988228Y-57822267D01*
X144988226Y-57822267D01*
X144988225Y-57822268D01*
X144722151Y-57937840D01*
X144474293Y-58088566D01*
X144249267Y-58271638D01*
X144249264Y-58271640D01*
X144249264Y-58271641D01*
X144202818Y-58321373D01*
X144051256Y-58483656D01*
X143883971Y-58720644D01*
X143750507Y-58978219D01*
X143653362Y-59251560D01*
X143594342Y-59535579D01*
X143574544Y-59825000D01*
X137725455Y-59825000D01*
X137705658Y-59535584D01*
X137646637Y-59251559D01*
X137549491Y-58978216D01*
X137416030Y-58720648D01*
X137416028Y-58720644D01*
X137248743Y-58483656D01*
X137248741Y-58483653D01*
X137248739Y-58483651D01*
X137050736Y-58271641D01*
X136825708Y-58088567D01*
X136577848Y-57937840D01*
X136311772Y-57822267D01*
X136172104Y-57783133D01*
X136032435Y-57744000D01*
X135745046Y-57704500D01*
X135454954Y-57704500D01*
X135167564Y-57744000D01*
X134964309Y-57800950D01*
X134888228Y-57822267D01*
X134888226Y-57822267D01*
X134888225Y-57822268D01*
X134622151Y-57937840D01*
X134374293Y-58088566D01*
X134149267Y-58271638D01*
X134149264Y-58271640D01*
X134149264Y-58271641D01*
X134102818Y-58321373D01*
X133951256Y-58483656D01*
X133783971Y-58720644D01*
X133650507Y-58978219D01*
X133553362Y-59251560D01*
X133494342Y-59535579D01*
X133474544Y-59825000D01*
X129149500Y-59825000D01*
X129149500Y-58502744D01*
X129151764Y-58482237D01*
X129149561Y-58412127D01*
X129149500Y-58408232D01*
X129149500Y-58380653D01*
X129148997Y-58376672D01*
X129148080Y-58365019D01*
X129146709Y-58321373D01*
X129141120Y-58302140D01*
X129137174Y-58283082D01*
X129134664Y-58263206D01*
X129118588Y-58222604D01*
X129114804Y-58211553D01*
X129108881Y-58191168D01*
X129102618Y-58169610D01*
X129092414Y-58152355D01*
X129083861Y-58134895D01*
X129076486Y-58116269D01*
X129076486Y-58116268D01*
X129050808Y-58080925D01*
X129044401Y-58071171D01*
X129022169Y-58033579D01*
X129008006Y-58019416D01*
X128995367Y-58004617D01*
X128983595Y-57988413D01*
X128949941Y-57960573D01*
X128941299Y-57952709D01*
X126824802Y-55836211D01*
X126811906Y-55820113D01*
X126760775Y-55772098D01*
X126757978Y-55769387D01*
X126738470Y-55749879D01*
X126735290Y-55747412D01*
X126726424Y-55739839D01*
X126694582Y-55709938D01*
X126677024Y-55700285D01*
X126660764Y-55689604D01*
X126644936Y-55677327D01*
X126604851Y-55659980D01*
X126594361Y-55654841D01*
X126556091Y-55633802D01*
X126536691Y-55628821D01*
X126518284Y-55622519D01*
X126499897Y-55614562D01*
X126456758Y-55607729D01*
X126445324Y-55605361D01*
X126403019Y-55594500D01*
X126382984Y-55594500D01*
X126363586Y-55592973D01*
X126356162Y-55591797D01*
X126343805Y-55589840D01*
X126343804Y-55589840D01*
X126310751Y-55592964D01*
X126300325Y-55593950D01*
X126288656Y-55594500D01*
X123625226Y-55594500D01*
X123567969Y-55580489D01*
X123523651Y-55541623D01*
X123460831Y-55451906D01*
X123388495Y-55348599D01*
X123221401Y-55181505D01*
X123035402Y-55051267D01*
X122996539Y-55006951D01*
X122982528Y-54949694D01*
X122996539Y-54892437D01*
X123035405Y-54848119D01*
X123221078Y-54718109D01*
X123388106Y-54551081D01*
X123523600Y-54357576D01*
X123623430Y-54143492D01*
X123680636Y-53930000D01*
X122224000Y-53930000D01*
X122162000Y-53913387D01*
X122116613Y-53868000D01*
X122100000Y-53806000D01*
X122100000Y-53554000D01*
X122116613Y-53492000D01*
X122162000Y-53446613D01*
X122224000Y-53430000D01*
X123680636Y-53430000D01*
X123680635Y-53429999D01*
X123623430Y-53216507D01*
X123523599Y-53002421D01*
X123388109Y-52808921D01*
X123221081Y-52641893D01*
X123035404Y-52511880D01*
X122996539Y-52467562D01*
X122982528Y-52410305D01*
X122996539Y-52353048D01*
X123035402Y-52308732D01*
X123221401Y-52178495D01*
X123388495Y-52011401D01*
X123524035Y-51817830D01*
X123623903Y-51603663D01*
X123685063Y-51375408D01*
X123705659Y-51140000D01*
X123685063Y-50904592D01*
X123623903Y-50676337D01*
X123524035Y-50462171D01*
X123388495Y-50268599D01*
X123221401Y-50101505D01*
X123035839Y-49971573D01*
X122996974Y-49927255D01*
X122982964Y-49869999D01*
X122996975Y-49812742D01*
X123035837Y-49768428D01*
X123221401Y-49638495D01*
X123388495Y-49471401D01*
X123524035Y-49277830D01*
X123623903Y-49063663D01*
X123685063Y-48835408D01*
X123705659Y-48600000D01*
X123685063Y-48364592D01*
X123623903Y-48136337D01*
X123524035Y-47922171D01*
X123388495Y-47728599D01*
X123332765Y-47672869D01*
X126899500Y-47672869D01*
X126905909Y-47732484D01*
X126920073Y-47770458D01*
X126956204Y-47867331D01*
X127042454Y-47982546D01*
X127157669Y-48068796D01*
X127292517Y-48119091D01*
X127352127Y-48125500D01*
X129247872Y-48125499D01*
X129307483Y-48119091D01*
X129442331Y-48068796D01*
X129557546Y-47982546D01*
X129643796Y-47867331D01*
X129662093Y-47818272D01*
X129694205Y-47770458D01*
X129744458Y-47742308D01*
X129802007Y-47739900D01*
X129854435Y-47763753D01*
X130031374Y-47901470D01*
X130235497Y-48011936D01*
X130342864Y-48048795D01*
X130455015Y-48087297D01*
X130455017Y-48087297D01*
X130455019Y-48087298D01*
X130683951Y-48125500D01*
X130916048Y-48125500D01*
X130916049Y-48125500D01*
X131144981Y-48087298D01*
X131364503Y-48011936D01*
X131568626Y-47901470D01*
X131751784Y-47758913D01*
X131908979Y-47588153D01*
X131946192Y-47531193D01*
X131990982Y-47489961D01*
X132050000Y-47475016D01*
X132109018Y-47489961D01*
X132153807Y-47531193D01*
X132191021Y-47588153D01*
X132348216Y-47758913D01*
X132531374Y-47901470D01*
X132735497Y-48011936D01*
X132842864Y-48048795D01*
X132955015Y-48087297D01*
X132955017Y-48087297D01*
X132955019Y-48087298D01*
X133183951Y-48125500D01*
X133416048Y-48125500D01*
X133416049Y-48125500D01*
X133644981Y-48087298D01*
X133864503Y-48011936D01*
X134068626Y-47901470D01*
X134251784Y-47758913D01*
X134349404Y-47652869D01*
X146629500Y-47652869D01*
X146635909Y-47712484D01*
X146643369Y-47732484D01*
X146686204Y-47847331D01*
X146772454Y-47962546D01*
X146887669Y-48048796D01*
X147022517Y-48099091D01*
X147082127Y-48105500D01*
X148977872Y-48105499D01*
X149037483Y-48099091D01*
X149172331Y-48048796D01*
X149287546Y-47962546D01*
X149373796Y-47847331D01*
X149392093Y-47798272D01*
X149424205Y-47750458D01*
X149474458Y-47722308D01*
X149532007Y-47719900D01*
X149584435Y-47743753D01*
X149761374Y-47881470D01*
X149965497Y-47991936D01*
X150023758Y-48011937D01*
X150185015Y-48067297D01*
X150185017Y-48067297D01*
X150185019Y-48067298D01*
X150413951Y-48105500D01*
X150646048Y-48105500D01*
X150646049Y-48105500D01*
X150874981Y-48067298D01*
X151094503Y-47991936D01*
X151298626Y-47881470D01*
X151481784Y-47738913D01*
X151638979Y-47568153D01*
X151676192Y-47511193D01*
X151720982Y-47469961D01*
X151780000Y-47455016D01*
X151839018Y-47469961D01*
X151883807Y-47511193D01*
X151921021Y-47568153D01*
X152078216Y-47738913D01*
X152261374Y-47881470D01*
X152465497Y-47991936D01*
X152523758Y-48011937D01*
X152685015Y-48067297D01*
X152685017Y-48067297D01*
X152685019Y-48067298D01*
X152913951Y-48105500D01*
X153146048Y-48105500D01*
X153146049Y-48105500D01*
X153374981Y-48067298D01*
X153594503Y-47991936D01*
X153798626Y-47881470D01*
X153981784Y-47738913D01*
X154138979Y-47568153D01*
X154265924Y-47373849D01*
X154359157Y-47161300D01*
X154416134Y-46936305D01*
X154435300Y-46705000D01*
X154416134Y-46473695D01*
X154359157Y-46248700D01*
X154265924Y-46036151D01*
X154138979Y-45841847D01*
X153981784Y-45671087D01*
X153798626Y-45528530D01*
X153594503Y-45418064D01*
X153594499Y-45418062D01*
X153594498Y-45418062D01*
X153374984Y-45342702D01*
X153184456Y-45310909D01*
X153146049Y-45304500D01*
X152913951Y-45304500D01*
X152875544Y-45310909D01*
X152685015Y-45342702D01*
X152465501Y-45418062D01*
X152465497Y-45418063D01*
X152465497Y-45418064D01*
X152329415Y-45491707D01*
X152261372Y-45528531D01*
X152078215Y-45671087D01*
X151980597Y-45777130D01*
X151921021Y-45841847D01*
X151907955Y-45861847D01*
X151883809Y-45898805D01*
X151839017Y-45940038D01*
X151780000Y-45954983D01*
X151720983Y-45940038D01*
X151676191Y-45898805D01*
X151638979Y-45841847D01*
X151481784Y-45671087D01*
X151298626Y-45528530D01*
X151094503Y-45418064D01*
X151094499Y-45418062D01*
X151094498Y-45418062D01*
X150874984Y-45342702D01*
X150684456Y-45310909D01*
X150646049Y-45304500D01*
X150413951Y-45304500D01*
X150375544Y-45310909D01*
X150185015Y-45342702D01*
X149965501Y-45418062D01*
X149965497Y-45418063D01*
X149965497Y-45418064D01*
X149829415Y-45491707D01*
X149761372Y-45528531D01*
X149584436Y-45666245D01*
X149532007Y-45690099D01*
X149474458Y-45687691D01*
X149424205Y-45659541D01*
X149392092Y-45611724D01*
X149386353Y-45596337D01*
X149373796Y-45562669D01*
X149287546Y-45447454D01*
X149172331Y-45361204D01*
X149037483Y-45310909D01*
X148977873Y-45304500D01*
X148977869Y-45304500D01*
X147082130Y-45304500D01*
X147022515Y-45310909D01*
X146887669Y-45361204D01*
X146772454Y-45447454D01*
X146686204Y-45562668D01*
X146635909Y-45697516D01*
X146629500Y-45757130D01*
X146629500Y-47652869D01*
X134349404Y-47652869D01*
X134408979Y-47588153D01*
X134535924Y-47393849D01*
X134629157Y-47181300D01*
X134686134Y-46956305D01*
X134705300Y-46725000D01*
X134686134Y-46493695D01*
X134629157Y-46268700D01*
X134535924Y-46056151D01*
X134408979Y-45861847D01*
X134251784Y-45691087D01*
X134068626Y-45548530D01*
X133864503Y-45438064D01*
X133864499Y-45438062D01*
X133864498Y-45438062D01*
X133644984Y-45362702D01*
X133454456Y-45330909D01*
X133416049Y-45324500D01*
X133183951Y-45324500D01*
X133145544Y-45330909D01*
X132955015Y-45362702D01*
X132735501Y-45438062D01*
X132531372Y-45548531D01*
X132348215Y-45691087D01*
X132218910Y-45831551D01*
X132191021Y-45861847D01*
X132166876Y-45898805D01*
X132153809Y-45918805D01*
X132109017Y-45960038D01*
X132050000Y-45974983D01*
X131990983Y-45960038D01*
X131946191Y-45918805D01*
X131908979Y-45861847D01*
X131751784Y-45691087D01*
X131568626Y-45548530D01*
X131364503Y-45438064D01*
X131364499Y-45438062D01*
X131364498Y-45438062D01*
X131144984Y-45362702D01*
X130954456Y-45330909D01*
X130916049Y-45324500D01*
X130683951Y-45324500D01*
X130645544Y-45330909D01*
X130455015Y-45362702D01*
X130235501Y-45438062D01*
X130031372Y-45548531D01*
X129854436Y-45686245D01*
X129802007Y-45710099D01*
X129744458Y-45707691D01*
X129694205Y-45679541D01*
X129662092Y-45631724D01*
X129643796Y-45582669D01*
X129557546Y-45467454D01*
X129442331Y-45381204D01*
X129307483Y-45330909D01*
X129247873Y-45324500D01*
X129247869Y-45324500D01*
X127352130Y-45324500D01*
X127292515Y-45330909D01*
X127157669Y-45381204D01*
X127042454Y-45467454D01*
X126956204Y-45582668D01*
X126905909Y-45717516D01*
X126899500Y-45777130D01*
X126899500Y-47672869D01*
X123332765Y-47672869D01*
X123221401Y-47561505D01*
X123035839Y-47431573D01*
X122996974Y-47387255D01*
X122982964Y-47329999D01*
X122996975Y-47272742D01*
X123035837Y-47228428D01*
X123221401Y-47098495D01*
X123388495Y-46931401D01*
X123524035Y-46737830D01*
X123623903Y-46523663D01*
X123685063Y-46295408D01*
X123705659Y-46060000D01*
X123703572Y-46036151D01*
X123685063Y-45824592D01*
X123666986Y-45757127D01*
X123623903Y-45596337D01*
X123524035Y-45382171D01*
X123388495Y-45188599D01*
X123221401Y-45021505D01*
X123035402Y-44891267D01*
X122996539Y-44846951D01*
X122982528Y-44789694D01*
X122996539Y-44732437D01*
X123035405Y-44688119D01*
X123221078Y-44558109D01*
X123388106Y-44391081D01*
X123523600Y-44197576D01*
X123623430Y-43983492D01*
X123680636Y-43770000D01*
X122224000Y-43770000D01*
X122162000Y-43753387D01*
X122116613Y-43708000D01*
X122100000Y-43646000D01*
X122100000Y-43394000D01*
X122116613Y-43332000D01*
X122162000Y-43286613D01*
X122224000Y-43270000D01*
X123680636Y-43270000D01*
X123680635Y-43269999D01*
X123623430Y-43056507D01*
X123523599Y-42842421D01*
X123388109Y-42648921D01*
X123221081Y-42481893D01*
X123035404Y-42351880D01*
X122996539Y-42307562D01*
X122982528Y-42250305D01*
X122996539Y-42193048D01*
X123035402Y-42148732D01*
X123221401Y-42018495D01*
X123388495Y-41851401D01*
X123524035Y-41657830D01*
X123623903Y-41443663D01*
X123685063Y-41215408D01*
X123705659Y-40980000D01*
X123685063Y-40744592D01*
X123623903Y-40516337D01*
X123524035Y-40302171D01*
X123388495Y-40108599D01*
X123221401Y-39941505D01*
X123035402Y-39811267D01*
X122996539Y-39766951D01*
X122982528Y-39709694D01*
X122996539Y-39652437D01*
X123035405Y-39608119D01*
X123221078Y-39478109D01*
X123388106Y-39311081D01*
X123448381Y-39225000D01*
X123874544Y-39225000D01*
X123894342Y-39514420D01*
X123953362Y-39798439D01*
X124050507Y-40071780D01*
X124183971Y-40329355D01*
X124351256Y-40566343D01*
X124351259Y-40566346D01*
X124351261Y-40566349D01*
X124549264Y-40778359D01*
X124774292Y-40961433D01*
X125022152Y-41112160D01*
X125288228Y-41227733D01*
X125567563Y-41305999D01*
X125854954Y-41345500D01*
X126145046Y-41345500D01*
X126432437Y-41305999D01*
X126711772Y-41227733D01*
X126977848Y-41112160D01*
X127225708Y-40961433D01*
X127450736Y-40778359D01*
X127648739Y-40566349D01*
X127816030Y-40329352D01*
X127949491Y-40071784D01*
X128046637Y-39798441D01*
X128105658Y-39514416D01*
X128125455Y-39225000D01*
X128125455Y-39224999D01*
X133474544Y-39224999D01*
X133494342Y-39514420D01*
X133553362Y-39798439D01*
X133650507Y-40071780D01*
X133783971Y-40329355D01*
X133951256Y-40566343D01*
X133951259Y-40566346D01*
X133951261Y-40566349D01*
X134149264Y-40778359D01*
X134374292Y-40961433D01*
X134622152Y-41112160D01*
X134888228Y-41227733D01*
X135167563Y-41305999D01*
X135454954Y-41345500D01*
X135745046Y-41345500D01*
X136032437Y-41305999D01*
X136311772Y-41227733D01*
X136577848Y-41112160D01*
X136825708Y-40961433D01*
X137050736Y-40778359D01*
X137248739Y-40566349D01*
X137416030Y-40329352D01*
X137549491Y-40071784D01*
X137646637Y-39798441D01*
X137705658Y-39514416D01*
X137725455Y-39225000D01*
X137724087Y-39204999D01*
X143604544Y-39204999D01*
X143624342Y-39494420D01*
X143683362Y-39778439D01*
X143780507Y-40051780D01*
X143913971Y-40309355D01*
X144081256Y-40546343D01*
X144081259Y-40546346D01*
X144081261Y-40546349D01*
X144279264Y-40758359D01*
X144504292Y-40941433D01*
X144752152Y-41092160D01*
X145018228Y-41207733D01*
X145297563Y-41285999D01*
X145584954Y-41325500D01*
X145875046Y-41325500D01*
X146162437Y-41285999D01*
X146441772Y-41207733D01*
X146707848Y-41092160D01*
X146955708Y-40941433D01*
X147180736Y-40758359D01*
X147378739Y-40546349D01*
X147531910Y-40329355D01*
X147546028Y-40309355D01*
X147546030Y-40309352D01*
X147679491Y-40051784D01*
X147776637Y-39778441D01*
X147835658Y-39494416D01*
X147855455Y-39205000D01*
X147835658Y-38915584D01*
X147776637Y-38631559D01*
X147679491Y-38358216D01*
X147546030Y-38100648D01*
X147546028Y-38100644D01*
X147378743Y-37863656D01*
X147378741Y-37863653D01*
X147378739Y-37863651D01*
X147180736Y-37651641D01*
X146955708Y-37468567D01*
X146707848Y-37317840D01*
X146441772Y-37202267D01*
X146302104Y-37163134D01*
X146162435Y-37124000D01*
X145875046Y-37084500D01*
X145584954Y-37084500D01*
X145297564Y-37124000D01*
X145074358Y-37186540D01*
X145018228Y-37202267D01*
X145018226Y-37202267D01*
X145018225Y-37202268D01*
X144752151Y-37317840D01*
X144504293Y-37468566D01*
X144279267Y-37651638D01*
X144279264Y-37651640D01*
X144279264Y-37651641D01*
X144205012Y-37731144D01*
X144081256Y-37863656D01*
X143913971Y-38100644D01*
X143780507Y-38358219D01*
X143683362Y-38631560D01*
X143624342Y-38915579D01*
X143604544Y-39204999D01*
X137724087Y-39204999D01*
X137705658Y-38935584D01*
X137646637Y-38651559D01*
X137549491Y-38378216D01*
X137416030Y-38120648D01*
X137416028Y-38120644D01*
X137248743Y-37883656D01*
X137248741Y-37883653D01*
X137248739Y-37883651D01*
X137050736Y-37671641D01*
X136825708Y-37488567D01*
X136577848Y-37337840D01*
X136311772Y-37222267D01*
X136097751Y-37162301D01*
X136032435Y-37144000D01*
X135745046Y-37104500D01*
X135454954Y-37104500D01*
X135167564Y-37144000D01*
X134959609Y-37202267D01*
X134888228Y-37222267D01*
X134888226Y-37222267D01*
X134888225Y-37222268D01*
X134622151Y-37337840D01*
X134374293Y-37488566D01*
X134149267Y-37671638D01*
X133951256Y-37883656D01*
X133783971Y-38120644D01*
X133650507Y-38378219D01*
X133553362Y-38651560D01*
X133494342Y-38935579D01*
X133474544Y-39224999D01*
X128125455Y-39224999D01*
X128105658Y-38935584D01*
X128046637Y-38651559D01*
X127949491Y-38378216D01*
X127816030Y-38120648D01*
X127816028Y-38120644D01*
X127648743Y-37883656D01*
X127648741Y-37883653D01*
X127648739Y-37883651D01*
X127450736Y-37671641D01*
X127225708Y-37488567D01*
X126977848Y-37337840D01*
X126711772Y-37222267D01*
X126497751Y-37162301D01*
X126432435Y-37144000D01*
X126145046Y-37104500D01*
X125854954Y-37104500D01*
X125567564Y-37144000D01*
X125359609Y-37202267D01*
X125288228Y-37222267D01*
X125288226Y-37222267D01*
X125288225Y-37222268D01*
X125022151Y-37337840D01*
X124774293Y-37488566D01*
X124549267Y-37671638D01*
X124351256Y-37883656D01*
X124183971Y-38120644D01*
X124050507Y-38378219D01*
X123953362Y-38651560D01*
X123894342Y-38935579D01*
X123874544Y-39225000D01*
X123448381Y-39225000D01*
X123523600Y-39117576D01*
X123623430Y-38903492D01*
X123680636Y-38690000D01*
X122224000Y-38690000D01*
X122162000Y-38673387D01*
X122116613Y-38628000D01*
X122100000Y-38566000D01*
X122100000Y-36150000D01*
X122600000Y-36150000D01*
X122600000Y-38190000D01*
X123680636Y-38190000D01*
X123680635Y-38189999D01*
X123623430Y-37976507D01*
X123523599Y-37762421D01*
X123388109Y-37568921D01*
X123265665Y-37446477D01*
X123234369Y-37393731D01*
X123232180Y-37332438D01*
X123259633Y-37277593D01*
X123310013Y-37242614D01*
X123442088Y-37193352D01*
X123557188Y-37107188D01*
X123643352Y-36992089D01*
X123693597Y-36857375D01*
X123700000Y-36797824D01*
X123700000Y-36150000D01*
X157550000Y-36150000D01*
X157550000Y-36797824D01*
X157556402Y-36857375D01*
X157606647Y-36992089D01*
X157692811Y-37107188D01*
X157807910Y-37193352D01*
X157939987Y-37242614D01*
X157990366Y-37277593D01*
X158017819Y-37332438D01*
X158015630Y-37393730D01*
X157984335Y-37446477D01*
X157861888Y-37568924D01*
X157726400Y-37762421D01*
X157626569Y-37976507D01*
X157569364Y-38189999D01*
X157569364Y-38190000D01*
X158650000Y-38190000D01*
X158650000Y-36150000D01*
X157550000Y-36150000D01*
X123700000Y-36150000D01*
X122600000Y-36150000D01*
X122100000Y-36150000D01*
X122100000Y-35774000D01*
X122116613Y-35712000D01*
X122162000Y-35666613D01*
X122224000Y-35650000D01*
X123700000Y-35650000D01*
X123700000Y-35002176D01*
X123693597Y-34942624D01*
X123643352Y-34807911D01*
X123636540Y-34798811D01*
X123612301Y-34735553D01*
X123624923Y-34668996D01*
X123670640Y-34619005D01*
X123735807Y-34600500D01*
X157514193Y-34600500D01*
X157579360Y-34619005D01*
G37*
%TD.AperFunction*%
%TA.AperFunction,Conductor*%
G36*
X126061001Y-56854939D02*
G01*
X126101229Y-56881819D01*
X126835250Y-57615841D01*
X126867417Y-57671701D01*
X126867196Y-57736161D01*
X126834649Y-57791800D01*
X126778570Y-57823584D01*
X126714114Y-57822924D01*
X126711777Y-57822269D01*
X126711772Y-57822267D01*
X126532142Y-57771937D01*
X126432435Y-57744000D01*
X126145046Y-57704500D01*
X125854954Y-57704500D01*
X125567564Y-57744000D01*
X125364309Y-57800950D01*
X125288228Y-57822267D01*
X125288226Y-57822267D01*
X125288225Y-57822268D01*
X125022151Y-57937840D01*
X124774293Y-58088566D01*
X124549267Y-58271638D01*
X124549264Y-58271640D01*
X124549264Y-58271641D01*
X124502818Y-58321373D01*
X124351256Y-58483656D01*
X124183971Y-58720644D01*
X124050507Y-58978219D01*
X123953362Y-59251560D01*
X123894342Y-59535579D01*
X123874544Y-59825000D01*
X123894342Y-60114420D01*
X123953362Y-60398439D01*
X124050507Y-60671780D01*
X124183971Y-60929355D01*
X124351256Y-61166343D01*
X124351259Y-61166346D01*
X124351261Y-61166349D01*
X124549264Y-61378359D01*
X124774292Y-61561433D01*
X125022152Y-61712160D01*
X125288228Y-61827733D01*
X125567563Y-61905999D01*
X125854954Y-61945500D01*
X126145046Y-61945500D01*
X126432437Y-61905999D01*
X126691888Y-61833303D01*
X126756341Y-61832644D01*
X126812420Y-61864428D01*
X126844967Y-61920067D01*
X126845188Y-61984527D01*
X126813021Y-62040387D01*
X125853035Y-63000372D01*
X125797448Y-63032466D01*
X125733260Y-63032466D01*
X125677673Y-63000372D01*
X123687756Y-61010455D01*
X123655663Y-60954868D01*
X123623903Y-60836337D01*
X123524035Y-60622171D01*
X123388495Y-60428599D01*
X123221401Y-60261505D01*
X123035402Y-60131267D01*
X122996539Y-60086951D01*
X122982528Y-60029694D01*
X122996539Y-59972437D01*
X123035405Y-59928119D01*
X123221078Y-59798109D01*
X123388106Y-59631081D01*
X123523600Y-59437576D01*
X123623430Y-59223492D01*
X123680636Y-59010000D01*
X122224000Y-59010000D01*
X122162000Y-58993387D01*
X122116613Y-58948000D01*
X122100000Y-58886000D01*
X122100000Y-58634000D01*
X122116613Y-58572000D01*
X122162000Y-58526613D01*
X122224000Y-58510000D01*
X123680636Y-58510000D01*
X123680635Y-58509999D01*
X123623430Y-58296507D01*
X123523599Y-58082421D01*
X123388109Y-57888921D01*
X123221081Y-57721893D01*
X123035404Y-57591880D01*
X122996539Y-57547562D01*
X122982528Y-57490305D01*
X122996539Y-57433048D01*
X123035402Y-57388732D01*
X123221401Y-57258495D01*
X123388495Y-57091401D01*
X123523653Y-56898374D01*
X123567970Y-56859511D01*
X123625227Y-56845500D01*
X126013548Y-56845500D01*
X126061001Y-56854939D01*
G37*
%TD.AperFunction*%
%TD*%
M02*
