M48
; DRILL file {KiCad 7.0.1-0} date 2023 November 10, Friday 19:31:03
; FORMAT={-:-/ absolute / metric / decimal}
; #@! TF.CreationDate,2023-11-10T19:31:03+13:00
; #@! TF.GenerationSoftware,Kicad,Pcbnew,7.0.1-0
; #@! TF.FileFunction,Plated,1,2,PTH
FMAT,2
METRIC
; #@! TA.AperFunction,Plated,PTH,ViaDrill
T1C0.400
; #@! TA.AperFunction,Plated,PTH,ComponentDrill
T2C0.800
; #@! TA.AperFunction,Plated,PTH,ComponentDrill
T3C0.900
; #@! TA.AperFunction,Plated,PTH,ComponentDrill
T4C1.000
; #@! TA.AperFunction,Plated,PTH,ComponentDrill
T5C1.220
; #@! TA.AperFunction,Plated,PTH,ComponentDrill
T6C1.420
; #@! TA.AperFunction,Plated,PTH,ComponentDrill
T7C1.430
; #@! TA.AperFunction,Plated,PTH,ComponentDrill
T8C1.800
%
G90
G05
T1
X140.33Y-53.32
X150.55Y-85.07
X150.96Y-64.38
X155.3Y-54.87
X155.95Y-52.33
X157.03Y-49.96
T2
X141.35Y-97.99
X141.35Y-100.53
T3
X146.6Y-98.9
X146.6Y-101.44
T4
X122.35Y-35.9
X122.35Y-38.44
X122.35Y-40.98
X122.35Y-43.52
X122.35Y-46.06
X122.35Y-48.6
X122.35Y-51.14
X122.35Y-53.68
X122.35Y-56.22
X122.35Y-58.76
X122.35Y-61.3
X122.35Y-63.84
X122.43Y-113.45
X124.97Y-113.45
X127.51Y-113.45
X128.28Y-108.525
X128.3Y-46.725
X128.3Y-67.325
X128.3Y-87.925
X130.05Y-113.45
X130.78Y-108.525
X130.8Y-46.725
X130.8Y-67.325
X130.8Y-87.925
X132.59Y-113.45
X133.28Y-108.525
X133.3Y-46.725
X133.3Y-67.325
X133.3Y-87.925
X135.13Y-113.45
X137.67Y-113.45
X140.21Y-113.45
X142.75Y-113.45
X145.29Y-113.45
X148.0Y-67.325
X148.0Y-87.925
X148.03Y-46.705
X150.5Y-67.325
X150.5Y-87.925
X150.53Y-46.705
X153.0Y-67.325
X153.0Y-87.925
X153.03Y-46.705
X158.9Y-35.9
X158.9Y-38.44
X158.9Y-40.98
X158.9Y-43.52
X158.9Y-46.06
X158.9Y-48.6
X158.9Y-51.14
X158.9Y-53.68
X158.9Y-56.22
X158.9Y-58.76
X158.9Y-61.3
X158.9Y-63.84
T5
X125.58Y-131.1
X125.6Y-116.61
X135.63Y-116.61
X135.63Y-131.1
X145.66Y-116.61
X145.66Y-131.1
X155.69Y-131.1
X155.71Y-102.13
X155.72Y-116.6
T6
X125.58Y-134.2
X125.6Y-119.71
X135.63Y-119.71
X135.63Y-134.2
X145.66Y-119.71
X145.66Y-134.2
X155.69Y-134.2
X155.71Y-105.23
X155.72Y-119.7
T7
X125.58Y-142.5
X125.6Y-128.01
X135.63Y-128.01
X135.63Y-142.5
X145.66Y-128.01
X145.66Y-142.5
X155.69Y-142.5
X155.71Y-113.53
X155.72Y-128.0
T8
X125.98Y-101.025
X126.0Y-39.225
X126.0Y-59.825
X126.0Y-80.425
X135.58Y-101.025
X135.6Y-39.225
X135.6Y-59.825
X135.6Y-80.425
X145.7Y-59.825
X145.7Y-80.425
X145.73Y-39.205
X155.3Y-59.825
X155.3Y-80.425
X155.33Y-39.205
T0
M30
