%TF.GenerationSoftware,KiCad,Pcbnew,7.0.1-0*%
%TF.CreationDate,2023-11-14T11:16:29+13:00*%
%TF.ProjectId,Punkys-new-brew_panel,50756e6b-7973-42d6-9e65-772d62726577,003*%
%TF.SameCoordinates,Original*%
%TF.FileFunction,Copper,L2,Bot*%
%TF.FilePolarity,Positive*%
%FSLAX46Y46*%
G04 Gerber Fmt 4.6, Leading zero omitted, Abs format (unit mm)*
G04 Created by KiCad (PCBNEW 7.0.1-0) date 2023-11-14 11:16:29*
%MOMM*%
%LPD*%
G01*
G04 APERTURE LIST*
%TA.AperFunction,ComponentPad*%
%ADD10O,6.715000X4.302000*%
%TD*%
G04 APERTURE END LIST*
D10*
%TO.P,J17,1,Pin_1*%
%TO.N,GND*%
X221400000Y-32440000D03*
%TD*%
%TO.P,J18,1,Pin_1*%
%TO.N,GND*%
X221410000Y-154930000D03*
%TD*%
%TA.AperFunction,Conductor*%
%TO.N,GND*%
G36*
X218803929Y-29966725D02*
G01*
X218849207Y-30011174D01*
X218866571Y-30072201D01*
X218851474Y-30133828D01*
X218807869Y-30179919D01*
X218658914Y-30272147D01*
X218404138Y-30477164D01*
X218176491Y-30711933D01*
X217979419Y-30972899D01*
X217815910Y-31256103D01*
X217688446Y-31557252D01*
X217598956Y-31871778D01*
X217549558Y-32190000D01*
X225245691Y-32190000D01*
X225245691Y-32189999D01*
X225231104Y-32032585D01*
X225161145Y-31713140D01*
X225052460Y-31404715D01*
X224906696Y-31111981D01*
X224726063Y-30839379D01*
X224513299Y-30591039D01*
X224271632Y-30370731D01*
X223998482Y-30177372D01*
X223999741Y-30175593D01*
X223961187Y-30139123D01*
X223943033Y-30076787D01*
X223958868Y-30013822D01*
X224004351Y-29967489D01*
X224067012Y-29950492D01*
X253675500Y-29950492D01*
X253737500Y-29967105D01*
X253782887Y-30012492D01*
X253799500Y-30074492D01*
X253799500Y-157325492D01*
X253782887Y-157387492D01*
X253737500Y-157432879D01*
X253675500Y-157449492D01*
X224018982Y-157449492D01*
X223957645Y-157433259D01*
X223912367Y-157388810D01*
X223895003Y-157327783D01*
X223910100Y-157266156D01*
X223953705Y-157220065D01*
X224151085Y-157097852D01*
X224405861Y-156892835D01*
X224633508Y-156658066D01*
X224830580Y-156397100D01*
X224994089Y-156113896D01*
X225121553Y-155812747D01*
X225211043Y-155498221D01*
X225260441Y-155180000D01*
X217564309Y-155180000D01*
X217578895Y-155337414D01*
X217648854Y-155656859D01*
X217757539Y-155965284D01*
X217903303Y-156258018D01*
X218083936Y-156530620D01*
X218296700Y-156778960D01*
X218538367Y-156999268D01*
X218805269Y-157188204D01*
X218857489Y-157216246D01*
X218904652Y-157260865D01*
X218922804Y-157323201D01*
X218906968Y-157386164D01*
X218861485Y-157432495D01*
X218798825Y-157449492D01*
X214524500Y-157449492D01*
X214462500Y-157432879D01*
X214417113Y-157387492D01*
X214400500Y-157325492D01*
X214400500Y-154680000D01*
X217559558Y-154680000D01*
X221160000Y-154680000D01*
X221160000Y-152279000D01*
X221660000Y-152279000D01*
X221660000Y-154680000D01*
X225255691Y-154680000D01*
X225255691Y-154679999D01*
X225241104Y-154522585D01*
X225171145Y-154203140D01*
X225062460Y-153894715D01*
X224916696Y-153601981D01*
X224736063Y-153329379D01*
X224523299Y-153081039D01*
X224281632Y-152860731D01*
X224014724Y-152671791D01*
X223726624Y-152517084D01*
X223421682Y-152398949D01*
X223104543Y-152319185D01*
X222780009Y-152279000D01*
X221660000Y-152279000D01*
X221160000Y-152279000D01*
X220121819Y-152279000D01*
X219877105Y-152294093D01*
X219555654Y-152354182D01*
X219244028Y-152453318D01*
X218946942Y-152589999D01*
X218668914Y-152762147D01*
X218414138Y-152967164D01*
X218186491Y-153201933D01*
X217989419Y-153462899D01*
X217825910Y-153746103D01*
X217698446Y-154047252D01*
X217608956Y-154361778D01*
X217559558Y-154680000D01*
X214400500Y-154680000D01*
X214400500Y-142190000D01*
X215524696Y-142190000D01*
X215543897Y-142556406D01*
X215601293Y-142918788D01*
X215696258Y-143273200D01*
X215827744Y-143615735D01*
X215994320Y-143942656D01*
X216194146Y-144250363D01*
X216234664Y-144300398D01*
X216425051Y-144535506D01*
X216684494Y-144794949D01*
X216874587Y-144948883D01*
X216969636Y-145025853D01*
X217277343Y-145225679D01*
X217277348Y-145225682D01*
X217604264Y-145392255D01*
X217946801Y-145523742D01*
X218301206Y-145618705D01*
X218301209Y-145618705D01*
X218301211Y-145618706D01*
X218663593Y-145676102D01*
X218713373Y-145678710D01*
X219030000Y-145695304D01*
X219361645Y-145677923D01*
X219396406Y-145676102D01*
X219758788Y-145618706D01*
X219758788Y-145618705D01*
X219758794Y-145618705D01*
X220113199Y-145523742D01*
X220455736Y-145392255D01*
X220782652Y-145225682D01*
X221090366Y-145025851D01*
X221375506Y-144794949D01*
X221634949Y-144535506D01*
X221865851Y-144250366D01*
X222065682Y-143942652D01*
X222232255Y-143615736D01*
X222363742Y-143273199D01*
X222458705Y-142918794D01*
X222516102Y-142556404D01*
X222535304Y-142190000D01*
X225554696Y-142190000D01*
X225573897Y-142556406D01*
X225631293Y-142918788D01*
X225726258Y-143273200D01*
X225857744Y-143615735D01*
X226024320Y-143942656D01*
X226224146Y-144250363D01*
X226264664Y-144300398D01*
X226455051Y-144535506D01*
X226714494Y-144794949D01*
X226904587Y-144948883D01*
X226999636Y-145025853D01*
X227307343Y-145225679D01*
X227307348Y-145225682D01*
X227634264Y-145392255D01*
X227976801Y-145523742D01*
X228331206Y-145618705D01*
X228331209Y-145618705D01*
X228331211Y-145618706D01*
X228693593Y-145676102D01*
X228743373Y-145678710D01*
X229060000Y-145695304D01*
X229391645Y-145677923D01*
X229426406Y-145676102D01*
X229788788Y-145618706D01*
X229788788Y-145618705D01*
X229788794Y-145618705D01*
X230143199Y-145523742D01*
X230485736Y-145392255D01*
X230812652Y-145225682D01*
X231120366Y-145025851D01*
X231405506Y-144794949D01*
X231664949Y-144535506D01*
X231895851Y-144250366D01*
X232095682Y-143942652D01*
X232262255Y-143615736D01*
X232393742Y-143273199D01*
X232488705Y-142918794D01*
X232546102Y-142556404D01*
X232565304Y-142190000D01*
X235584696Y-142190000D01*
X235603897Y-142556406D01*
X235661293Y-142918788D01*
X235756258Y-143273200D01*
X235887744Y-143615735D01*
X236054320Y-143942656D01*
X236254146Y-144250363D01*
X236294664Y-144300398D01*
X236485051Y-144535506D01*
X236744494Y-144794949D01*
X236934587Y-144948883D01*
X237029636Y-145025853D01*
X237337343Y-145225679D01*
X237337348Y-145225682D01*
X237664264Y-145392255D01*
X238006801Y-145523742D01*
X238361206Y-145618705D01*
X238361209Y-145618705D01*
X238361211Y-145618706D01*
X238723593Y-145676102D01*
X238773373Y-145678710D01*
X239090000Y-145695304D01*
X239421645Y-145677923D01*
X239456406Y-145676102D01*
X239818788Y-145618706D01*
X239818788Y-145618705D01*
X239818794Y-145618705D01*
X240173199Y-145523742D01*
X240515736Y-145392255D01*
X240842652Y-145225682D01*
X241150366Y-145025851D01*
X241435506Y-144794949D01*
X241694949Y-144535506D01*
X241925851Y-144250366D01*
X242125682Y-143942652D01*
X242292255Y-143615736D01*
X242423742Y-143273199D01*
X242518705Y-142918794D01*
X242576102Y-142556404D01*
X242595304Y-142190000D01*
X245624696Y-142190000D01*
X245643897Y-142556406D01*
X245701293Y-142918788D01*
X245796258Y-143273200D01*
X245927744Y-143615735D01*
X246094320Y-143942656D01*
X246294146Y-144250363D01*
X246334664Y-144300398D01*
X246525051Y-144535506D01*
X246784494Y-144794949D01*
X246974587Y-144948883D01*
X247069636Y-145025853D01*
X247377343Y-145225679D01*
X247377348Y-145225682D01*
X247704264Y-145392255D01*
X248046801Y-145523742D01*
X248401206Y-145618705D01*
X248401209Y-145618705D01*
X248401211Y-145618706D01*
X248763593Y-145676102D01*
X248813373Y-145678710D01*
X249130000Y-145695304D01*
X249461645Y-145677923D01*
X249496406Y-145676102D01*
X249858788Y-145618706D01*
X249858788Y-145618705D01*
X249858794Y-145618705D01*
X250213199Y-145523742D01*
X250555736Y-145392255D01*
X250882652Y-145225682D01*
X251190366Y-145025851D01*
X251475506Y-144794949D01*
X251734949Y-144535506D01*
X251965851Y-144250366D01*
X252165682Y-143942652D01*
X252332255Y-143615736D01*
X252463742Y-143273199D01*
X252558705Y-142918794D01*
X252616102Y-142556404D01*
X252635304Y-142190000D01*
X252616102Y-141823596D01*
X252558705Y-141461206D01*
X252463742Y-141106801D01*
X252332255Y-140764264D01*
X252165682Y-140437348D01*
X252165679Y-140437343D01*
X251965853Y-140129636D01*
X251888883Y-140034587D01*
X251734949Y-139844494D01*
X251475506Y-139585051D01*
X251332935Y-139469599D01*
X251190363Y-139354146D01*
X250882656Y-139154320D01*
X250555735Y-138987744D01*
X250213200Y-138856258D01*
X249858788Y-138761293D01*
X249496406Y-138703897D01*
X249130000Y-138684696D01*
X248763593Y-138703897D01*
X248401211Y-138761293D01*
X248046799Y-138856258D01*
X247704264Y-138987744D01*
X247377343Y-139154320D01*
X247069636Y-139354146D01*
X246784490Y-139585054D01*
X246525054Y-139844490D01*
X246294146Y-140129636D01*
X246094320Y-140437343D01*
X245927744Y-140764264D01*
X245796258Y-141106799D01*
X245701293Y-141461211D01*
X245643897Y-141823593D01*
X245624696Y-142190000D01*
X242595304Y-142190000D01*
X242576102Y-141823596D01*
X242518705Y-141461206D01*
X242423742Y-141106801D01*
X242292255Y-140764264D01*
X242125682Y-140437348D01*
X242125679Y-140437343D01*
X241925853Y-140129636D01*
X241848883Y-140034587D01*
X241694949Y-139844494D01*
X241435506Y-139585051D01*
X241292935Y-139469599D01*
X241150363Y-139354146D01*
X240842656Y-139154320D01*
X240515735Y-138987744D01*
X240173200Y-138856258D01*
X239818788Y-138761293D01*
X239456406Y-138703897D01*
X239090000Y-138684696D01*
X238723593Y-138703897D01*
X238361211Y-138761293D01*
X238006799Y-138856258D01*
X237664264Y-138987744D01*
X237337343Y-139154320D01*
X237029636Y-139354146D01*
X236744490Y-139585054D01*
X236485054Y-139844490D01*
X236254146Y-140129636D01*
X236054320Y-140437343D01*
X235887744Y-140764264D01*
X235756258Y-141106799D01*
X235661293Y-141461211D01*
X235603897Y-141823593D01*
X235584696Y-142190000D01*
X232565304Y-142190000D01*
X232546102Y-141823596D01*
X232488705Y-141461206D01*
X232393742Y-141106801D01*
X232262255Y-140764264D01*
X232095682Y-140437348D01*
X232095679Y-140437343D01*
X231895853Y-140129636D01*
X231818883Y-140034587D01*
X231664949Y-139844494D01*
X231405506Y-139585051D01*
X231262935Y-139469599D01*
X231120363Y-139354146D01*
X230812656Y-139154320D01*
X230485735Y-138987744D01*
X230143200Y-138856258D01*
X229788788Y-138761293D01*
X229426406Y-138703897D01*
X229060000Y-138684696D01*
X228693593Y-138703897D01*
X228331211Y-138761293D01*
X227976799Y-138856258D01*
X227634264Y-138987744D01*
X227307343Y-139154320D01*
X226999636Y-139354146D01*
X226714490Y-139585054D01*
X226455054Y-139844490D01*
X226224146Y-140129636D01*
X226024320Y-140437343D01*
X225857744Y-140764264D01*
X225726258Y-141106799D01*
X225631293Y-141461211D01*
X225573897Y-141823593D01*
X225554696Y-142190000D01*
X222535304Y-142190000D01*
X222516102Y-141823596D01*
X222458705Y-141461206D01*
X222363742Y-141106801D01*
X222232255Y-140764264D01*
X222065682Y-140437348D01*
X222065679Y-140437343D01*
X221865853Y-140129636D01*
X221788883Y-140034587D01*
X221634949Y-139844494D01*
X221375506Y-139585051D01*
X221232935Y-139469599D01*
X221090363Y-139354146D01*
X220782656Y-139154320D01*
X220455735Y-138987744D01*
X220113200Y-138856258D01*
X219758788Y-138761293D01*
X219396406Y-138703897D01*
X219030000Y-138684696D01*
X218663593Y-138703897D01*
X218301211Y-138761293D01*
X217946799Y-138856258D01*
X217604264Y-138987744D01*
X217277343Y-139154320D01*
X216969636Y-139354146D01*
X216684490Y-139585054D01*
X216425054Y-139844490D01*
X216194146Y-140129636D01*
X215994320Y-140437343D01*
X215827744Y-140764264D01*
X215696258Y-141106799D01*
X215601293Y-141461211D01*
X215543897Y-141823593D01*
X215524696Y-142190000D01*
X214400500Y-142190000D01*
X214400500Y-127689999D01*
X215524696Y-127689999D01*
X215543897Y-128056406D01*
X215601293Y-128418788D01*
X215696258Y-128773200D01*
X215827744Y-129115735D01*
X215994320Y-129442656D01*
X216194146Y-129750363D01*
X216234664Y-129800398D01*
X216425051Y-130035506D01*
X216684494Y-130294949D01*
X216874587Y-130448883D01*
X216969636Y-130525853D01*
X217277343Y-130725679D01*
X217277348Y-130725682D01*
X217604264Y-130892255D01*
X217946801Y-131023742D01*
X218301206Y-131118705D01*
X218301209Y-131118705D01*
X218301211Y-131118706D01*
X218663593Y-131176102D01*
X218713373Y-131178710D01*
X219030000Y-131195304D01*
X219361645Y-131177923D01*
X219396406Y-131176102D01*
X219758788Y-131118706D01*
X219758788Y-131118705D01*
X219758794Y-131118705D01*
X220113199Y-131023742D01*
X220455736Y-130892255D01*
X220782652Y-130725682D01*
X221090366Y-130525851D01*
X221375506Y-130294949D01*
X221634949Y-130035506D01*
X221865851Y-129750366D01*
X222065682Y-129442652D01*
X222232255Y-129115736D01*
X222363742Y-128773199D01*
X222458705Y-128418794D01*
X222516102Y-128056404D01*
X222535304Y-127690000D01*
X222535304Y-127689999D01*
X225554696Y-127689999D01*
X225573897Y-128056406D01*
X225631293Y-128418788D01*
X225726258Y-128773200D01*
X225857744Y-129115735D01*
X226024320Y-129442656D01*
X226224146Y-129750363D01*
X226264664Y-129800398D01*
X226455051Y-130035506D01*
X226714494Y-130294949D01*
X226904587Y-130448883D01*
X226999636Y-130525853D01*
X227307343Y-130725679D01*
X227307348Y-130725682D01*
X227634264Y-130892255D01*
X227976801Y-131023742D01*
X228331206Y-131118705D01*
X228331209Y-131118705D01*
X228331211Y-131118706D01*
X228693593Y-131176102D01*
X228743373Y-131178710D01*
X229060000Y-131195304D01*
X229391645Y-131177923D01*
X229426406Y-131176102D01*
X229788788Y-131118706D01*
X229788788Y-131118705D01*
X229788794Y-131118705D01*
X230143199Y-131023742D01*
X230485736Y-130892255D01*
X230812652Y-130725682D01*
X231120366Y-130525851D01*
X231405506Y-130294949D01*
X231664949Y-130035506D01*
X231895851Y-129750366D01*
X232095682Y-129442652D01*
X232262255Y-129115736D01*
X232393742Y-128773199D01*
X232488705Y-128418794D01*
X232546102Y-128056404D01*
X232565304Y-127690000D01*
X232565304Y-127689999D01*
X235584696Y-127689999D01*
X235603897Y-128056406D01*
X235661293Y-128418788D01*
X235756258Y-128773200D01*
X235887744Y-129115735D01*
X236054320Y-129442656D01*
X236254146Y-129750363D01*
X236294664Y-129800398D01*
X236485051Y-130035506D01*
X236744494Y-130294949D01*
X236934587Y-130448883D01*
X237029636Y-130525853D01*
X237337343Y-130725679D01*
X237337348Y-130725682D01*
X237664264Y-130892255D01*
X238006801Y-131023742D01*
X238361206Y-131118705D01*
X238361209Y-131118705D01*
X238361211Y-131118706D01*
X238723593Y-131176102D01*
X238773373Y-131178710D01*
X239090000Y-131195304D01*
X239421645Y-131177923D01*
X239456406Y-131176102D01*
X239818788Y-131118706D01*
X239818788Y-131118705D01*
X239818794Y-131118705D01*
X240173199Y-131023742D01*
X240515736Y-130892255D01*
X240842652Y-130725682D01*
X241150366Y-130525851D01*
X241435506Y-130294949D01*
X241694949Y-130035506D01*
X241925851Y-129750366D01*
X242125682Y-129442652D01*
X242292255Y-129115736D01*
X242423742Y-128773199D01*
X242518705Y-128418794D01*
X242576102Y-128056404D01*
X242594780Y-127700000D01*
X245624696Y-127700000D01*
X245643897Y-128066406D01*
X245701293Y-128428788D01*
X245796258Y-128783200D01*
X245927744Y-129125735D01*
X246094320Y-129452656D01*
X246294146Y-129760363D01*
X246326566Y-129800398D01*
X246525051Y-130045506D01*
X246784494Y-130304949D01*
X246974587Y-130458883D01*
X247069636Y-130535853D01*
X247361949Y-130725682D01*
X247377348Y-130735682D01*
X247704264Y-130902255D01*
X248046801Y-131033742D01*
X248401206Y-131128705D01*
X248401209Y-131128705D01*
X248401211Y-131128706D01*
X248763593Y-131186102D01*
X248813373Y-131188710D01*
X249130000Y-131205304D01*
X249461645Y-131187923D01*
X249496406Y-131186102D01*
X249858788Y-131128706D01*
X249858788Y-131128705D01*
X249858794Y-131128705D01*
X250213199Y-131033742D01*
X250555736Y-130902255D01*
X250882652Y-130735682D01*
X251190366Y-130535851D01*
X251475506Y-130304949D01*
X251734949Y-130045506D01*
X251965851Y-129760366D01*
X252165682Y-129452652D01*
X252332255Y-129125736D01*
X252463742Y-128783199D01*
X252558705Y-128428794D01*
X252616102Y-128066404D01*
X252635304Y-127700000D01*
X252616102Y-127333596D01*
X252614518Y-127323596D01*
X252558706Y-126971211D01*
X252558705Y-126971206D01*
X252463742Y-126616801D01*
X252332255Y-126274264D01*
X252165682Y-125947348D01*
X252159185Y-125937343D01*
X251965853Y-125639636D01*
X251888883Y-125544587D01*
X251734949Y-125354494D01*
X251475506Y-125095051D01*
X251332936Y-124979600D01*
X251190363Y-124864146D01*
X250882656Y-124664320D01*
X250555735Y-124497744D01*
X250213200Y-124366258D01*
X249858788Y-124271293D01*
X249496406Y-124213897D01*
X249130000Y-124194696D01*
X248763593Y-124213897D01*
X248401211Y-124271293D01*
X248046799Y-124366258D01*
X247704264Y-124497744D01*
X247377343Y-124664320D01*
X247069636Y-124864146D01*
X246784490Y-125095054D01*
X246525054Y-125354490D01*
X246294146Y-125639636D01*
X246094320Y-125947343D01*
X245927744Y-126274264D01*
X245796258Y-126616799D01*
X245701293Y-126971211D01*
X245643897Y-127333593D01*
X245624696Y-127700000D01*
X242594780Y-127700000D01*
X242595304Y-127690000D01*
X242576102Y-127323596D01*
X242518705Y-126961206D01*
X242423742Y-126606801D01*
X242292255Y-126264264D01*
X242125682Y-125937348D01*
X242125679Y-125937343D01*
X241925853Y-125629636D01*
X241770980Y-125438385D01*
X241694949Y-125344494D01*
X241435506Y-125085051D01*
X241292935Y-124969599D01*
X241150363Y-124854146D01*
X240842656Y-124654320D01*
X240515735Y-124487744D01*
X240173200Y-124356258D01*
X239818788Y-124261293D01*
X239456406Y-124203897D01*
X239090000Y-124184696D01*
X238723593Y-124203897D01*
X238361211Y-124261293D01*
X238006799Y-124356258D01*
X237664264Y-124487744D01*
X237337343Y-124654320D01*
X237029636Y-124854146D01*
X236744490Y-125085054D01*
X236485054Y-125344490D01*
X236254146Y-125629636D01*
X236054320Y-125937343D01*
X235887744Y-126264264D01*
X235756258Y-126606799D01*
X235661293Y-126961211D01*
X235603897Y-127323593D01*
X235584696Y-127689999D01*
X232565304Y-127689999D01*
X232546102Y-127323596D01*
X232488705Y-126961206D01*
X232393742Y-126606801D01*
X232262255Y-126264264D01*
X232095682Y-125937348D01*
X232095679Y-125937343D01*
X231895853Y-125629636D01*
X231740980Y-125438385D01*
X231664949Y-125344494D01*
X231405506Y-125085051D01*
X231262935Y-124969599D01*
X231120363Y-124854146D01*
X230812656Y-124654320D01*
X230485735Y-124487744D01*
X230143200Y-124356258D01*
X229788788Y-124261293D01*
X229426406Y-124203897D01*
X229060000Y-124184696D01*
X228693593Y-124203897D01*
X228331211Y-124261293D01*
X227976799Y-124356258D01*
X227634264Y-124487744D01*
X227307343Y-124654320D01*
X226999636Y-124854146D01*
X226714490Y-125085054D01*
X226455054Y-125344490D01*
X226224146Y-125629636D01*
X226024320Y-125937343D01*
X225857744Y-126264264D01*
X225726258Y-126606799D01*
X225631293Y-126961211D01*
X225573897Y-127323593D01*
X225554696Y-127689999D01*
X222535304Y-127689999D01*
X222516102Y-127323596D01*
X222458705Y-126961206D01*
X222363742Y-126606801D01*
X222232255Y-126264264D01*
X222065682Y-125937348D01*
X222065679Y-125937343D01*
X221865853Y-125629636D01*
X221710980Y-125438385D01*
X221634949Y-125344494D01*
X221375506Y-125085051D01*
X221232935Y-124969599D01*
X221090363Y-124854146D01*
X220782656Y-124654320D01*
X220455735Y-124487744D01*
X220113200Y-124356258D01*
X219758788Y-124261293D01*
X219396406Y-124203897D01*
X219030000Y-124184696D01*
X218663593Y-124203897D01*
X218301211Y-124261293D01*
X217946799Y-124356258D01*
X217604264Y-124487744D01*
X217277343Y-124654320D01*
X216969636Y-124854146D01*
X216684490Y-125085054D01*
X216425054Y-125344490D01*
X216194146Y-125629636D01*
X215994320Y-125937343D01*
X215827744Y-126264264D01*
X215696258Y-126606799D01*
X215601293Y-126961211D01*
X215543897Y-127323593D01*
X215524696Y-127689999D01*
X214400500Y-127689999D01*
X214400500Y-113189999D01*
X245624696Y-113189999D01*
X245643897Y-113556406D01*
X245701293Y-113918788D01*
X245796258Y-114273200D01*
X245927744Y-114615735D01*
X246094320Y-114942656D01*
X246294146Y-115250363D01*
X246334664Y-115300398D01*
X246525051Y-115535506D01*
X246784494Y-115794949D01*
X246974587Y-115948883D01*
X247069636Y-116025853D01*
X247377343Y-116225679D01*
X247377348Y-116225682D01*
X247704264Y-116392255D01*
X248046801Y-116523742D01*
X248401206Y-116618705D01*
X248401209Y-116618705D01*
X248401211Y-116618706D01*
X248763593Y-116676102D01*
X248813373Y-116678710D01*
X249130000Y-116695304D01*
X249461645Y-116677923D01*
X249496406Y-116676102D01*
X249858788Y-116618706D01*
X249858788Y-116618705D01*
X249858794Y-116618705D01*
X250213199Y-116523742D01*
X250555736Y-116392255D01*
X250882652Y-116225682D01*
X251190366Y-116025851D01*
X251475506Y-115794949D01*
X251734949Y-115535506D01*
X251965851Y-115250366D01*
X252165682Y-114942652D01*
X252332255Y-114615736D01*
X252463742Y-114273199D01*
X252558705Y-113918794D01*
X252616102Y-113556404D01*
X252635304Y-113190000D01*
X252616102Y-112823596D01*
X252558705Y-112461206D01*
X252463742Y-112106801D01*
X252332255Y-111764264D01*
X252165682Y-111437348D01*
X252165679Y-111437343D01*
X251965853Y-111129636D01*
X251888883Y-111034587D01*
X251734949Y-110844494D01*
X251475506Y-110585051D01*
X251332935Y-110469599D01*
X251190363Y-110354146D01*
X250882656Y-110154320D01*
X250555735Y-109987744D01*
X250213200Y-109856258D01*
X249858788Y-109761293D01*
X249496406Y-109703897D01*
X249130000Y-109684696D01*
X248763593Y-109703897D01*
X248401211Y-109761293D01*
X248046799Y-109856258D01*
X247704264Y-109987744D01*
X247377343Y-110154320D01*
X247069636Y-110354146D01*
X246784490Y-110585054D01*
X246525054Y-110844490D01*
X246294146Y-111129636D01*
X246094320Y-111437343D01*
X245927744Y-111764264D01*
X245796258Y-112106799D01*
X245701293Y-112461211D01*
X245643897Y-112823593D01*
X245624696Y-113189999D01*
X214400500Y-113189999D01*
X214400500Y-105579999D01*
X220034433Y-105579999D01*
X220054685Y-105992219D01*
X220115243Y-106400466D01*
X220215524Y-106800813D01*
X220354561Y-107189394D01*
X220531024Y-107562495D01*
X220743196Y-107916482D01*
X220989057Y-108247987D01*
X221266215Y-108553784D01*
X221572012Y-108830942D01*
X221903517Y-109076803D01*
X222257504Y-109288975D01*
X222257508Y-109288977D01*
X222257510Y-109288978D01*
X222630600Y-109465436D01*
X222630603Y-109465437D01*
X222630605Y-109465438D01*
X223019186Y-109604475D01*
X223019189Y-109604476D01*
X223419535Y-109704757D01*
X223827782Y-109765315D01*
X224240000Y-109785566D01*
X224652218Y-109765315D01*
X225060465Y-109704757D01*
X225460811Y-109604476D01*
X225849400Y-109465436D01*
X226222490Y-109288978D01*
X226576487Y-109076800D01*
X226907983Y-108830946D01*
X227213784Y-108553784D01*
X227490946Y-108247983D01*
X227736800Y-107916487D01*
X227948978Y-107562490D01*
X228125436Y-107189400D01*
X228264476Y-106800811D01*
X228364757Y-106400465D01*
X228425315Y-105992218D01*
X228445566Y-105580000D01*
X228440163Y-105470022D01*
X237259999Y-105470022D01*
X237269999Y-106309994D01*
X237300648Y-106899975D01*
X237310000Y-107080000D01*
X237380000Y-107430000D01*
X237400000Y-107460000D01*
X237400001Y-107460000D01*
X237416118Y-107468625D01*
X237429999Y-107470000D01*
X237429999Y-107469999D01*
X237430000Y-107470000D01*
X237460000Y-107450000D01*
X237500000Y-107360000D01*
X237539929Y-107150367D01*
X237540066Y-107149668D01*
X237576055Y-106969724D01*
X237589981Y-106932533D01*
X237616894Y-106885434D01*
X237623638Y-106874906D01*
X237657989Y-106826814D01*
X237686813Y-106797990D01*
X237740000Y-106760000D01*
X237770000Y-106690000D01*
X237790000Y-106580000D01*
X237800000Y-105930000D01*
X237790087Y-105533480D01*
X237790107Y-105526547D01*
X237791771Y-105473315D01*
X237811533Y-105409939D01*
X237861159Y-105365837D01*
X237926424Y-105353657D01*
X237988617Y-105376891D01*
X238029909Y-105428877D01*
X238043077Y-105460000D01*
X238167515Y-105754127D01*
X238171866Y-105766086D01*
X238397858Y-106503016D01*
X238401307Y-106517190D01*
X238418000Y-106609000D01*
X238420000Y-106631182D01*
X238420000Y-106790000D01*
X238426667Y-106810000D01*
X238449999Y-106879999D01*
X238480016Y-106932528D01*
X238490000Y-106950000D01*
X238560000Y-106990000D01*
X238610000Y-106940000D01*
X238650000Y-106850000D01*
X239079416Y-104613038D01*
X239080741Y-104606975D01*
X239210000Y-104080000D01*
X239270299Y-103830581D01*
X239298803Y-103776609D01*
X239349607Y-103742774D01*
X239410399Y-103737278D01*
X239466448Y-103761452D01*
X239504172Y-103809439D01*
X239514430Y-103869611D01*
X239459999Y-104550004D01*
X239420001Y-105289968D01*
X239400062Y-105758531D01*
X239399899Y-105761507D01*
X239369999Y-106209995D01*
X239379999Y-106899975D01*
X239390000Y-107210001D01*
X239419997Y-107249997D01*
X239419999Y-107249999D01*
X239420000Y-107250000D01*
X239430000Y-107260000D01*
X239470000Y-107270000D01*
X239539999Y-107270000D01*
X239540000Y-107270000D01*
X239760000Y-107210000D01*
X240160000Y-107080000D01*
X240460000Y-106950000D01*
X240560000Y-106870000D01*
X240580000Y-106830000D01*
X240580000Y-106770000D01*
X240520000Y-106730000D01*
X240410000Y-106720000D01*
X240299997Y-106730000D01*
X240206273Y-106764082D01*
X240172731Y-106771233D01*
X240071842Y-106778439D01*
X240028943Y-106773983D01*
X239932017Y-106746290D01*
X239891682Y-106726261D01*
X239811556Y-106666167D01*
X239777097Y-106626345D01*
X239762727Y-106600000D01*
X239735283Y-106549687D01*
X239726510Y-106529532D01*
X239686362Y-106409088D01*
X239680000Y-106369877D01*
X239680000Y-106223135D01*
X239682751Y-106197160D01*
X239704609Y-106095153D01*
X239724953Y-106049066D01*
X239740530Y-106027258D01*
X239790546Y-105986253D01*
X239953308Y-105913010D01*
X239967000Y-105907799D01*
X240310000Y-105800000D01*
X240580000Y-105700000D01*
X240730000Y-105630000D01*
X240730002Y-105629997D01*
X240730004Y-105629996D01*
X240767501Y-105579999D01*
X240790000Y-105550000D01*
X240820000Y-105460000D01*
X240793096Y-105365837D01*
X240780000Y-105319999D01*
X240650001Y-105100001D01*
X240615070Y-105067757D01*
X240520000Y-104980000D01*
X240519998Y-104979999D01*
X240369999Y-104919999D01*
X240153060Y-104910139D01*
X240146936Y-104909708D01*
X240107423Y-104905945D01*
X239969141Y-104892775D01*
X239915179Y-104874486D01*
X239904526Y-104867828D01*
X239868726Y-104833880D01*
X239848998Y-104788659D01*
X239847143Y-104780001D01*
X239834138Y-104719313D01*
X239832067Y-104680360D01*
X239848409Y-104525106D01*
X239855190Y-104495726D01*
X239880601Y-104425846D01*
X239909448Y-104380551D01*
X239950000Y-104340000D01*
X239970000Y-104250000D01*
X239960000Y-104150000D01*
X239948949Y-104113163D01*
X239947773Y-104046083D01*
X239981709Y-103988209D01*
X240040822Y-103956483D01*
X240056716Y-103952951D01*
X240083611Y-103950000D01*
X240109535Y-103950000D01*
X240175932Y-103969274D01*
X240221687Y-104021105D01*
X240232577Y-104089380D01*
X240230929Y-104102564D01*
X240228185Y-104117257D01*
X240220000Y-104149997D01*
X240220000Y-104149999D01*
X240220000Y-104150000D01*
X240240000Y-104190000D01*
X240300000Y-104190000D01*
X240380000Y-104150000D01*
X240527457Y-103982881D01*
X240532725Y-103977274D01*
X240578242Y-103931757D01*
X240628201Y-103901316D01*
X240686558Y-103897169D01*
X240738928Y-103919642D01*
X240740000Y-103920000D01*
X240800000Y-103920000D01*
X240800001Y-103920000D01*
X240864999Y-103910000D01*
X240930000Y-103900000D01*
X241030000Y-103840000D01*
X241030002Y-103839995D01*
X241037490Y-103832255D01*
X241095578Y-103798411D01*
X241162792Y-103799855D01*
X241219373Y-103836164D01*
X241248690Y-103896664D01*
X241359819Y-104518991D01*
X241360159Y-104520987D01*
X241469735Y-105198362D01*
X241470218Y-105201621D01*
X241539344Y-105715128D01*
X241540268Y-105724917D01*
X241570000Y-106270002D01*
X241599999Y-106469998D01*
X241600000Y-106470000D01*
X241649998Y-106579996D01*
X241650000Y-106579999D01*
X241649999Y-106579999D01*
X241650000Y-106580000D01*
X241670806Y-106583467D01*
X241707158Y-106595523D01*
X241710887Y-106598244D01*
X241719998Y-106599998D01*
X241720000Y-106600000D01*
X241790000Y-106570000D01*
X241850000Y-106470000D01*
X241939650Y-105961983D01*
X241940419Y-105958008D01*
X241944583Y-105938230D01*
X242019234Y-105583636D01*
X242020985Y-105576411D01*
X242159380Y-105072256D01*
X242160708Y-105067757D01*
X242162843Y-105060996D01*
X242276658Y-104700582D01*
X242285167Y-104680180D01*
X242305739Y-104641094D01*
X242345941Y-104596174D01*
X242402575Y-104575520D01*
X242462256Y-104584014D01*
X242510880Y-104619647D01*
X242536954Y-104673999D01*
X242620002Y-105080010D01*
X242819997Y-105859993D01*
X242900000Y-106130001D01*
X242989999Y-106279999D01*
X242990000Y-106280000D01*
X243060000Y-106300000D01*
X243110000Y-106290000D01*
X243150000Y-106190000D01*
X243170000Y-105960000D01*
X243171117Y-105938230D01*
X243180332Y-105758531D01*
X243189811Y-105573669D01*
X243190402Y-105566373D01*
X243229343Y-105215908D01*
X243231223Y-105204165D01*
X243231757Y-105201621D01*
X243276129Y-104990000D01*
X244080000Y-104990000D01*
X244100000Y-105050000D01*
X244130000Y-105090000D01*
X244160000Y-105120000D01*
X244260000Y-105180000D01*
X244350000Y-105210000D01*
X244460000Y-105240000D01*
X244579999Y-105255999D01*
X244609999Y-105260000D01*
X244609999Y-105259999D01*
X244610000Y-105260000D01*
X244780000Y-105250000D01*
X244940000Y-105180000D01*
X245020000Y-105110000D01*
X245090000Y-105010000D01*
X245110000Y-104880000D01*
X245110000Y-104780000D01*
X245109309Y-104778790D01*
X245070000Y-104709999D01*
X244990001Y-104670000D01*
X244990000Y-104670000D01*
X244830000Y-104670000D01*
X244829997Y-104670000D01*
X244670021Y-104689997D01*
X244670009Y-104689998D01*
X244670000Y-104690000D01*
X244290000Y-104750000D01*
X244289997Y-104750000D01*
X244289997Y-104750001D01*
X244190000Y-104789999D01*
X244110001Y-104849998D01*
X244109999Y-104850001D01*
X244087500Y-104910000D01*
X244080000Y-104930000D01*
X244080000Y-104990000D01*
X243276129Y-104990000D01*
X243489331Y-103973190D01*
X243490836Y-103966848D01*
X243495306Y-103950000D01*
X243616255Y-103494113D01*
X243626924Y-103467139D01*
X243690000Y-103350000D01*
X243720000Y-103260000D01*
X243740000Y-103110000D01*
X243730000Y-102760000D01*
X243700000Y-102570000D01*
X243696915Y-102564602D01*
X243660000Y-102500000D01*
X243600000Y-102500000D01*
X243599999Y-102500000D01*
X243581578Y-102555262D01*
X243578041Y-102564602D01*
X243380000Y-103029998D01*
X243320367Y-103238713D01*
X243319608Y-103241265D01*
X243150002Y-103789990D01*
X243028486Y-104235551D01*
X242993581Y-104293464D01*
X242933481Y-104324454D01*
X242866058Y-104319304D01*
X242811361Y-104279547D01*
X242785657Y-104217003D01*
X242782775Y-104191789D01*
X242770000Y-104080000D01*
X242670000Y-103580000D01*
X242626843Y-103467129D01*
X242540001Y-103240001D01*
X242538713Y-103238713D01*
X242480000Y-103180000D01*
X242430000Y-103180000D01*
X242429999Y-103180000D01*
X242380000Y-103209999D01*
X242330001Y-103319996D01*
X242269998Y-103480004D01*
X241990476Y-104498262D01*
X241989488Y-104501672D01*
X241904813Y-104778790D01*
X241871968Y-104832132D01*
X241817241Y-104862613D01*
X241754598Y-104862454D01*
X241700027Y-104831695D01*
X241667456Y-104778188D01*
X241652981Y-104729937D01*
X241648714Y-104709716D01*
X241620000Y-104480000D01*
X241550000Y-104160000D01*
X241300000Y-103180000D01*
X241250000Y-103110000D01*
X241210000Y-103090000D01*
X241209999Y-103090000D01*
X241190000Y-103169999D01*
X241180000Y-103280000D01*
X241190000Y-103410000D01*
X241190026Y-103410352D01*
X241191400Y-103428906D01*
X241179309Y-103492176D01*
X241137110Y-103540844D01*
X241076191Y-103561776D01*
X241012991Y-103549323D01*
X240964565Y-103506847D01*
X240940000Y-103470000D01*
X240939998Y-103469998D01*
X240780004Y-103380002D01*
X240780002Y-103380001D01*
X240780000Y-103380000D01*
X240650000Y-103330000D01*
X240460000Y-103300000D01*
X240237464Y-103280649D01*
X240222661Y-103278455D01*
X240040019Y-103240004D01*
X240040000Y-103240000D01*
X239949062Y-103223465D01*
X239858107Y-103206928D01*
X239822740Y-103194764D01*
X239792609Y-103172609D01*
X239776886Y-103156886D01*
X239750593Y-103118051D01*
X239738571Y-103090000D01*
X239730000Y-103070000D01*
X239700000Y-103040000D01*
X239650000Y-103040000D01*
X239645265Y-103040000D01*
X239586968Y-103054923D01*
X239521461Y-103033808D01*
X239477305Y-102981014D01*
X239468102Y-102912808D01*
X239470000Y-102900000D01*
X239470000Y-102590000D01*
X239430000Y-102350000D01*
X239390000Y-102260000D01*
X239330000Y-102230000D01*
X239329998Y-102230000D01*
X239280000Y-102259999D01*
X239239999Y-102390004D01*
X239139999Y-102759999D01*
X239099997Y-103000014D01*
X239080000Y-103159993D01*
X239070252Y-103403679D01*
X239069105Y-103416259D01*
X239063977Y-103452156D01*
X239044398Y-103503401D01*
X239033757Y-103519363D01*
X238999367Y-103553755D01*
X238989999Y-103560000D01*
X238960001Y-103639996D01*
X238900000Y-103819998D01*
X238840207Y-104128929D01*
X238839767Y-104131097D01*
X238770619Y-104457077D01*
X238769235Y-104462903D01*
X238671602Y-104833908D01*
X238667790Y-104845890D01*
X238617695Y-104979479D01*
X238595733Y-105016644D01*
X238593427Y-105019334D01*
X238541779Y-105055121D01*
X238479220Y-105060996D01*
X238421812Y-105035450D01*
X238415517Y-105030413D01*
X238377858Y-104979646D01*
X238312254Y-104815637D01*
X238308307Y-104804165D01*
X237998778Y-103737278D01*
X237840001Y-103190002D01*
X237630000Y-102630000D01*
X237603333Y-102590000D01*
X237570000Y-102540000D01*
X237569998Y-102539999D01*
X237520000Y-102530000D01*
X237519998Y-102530000D01*
X237490001Y-102559998D01*
X237489999Y-102560000D01*
X237440000Y-102719995D01*
X237329998Y-103590008D01*
X237280000Y-104309989D01*
X237259999Y-105470022D01*
X228440163Y-105470022D01*
X228425315Y-105167782D01*
X228394493Y-104960000D01*
X235870000Y-104960000D01*
X235900000Y-105050000D01*
X235900001Y-105050001D01*
X235979998Y-105119999D01*
X235980000Y-105120000D01*
X236130000Y-105200000D01*
X236350000Y-105260000D01*
X236590000Y-105240000D01*
X236720000Y-105200000D01*
X236810000Y-105130000D01*
X236900000Y-105030000D01*
X236925385Y-104919999D01*
X236930000Y-104900002D01*
X236930000Y-104780001D01*
X236930000Y-104780000D01*
X236880000Y-104690000D01*
X236879999Y-104689999D01*
X236730000Y-104650000D01*
X236574006Y-104673999D01*
X236470019Y-104689997D01*
X236470000Y-104690000D01*
X236410000Y-104700000D01*
X236169998Y-104740000D01*
X235960000Y-104799999D01*
X235889999Y-104870001D01*
X235880073Y-104909708D01*
X235870000Y-104950000D01*
X235870000Y-104960000D01*
X228394493Y-104960000D01*
X228364757Y-104759535D01*
X228264476Y-104359189D01*
X228225407Y-104250000D01*
X228125438Y-103970605D01*
X228124808Y-103969274D01*
X227948978Y-103597510D01*
X227948977Y-103597508D01*
X227948975Y-103597504D01*
X227736803Y-103243517D01*
X227596932Y-103054923D01*
X227490946Y-102912017D01*
X227490944Y-102912015D01*
X227490942Y-102912012D01*
X227213784Y-102606215D01*
X226907987Y-102329057D01*
X226576482Y-102083196D01*
X226222495Y-101871024D01*
X225849394Y-101694561D01*
X225460813Y-101555524D01*
X225060466Y-101455243D01*
X224652219Y-101394685D01*
X224240000Y-101374433D01*
X223827780Y-101394685D01*
X223419533Y-101455243D01*
X223019186Y-101555524D01*
X222630605Y-101694561D01*
X222257504Y-101871024D01*
X221903517Y-102083196D01*
X221572012Y-102329057D01*
X221266215Y-102606215D01*
X220989057Y-102912012D01*
X220743196Y-103243517D01*
X220531024Y-103597504D01*
X220354561Y-103970605D01*
X220215524Y-104359186D01*
X220115243Y-104759533D01*
X220054685Y-105167780D01*
X220034433Y-105579999D01*
X214400500Y-105579999D01*
X214400500Y-84989999D01*
X220024433Y-84989999D01*
X220044685Y-85402219D01*
X220105243Y-85810466D01*
X220205524Y-86210813D01*
X220344561Y-86599394D01*
X220521024Y-86972495D01*
X220733196Y-87326482D01*
X220979057Y-87657987D01*
X221256215Y-87963784D01*
X221562012Y-88240942D01*
X221893517Y-88486803D01*
X222247504Y-88698975D01*
X222247508Y-88698977D01*
X222247510Y-88698978D01*
X222620600Y-88875436D01*
X222620603Y-88875437D01*
X222620605Y-88875438D01*
X223009186Y-89014475D01*
X223009189Y-89014476D01*
X223409535Y-89114757D01*
X223817782Y-89175315D01*
X224230000Y-89195566D01*
X224642218Y-89175315D01*
X225050465Y-89114757D01*
X225450811Y-89014476D01*
X225839400Y-88875436D01*
X226212490Y-88698978D01*
X226566487Y-88486800D01*
X226897983Y-88240946D01*
X227203784Y-87963784D01*
X227480946Y-87657983D01*
X227726800Y-87326487D01*
X227938978Y-86972490D01*
X228115436Y-86599400D01*
X228254476Y-86210811D01*
X228354757Y-85810465D01*
X228415315Y-85402218D01*
X228435566Y-84990000D01*
X228435566Y-84989999D01*
X239724433Y-84989999D01*
X239744685Y-85402219D01*
X239805243Y-85810466D01*
X239905524Y-86210813D01*
X240044561Y-86599394D01*
X240221024Y-86972495D01*
X240433196Y-87326482D01*
X240679057Y-87657987D01*
X240956215Y-87963784D01*
X241262012Y-88240942D01*
X241593517Y-88486803D01*
X241947504Y-88698975D01*
X241947508Y-88698977D01*
X241947510Y-88698978D01*
X242320600Y-88875436D01*
X242320603Y-88875437D01*
X242320605Y-88875438D01*
X242709186Y-89014475D01*
X242709189Y-89014476D01*
X243109535Y-89114757D01*
X243517782Y-89175315D01*
X243930000Y-89195566D01*
X244342218Y-89175315D01*
X244750465Y-89114757D01*
X245150811Y-89014476D01*
X245539400Y-88875436D01*
X245912490Y-88698978D01*
X246266487Y-88486800D01*
X246597983Y-88240946D01*
X246903784Y-87963784D01*
X247180946Y-87657983D01*
X247426800Y-87326487D01*
X247638978Y-86972490D01*
X247815436Y-86599400D01*
X247954476Y-86210811D01*
X248054757Y-85810465D01*
X248115315Y-85402218D01*
X248135566Y-84990000D01*
X248115315Y-84577782D01*
X248054757Y-84169535D01*
X247954476Y-83769189D01*
X247815436Y-83380600D01*
X247638978Y-83007510D01*
X247638977Y-83007508D01*
X247638975Y-83007504D01*
X247426803Y-82653517D01*
X247180942Y-82322012D01*
X246903784Y-82016215D01*
X246597987Y-81739057D01*
X246266482Y-81493196D01*
X245912495Y-81281024D01*
X245539394Y-81104561D01*
X245150813Y-80965524D01*
X244750466Y-80865243D01*
X244342219Y-80804685D01*
X243930000Y-80784433D01*
X243517780Y-80804685D01*
X243109533Y-80865243D01*
X242709186Y-80965524D01*
X242320605Y-81104561D01*
X241947504Y-81281024D01*
X241593517Y-81493196D01*
X241262012Y-81739057D01*
X240956215Y-82016215D01*
X240679057Y-82322012D01*
X240433196Y-82653517D01*
X240221024Y-83007504D01*
X240044561Y-83380605D01*
X239905524Y-83769186D01*
X239805243Y-84169533D01*
X239744685Y-84577780D01*
X239724433Y-84989999D01*
X228435566Y-84989999D01*
X228415315Y-84577782D01*
X228354757Y-84169535D01*
X228254476Y-83769189D01*
X228115436Y-83380600D01*
X227938978Y-83007510D01*
X227938977Y-83007508D01*
X227938975Y-83007504D01*
X227726803Y-82653517D01*
X227480942Y-82322012D01*
X227203784Y-82016215D01*
X226897987Y-81739057D01*
X226566482Y-81493196D01*
X226212495Y-81281024D01*
X225839394Y-81104561D01*
X225450813Y-80965524D01*
X225050466Y-80865243D01*
X224642219Y-80804685D01*
X224230000Y-80784433D01*
X223817780Y-80804685D01*
X223409533Y-80865243D01*
X223009186Y-80965524D01*
X222620605Y-81104561D01*
X222247504Y-81281024D01*
X221893517Y-81493196D01*
X221562012Y-81739057D01*
X221256215Y-82016215D01*
X220979057Y-82322012D01*
X220733196Y-82653517D01*
X220521024Y-83007504D01*
X220344561Y-83380605D01*
X220205524Y-83769186D01*
X220105243Y-84169533D01*
X220044685Y-84577780D01*
X220024433Y-84989999D01*
X214400500Y-84989999D01*
X214400500Y-64399999D01*
X220024433Y-64399999D01*
X220044685Y-64812219D01*
X220105243Y-65220466D01*
X220205524Y-65620813D01*
X220344561Y-66009394D01*
X220521024Y-66382495D01*
X220733196Y-66736482D01*
X220979057Y-67067987D01*
X221256215Y-67373784D01*
X221562012Y-67650942D01*
X221893517Y-67896803D01*
X222247504Y-68108975D01*
X222247508Y-68108977D01*
X222247510Y-68108978D01*
X222620600Y-68285436D01*
X222620603Y-68285437D01*
X222620605Y-68285438D01*
X223009186Y-68424475D01*
X223009189Y-68424476D01*
X223409535Y-68524757D01*
X223817782Y-68585315D01*
X224230000Y-68605566D01*
X224642218Y-68585315D01*
X225050465Y-68524757D01*
X225450811Y-68424476D01*
X225839400Y-68285436D01*
X226212490Y-68108978D01*
X226566487Y-67896800D01*
X226897983Y-67650946D01*
X227203784Y-67373784D01*
X227480946Y-67067983D01*
X227726800Y-66736487D01*
X227938978Y-66382490D01*
X228115436Y-66009400D01*
X228254476Y-65620811D01*
X228354757Y-65220465D01*
X228415315Y-64812218D01*
X228435566Y-64400000D01*
X228435566Y-64399999D01*
X239724433Y-64399999D01*
X239744685Y-64812219D01*
X239805243Y-65220466D01*
X239905524Y-65620813D01*
X240044561Y-66009394D01*
X240221024Y-66382495D01*
X240433196Y-66736482D01*
X240679057Y-67067987D01*
X240956215Y-67373784D01*
X241262012Y-67650942D01*
X241593517Y-67896803D01*
X241947504Y-68108975D01*
X241947508Y-68108977D01*
X241947510Y-68108978D01*
X242320600Y-68285436D01*
X242320603Y-68285437D01*
X242320605Y-68285438D01*
X242709186Y-68424475D01*
X242709189Y-68424476D01*
X243109535Y-68524757D01*
X243517782Y-68585315D01*
X243930000Y-68605566D01*
X244342218Y-68585315D01*
X244750465Y-68524757D01*
X245150811Y-68424476D01*
X245539400Y-68285436D01*
X245912490Y-68108978D01*
X246266487Y-67896800D01*
X246597983Y-67650946D01*
X246903784Y-67373784D01*
X247180946Y-67067983D01*
X247426800Y-66736487D01*
X247638978Y-66382490D01*
X247815436Y-66009400D01*
X247954476Y-65620811D01*
X248054757Y-65220465D01*
X248115315Y-64812218D01*
X248135566Y-64400000D01*
X248115315Y-63987782D01*
X248054757Y-63579535D01*
X247954476Y-63179189D01*
X247815436Y-62790600D01*
X247638978Y-62417510D01*
X247638977Y-62417508D01*
X247638975Y-62417504D01*
X247426803Y-62063517D01*
X247180942Y-61732012D01*
X246903784Y-61426215D01*
X246597987Y-61149057D01*
X246266482Y-60903196D01*
X245912495Y-60691024D01*
X245539394Y-60514561D01*
X245150813Y-60375524D01*
X244750466Y-60275243D01*
X244342219Y-60214685D01*
X243930000Y-60194433D01*
X243517780Y-60214685D01*
X243109533Y-60275243D01*
X242709186Y-60375524D01*
X242320605Y-60514561D01*
X241947504Y-60691024D01*
X241593517Y-60903196D01*
X241262012Y-61149057D01*
X240956215Y-61426215D01*
X240679057Y-61732012D01*
X240433196Y-62063517D01*
X240221024Y-62417504D01*
X240044561Y-62790605D01*
X239905524Y-63179186D01*
X239805243Y-63579533D01*
X239744685Y-63987780D01*
X239724433Y-64399999D01*
X228435566Y-64399999D01*
X228415315Y-63987782D01*
X228354757Y-63579535D01*
X228254476Y-63179189D01*
X228115436Y-62790600D01*
X227938978Y-62417510D01*
X227938977Y-62417508D01*
X227938975Y-62417504D01*
X227726803Y-62063517D01*
X227480942Y-61732012D01*
X227203784Y-61426215D01*
X226897987Y-61149057D01*
X226566482Y-60903196D01*
X226212495Y-60691024D01*
X225839394Y-60514561D01*
X225450813Y-60375524D01*
X225050466Y-60275243D01*
X224642219Y-60214685D01*
X224230000Y-60194433D01*
X223817780Y-60214685D01*
X223409533Y-60275243D01*
X223009186Y-60375524D01*
X222620605Y-60514561D01*
X222247504Y-60691024D01*
X221893517Y-60903196D01*
X221562012Y-61149057D01*
X221256215Y-61426215D01*
X220979057Y-61732012D01*
X220733196Y-62063517D01*
X220521024Y-62417504D01*
X220344561Y-62790605D01*
X220205524Y-63179186D01*
X220105243Y-63579533D01*
X220044685Y-63987780D01*
X220024433Y-64399999D01*
X214400500Y-64399999D01*
X214400500Y-43809999D01*
X220034433Y-43809999D01*
X220054685Y-44222219D01*
X220115243Y-44630466D01*
X220215524Y-45030813D01*
X220354561Y-45419394D01*
X220531024Y-45792495D01*
X220743196Y-46146482D01*
X220989057Y-46477987D01*
X221266215Y-46783784D01*
X221572012Y-47060942D01*
X221903517Y-47306803D01*
X222257504Y-47518975D01*
X222257508Y-47518977D01*
X222257510Y-47518978D01*
X222630600Y-47695436D01*
X222630603Y-47695437D01*
X222630605Y-47695438D01*
X222991238Y-47824475D01*
X223019189Y-47834476D01*
X223419535Y-47934757D01*
X223827782Y-47995315D01*
X224240000Y-48015566D01*
X224652218Y-47995315D01*
X225060465Y-47934757D01*
X225460811Y-47834476D01*
X225849400Y-47695436D01*
X226222490Y-47518978D01*
X226576487Y-47306800D01*
X226907983Y-47060946D01*
X227213784Y-46783784D01*
X227490946Y-46477983D01*
X227736800Y-46146487D01*
X227948978Y-45792490D01*
X228125436Y-45419400D01*
X228264476Y-45030811D01*
X228364757Y-44630465D01*
X228425315Y-44222218D01*
X228445566Y-43810000D01*
X228445075Y-43800000D01*
X239724433Y-43800000D01*
X239744685Y-44212219D01*
X239805243Y-44620466D01*
X239905524Y-45020813D01*
X240044561Y-45409394D01*
X240221024Y-45782495D01*
X240433196Y-46136482D01*
X240679057Y-46467987D01*
X240956215Y-46773784D01*
X241262012Y-47050942D01*
X241262015Y-47050944D01*
X241262017Y-47050946D01*
X241559464Y-47271547D01*
X241593517Y-47296803D01*
X241947504Y-47508975D01*
X241947508Y-47508977D01*
X241947510Y-47508978D01*
X242320600Y-47685436D01*
X242320603Y-47685437D01*
X242320605Y-47685438D01*
X242709186Y-47824475D01*
X242709189Y-47824476D01*
X243109535Y-47924757D01*
X243517782Y-47985315D01*
X243930000Y-48005566D01*
X244342218Y-47985315D01*
X244750465Y-47924757D01*
X245150811Y-47824476D01*
X245539400Y-47685436D01*
X245912490Y-47508978D01*
X246266487Y-47296800D01*
X246597983Y-47050946D01*
X246903784Y-46773784D01*
X247180946Y-46467983D01*
X247426800Y-46136487D01*
X247638978Y-45782490D01*
X247815436Y-45409400D01*
X247954476Y-45020811D01*
X248054757Y-44620465D01*
X248115315Y-44212218D01*
X248135566Y-43800000D01*
X248115315Y-43387782D01*
X248054757Y-42979535D01*
X247954476Y-42579189D01*
X247815436Y-42190600D01*
X247638978Y-41817510D01*
X247638977Y-41817508D01*
X247638975Y-41817504D01*
X247426803Y-41463517D01*
X247180942Y-41132012D01*
X246903784Y-40826215D01*
X246597987Y-40549057D01*
X246266482Y-40303196D01*
X245912495Y-40091024D01*
X245539394Y-39914561D01*
X245150813Y-39775524D01*
X244750466Y-39675243D01*
X244342219Y-39614685D01*
X243930000Y-39594433D01*
X243517780Y-39614685D01*
X243109533Y-39675243D01*
X242709186Y-39775524D01*
X242320605Y-39914561D01*
X241947504Y-40091024D01*
X241593517Y-40303196D01*
X241262012Y-40549057D01*
X240956215Y-40826215D01*
X240679057Y-41132012D01*
X240433196Y-41463517D01*
X240221024Y-41817504D01*
X240044561Y-42190605D01*
X239905524Y-42579186D01*
X239805243Y-42979533D01*
X239744685Y-43387780D01*
X239724433Y-43800000D01*
X228445075Y-43800000D01*
X228425315Y-43397782D01*
X228364757Y-42989535D01*
X228264476Y-42589189D01*
X228125436Y-42200600D01*
X227948978Y-41827510D01*
X227948977Y-41827508D01*
X227948975Y-41827504D01*
X227736803Y-41473517D01*
X227490942Y-41142012D01*
X227213784Y-40836215D01*
X226907987Y-40559057D01*
X226576482Y-40313196D01*
X226222495Y-40101024D01*
X225849394Y-39924561D01*
X225460813Y-39785524D01*
X225060466Y-39685243D01*
X224652219Y-39624685D01*
X224240000Y-39604433D01*
X223827780Y-39624685D01*
X223419533Y-39685243D01*
X223019186Y-39785524D01*
X222630605Y-39924561D01*
X222257504Y-40101024D01*
X221903517Y-40313196D01*
X221572012Y-40559057D01*
X221266215Y-40836215D01*
X220989057Y-41142012D01*
X220743196Y-41473517D01*
X220531024Y-41827504D01*
X220354561Y-42200605D01*
X220215524Y-42589186D01*
X220115243Y-42989533D01*
X220054685Y-43397780D01*
X220034433Y-43809999D01*
X214400500Y-43809999D01*
X214400500Y-32690000D01*
X217554309Y-32690000D01*
X217568895Y-32847414D01*
X217638854Y-33166859D01*
X217747539Y-33475284D01*
X217893303Y-33768018D01*
X218073936Y-34040620D01*
X218286700Y-34288960D01*
X218528367Y-34509268D01*
X218795275Y-34698208D01*
X219083375Y-34852915D01*
X219388317Y-34971050D01*
X219705456Y-35050814D01*
X220029991Y-35091000D01*
X221150000Y-35091000D01*
X221150000Y-32690000D01*
X221650000Y-32690000D01*
X221650000Y-35091000D01*
X222688181Y-35091000D01*
X222932894Y-35075906D01*
X223254345Y-35015817D01*
X223565971Y-34916681D01*
X223863057Y-34780000D01*
X224141085Y-34607852D01*
X224395861Y-34402835D01*
X224623508Y-34168066D01*
X224820580Y-33907100D01*
X224984089Y-33623896D01*
X225111553Y-33322747D01*
X225201043Y-33008221D01*
X225250441Y-32690000D01*
X221650000Y-32690000D01*
X221150000Y-32690000D01*
X217554309Y-32690000D01*
X214400500Y-32690000D01*
X214400500Y-30074492D01*
X214417113Y-30012492D01*
X214462500Y-29967105D01*
X214524500Y-29950492D01*
X218742592Y-29950492D01*
X218803929Y-29966725D01*
G37*
%TD.AperFunction*%
%TD*%
M02*
