%TF.GenerationSoftware,KiCad,Pcbnew,7.0.1-0*%
%TF.CreationDate,2023-10-20T13:56:45+13:00*%
%TF.ProjectId,Punkys-new-brew_main,50756e6b-7973-42d6-9e65-772d62726577,001*%
%TF.SameCoordinates,Original*%
%TF.FileFunction,Legend,Top*%
%TF.FilePolarity,Positive*%
%FSLAX46Y46*%
G04 Gerber Fmt 4.6, Leading zero omitted, Abs format (unit mm)*
G04 Created by KiCad (PCBNEW 7.0.1-0) date 2023-10-20 13:56:45*
%MOMM*%
%LPD*%
G01*
G04 APERTURE LIST*
%ADD10C,0.150000*%
%ADD11C,0.120000*%
G04 APERTURE END LIST*
D10*
%TO.C,D4*%
X61211905Y-123528304D02*
X61211905Y-122528304D01*
X61211905Y-122528304D02*
X61450000Y-122528304D01*
X61450000Y-122528304D02*
X61592857Y-122575923D01*
X61592857Y-122575923D02*
X61688095Y-122671161D01*
X61688095Y-122671161D02*
X61735714Y-122766399D01*
X61735714Y-122766399D02*
X61783333Y-122956875D01*
X61783333Y-122956875D02*
X61783333Y-123099732D01*
X61783333Y-123099732D02*
X61735714Y-123290208D01*
X61735714Y-123290208D02*
X61688095Y-123385446D01*
X61688095Y-123385446D02*
X61592857Y-123480685D01*
X61592857Y-123480685D02*
X61450000Y-123528304D01*
X61450000Y-123528304D02*
X61211905Y-123528304D01*
X62640476Y-122861637D02*
X62640476Y-123528304D01*
X62402381Y-122480685D02*
X62164286Y-123194970D01*
X62164286Y-123194970D02*
X62783333Y-123194970D01*
%TO.C,R11*%
X81842142Y-79072619D02*
X81508809Y-78596428D01*
X81270714Y-79072619D02*
X81270714Y-78072619D01*
X81270714Y-78072619D02*
X81651666Y-78072619D01*
X81651666Y-78072619D02*
X81746904Y-78120238D01*
X81746904Y-78120238D02*
X81794523Y-78167857D01*
X81794523Y-78167857D02*
X81842142Y-78263095D01*
X81842142Y-78263095D02*
X81842142Y-78405952D01*
X81842142Y-78405952D02*
X81794523Y-78501190D01*
X81794523Y-78501190D02*
X81746904Y-78548809D01*
X81746904Y-78548809D02*
X81651666Y-78596428D01*
X81651666Y-78596428D02*
X81270714Y-78596428D01*
X82794523Y-79072619D02*
X82223095Y-79072619D01*
X82508809Y-79072619D02*
X82508809Y-78072619D01*
X82508809Y-78072619D02*
X82413571Y-78215476D01*
X82413571Y-78215476D02*
X82318333Y-78310714D01*
X82318333Y-78310714D02*
X82223095Y-78358333D01*
X83746904Y-79072619D02*
X83175476Y-79072619D01*
X83461190Y-79072619D02*
X83461190Y-78072619D01*
X83461190Y-78072619D02*
X83365952Y-78215476D01*
X83365952Y-78215476D02*
X83270714Y-78310714D01*
X83270714Y-78310714D02*
X83175476Y-78358333D01*
%TO.C,R1*%
X53813333Y-131052619D02*
X53480000Y-130576428D01*
X53241905Y-131052619D02*
X53241905Y-130052619D01*
X53241905Y-130052619D02*
X53622857Y-130052619D01*
X53622857Y-130052619D02*
X53718095Y-130100238D01*
X53718095Y-130100238D02*
X53765714Y-130147857D01*
X53765714Y-130147857D02*
X53813333Y-130243095D01*
X53813333Y-130243095D02*
X53813333Y-130385952D01*
X53813333Y-130385952D02*
X53765714Y-130481190D01*
X53765714Y-130481190D02*
X53718095Y-130528809D01*
X53718095Y-130528809D02*
X53622857Y-130576428D01*
X53622857Y-130576428D02*
X53241905Y-130576428D01*
X54765714Y-131052619D02*
X54194286Y-131052619D01*
X54480000Y-131052619D02*
X54480000Y-130052619D01*
X54480000Y-130052619D02*
X54384762Y-130195476D01*
X54384762Y-130195476D02*
X54289524Y-130290714D01*
X54289524Y-130290714D02*
X54194286Y-130338333D01*
%TO.C,D3*%
X57351905Y-123546933D02*
X57351905Y-122546933D01*
X57351905Y-122546933D02*
X57590000Y-122546933D01*
X57590000Y-122546933D02*
X57732857Y-122594552D01*
X57732857Y-122594552D02*
X57828095Y-122689790D01*
X57828095Y-122689790D02*
X57875714Y-122785028D01*
X57875714Y-122785028D02*
X57923333Y-122975504D01*
X57923333Y-122975504D02*
X57923333Y-123118361D01*
X57923333Y-123118361D02*
X57875714Y-123308837D01*
X57875714Y-123308837D02*
X57828095Y-123404075D01*
X57828095Y-123404075D02*
X57732857Y-123499314D01*
X57732857Y-123499314D02*
X57590000Y-123546933D01*
X57590000Y-123546933D02*
X57351905Y-123546933D01*
X58256667Y-122546933D02*
X58875714Y-122546933D01*
X58875714Y-122546933D02*
X58542381Y-122927885D01*
X58542381Y-122927885D02*
X58685238Y-122927885D01*
X58685238Y-122927885D02*
X58780476Y-122975504D01*
X58780476Y-122975504D02*
X58828095Y-123023123D01*
X58828095Y-123023123D02*
X58875714Y-123118361D01*
X58875714Y-123118361D02*
X58875714Y-123356456D01*
X58875714Y-123356456D02*
X58828095Y-123451694D01*
X58828095Y-123451694D02*
X58780476Y-123499314D01*
X58780476Y-123499314D02*
X58685238Y-123546933D01*
X58685238Y-123546933D02*
X58399524Y-123546933D01*
X58399524Y-123546933D02*
X58304286Y-123499314D01*
X58304286Y-123499314D02*
X58256667Y-123451694D01*
%TO.C,D1*%
X55971905Y-51312619D02*
X55971905Y-50312619D01*
X55971905Y-50312619D02*
X56210000Y-50312619D01*
X56210000Y-50312619D02*
X56352857Y-50360238D01*
X56352857Y-50360238D02*
X56448095Y-50455476D01*
X56448095Y-50455476D02*
X56495714Y-50550714D01*
X56495714Y-50550714D02*
X56543333Y-50741190D01*
X56543333Y-50741190D02*
X56543333Y-50884047D01*
X56543333Y-50884047D02*
X56495714Y-51074523D01*
X56495714Y-51074523D02*
X56448095Y-51169761D01*
X56448095Y-51169761D02*
X56352857Y-51265000D01*
X56352857Y-51265000D02*
X56210000Y-51312619D01*
X56210000Y-51312619D02*
X55971905Y-51312619D01*
X57495714Y-51312619D02*
X56924286Y-51312619D01*
X57210000Y-51312619D02*
X57210000Y-50312619D01*
X57210000Y-50312619D02*
X57114762Y-50455476D01*
X57114762Y-50455476D02*
X57019524Y-50550714D01*
X57019524Y-50550714D02*
X56924286Y-50598333D01*
%TO.C,C3*%
X70997380Y-133456666D02*
X71045000Y-133504285D01*
X71045000Y-133504285D02*
X71092619Y-133647142D01*
X71092619Y-133647142D02*
X71092619Y-133742380D01*
X71092619Y-133742380D02*
X71045000Y-133885237D01*
X71045000Y-133885237D02*
X70949761Y-133980475D01*
X70949761Y-133980475D02*
X70854523Y-134028094D01*
X70854523Y-134028094D02*
X70664047Y-134075713D01*
X70664047Y-134075713D02*
X70521190Y-134075713D01*
X70521190Y-134075713D02*
X70330714Y-134028094D01*
X70330714Y-134028094D02*
X70235476Y-133980475D01*
X70235476Y-133980475D02*
X70140238Y-133885237D01*
X70140238Y-133885237D02*
X70092619Y-133742380D01*
X70092619Y-133742380D02*
X70092619Y-133647142D01*
X70092619Y-133647142D02*
X70140238Y-133504285D01*
X70140238Y-133504285D02*
X70187857Y-133456666D01*
X70092619Y-133123332D02*
X70092619Y-132504285D01*
X70092619Y-132504285D02*
X70473571Y-132837618D01*
X70473571Y-132837618D02*
X70473571Y-132694761D01*
X70473571Y-132694761D02*
X70521190Y-132599523D01*
X70521190Y-132599523D02*
X70568809Y-132551904D01*
X70568809Y-132551904D02*
X70664047Y-132504285D01*
X70664047Y-132504285D02*
X70902142Y-132504285D01*
X70902142Y-132504285D02*
X70997380Y-132551904D01*
X70997380Y-132551904D02*
X71045000Y-132599523D01*
X71045000Y-132599523D02*
X71092619Y-132694761D01*
X71092619Y-132694761D02*
X71092619Y-132980475D01*
X71092619Y-132980475D02*
X71045000Y-133075713D01*
X71045000Y-133075713D02*
X70997380Y-133123332D01*
%TO.C,R10*%
X72267142Y-80432619D02*
X71933809Y-79956428D01*
X71695714Y-80432619D02*
X71695714Y-79432619D01*
X71695714Y-79432619D02*
X72076666Y-79432619D01*
X72076666Y-79432619D02*
X72171904Y-79480238D01*
X72171904Y-79480238D02*
X72219523Y-79527857D01*
X72219523Y-79527857D02*
X72267142Y-79623095D01*
X72267142Y-79623095D02*
X72267142Y-79765952D01*
X72267142Y-79765952D02*
X72219523Y-79861190D01*
X72219523Y-79861190D02*
X72171904Y-79908809D01*
X72171904Y-79908809D02*
X72076666Y-79956428D01*
X72076666Y-79956428D02*
X71695714Y-79956428D01*
X73219523Y-80432619D02*
X72648095Y-80432619D01*
X72933809Y-80432619D02*
X72933809Y-79432619D01*
X72933809Y-79432619D02*
X72838571Y-79575476D01*
X72838571Y-79575476D02*
X72743333Y-79670714D01*
X72743333Y-79670714D02*
X72648095Y-79718333D01*
X73838571Y-79432619D02*
X73933809Y-79432619D01*
X73933809Y-79432619D02*
X74029047Y-79480238D01*
X74029047Y-79480238D02*
X74076666Y-79527857D01*
X74076666Y-79527857D02*
X74124285Y-79623095D01*
X74124285Y-79623095D02*
X74171904Y-79813571D01*
X74171904Y-79813571D02*
X74171904Y-80051666D01*
X74171904Y-80051666D02*
X74124285Y-80242142D01*
X74124285Y-80242142D02*
X74076666Y-80337380D01*
X74076666Y-80337380D02*
X74029047Y-80385000D01*
X74029047Y-80385000D02*
X73933809Y-80432619D01*
X73933809Y-80432619D02*
X73838571Y-80432619D01*
X73838571Y-80432619D02*
X73743333Y-80385000D01*
X73743333Y-80385000D02*
X73695714Y-80337380D01*
X73695714Y-80337380D02*
X73648095Y-80242142D01*
X73648095Y-80242142D02*
X73600476Y-80051666D01*
X73600476Y-80051666D02*
X73600476Y-79813571D01*
X73600476Y-79813571D02*
X73648095Y-79623095D01*
X73648095Y-79623095D02*
X73695714Y-79527857D01*
X73695714Y-79527857D02*
X73743333Y-79480238D01*
X73743333Y-79480238D02*
X73838571Y-79432619D01*
%TO.C,C1*%
X76273333Y-46397380D02*
X76225714Y-46445000D01*
X76225714Y-46445000D02*
X76082857Y-46492619D01*
X76082857Y-46492619D02*
X75987619Y-46492619D01*
X75987619Y-46492619D02*
X75844762Y-46445000D01*
X75844762Y-46445000D02*
X75749524Y-46349761D01*
X75749524Y-46349761D02*
X75701905Y-46254523D01*
X75701905Y-46254523D02*
X75654286Y-46064047D01*
X75654286Y-46064047D02*
X75654286Y-45921190D01*
X75654286Y-45921190D02*
X75701905Y-45730714D01*
X75701905Y-45730714D02*
X75749524Y-45635476D01*
X75749524Y-45635476D02*
X75844762Y-45540238D01*
X75844762Y-45540238D02*
X75987619Y-45492619D01*
X75987619Y-45492619D02*
X76082857Y-45492619D01*
X76082857Y-45492619D02*
X76225714Y-45540238D01*
X76225714Y-45540238D02*
X76273333Y-45587857D01*
X77225714Y-46492619D02*
X76654286Y-46492619D01*
X76940000Y-46492619D02*
X76940000Y-45492619D01*
X76940000Y-45492619D02*
X76844762Y-45635476D01*
X76844762Y-45635476D02*
X76749524Y-45730714D01*
X76749524Y-45730714D02*
X76654286Y-45778333D01*
%TO.C,R15*%
X69782142Y-59762619D02*
X69448809Y-59286428D01*
X69210714Y-59762619D02*
X69210714Y-58762619D01*
X69210714Y-58762619D02*
X69591666Y-58762619D01*
X69591666Y-58762619D02*
X69686904Y-58810238D01*
X69686904Y-58810238D02*
X69734523Y-58857857D01*
X69734523Y-58857857D02*
X69782142Y-58953095D01*
X69782142Y-58953095D02*
X69782142Y-59095952D01*
X69782142Y-59095952D02*
X69734523Y-59191190D01*
X69734523Y-59191190D02*
X69686904Y-59238809D01*
X69686904Y-59238809D02*
X69591666Y-59286428D01*
X69591666Y-59286428D02*
X69210714Y-59286428D01*
X70734523Y-59762619D02*
X70163095Y-59762619D01*
X70448809Y-59762619D02*
X70448809Y-58762619D01*
X70448809Y-58762619D02*
X70353571Y-58905476D01*
X70353571Y-58905476D02*
X70258333Y-59000714D01*
X70258333Y-59000714D02*
X70163095Y-59048333D01*
X71639285Y-58762619D02*
X71163095Y-58762619D01*
X71163095Y-58762619D02*
X71115476Y-59238809D01*
X71115476Y-59238809D02*
X71163095Y-59191190D01*
X71163095Y-59191190D02*
X71258333Y-59143571D01*
X71258333Y-59143571D02*
X71496428Y-59143571D01*
X71496428Y-59143571D02*
X71591666Y-59191190D01*
X71591666Y-59191190D02*
X71639285Y-59238809D01*
X71639285Y-59238809D02*
X71686904Y-59334047D01*
X71686904Y-59334047D02*
X71686904Y-59572142D01*
X71686904Y-59572142D02*
X71639285Y-59667380D01*
X71639285Y-59667380D02*
X71591666Y-59715000D01*
X71591666Y-59715000D02*
X71496428Y-59762619D01*
X71496428Y-59762619D02*
X71258333Y-59762619D01*
X71258333Y-59762619D02*
X71163095Y-59715000D01*
X71163095Y-59715000D02*
X71115476Y-59667380D01*
%TO.C,R7*%
X59028333Y-100882619D02*
X58695000Y-100406428D01*
X58456905Y-100882619D02*
X58456905Y-99882619D01*
X58456905Y-99882619D02*
X58837857Y-99882619D01*
X58837857Y-99882619D02*
X58933095Y-99930238D01*
X58933095Y-99930238D02*
X58980714Y-99977857D01*
X58980714Y-99977857D02*
X59028333Y-100073095D01*
X59028333Y-100073095D02*
X59028333Y-100215952D01*
X59028333Y-100215952D02*
X58980714Y-100311190D01*
X58980714Y-100311190D02*
X58933095Y-100358809D01*
X58933095Y-100358809D02*
X58837857Y-100406428D01*
X58837857Y-100406428D02*
X58456905Y-100406428D01*
X59361667Y-99882619D02*
X60028333Y-99882619D01*
X60028333Y-99882619D02*
X59599762Y-100882619D01*
%TO.C,U1*%
X60608095Y-133002619D02*
X60608095Y-133812142D01*
X60608095Y-133812142D02*
X60655714Y-133907380D01*
X60655714Y-133907380D02*
X60703333Y-133955000D01*
X60703333Y-133955000D02*
X60798571Y-134002619D01*
X60798571Y-134002619D02*
X60989047Y-134002619D01*
X60989047Y-134002619D02*
X61084285Y-133955000D01*
X61084285Y-133955000D02*
X61131904Y-133907380D01*
X61131904Y-133907380D02*
X61179523Y-133812142D01*
X61179523Y-133812142D02*
X61179523Y-133002619D01*
X62179523Y-134002619D02*
X61608095Y-134002619D01*
X61893809Y-134002619D02*
X61893809Y-133002619D01*
X61893809Y-133002619D02*
X61798571Y-133145476D01*
X61798571Y-133145476D02*
X61703333Y-133240714D01*
X61703333Y-133240714D02*
X61608095Y-133288333D01*
%TO.C,C6*%
X52343333Y-94357380D02*
X52295714Y-94405000D01*
X52295714Y-94405000D02*
X52152857Y-94452619D01*
X52152857Y-94452619D02*
X52057619Y-94452619D01*
X52057619Y-94452619D02*
X51914762Y-94405000D01*
X51914762Y-94405000D02*
X51819524Y-94309761D01*
X51819524Y-94309761D02*
X51771905Y-94214523D01*
X51771905Y-94214523D02*
X51724286Y-94024047D01*
X51724286Y-94024047D02*
X51724286Y-93881190D01*
X51724286Y-93881190D02*
X51771905Y-93690714D01*
X51771905Y-93690714D02*
X51819524Y-93595476D01*
X51819524Y-93595476D02*
X51914762Y-93500238D01*
X51914762Y-93500238D02*
X52057619Y-93452619D01*
X52057619Y-93452619D02*
X52152857Y-93452619D01*
X52152857Y-93452619D02*
X52295714Y-93500238D01*
X52295714Y-93500238D02*
X52343333Y-93547857D01*
X53200476Y-93452619D02*
X53010000Y-93452619D01*
X53010000Y-93452619D02*
X52914762Y-93500238D01*
X52914762Y-93500238D02*
X52867143Y-93547857D01*
X52867143Y-93547857D02*
X52771905Y-93690714D01*
X52771905Y-93690714D02*
X52724286Y-93881190D01*
X52724286Y-93881190D02*
X52724286Y-94262142D01*
X52724286Y-94262142D02*
X52771905Y-94357380D01*
X52771905Y-94357380D02*
X52819524Y-94405000D01*
X52819524Y-94405000D02*
X52914762Y-94452619D01*
X52914762Y-94452619D02*
X53105238Y-94452619D01*
X53105238Y-94452619D02*
X53200476Y-94405000D01*
X53200476Y-94405000D02*
X53248095Y-94357380D01*
X53248095Y-94357380D02*
X53295714Y-94262142D01*
X53295714Y-94262142D02*
X53295714Y-94024047D01*
X53295714Y-94024047D02*
X53248095Y-93928809D01*
X53248095Y-93928809D02*
X53200476Y-93881190D01*
X53200476Y-93881190D02*
X53105238Y-93833571D01*
X53105238Y-93833571D02*
X52914762Y-93833571D01*
X52914762Y-93833571D02*
X52819524Y-93881190D01*
X52819524Y-93881190D02*
X52771905Y-93928809D01*
X52771905Y-93928809D02*
X52724286Y-94024047D01*
%TO.C,FB1*%
X66126666Y-46488809D02*
X65793333Y-46488809D01*
X65793333Y-47012619D02*
X65793333Y-46012619D01*
X65793333Y-46012619D02*
X66269523Y-46012619D01*
X66983809Y-46488809D02*
X67126666Y-46536428D01*
X67126666Y-46536428D02*
X67174285Y-46584047D01*
X67174285Y-46584047D02*
X67221904Y-46679285D01*
X67221904Y-46679285D02*
X67221904Y-46822142D01*
X67221904Y-46822142D02*
X67174285Y-46917380D01*
X67174285Y-46917380D02*
X67126666Y-46965000D01*
X67126666Y-46965000D02*
X67031428Y-47012619D01*
X67031428Y-47012619D02*
X66650476Y-47012619D01*
X66650476Y-47012619D02*
X66650476Y-46012619D01*
X66650476Y-46012619D02*
X66983809Y-46012619D01*
X66983809Y-46012619D02*
X67079047Y-46060238D01*
X67079047Y-46060238D02*
X67126666Y-46107857D01*
X67126666Y-46107857D02*
X67174285Y-46203095D01*
X67174285Y-46203095D02*
X67174285Y-46298333D01*
X67174285Y-46298333D02*
X67126666Y-46393571D01*
X67126666Y-46393571D02*
X67079047Y-46441190D01*
X67079047Y-46441190D02*
X66983809Y-46488809D01*
X66983809Y-46488809D02*
X66650476Y-46488809D01*
X68174285Y-47012619D02*
X67602857Y-47012619D01*
X67888571Y-47012619D02*
X67888571Y-46012619D01*
X67888571Y-46012619D02*
X67793333Y-46155476D01*
X67793333Y-46155476D02*
X67698095Y-46250714D01*
X67698095Y-46250714D02*
X67602857Y-46298333D01*
%TO.C,U2*%
X63558095Y-79267619D02*
X63558095Y-80077142D01*
X63558095Y-80077142D02*
X63605714Y-80172380D01*
X63605714Y-80172380D02*
X63653333Y-80220000D01*
X63653333Y-80220000D02*
X63748571Y-80267619D01*
X63748571Y-80267619D02*
X63939047Y-80267619D01*
X63939047Y-80267619D02*
X64034285Y-80220000D01*
X64034285Y-80220000D02*
X64081904Y-80172380D01*
X64081904Y-80172380D02*
X64129523Y-80077142D01*
X64129523Y-80077142D02*
X64129523Y-79267619D01*
X64558095Y-79362857D02*
X64605714Y-79315238D01*
X64605714Y-79315238D02*
X64700952Y-79267619D01*
X64700952Y-79267619D02*
X64939047Y-79267619D01*
X64939047Y-79267619D02*
X65034285Y-79315238D01*
X65034285Y-79315238D02*
X65081904Y-79362857D01*
X65081904Y-79362857D02*
X65129523Y-79458095D01*
X65129523Y-79458095D02*
X65129523Y-79553333D01*
X65129523Y-79553333D02*
X65081904Y-79696190D01*
X65081904Y-79696190D02*
X64510476Y-80267619D01*
X64510476Y-80267619D02*
X65129523Y-80267619D01*
%TO.C,J16*%
X78290476Y-35262619D02*
X78290476Y-35976904D01*
X78290476Y-35976904D02*
X78242857Y-36119761D01*
X78242857Y-36119761D02*
X78147619Y-36215000D01*
X78147619Y-36215000D02*
X78004762Y-36262619D01*
X78004762Y-36262619D02*
X77909524Y-36262619D01*
X79290476Y-36262619D02*
X78719048Y-36262619D01*
X79004762Y-36262619D02*
X79004762Y-35262619D01*
X79004762Y-35262619D02*
X78909524Y-35405476D01*
X78909524Y-35405476D02*
X78814286Y-35500714D01*
X78814286Y-35500714D02*
X78719048Y-35548333D01*
X80147619Y-35262619D02*
X79957143Y-35262619D01*
X79957143Y-35262619D02*
X79861905Y-35310238D01*
X79861905Y-35310238D02*
X79814286Y-35357857D01*
X79814286Y-35357857D02*
X79719048Y-35500714D01*
X79719048Y-35500714D02*
X79671429Y-35691190D01*
X79671429Y-35691190D02*
X79671429Y-36072142D01*
X79671429Y-36072142D02*
X79719048Y-36167380D01*
X79719048Y-36167380D02*
X79766667Y-36215000D01*
X79766667Y-36215000D02*
X79861905Y-36262619D01*
X79861905Y-36262619D02*
X80052381Y-36262619D01*
X80052381Y-36262619D02*
X80147619Y-36215000D01*
X80147619Y-36215000D02*
X80195238Y-36167380D01*
X80195238Y-36167380D02*
X80242857Y-36072142D01*
X80242857Y-36072142D02*
X80242857Y-35834047D01*
X80242857Y-35834047D02*
X80195238Y-35738809D01*
X80195238Y-35738809D02*
X80147619Y-35691190D01*
X80147619Y-35691190D02*
X80052381Y-35643571D01*
X80052381Y-35643571D02*
X79861905Y-35643571D01*
X79861905Y-35643571D02*
X79766667Y-35691190D01*
X79766667Y-35691190D02*
X79719048Y-35738809D01*
X79719048Y-35738809D02*
X79671429Y-35834047D01*
%TO.C,R3*%
X72102619Y-112161666D02*
X71626428Y-112494999D01*
X72102619Y-112733094D02*
X71102619Y-112733094D01*
X71102619Y-112733094D02*
X71102619Y-112352142D01*
X71102619Y-112352142D02*
X71150238Y-112256904D01*
X71150238Y-112256904D02*
X71197857Y-112209285D01*
X71197857Y-112209285D02*
X71293095Y-112161666D01*
X71293095Y-112161666D02*
X71435952Y-112161666D01*
X71435952Y-112161666D02*
X71531190Y-112209285D01*
X71531190Y-112209285D02*
X71578809Y-112256904D01*
X71578809Y-112256904D02*
X71626428Y-112352142D01*
X71626428Y-112352142D02*
X71626428Y-112733094D01*
X71102619Y-111828332D02*
X71102619Y-111209285D01*
X71102619Y-111209285D02*
X71483571Y-111542618D01*
X71483571Y-111542618D02*
X71483571Y-111399761D01*
X71483571Y-111399761D02*
X71531190Y-111304523D01*
X71531190Y-111304523D02*
X71578809Y-111256904D01*
X71578809Y-111256904D02*
X71674047Y-111209285D01*
X71674047Y-111209285D02*
X71912142Y-111209285D01*
X71912142Y-111209285D02*
X72007380Y-111256904D01*
X72007380Y-111256904D02*
X72055000Y-111304523D01*
X72055000Y-111304523D02*
X72102619Y-111399761D01*
X72102619Y-111399761D02*
X72102619Y-111685475D01*
X72102619Y-111685475D02*
X72055000Y-111780713D01*
X72055000Y-111780713D02*
X72007380Y-111828332D01*
%TO.C,R12*%
X80847142Y-122242619D02*
X80513809Y-121766428D01*
X80275714Y-122242619D02*
X80275714Y-121242619D01*
X80275714Y-121242619D02*
X80656666Y-121242619D01*
X80656666Y-121242619D02*
X80751904Y-121290238D01*
X80751904Y-121290238D02*
X80799523Y-121337857D01*
X80799523Y-121337857D02*
X80847142Y-121433095D01*
X80847142Y-121433095D02*
X80847142Y-121575952D01*
X80847142Y-121575952D02*
X80799523Y-121671190D01*
X80799523Y-121671190D02*
X80751904Y-121718809D01*
X80751904Y-121718809D02*
X80656666Y-121766428D01*
X80656666Y-121766428D02*
X80275714Y-121766428D01*
X81799523Y-122242619D02*
X81228095Y-122242619D01*
X81513809Y-122242619D02*
X81513809Y-121242619D01*
X81513809Y-121242619D02*
X81418571Y-121385476D01*
X81418571Y-121385476D02*
X81323333Y-121480714D01*
X81323333Y-121480714D02*
X81228095Y-121528333D01*
X82180476Y-121337857D02*
X82228095Y-121290238D01*
X82228095Y-121290238D02*
X82323333Y-121242619D01*
X82323333Y-121242619D02*
X82561428Y-121242619D01*
X82561428Y-121242619D02*
X82656666Y-121290238D01*
X82656666Y-121290238D02*
X82704285Y-121337857D01*
X82704285Y-121337857D02*
X82751904Y-121433095D01*
X82751904Y-121433095D02*
X82751904Y-121528333D01*
X82751904Y-121528333D02*
X82704285Y-121671190D01*
X82704285Y-121671190D02*
X82132857Y-122242619D01*
X82132857Y-122242619D02*
X82751904Y-122242619D01*
%TO.C,R8*%
X69468333Y-105822619D02*
X69135000Y-105346428D01*
X68896905Y-105822619D02*
X68896905Y-104822619D01*
X68896905Y-104822619D02*
X69277857Y-104822619D01*
X69277857Y-104822619D02*
X69373095Y-104870238D01*
X69373095Y-104870238D02*
X69420714Y-104917857D01*
X69420714Y-104917857D02*
X69468333Y-105013095D01*
X69468333Y-105013095D02*
X69468333Y-105155952D01*
X69468333Y-105155952D02*
X69420714Y-105251190D01*
X69420714Y-105251190D02*
X69373095Y-105298809D01*
X69373095Y-105298809D02*
X69277857Y-105346428D01*
X69277857Y-105346428D02*
X68896905Y-105346428D01*
X70039762Y-105251190D02*
X69944524Y-105203571D01*
X69944524Y-105203571D02*
X69896905Y-105155952D01*
X69896905Y-105155952D02*
X69849286Y-105060714D01*
X69849286Y-105060714D02*
X69849286Y-105013095D01*
X69849286Y-105013095D02*
X69896905Y-104917857D01*
X69896905Y-104917857D02*
X69944524Y-104870238D01*
X69944524Y-104870238D02*
X70039762Y-104822619D01*
X70039762Y-104822619D02*
X70230238Y-104822619D01*
X70230238Y-104822619D02*
X70325476Y-104870238D01*
X70325476Y-104870238D02*
X70373095Y-104917857D01*
X70373095Y-104917857D02*
X70420714Y-105013095D01*
X70420714Y-105013095D02*
X70420714Y-105060714D01*
X70420714Y-105060714D02*
X70373095Y-105155952D01*
X70373095Y-105155952D02*
X70325476Y-105203571D01*
X70325476Y-105203571D02*
X70230238Y-105251190D01*
X70230238Y-105251190D02*
X70039762Y-105251190D01*
X70039762Y-105251190D02*
X69944524Y-105298809D01*
X69944524Y-105298809D02*
X69896905Y-105346428D01*
X69896905Y-105346428D02*
X69849286Y-105441666D01*
X69849286Y-105441666D02*
X69849286Y-105632142D01*
X69849286Y-105632142D02*
X69896905Y-105727380D01*
X69896905Y-105727380D02*
X69944524Y-105775000D01*
X69944524Y-105775000D02*
X70039762Y-105822619D01*
X70039762Y-105822619D02*
X70230238Y-105822619D01*
X70230238Y-105822619D02*
X70325476Y-105775000D01*
X70325476Y-105775000D02*
X70373095Y-105727380D01*
X70373095Y-105727380D02*
X70420714Y-105632142D01*
X70420714Y-105632142D02*
X70420714Y-105441666D01*
X70420714Y-105441666D02*
X70373095Y-105346428D01*
X70373095Y-105346428D02*
X70325476Y-105298809D01*
X70325476Y-105298809D02*
X70230238Y-105251190D01*
%TO.C,C7*%
X75093333Y-92667380D02*
X75045714Y-92715000D01*
X75045714Y-92715000D02*
X74902857Y-92762619D01*
X74902857Y-92762619D02*
X74807619Y-92762619D01*
X74807619Y-92762619D02*
X74664762Y-92715000D01*
X74664762Y-92715000D02*
X74569524Y-92619761D01*
X74569524Y-92619761D02*
X74521905Y-92524523D01*
X74521905Y-92524523D02*
X74474286Y-92334047D01*
X74474286Y-92334047D02*
X74474286Y-92191190D01*
X74474286Y-92191190D02*
X74521905Y-92000714D01*
X74521905Y-92000714D02*
X74569524Y-91905476D01*
X74569524Y-91905476D02*
X74664762Y-91810238D01*
X74664762Y-91810238D02*
X74807619Y-91762619D01*
X74807619Y-91762619D02*
X74902857Y-91762619D01*
X74902857Y-91762619D02*
X75045714Y-91810238D01*
X75045714Y-91810238D02*
X75093333Y-91857857D01*
X75426667Y-91762619D02*
X76093333Y-91762619D01*
X76093333Y-91762619D02*
X75664762Y-92762619D01*
%TO.C,J13*%
X47750476Y-35152619D02*
X47750476Y-35866904D01*
X47750476Y-35866904D02*
X47702857Y-36009761D01*
X47702857Y-36009761D02*
X47607619Y-36105000D01*
X47607619Y-36105000D02*
X47464762Y-36152619D01*
X47464762Y-36152619D02*
X47369524Y-36152619D01*
X48750476Y-36152619D02*
X48179048Y-36152619D01*
X48464762Y-36152619D02*
X48464762Y-35152619D01*
X48464762Y-35152619D02*
X48369524Y-35295476D01*
X48369524Y-35295476D02*
X48274286Y-35390714D01*
X48274286Y-35390714D02*
X48179048Y-35438333D01*
X49083810Y-35152619D02*
X49702857Y-35152619D01*
X49702857Y-35152619D02*
X49369524Y-35533571D01*
X49369524Y-35533571D02*
X49512381Y-35533571D01*
X49512381Y-35533571D02*
X49607619Y-35581190D01*
X49607619Y-35581190D02*
X49655238Y-35628809D01*
X49655238Y-35628809D02*
X49702857Y-35724047D01*
X49702857Y-35724047D02*
X49702857Y-35962142D01*
X49702857Y-35962142D02*
X49655238Y-36057380D01*
X49655238Y-36057380D02*
X49607619Y-36105000D01*
X49607619Y-36105000D02*
X49512381Y-36152619D01*
X49512381Y-36152619D02*
X49226667Y-36152619D01*
X49226667Y-36152619D02*
X49131429Y-36105000D01*
X49131429Y-36105000D02*
X49083810Y-36057380D01*
%TO.C,R6*%
X51593333Y-85882619D02*
X51260000Y-85406428D01*
X51021905Y-85882619D02*
X51021905Y-84882619D01*
X51021905Y-84882619D02*
X51402857Y-84882619D01*
X51402857Y-84882619D02*
X51498095Y-84930238D01*
X51498095Y-84930238D02*
X51545714Y-84977857D01*
X51545714Y-84977857D02*
X51593333Y-85073095D01*
X51593333Y-85073095D02*
X51593333Y-85215952D01*
X51593333Y-85215952D02*
X51545714Y-85311190D01*
X51545714Y-85311190D02*
X51498095Y-85358809D01*
X51498095Y-85358809D02*
X51402857Y-85406428D01*
X51402857Y-85406428D02*
X51021905Y-85406428D01*
X52450476Y-84882619D02*
X52260000Y-84882619D01*
X52260000Y-84882619D02*
X52164762Y-84930238D01*
X52164762Y-84930238D02*
X52117143Y-84977857D01*
X52117143Y-84977857D02*
X52021905Y-85120714D01*
X52021905Y-85120714D02*
X51974286Y-85311190D01*
X51974286Y-85311190D02*
X51974286Y-85692142D01*
X51974286Y-85692142D02*
X52021905Y-85787380D01*
X52021905Y-85787380D02*
X52069524Y-85835000D01*
X52069524Y-85835000D02*
X52164762Y-85882619D01*
X52164762Y-85882619D02*
X52355238Y-85882619D01*
X52355238Y-85882619D02*
X52450476Y-85835000D01*
X52450476Y-85835000D02*
X52498095Y-85787380D01*
X52498095Y-85787380D02*
X52545714Y-85692142D01*
X52545714Y-85692142D02*
X52545714Y-85454047D01*
X52545714Y-85454047D02*
X52498095Y-85358809D01*
X52498095Y-85358809D02*
X52450476Y-85311190D01*
X52450476Y-85311190D02*
X52355238Y-85263571D01*
X52355238Y-85263571D02*
X52164762Y-85263571D01*
X52164762Y-85263571D02*
X52069524Y-85311190D01*
X52069524Y-85311190D02*
X52021905Y-85358809D01*
X52021905Y-85358809D02*
X51974286Y-85454047D01*
%TO.C,D7*%
X52951905Y-71596934D02*
X52951905Y-70596934D01*
X52951905Y-70596934D02*
X53190000Y-70596934D01*
X53190000Y-70596934D02*
X53332857Y-70644553D01*
X53332857Y-70644553D02*
X53428095Y-70739791D01*
X53428095Y-70739791D02*
X53475714Y-70835029D01*
X53475714Y-70835029D02*
X53523333Y-71025505D01*
X53523333Y-71025505D02*
X53523333Y-71168362D01*
X53523333Y-71168362D02*
X53475714Y-71358838D01*
X53475714Y-71358838D02*
X53428095Y-71454076D01*
X53428095Y-71454076D02*
X53332857Y-71549315D01*
X53332857Y-71549315D02*
X53190000Y-71596934D01*
X53190000Y-71596934D02*
X52951905Y-71596934D01*
X53856667Y-70596934D02*
X54523333Y-70596934D01*
X54523333Y-70596934D02*
X54094762Y-71596934D01*
%TO.C,R14*%
X75607142Y-59762619D02*
X75273809Y-59286428D01*
X75035714Y-59762619D02*
X75035714Y-58762619D01*
X75035714Y-58762619D02*
X75416666Y-58762619D01*
X75416666Y-58762619D02*
X75511904Y-58810238D01*
X75511904Y-58810238D02*
X75559523Y-58857857D01*
X75559523Y-58857857D02*
X75607142Y-58953095D01*
X75607142Y-58953095D02*
X75607142Y-59095952D01*
X75607142Y-59095952D02*
X75559523Y-59191190D01*
X75559523Y-59191190D02*
X75511904Y-59238809D01*
X75511904Y-59238809D02*
X75416666Y-59286428D01*
X75416666Y-59286428D02*
X75035714Y-59286428D01*
X76559523Y-59762619D02*
X75988095Y-59762619D01*
X76273809Y-59762619D02*
X76273809Y-58762619D01*
X76273809Y-58762619D02*
X76178571Y-58905476D01*
X76178571Y-58905476D02*
X76083333Y-59000714D01*
X76083333Y-59000714D02*
X75988095Y-59048333D01*
X77416666Y-59095952D02*
X77416666Y-59762619D01*
X77178571Y-58715000D02*
X76940476Y-59429285D01*
X76940476Y-59429285D02*
X77559523Y-59429285D01*
%TO.C,R9*%
X77972619Y-89296666D02*
X77496428Y-89629999D01*
X77972619Y-89868094D02*
X76972619Y-89868094D01*
X76972619Y-89868094D02*
X76972619Y-89487142D01*
X76972619Y-89487142D02*
X77020238Y-89391904D01*
X77020238Y-89391904D02*
X77067857Y-89344285D01*
X77067857Y-89344285D02*
X77163095Y-89296666D01*
X77163095Y-89296666D02*
X77305952Y-89296666D01*
X77305952Y-89296666D02*
X77401190Y-89344285D01*
X77401190Y-89344285D02*
X77448809Y-89391904D01*
X77448809Y-89391904D02*
X77496428Y-89487142D01*
X77496428Y-89487142D02*
X77496428Y-89868094D01*
X77972619Y-88820475D02*
X77972619Y-88629999D01*
X77972619Y-88629999D02*
X77925000Y-88534761D01*
X77925000Y-88534761D02*
X77877380Y-88487142D01*
X77877380Y-88487142D02*
X77734523Y-88391904D01*
X77734523Y-88391904D02*
X77544047Y-88344285D01*
X77544047Y-88344285D02*
X77163095Y-88344285D01*
X77163095Y-88344285D02*
X77067857Y-88391904D01*
X77067857Y-88391904D02*
X77020238Y-88439523D01*
X77020238Y-88439523D02*
X76972619Y-88534761D01*
X76972619Y-88534761D02*
X76972619Y-88725237D01*
X76972619Y-88725237D02*
X77020238Y-88820475D01*
X77020238Y-88820475D02*
X77067857Y-88868094D01*
X77067857Y-88868094D02*
X77163095Y-88915713D01*
X77163095Y-88915713D02*
X77401190Y-88915713D01*
X77401190Y-88915713D02*
X77496428Y-88868094D01*
X77496428Y-88868094D02*
X77544047Y-88820475D01*
X77544047Y-88820475D02*
X77591666Y-88725237D01*
X77591666Y-88725237D02*
X77591666Y-88534761D01*
X77591666Y-88534761D02*
X77544047Y-88439523D01*
X77544047Y-88439523D02*
X77496428Y-88391904D01*
X77496428Y-88391904D02*
X77401190Y-88344285D01*
%TO.C,D8*%
X58077389Y-71828305D02*
X58077389Y-70828305D01*
X58077389Y-70828305D02*
X58315484Y-70828305D01*
X58315484Y-70828305D02*
X58458341Y-70875924D01*
X58458341Y-70875924D02*
X58553579Y-70971162D01*
X58553579Y-70971162D02*
X58601198Y-71066400D01*
X58601198Y-71066400D02*
X58648817Y-71256876D01*
X58648817Y-71256876D02*
X58648817Y-71399733D01*
X58648817Y-71399733D02*
X58601198Y-71590209D01*
X58601198Y-71590209D02*
X58553579Y-71685447D01*
X58553579Y-71685447D02*
X58458341Y-71780686D01*
X58458341Y-71780686D02*
X58315484Y-71828305D01*
X58315484Y-71828305D02*
X58077389Y-71828305D01*
X59220246Y-71256876D02*
X59125008Y-71209257D01*
X59125008Y-71209257D02*
X59077389Y-71161638D01*
X59077389Y-71161638D02*
X59029770Y-71066400D01*
X59029770Y-71066400D02*
X59029770Y-71018781D01*
X59029770Y-71018781D02*
X59077389Y-70923543D01*
X59077389Y-70923543D02*
X59125008Y-70875924D01*
X59125008Y-70875924D02*
X59220246Y-70828305D01*
X59220246Y-70828305D02*
X59410722Y-70828305D01*
X59410722Y-70828305D02*
X59505960Y-70875924D01*
X59505960Y-70875924D02*
X59553579Y-70923543D01*
X59553579Y-70923543D02*
X59601198Y-71018781D01*
X59601198Y-71018781D02*
X59601198Y-71066400D01*
X59601198Y-71066400D02*
X59553579Y-71161638D01*
X59553579Y-71161638D02*
X59505960Y-71209257D01*
X59505960Y-71209257D02*
X59410722Y-71256876D01*
X59410722Y-71256876D02*
X59220246Y-71256876D01*
X59220246Y-71256876D02*
X59125008Y-71304495D01*
X59125008Y-71304495D02*
X59077389Y-71352114D01*
X59077389Y-71352114D02*
X59029770Y-71447352D01*
X59029770Y-71447352D02*
X59029770Y-71637828D01*
X59029770Y-71637828D02*
X59077389Y-71733066D01*
X59077389Y-71733066D02*
X59125008Y-71780686D01*
X59125008Y-71780686D02*
X59220246Y-71828305D01*
X59220246Y-71828305D02*
X59410722Y-71828305D01*
X59410722Y-71828305D02*
X59505960Y-71780686D01*
X59505960Y-71780686D02*
X59553579Y-71733066D01*
X59553579Y-71733066D02*
X59601198Y-71637828D01*
X59601198Y-71637828D02*
X59601198Y-71447352D01*
X59601198Y-71447352D02*
X59553579Y-71352114D01*
X59553579Y-71352114D02*
X59505960Y-71304495D01*
X59505960Y-71304495D02*
X59410722Y-71256876D01*
%TO.C,R5*%
X46278333Y-80702619D02*
X45945000Y-80226428D01*
X45706905Y-80702619D02*
X45706905Y-79702619D01*
X45706905Y-79702619D02*
X46087857Y-79702619D01*
X46087857Y-79702619D02*
X46183095Y-79750238D01*
X46183095Y-79750238D02*
X46230714Y-79797857D01*
X46230714Y-79797857D02*
X46278333Y-79893095D01*
X46278333Y-79893095D02*
X46278333Y-80035952D01*
X46278333Y-80035952D02*
X46230714Y-80131190D01*
X46230714Y-80131190D02*
X46183095Y-80178809D01*
X46183095Y-80178809D02*
X46087857Y-80226428D01*
X46087857Y-80226428D02*
X45706905Y-80226428D01*
X47183095Y-79702619D02*
X46706905Y-79702619D01*
X46706905Y-79702619D02*
X46659286Y-80178809D01*
X46659286Y-80178809D02*
X46706905Y-80131190D01*
X46706905Y-80131190D02*
X46802143Y-80083571D01*
X46802143Y-80083571D02*
X47040238Y-80083571D01*
X47040238Y-80083571D02*
X47135476Y-80131190D01*
X47135476Y-80131190D02*
X47183095Y-80178809D01*
X47183095Y-80178809D02*
X47230714Y-80274047D01*
X47230714Y-80274047D02*
X47230714Y-80512142D01*
X47230714Y-80512142D02*
X47183095Y-80607380D01*
X47183095Y-80607380D02*
X47135476Y-80655000D01*
X47135476Y-80655000D02*
X47040238Y-80702619D01*
X47040238Y-80702619D02*
X46802143Y-80702619D01*
X46802143Y-80702619D02*
X46706905Y-80655000D01*
X46706905Y-80655000D02*
X46659286Y-80607380D01*
%TO.C,R4*%
X65759018Y-123517619D02*
X65425685Y-123041428D01*
X65187590Y-123517619D02*
X65187590Y-122517619D01*
X65187590Y-122517619D02*
X65568542Y-122517619D01*
X65568542Y-122517619D02*
X65663780Y-122565238D01*
X65663780Y-122565238D02*
X65711399Y-122612857D01*
X65711399Y-122612857D02*
X65759018Y-122708095D01*
X65759018Y-122708095D02*
X65759018Y-122850952D01*
X65759018Y-122850952D02*
X65711399Y-122946190D01*
X65711399Y-122946190D02*
X65663780Y-122993809D01*
X65663780Y-122993809D02*
X65568542Y-123041428D01*
X65568542Y-123041428D02*
X65187590Y-123041428D01*
X66616161Y-122850952D02*
X66616161Y-123517619D01*
X66378066Y-122470000D02*
X66139971Y-123184285D01*
X66139971Y-123184285D02*
X66759018Y-123184285D01*
%TO.C,C5*%
X51963333Y-133717380D02*
X51915714Y-133765000D01*
X51915714Y-133765000D02*
X51772857Y-133812619D01*
X51772857Y-133812619D02*
X51677619Y-133812619D01*
X51677619Y-133812619D02*
X51534762Y-133765000D01*
X51534762Y-133765000D02*
X51439524Y-133669761D01*
X51439524Y-133669761D02*
X51391905Y-133574523D01*
X51391905Y-133574523D02*
X51344286Y-133384047D01*
X51344286Y-133384047D02*
X51344286Y-133241190D01*
X51344286Y-133241190D02*
X51391905Y-133050714D01*
X51391905Y-133050714D02*
X51439524Y-132955476D01*
X51439524Y-132955476D02*
X51534762Y-132860238D01*
X51534762Y-132860238D02*
X51677619Y-132812619D01*
X51677619Y-132812619D02*
X51772857Y-132812619D01*
X51772857Y-132812619D02*
X51915714Y-132860238D01*
X51915714Y-132860238D02*
X51963333Y-132907857D01*
X52868095Y-132812619D02*
X52391905Y-132812619D01*
X52391905Y-132812619D02*
X52344286Y-133288809D01*
X52344286Y-133288809D02*
X52391905Y-133241190D01*
X52391905Y-133241190D02*
X52487143Y-133193571D01*
X52487143Y-133193571D02*
X52725238Y-133193571D01*
X52725238Y-133193571D02*
X52820476Y-133241190D01*
X52820476Y-133241190D02*
X52868095Y-133288809D01*
X52868095Y-133288809D02*
X52915714Y-133384047D01*
X52915714Y-133384047D02*
X52915714Y-133622142D01*
X52915714Y-133622142D02*
X52868095Y-133717380D01*
X52868095Y-133717380D02*
X52820476Y-133765000D01*
X52820476Y-133765000D02*
X52725238Y-133812619D01*
X52725238Y-133812619D02*
X52487143Y-133812619D01*
X52487143Y-133812619D02*
X52391905Y-133765000D01*
X52391905Y-133765000D02*
X52344286Y-133717380D01*
%TO.C,C9*%
X77153333Y-120487380D02*
X77105714Y-120535000D01*
X77105714Y-120535000D02*
X76962857Y-120582619D01*
X76962857Y-120582619D02*
X76867619Y-120582619D01*
X76867619Y-120582619D02*
X76724762Y-120535000D01*
X76724762Y-120535000D02*
X76629524Y-120439761D01*
X76629524Y-120439761D02*
X76581905Y-120344523D01*
X76581905Y-120344523D02*
X76534286Y-120154047D01*
X76534286Y-120154047D02*
X76534286Y-120011190D01*
X76534286Y-120011190D02*
X76581905Y-119820714D01*
X76581905Y-119820714D02*
X76629524Y-119725476D01*
X76629524Y-119725476D02*
X76724762Y-119630238D01*
X76724762Y-119630238D02*
X76867619Y-119582619D01*
X76867619Y-119582619D02*
X76962857Y-119582619D01*
X76962857Y-119582619D02*
X77105714Y-119630238D01*
X77105714Y-119630238D02*
X77153333Y-119677857D01*
X77629524Y-120582619D02*
X77820000Y-120582619D01*
X77820000Y-120582619D02*
X77915238Y-120535000D01*
X77915238Y-120535000D02*
X77962857Y-120487380D01*
X77962857Y-120487380D02*
X78058095Y-120344523D01*
X78058095Y-120344523D02*
X78105714Y-120154047D01*
X78105714Y-120154047D02*
X78105714Y-119773095D01*
X78105714Y-119773095D02*
X78058095Y-119677857D01*
X78058095Y-119677857D02*
X78010476Y-119630238D01*
X78010476Y-119630238D02*
X77915238Y-119582619D01*
X77915238Y-119582619D02*
X77724762Y-119582619D01*
X77724762Y-119582619D02*
X77629524Y-119630238D01*
X77629524Y-119630238D02*
X77581905Y-119677857D01*
X77581905Y-119677857D02*
X77534286Y-119773095D01*
X77534286Y-119773095D02*
X77534286Y-120011190D01*
X77534286Y-120011190D02*
X77581905Y-120106428D01*
X77581905Y-120106428D02*
X77629524Y-120154047D01*
X77629524Y-120154047D02*
X77724762Y-120201666D01*
X77724762Y-120201666D02*
X77915238Y-120201666D01*
X77915238Y-120201666D02*
X78010476Y-120154047D01*
X78010476Y-120154047D02*
X78058095Y-120106428D01*
X78058095Y-120106428D02*
X78105714Y-120011190D01*
%TO.C,D2*%
X48547591Y-119892619D02*
X48547591Y-118892619D01*
X48547591Y-118892619D02*
X48785686Y-118892619D01*
X48785686Y-118892619D02*
X48928543Y-118940238D01*
X48928543Y-118940238D02*
X49023781Y-119035476D01*
X49023781Y-119035476D02*
X49071400Y-119130714D01*
X49071400Y-119130714D02*
X49119019Y-119321190D01*
X49119019Y-119321190D02*
X49119019Y-119464047D01*
X49119019Y-119464047D02*
X49071400Y-119654523D01*
X49071400Y-119654523D02*
X49023781Y-119749761D01*
X49023781Y-119749761D02*
X48928543Y-119845000D01*
X48928543Y-119845000D02*
X48785686Y-119892619D01*
X48785686Y-119892619D02*
X48547591Y-119892619D01*
X49499972Y-118987857D02*
X49547591Y-118940238D01*
X49547591Y-118940238D02*
X49642829Y-118892619D01*
X49642829Y-118892619D02*
X49880924Y-118892619D01*
X49880924Y-118892619D02*
X49976162Y-118940238D01*
X49976162Y-118940238D02*
X50023781Y-118987857D01*
X50023781Y-118987857D02*
X50071400Y-119083095D01*
X50071400Y-119083095D02*
X50071400Y-119178333D01*
X50071400Y-119178333D02*
X50023781Y-119321190D01*
X50023781Y-119321190D02*
X49452353Y-119892619D01*
X49452353Y-119892619D02*
X50071400Y-119892619D01*
%TO.C,C4*%
X55093333Y-90137380D02*
X55045714Y-90185000D01*
X55045714Y-90185000D02*
X54902857Y-90232619D01*
X54902857Y-90232619D02*
X54807619Y-90232619D01*
X54807619Y-90232619D02*
X54664762Y-90185000D01*
X54664762Y-90185000D02*
X54569524Y-90089761D01*
X54569524Y-90089761D02*
X54521905Y-89994523D01*
X54521905Y-89994523D02*
X54474286Y-89804047D01*
X54474286Y-89804047D02*
X54474286Y-89661190D01*
X54474286Y-89661190D02*
X54521905Y-89470714D01*
X54521905Y-89470714D02*
X54569524Y-89375476D01*
X54569524Y-89375476D02*
X54664762Y-89280238D01*
X54664762Y-89280238D02*
X54807619Y-89232619D01*
X54807619Y-89232619D02*
X54902857Y-89232619D01*
X54902857Y-89232619D02*
X55045714Y-89280238D01*
X55045714Y-89280238D02*
X55093333Y-89327857D01*
X55950476Y-89565952D02*
X55950476Y-90232619D01*
X55712381Y-89185000D02*
X55474286Y-89899285D01*
X55474286Y-89899285D02*
X56093333Y-89899285D01*
%TO.C,D5*%
X70246220Y-119902619D02*
X70246220Y-118902619D01*
X70246220Y-118902619D02*
X70484315Y-118902619D01*
X70484315Y-118902619D02*
X70627172Y-118950238D01*
X70627172Y-118950238D02*
X70722410Y-119045476D01*
X70722410Y-119045476D02*
X70770029Y-119140714D01*
X70770029Y-119140714D02*
X70817648Y-119331190D01*
X70817648Y-119331190D02*
X70817648Y-119474047D01*
X70817648Y-119474047D02*
X70770029Y-119664523D01*
X70770029Y-119664523D02*
X70722410Y-119759761D01*
X70722410Y-119759761D02*
X70627172Y-119855000D01*
X70627172Y-119855000D02*
X70484315Y-119902619D01*
X70484315Y-119902619D02*
X70246220Y-119902619D01*
X71722410Y-118902619D02*
X71246220Y-118902619D01*
X71246220Y-118902619D02*
X71198601Y-119378809D01*
X71198601Y-119378809D02*
X71246220Y-119331190D01*
X71246220Y-119331190D02*
X71341458Y-119283571D01*
X71341458Y-119283571D02*
X71579553Y-119283571D01*
X71579553Y-119283571D02*
X71674791Y-119331190D01*
X71674791Y-119331190D02*
X71722410Y-119378809D01*
X71722410Y-119378809D02*
X71770029Y-119474047D01*
X71770029Y-119474047D02*
X71770029Y-119712142D01*
X71770029Y-119712142D02*
X71722410Y-119807380D01*
X71722410Y-119807380D02*
X71674791Y-119855000D01*
X71674791Y-119855000D02*
X71579553Y-119902619D01*
X71579553Y-119902619D02*
X71341458Y-119902619D01*
X71341458Y-119902619D02*
X71246220Y-119855000D01*
X71246220Y-119855000D02*
X71198601Y-119807380D01*
%TO.C,J11*%
X44790476Y-110262619D02*
X44790476Y-110976904D01*
X44790476Y-110976904D02*
X44742857Y-111119761D01*
X44742857Y-111119761D02*
X44647619Y-111215000D01*
X44647619Y-111215000D02*
X44504762Y-111262619D01*
X44504762Y-111262619D02*
X44409524Y-111262619D01*
X45790476Y-111262619D02*
X45219048Y-111262619D01*
X45504762Y-111262619D02*
X45504762Y-110262619D01*
X45504762Y-110262619D02*
X45409524Y-110405476D01*
X45409524Y-110405476D02*
X45314286Y-110500714D01*
X45314286Y-110500714D02*
X45219048Y-110548333D01*
X46742857Y-111262619D02*
X46171429Y-111262619D01*
X46457143Y-111262619D02*
X46457143Y-110262619D01*
X46457143Y-110262619D02*
X46361905Y-110405476D01*
X46361905Y-110405476D02*
X46266667Y-110500714D01*
X46266667Y-110500714D02*
X46171429Y-110548333D01*
%TO.C,D6*%
X51041906Y-82322619D02*
X51041906Y-81322619D01*
X51041906Y-81322619D02*
X51280001Y-81322619D01*
X51280001Y-81322619D02*
X51422858Y-81370238D01*
X51422858Y-81370238D02*
X51518096Y-81465476D01*
X51518096Y-81465476D02*
X51565715Y-81560714D01*
X51565715Y-81560714D02*
X51613334Y-81751190D01*
X51613334Y-81751190D02*
X51613334Y-81894047D01*
X51613334Y-81894047D02*
X51565715Y-82084523D01*
X51565715Y-82084523D02*
X51518096Y-82179761D01*
X51518096Y-82179761D02*
X51422858Y-82275000D01*
X51422858Y-82275000D02*
X51280001Y-82322619D01*
X51280001Y-82322619D02*
X51041906Y-82322619D01*
X52470477Y-81322619D02*
X52280001Y-81322619D01*
X52280001Y-81322619D02*
X52184763Y-81370238D01*
X52184763Y-81370238D02*
X52137144Y-81417857D01*
X52137144Y-81417857D02*
X52041906Y-81560714D01*
X52041906Y-81560714D02*
X51994287Y-81751190D01*
X51994287Y-81751190D02*
X51994287Y-82132142D01*
X51994287Y-82132142D02*
X52041906Y-82227380D01*
X52041906Y-82227380D02*
X52089525Y-82275000D01*
X52089525Y-82275000D02*
X52184763Y-82322619D01*
X52184763Y-82322619D02*
X52375239Y-82322619D01*
X52375239Y-82322619D02*
X52470477Y-82275000D01*
X52470477Y-82275000D02*
X52518096Y-82227380D01*
X52518096Y-82227380D02*
X52565715Y-82132142D01*
X52565715Y-82132142D02*
X52565715Y-81894047D01*
X52565715Y-81894047D02*
X52518096Y-81798809D01*
X52518096Y-81798809D02*
X52470477Y-81751190D01*
X52470477Y-81751190D02*
X52375239Y-81703571D01*
X52375239Y-81703571D02*
X52184763Y-81703571D01*
X52184763Y-81703571D02*
X52089525Y-81751190D01*
X52089525Y-81751190D02*
X52041906Y-81798809D01*
X52041906Y-81798809D02*
X51994287Y-81894047D01*
%TO.C,U3*%
X78658095Y-132202619D02*
X78658095Y-133012142D01*
X78658095Y-133012142D02*
X78705714Y-133107380D01*
X78705714Y-133107380D02*
X78753333Y-133155000D01*
X78753333Y-133155000D02*
X78848571Y-133202619D01*
X78848571Y-133202619D02*
X79039047Y-133202619D01*
X79039047Y-133202619D02*
X79134285Y-133155000D01*
X79134285Y-133155000D02*
X79181904Y-133107380D01*
X79181904Y-133107380D02*
X79229523Y-133012142D01*
X79229523Y-133012142D02*
X79229523Y-132202619D01*
X79610476Y-132202619D02*
X80229523Y-132202619D01*
X80229523Y-132202619D02*
X79896190Y-132583571D01*
X79896190Y-132583571D02*
X80039047Y-132583571D01*
X80039047Y-132583571D02*
X80134285Y-132631190D01*
X80134285Y-132631190D02*
X80181904Y-132678809D01*
X80181904Y-132678809D02*
X80229523Y-132774047D01*
X80229523Y-132774047D02*
X80229523Y-133012142D01*
X80229523Y-133012142D02*
X80181904Y-133107380D01*
X80181904Y-133107380D02*
X80134285Y-133155000D01*
X80134285Y-133155000D02*
X80039047Y-133202619D01*
X80039047Y-133202619D02*
X79753333Y-133202619D01*
X79753333Y-133202619D02*
X79658095Y-133155000D01*
X79658095Y-133155000D02*
X79610476Y-133107380D01*
%TO.C,C8*%
X75297380Y-128046666D02*
X75345000Y-128094285D01*
X75345000Y-128094285D02*
X75392619Y-128237142D01*
X75392619Y-128237142D02*
X75392619Y-128332380D01*
X75392619Y-128332380D02*
X75345000Y-128475237D01*
X75345000Y-128475237D02*
X75249761Y-128570475D01*
X75249761Y-128570475D02*
X75154523Y-128618094D01*
X75154523Y-128618094D02*
X74964047Y-128665713D01*
X74964047Y-128665713D02*
X74821190Y-128665713D01*
X74821190Y-128665713D02*
X74630714Y-128618094D01*
X74630714Y-128618094D02*
X74535476Y-128570475D01*
X74535476Y-128570475D02*
X74440238Y-128475237D01*
X74440238Y-128475237D02*
X74392619Y-128332380D01*
X74392619Y-128332380D02*
X74392619Y-128237142D01*
X74392619Y-128237142D02*
X74440238Y-128094285D01*
X74440238Y-128094285D02*
X74487857Y-128046666D01*
X74821190Y-127475237D02*
X74773571Y-127570475D01*
X74773571Y-127570475D02*
X74725952Y-127618094D01*
X74725952Y-127618094D02*
X74630714Y-127665713D01*
X74630714Y-127665713D02*
X74583095Y-127665713D01*
X74583095Y-127665713D02*
X74487857Y-127618094D01*
X74487857Y-127618094D02*
X74440238Y-127570475D01*
X74440238Y-127570475D02*
X74392619Y-127475237D01*
X74392619Y-127475237D02*
X74392619Y-127284761D01*
X74392619Y-127284761D02*
X74440238Y-127189523D01*
X74440238Y-127189523D02*
X74487857Y-127141904D01*
X74487857Y-127141904D02*
X74583095Y-127094285D01*
X74583095Y-127094285D02*
X74630714Y-127094285D01*
X74630714Y-127094285D02*
X74725952Y-127141904D01*
X74725952Y-127141904D02*
X74773571Y-127189523D01*
X74773571Y-127189523D02*
X74821190Y-127284761D01*
X74821190Y-127284761D02*
X74821190Y-127475237D01*
X74821190Y-127475237D02*
X74868809Y-127570475D01*
X74868809Y-127570475D02*
X74916428Y-127618094D01*
X74916428Y-127618094D02*
X75011666Y-127665713D01*
X75011666Y-127665713D02*
X75202142Y-127665713D01*
X75202142Y-127665713D02*
X75297380Y-127618094D01*
X75297380Y-127618094D02*
X75345000Y-127570475D01*
X75345000Y-127570475D02*
X75392619Y-127475237D01*
X75392619Y-127475237D02*
X75392619Y-127284761D01*
X75392619Y-127284761D02*
X75345000Y-127189523D01*
X75345000Y-127189523D02*
X75297380Y-127141904D01*
X75297380Y-127141904D02*
X75202142Y-127094285D01*
X75202142Y-127094285D02*
X75011666Y-127094285D01*
X75011666Y-127094285D02*
X74916428Y-127141904D01*
X74916428Y-127141904D02*
X74868809Y-127189523D01*
X74868809Y-127189523D02*
X74821190Y-127284761D01*
%TO.C,R2*%
X53513333Y-123852619D02*
X53180000Y-123376428D01*
X52941905Y-123852619D02*
X52941905Y-122852619D01*
X52941905Y-122852619D02*
X53322857Y-122852619D01*
X53322857Y-122852619D02*
X53418095Y-122900238D01*
X53418095Y-122900238D02*
X53465714Y-122947857D01*
X53465714Y-122947857D02*
X53513333Y-123043095D01*
X53513333Y-123043095D02*
X53513333Y-123185952D01*
X53513333Y-123185952D02*
X53465714Y-123281190D01*
X53465714Y-123281190D02*
X53418095Y-123328809D01*
X53418095Y-123328809D02*
X53322857Y-123376428D01*
X53322857Y-123376428D02*
X52941905Y-123376428D01*
X53894286Y-122947857D02*
X53941905Y-122900238D01*
X53941905Y-122900238D02*
X54037143Y-122852619D01*
X54037143Y-122852619D02*
X54275238Y-122852619D01*
X54275238Y-122852619D02*
X54370476Y-122900238D01*
X54370476Y-122900238D02*
X54418095Y-122947857D01*
X54418095Y-122947857D02*
X54465714Y-123043095D01*
X54465714Y-123043095D02*
X54465714Y-123138333D01*
X54465714Y-123138333D02*
X54418095Y-123281190D01*
X54418095Y-123281190D02*
X53846667Y-123852619D01*
X53846667Y-123852619D02*
X54465714Y-123852619D01*
%TO.C,D9*%
X63431905Y-71736934D02*
X63431905Y-70736934D01*
X63431905Y-70736934D02*
X63670000Y-70736934D01*
X63670000Y-70736934D02*
X63812857Y-70784553D01*
X63812857Y-70784553D02*
X63908095Y-70879791D01*
X63908095Y-70879791D02*
X63955714Y-70975029D01*
X63955714Y-70975029D02*
X64003333Y-71165505D01*
X64003333Y-71165505D02*
X64003333Y-71308362D01*
X64003333Y-71308362D02*
X63955714Y-71498838D01*
X63955714Y-71498838D02*
X63908095Y-71594076D01*
X63908095Y-71594076D02*
X63812857Y-71689315D01*
X63812857Y-71689315D02*
X63670000Y-71736934D01*
X63670000Y-71736934D02*
X63431905Y-71736934D01*
X64479524Y-71736934D02*
X64670000Y-71736934D01*
X64670000Y-71736934D02*
X64765238Y-71689315D01*
X64765238Y-71689315D02*
X64812857Y-71641695D01*
X64812857Y-71641695D02*
X64908095Y-71498838D01*
X64908095Y-71498838D02*
X64955714Y-71308362D01*
X64955714Y-71308362D02*
X64955714Y-70927410D01*
X64955714Y-70927410D02*
X64908095Y-70832172D01*
X64908095Y-70832172D02*
X64860476Y-70784553D01*
X64860476Y-70784553D02*
X64765238Y-70736934D01*
X64765238Y-70736934D02*
X64574762Y-70736934D01*
X64574762Y-70736934D02*
X64479524Y-70784553D01*
X64479524Y-70784553D02*
X64431905Y-70832172D01*
X64431905Y-70832172D02*
X64384286Y-70927410D01*
X64384286Y-70927410D02*
X64384286Y-71165505D01*
X64384286Y-71165505D02*
X64431905Y-71260743D01*
X64431905Y-71260743D02*
X64479524Y-71308362D01*
X64479524Y-71308362D02*
X64574762Y-71355981D01*
X64574762Y-71355981D02*
X64765238Y-71355981D01*
X64765238Y-71355981D02*
X64860476Y-71308362D01*
X64860476Y-71308362D02*
X64908095Y-71260743D01*
X64908095Y-71260743D02*
X64955714Y-71165505D01*
%TO.C,D10*%
X68595714Y-71918305D02*
X68595714Y-70918305D01*
X68595714Y-70918305D02*
X68833809Y-70918305D01*
X68833809Y-70918305D02*
X68976666Y-70965924D01*
X68976666Y-70965924D02*
X69071904Y-71061162D01*
X69071904Y-71061162D02*
X69119523Y-71156400D01*
X69119523Y-71156400D02*
X69167142Y-71346876D01*
X69167142Y-71346876D02*
X69167142Y-71489733D01*
X69167142Y-71489733D02*
X69119523Y-71680209D01*
X69119523Y-71680209D02*
X69071904Y-71775447D01*
X69071904Y-71775447D02*
X68976666Y-71870686D01*
X68976666Y-71870686D02*
X68833809Y-71918305D01*
X68833809Y-71918305D02*
X68595714Y-71918305D01*
X70119523Y-71918305D02*
X69548095Y-71918305D01*
X69833809Y-71918305D02*
X69833809Y-70918305D01*
X69833809Y-70918305D02*
X69738571Y-71061162D01*
X69738571Y-71061162D02*
X69643333Y-71156400D01*
X69643333Y-71156400D02*
X69548095Y-71204019D01*
X70738571Y-70918305D02*
X70833809Y-70918305D01*
X70833809Y-70918305D02*
X70929047Y-70965924D01*
X70929047Y-70965924D02*
X70976666Y-71013543D01*
X70976666Y-71013543D02*
X71024285Y-71108781D01*
X71024285Y-71108781D02*
X71071904Y-71299257D01*
X71071904Y-71299257D02*
X71071904Y-71537352D01*
X71071904Y-71537352D02*
X71024285Y-71727828D01*
X71024285Y-71727828D02*
X70976666Y-71823066D01*
X70976666Y-71823066D02*
X70929047Y-71870686D01*
X70929047Y-71870686D02*
X70833809Y-71918305D01*
X70833809Y-71918305D02*
X70738571Y-71918305D01*
X70738571Y-71918305D02*
X70643333Y-71870686D01*
X70643333Y-71870686D02*
X70595714Y-71823066D01*
X70595714Y-71823066D02*
X70548095Y-71727828D01*
X70548095Y-71727828D02*
X70500476Y-71537352D01*
X70500476Y-71537352D02*
X70500476Y-71299257D01*
X70500476Y-71299257D02*
X70548095Y-71108781D01*
X70548095Y-71108781D02*
X70595714Y-71013543D01*
X70595714Y-71013543D02*
X70643333Y-70965924D01*
X70643333Y-70965924D02*
X70738571Y-70918305D01*
%TO.C,C2*%
X48053333Y-128427380D02*
X48005714Y-128475000D01*
X48005714Y-128475000D02*
X47862857Y-128522619D01*
X47862857Y-128522619D02*
X47767619Y-128522619D01*
X47767619Y-128522619D02*
X47624762Y-128475000D01*
X47624762Y-128475000D02*
X47529524Y-128379761D01*
X47529524Y-128379761D02*
X47481905Y-128284523D01*
X47481905Y-128284523D02*
X47434286Y-128094047D01*
X47434286Y-128094047D02*
X47434286Y-127951190D01*
X47434286Y-127951190D02*
X47481905Y-127760714D01*
X47481905Y-127760714D02*
X47529524Y-127665476D01*
X47529524Y-127665476D02*
X47624762Y-127570238D01*
X47624762Y-127570238D02*
X47767619Y-127522619D01*
X47767619Y-127522619D02*
X47862857Y-127522619D01*
X47862857Y-127522619D02*
X48005714Y-127570238D01*
X48005714Y-127570238D02*
X48053333Y-127617857D01*
X48434286Y-127617857D02*
X48481905Y-127570238D01*
X48481905Y-127570238D02*
X48577143Y-127522619D01*
X48577143Y-127522619D02*
X48815238Y-127522619D01*
X48815238Y-127522619D02*
X48910476Y-127570238D01*
X48910476Y-127570238D02*
X48958095Y-127617857D01*
X48958095Y-127617857D02*
X49005714Y-127713095D01*
X49005714Y-127713095D02*
X49005714Y-127808333D01*
X49005714Y-127808333D02*
X48958095Y-127951190D01*
X48958095Y-127951190D02*
X48386667Y-128522619D01*
X48386667Y-128522619D02*
X49005714Y-128522619D01*
D11*
%TO.C,D4*%
X62830000Y-117440000D02*
X61120000Y-117440000D01*
X61980000Y-119613629D02*
X61980000Y-119500000D01*
X63306371Y-120940000D02*
G75*
G03*
X63306371Y-120940000I-1326371J0D01*
G01*
%TO.C,R11*%
X78160000Y-78770000D02*
X78090000Y-78770000D01*
X80900000Y-78770000D02*
G75*
G03*
X80900000Y-78770000I-1370000J0D01*
G01*
%TO.C,R1*%
X54010000Y-127015000D02*
X54010000Y-126945000D01*
X55380000Y-128385000D02*
G75*
G03*
X55380000Y-128385000I-1370000J0D01*
G01*
%TO.C,D3*%
X58920000Y-117524315D02*
X57210000Y-117524315D01*
X58070000Y-119697944D02*
X58070000Y-119584315D01*
X59396371Y-121024315D02*
G75*
G03*
X59396371Y-121024315I-1326371J0D01*
G01*
%TO.C,D1*%
X58230000Y-51835686D02*
X59940000Y-51835686D01*
X59080000Y-49662057D02*
X59080000Y-49775686D01*
X60406371Y-48335686D02*
G75*
G03*
X60406371Y-48335686I-1326371J0D01*
G01*
%TO.C,C3*%
X71750000Y-131150000D02*
X71735000Y-131150000D01*
X71750000Y-131150000D02*
X71750000Y-135690000D01*
X69625000Y-131150000D02*
X69610000Y-131150000D01*
X69610000Y-131150000D02*
X69610000Y-135690000D01*
X71750000Y-135690000D02*
X71735000Y-135690000D01*
X69625000Y-135690000D02*
X69610000Y-135690000D01*
%TO.C,R10*%
X72880000Y-83415000D02*
X72880000Y-83485000D01*
X74250000Y-82045000D02*
G75*
G03*
X74250000Y-82045000I-1370000J0D01*
G01*
%TO.C,C1*%
X72180113Y-47945000D02*
X72680113Y-47945000D01*
X72430113Y-47695000D02*
X72430113Y-48195000D01*
X74984888Y-46840000D02*
X74984888Y-52000000D01*
X75024888Y-46840000D02*
X75024888Y-52000000D01*
X75064888Y-46841000D02*
X75064888Y-51999000D01*
X75104888Y-46842000D02*
X75104888Y-51998000D01*
X75144888Y-46844000D02*
X75144888Y-51996000D01*
X75184888Y-46847000D02*
X75184888Y-51993000D01*
X75224888Y-46851000D02*
X75224888Y-48380000D01*
X75224888Y-50460000D02*
X75224888Y-51989000D01*
X75264888Y-46855000D02*
X75264888Y-48380000D01*
X75264888Y-50460000D02*
X75264888Y-51985000D01*
X75304888Y-46859000D02*
X75304888Y-48380000D01*
X75304888Y-50460000D02*
X75304888Y-51981000D01*
X75344888Y-46864000D02*
X75344888Y-48380000D01*
X75344888Y-50460000D02*
X75344888Y-51976000D01*
X75384888Y-46870000D02*
X75384888Y-48380000D01*
X75384888Y-50460000D02*
X75384888Y-51970000D01*
X75424888Y-46877000D02*
X75424888Y-48380000D01*
X75424888Y-50460000D02*
X75424888Y-51963000D01*
X75464888Y-46884000D02*
X75464888Y-48380000D01*
X75464888Y-50460000D02*
X75464888Y-51956000D01*
X75504888Y-46892000D02*
X75504888Y-48380000D01*
X75504888Y-50460000D02*
X75504888Y-51948000D01*
X75544888Y-46900000D02*
X75544888Y-48380000D01*
X75544888Y-50460000D02*
X75544888Y-51940000D01*
X75584888Y-46909000D02*
X75584888Y-48380000D01*
X75584888Y-50460000D02*
X75584888Y-51931000D01*
X75624888Y-46919000D02*
X75624888Y-48380000D01*
X75624888Y-50460000D02*
X75624888Y-51921000D01*
X75664888Y-46929000D02*
X75664888Y-48380000D01*
X75664888Y-50460000D02*
X75664888Y-51911000D01*
X75705888Y-46940000D02*
X75705888Y-48380000D01*
X75705888Y-50460000D02*
X75705888Y-51900000D01*
X75745888Y-46952000D02*
X75745888Y-48380000D01*
X75745888Y-50460000D02*
X75745888Y-51888000D01*
X75785888Y-46965000D02*
X75785888Y-48380000D01*
X75785888Y-50460000D02*
X75785888Y-51875000D01*
X75825888Y-46978000D02*
X75825888Y-48380000D01*
X75825888Y-50460000D02*
X75825888Y-51862000D01*
X75865888Y-46992000D02*
X75865888Y-48380000D01*
X75865888Y-50460000D02*
X75865888Y-51848000D01*
X75905888Y-47006000D02*
X75905888Y-48380000D01*
X75905888Y-50460000D02*
X75905888Y-51834000D01*
X75945888Y-47022000D02*
X75945888Y-48380000D01*
X75945888Y-50460000D02*
X75945888Y-51818000D01*
X75985888Y-47038000D02*
X75985888Y-48380000D01*
X75985888Y-50460000D02*
X75985888Y-51802000D01*
X76025888Y-47055000D02*
X76025888Y-48380000D01*
X76025888Y-50460000D02*
X76025888Y-51785000D01*
X76065888Y-47072000D02*
X76065888Y-48380000D01*
X76065888Y-50460000D02*
X76065888Y-51768000D01*
X76105888Y-47091000D02*
X76105888Y-48380000D01*
X76105888Y-50460000D02*
X76105888Y-51749000D01*
X76145888Y-47110000D02*
X76145888Y-48380000D01*
X76145888Y-50460000D02*
X76145888Y-51730000D01*
X76185888Y-47130000D02*
X76185888Y-48380000D01*
X76185888Y-50460000D02*
X76185888Y-51710000D01*
X76225888Y-47152000D02*
X76225888Y-48380000D01*
X76225888Y-50460000D02*
X76225888Y-51688000D01*
X76265888Y-47173000D02*
X76265888Y-48380000D01*
X76265888Y-50460000D02*
X76265888Y-51667000D01*
X76305888Y-47196000D02*
X76305888Y-48380000D01*
X76305888Y-50460000D02*
X76305888Y-51644000D01*
X76345888Y-47220000D02*
X76345888Y-48380000D01*
X76345888Y-50460000D02*
X76345888Y-51620000D01*
X76385888Y-47245000D02*
X76385888Y-48380000D01*
X76385888Y-50460000D02*
X76385888Y-51595000D01*
X76425888Y-47271000D02*
X76425888Y-48380000D01*
X76425888Y-50460000D02*
X76425888Y-51569000D01*
X76465888Y-47298000D02*
X76465888Y-48380000D01*
X76465888Y-50460000D02*
X76465888Y-51542000D01*
X76505888Y-47325000D02*
X76505888Y-48380000D01*
X76505888Y-50460000D02*
X76505888Y-51515000D01*
X76545888Y-47355000D02*
X76545888Y-48380000D01*
X76545888Y-50460000D02*
X76545888Y-51485000D01*
X76585888Y-47385000D02*
X76585888Y-48380000D01*
X76585888Y-50460000D02*
X76585888Y-51455000D01*
X76625888Y-47416000D02*
X76625888Y-48380000D01*
X76625888Y-50460000D02*
X76625888Y-51424000D01*
X76665888Y-47449000D02*
X76665888Y-48380000D01*
X76665888Y-50460000D02*
X76665888Y-51391000D01*
X76705888Y-47483000D02*
X76705888Y-48380000D01*
X76705888Y-50460000D02*
X76705888Y-51357000D01*
X76745888Y-47519000D02*
X76745888Y-48380000D01*
X76745888Y-50460000D02*
X76745888Y-51321000D01*
X76785888Y-47556000D02*
X76785888Y-48380000D01*
X76785888Y-50460000D02*
X76785888Y-51284000D01*
X76825888Y-47594000D02*
X76825888Y-48380000D01*
X76825888Y-50460000D02*
X76825888Y-51246000D01*
X76865888Y-47635000D02*
X76865888Y-48380000D01*
X76865888Y-50460000D02*
X76865888Y-51205000D01*
X76905888Y-47677000D02*
X76905888Y-48380000D01*
X76905888Y-50460000D02*
X76905888Y-51163000D01*
X76945888Y-47721000D02*
X76945888Y-48380000D01*
X76945888Y-50460000D02*
X76945888Y-51119000D01*
X76985888Y-47767000D02*
X76985888Y-48380000D01*
X76985888Y-50460000D02*
X76985888Y-51073000D01*
X77025888Y-47815000D02*
X77025888Y-48380000D01*
X77025888Y-50460000D02*
X77025888Y-51025000D01*
X77065888Y-47866000D02*
X77065888Y-48380000D01*
X77065888Y-50460000D02*
X77065888Y-50974000D01*
X77105888Y-47920000D02*
X77105888Y-48380000D01*
X77105888Y-50460000D02*
X77105888Y-50920000D01*
X77145888Y-47977000D02*
X77145888Y-48380000D01*
X77145888Y-50460000D02*
X77145888Y-50863000D01*
X77185888Y-48037000D02*
X77185888Y-48380000D01*
X77185888Y-50460000D02*
X77185888Y-50803000D01*
X77225888Y-48101000D02*
X77225888Y-48380000D01*
X77225888Y-50460000D02*
X77225888Y-50739000D01*
X77265888Y-48169000D02*
X77265888Y-48380000D01*
X77265888Y-50460000D02*
X77265888Y-50671000D01*
X77305888Y-48242000D02*
X77305888Y-50598000D01*
X77345888Y-48322000D02*
X77345888Y-50518000D01*
X77385888Y-48409000D02*
X77385888Y-50431000D01*
X77425888Y-48505000D02*
X77425888Y-50335000D01*
X77465888Y-48615000D02*
X77465888Y-50225000D01*
X77505888Y-48743000D02*
X77505888Y-50097000D01*
X77545888Y-48902000D02*
X77545888Y-49938000D01*
X77585888Y-49136000D02*
X77585888Y-49704000D01*
X77604888Y-49420000D02*
G75*
G03*
X77604888Y-49420000I-2620000J0D01*
G01*
%TO.C,R15*%
X70325000Y-56930000D02*
X70255000Y-56930000D01*
X73065000Y-56930000D02*
G75*
G03*
X73065000Y-56930000I-1370000J0D01*
G01*
%TO.C,R7*%
X59295000Y-102790000D02*
X59365000Y-102790000D01*
X59295000Y-102790000D02*
G75*
G03*
X59295000Y-102790000I-1370000J0D01*
G01*
%TO.C,U1*%
X56330000Y-124385000D02*
X56330000Y-142405000D01*
X56330000Y-142405000D02*
X66610000Y-142405000D01*
X58820000Y-124445000D02*
X58820000Y-142345000D01*
X58820000Y-142345000D02*
X64120000Y-142345000D01*
X60470000Y-124445000D02*
X58820000Y-124445000D01*
X64120000Y-124445000D02*
X62470000Y-124445000D01*
X64120000Y-142345000D02*
X64120000Y-124445000D01*
X66610000Y-124385000D02*
X56330000Y-124385000D01*
X66610000Y-142405000D02*
X66610000Y-124385000D01*
X60470000Y-124445000D02*
G75*
G03*
X62470000Y-124445000I1000000J0D01*
G01*
%TO.C,C6*%
X54830000Y-95010000D02*
X54830000Y-94995000D01*
X54830000Y-95010000D02*
X50290000Y-95010000D01*
X54830000Y-92885000D02*
X54830000Y-92870000D01*
X54830000Y-92870000D02*
X50290000Y-92870000D01*
X50290000Y-95010000D02*
X50290000Y-94995000D01*
X50290000Y-92885000D02*
X50290000Y-92870000D01*
%TO.C,FB1*%
X66340000Y-49470000D02*
X68000000Y-49470000D01*
X66340000Y-49470000D02*
G75*
G03*
X66340000Y-49470000I-1920000J0D01*
G01*
%TO.C,U2*%
X59180000Y-80745000D02*
X59180000Y-98765000D01*
X59180000Y-98765000D02*
X69460000Y-98765000D01*
X61670000Y-80805000D02*
X61670000Y-98705000D01*
X61670000Y-98705000D02*
X66970000Y-98705000D01*
X63320000Y-80805000D02*
X61670000Y-80805000D01*
X66970000Y-80805000D02*
X65320000Y-80805000D01*
X66970000Y-98705000D02*
X66970000Y-80805000D01*
X69460000Y-80745000D02*
X59180000Y-80745000D01*
X69460000Y-98765000D02*
X69460000Y-80745000D01*
X63320000Y-80805000D02*
G75*
G03*
X65320000Y-80805000I1000000J0D01*
G01*
%TO.C,J16*%
X81070000Y-34470000D02*
X82400000Y-34470000D01*
X81070000Y-35800000D02*
X81070000Y-34470000D01*
X81070000Y-37070000D02*
X81070000Y-65070000D01*
X81070000Y-37070000D02*
X83730000Y-37070000D01*
X81070000Y-65070000D02*
X83730000Y-65070000D01*
X83730000Y-37070000D02*
X83730000Y-65070000D01*
%TO.C,R3*%
X74010000Y-111895000D02*
X74010000Y-111825000D01*
X75380000Y-113265000D02*
G75*
G03*
X75380000Y-113265000I-1370000J0D01*
G01*
%TO.C,R12*%
X81510000Y-118755000D02*
X81510000Y-118825000D01*
X82880000Y-117385000D02*
G75*
G03*
X82880000Y-117385000I-1370000J0D01*
G01*
%TO.C,R8*%
X69535000Y-102990000D02*
X69465000Y-102990000D01*
X72275000Y-102990000D02*
G75*
G03*
X72275000Y-102990000I-1370000J0D01*
G01*
%TO.C,C7*%
X73030000Y-91180000D02*
X73030000Y-91195000D01*
X73030000Y-91180000D02*
X77570000Y-91180000D01*
X73030000Y-93305000D02*
X73030000Y-93320000D01*
X73030000Y-93320000D02*
X77570000Y-93320000D01*
X77570000Y-91180000D02*
X77570000Y-91195000D01*
X77570000Y-93305000D02*
X77570000Y-93320000D01*
%TO.C,J13*%
X44570000Y-34470000D02*
X45900000Y-34470000D01*
X44570000Y-35800000D02*
X44570000Y-34470000D01*
X44570000Y-37070000D02*
X44570000Y-65070000D01*
X44570000Y-37070000D02*
X47230000Y-37070000D01*
X44570000Y-65070000D02*
X47230000Y-65070000D01*
X47230000Y-37070000D02*
X47230000Y-65070000D01*
%TO.C,R6*%
X55590000Y-85450000D02*
X55660000Y-85450000D01*
X55590000Y-85450000D02*
G75*
G03*
X55590000Y-85450000I-1370000J0D01*
G01*
%TO.C,D7*%
X54590000Y-72054315D02*
X52880000Y-72054315D01*
X53740000Y-74227944D02*
X53740000Y-74114315D01*
X55066371Y-75554315D02*
G75*
G03*
X55066371Y-75554315I-1326371J0D01*
G01*
%TO.C,R14*%
X76150000Y-56930000D02*
X76080000Y-56930000D01*
X78890000Y-56930000D02*
G75*
G03*
X78890000Y-56930000I-1370000J0D01*
G01*
%TO.C,R9*%
X77570000Y-85995000D02*
X77570000Y-86065000D01*
X78940000Y-84625000D02*
G75*
G03*
X78940000Y-84625000I-1370000J0D01*
G01*
%TO.C,D8*%
X57990000Y-76825686D02*
X59700000Y-76825686D01*
X58840000Y-74652057D02*
X58840000Y-74765686D01*
X60166371Y-73325686D02*
G75*
G03*
X60166371Y-73325686I-1326371J0D01*
G01*
%TO.C,R5*%
X47450000Y-82500000D02*
X47380000Y-82500000D01*
X50190000Y-82500000D02*
G75*
G03*
X50190000Y-82500000I-1370000J0D01*
G01*
%TO.C,R4*%
X65840000Y-120065000D02*
X65840000Y-120135000D01*
X67210000Y-118695000D02*
G75*
G03*
X67210000Y-118695000I-1370000J0D01*
G01*
%TO.C,C5*%
X49950000Y-132350000D02*
X49950000Y-132365000D01*
X49950000Y-132350000D02*
X54490000Y-132350000D01*
X49950000Y-134475000D02*
X49950000Y-134490000D01*
X49950000Y-134490000D02*
X54490000Y-134490000D01*
X54490000Y-132350000D02*
X54490000Y-132365000D01*
X54490000Y-134475000D02*
X54490000Y-134490000D01*
%TO.C,C9*%
X76330000Y-122190000D02*
X76345000Y-122190000D01*
X76330000Y-122190000D02*
X76330000Y-117650000D01*
X78455000Y-122190000D02*
X78470000Y-122190000D01*
X78470000Y-122190000D02*
X78470000Y-117650000D01*
X76330000Y-117650000D02*
X76345000Y-117650000D01*
X78455000Y-117650000D02*
X78470000Y-117650000D01*
%TO.C,D2*%
X50235686Y-122270000D02*
X50235686Y-120560000D01*
X48062057Y-121420000D02*
X48175686Y-121420000D01*
X48062057Y-121420000D02*
G75*
G03*
X48062057Y-121420000I-1326371J0D01*
G01*
%TO.C,C4*%
X57580000Y-90810000D02*
X57580000Y-90795000D01*
X57580000Y-90810000D02*
X53040000Y-90810000D01*
X57580000Y-88685000D02*
X57580000Y-88670000D01*
X57580000Y-88670000D02*
X53040000Y-88670000D01*
X53040000Y-90810000D02*
X53040000Y-90795000D01*
X53040000Y-88685000D02*
X53040000Y-88670000D01*
%TO.C,D5*%
X69354315Y-120210000D02*
X69354315Y-121920000D01*
X71527944Y-121060000D02*
X71414315Y-121060000D01*
X74180686Y-121060000D02*
G75*
G03*
X74180686Y-121060000I-1326371J0D01*
G01*
%TO.C,J11*%
X44570000Y-114730000D02*
X44570000Y-113400000D01*
X45900000Y-114730000D02*
X44570000Y-114730000D01*
X47170000Y-114730000D02*
X70090000Y-114730000D01*
X47170000Y-114730000D02*
X47170000Y-112070000D01*
X70090000Y-114730000D02*
X70090000Y-112070000D01*
X47170000Y-112070000D02*
X70090000Y-112070000D01*
%TO.C,D6*%
X57615686Y-82590000D02*
X57615686Y-80880000D01*
X55442057Y-81740000D02*
X55555686Y-81740000D01*
X55442057Y-81740000D02*
G75*
G03*
X55442057Y-81740000I-1326371J0D01*
G01*
%TO.C,U3*%
X78670000Y-139240000D02*
X78670000Y-138060000D01*
X81360000Y-138650000D02*
X77540000Y-138650000D01*
X76830000Y-137680000D02*
X82090000Y-137680000D01*
X76830000Y-137680000D02*
X76830000Y-127660000D01*
X82090000Y-137680000D02*
X82090000Y-127660000D01*
X82090000Y-127660000D02*
X76830000Y-127660000D01*
X79940000Y-139240000D02*
X78760000Y-138650000D01*
X79940000Y-138060000D01*
X79940000Y-139240000D01*
G36*
X79940000Y-139240000D02*
G01*
X78760000Y-138650000D01*
X79940000Y-138060000D01*
X79940000Y-139240000D01*
G37*
%TO.C,C8*%
X75980000Y-125490000D02*
X75965000Y-125490000D01*
X75980000Y-125490000D02*
X75980000Y-130030000D01*
X73855000Y-125490000D02*
X73840000Y-125490000D01*
X73840000Y-125490000D02*
X73840000Y-130030000D01*
X75980000Y-130030000D02*
X75965000Y-130030000D01*
X73855000Y-130030000D02*
X73840000Y-130030000D01*
%TO.C,R2*%
X53610000Y-120315000D02*
X53610000Y-120385000D01*
X54980000Y-118945000D02*
G75*
G03*
X54980000Y-118945000I-1370000J0D01*
G01*
%TO.C,D9*%
X65050000Y-72174315D02*
X63340000Y-72174315D01*
X64200000Y-74347944D02*
X64200000Y-74234315D01*
X65526371Y-75674315D02*
G75*
G03*
X65526371Y-75674315I-1326371J0D01*
G01*
%TO.C,D10*%
X69010000Y-77065686D02*
X70720000Y-77065686D01*
X69860000Y-74892057D02*
X69860000Y-75005686D01*
X71186371Y-73565686D02*
G75*
G03*
X71186371Y-73565686I-1326371J0D01*
G01*
%TO.C,C2*%
X45950000Y-127100000D02*
X45950000Y-127115000D01*
X45950000Y-127100000D02*
X50490000Y-127100000D01*
X45950000Y-129225000D02*
X45950000Y-129240000D01*
X45950000Y-129240000D02*
X50490000Y-129240000D01*
X50490000Y-127100000D02*
X50490000Y-127115000D01*
X50490000Y-129225000D02*
X50490000Y-129240000D01*
%TD*%
M02*
