%TF.GenerationSoftware,KiCad,Pcbnew,7.0.1-0*%
%TF.CreationDate,2023-11-10T19:29:42+13:00*%
%TF.ProjectId,Punkys-new-brew_main,50756e6b-7973-42d6-9e65-772d62726577,003*%
%TF.SameCoordinates,Original*%
%TF.FileFunction,Copper,L1,Top*%
%TF.FilePolarity,Positive*%
%FSLAX46Y46*%
G04 Gerber Fmt 4.6, Leading zero omitted, Abs format (unit mm)*
G04 Created by KiCad (PCBNEW 7.0.1-0) date 2023-11-10 19:29:42*
%MOMM*%
%LPD*%
G01*
G04 APERTURE LIST*
G04 Aperture macros list*
%AMRoundRect*
0 Rectangle with rounded corners*
0 $1 Rounding radius*
0 $2 $3 $4 $5 $6 $7 $8 $9 X,Y pos of 4 corners*
0 Add a 4 corners polygon primitive as box body*
4,1,4,$2,$3,$4,$5,$6,$7,$8,$9,$2,$3,0*
0 Add four circle primitives for the rounded corners*
1,1,$1+$1,$2,$3*
1,1,$1+$1,$4,$5*
1,1,$1+$1,$6,$7*
1,1,$1+$1,$8,$9*
0 Add four rect primitives between the rounded corners*
20,1,$1+$1,$2,$3,$4,$5,0*
20,1,$1+$1,$4,$5,$6,$7,0*
20,1,$1+$1,$6,$7,$8,$9,0*
20,1,$1+$1,$8,$9,$2,$3,0*%
G04 Aperture macros list end*
%TA.AperFunction,ComponentPad*%
%ADD10R,1.600000X1.600000*%
%TD*%
%TA.AperFunction,ComponentPad*%
%ADD11O,1.600000X1.600000*%
%TD*%
%TA.AperFunction,ComponentPad*%
%ADD12C,1.600000*%
%TD*%
%TA.AperFunction,ComponentPad*%
%ADD13C,2.400000*%
%TD*%
%TA.AperFunction,ComponentPad*%
%ADD14O,2.400000X2.400000*%
%TD*%
%TA.AperFunction,ComponentPad*%
%ADD15R,1.700000X1.700000*%
%TD*%
%TA.AperFunction,ComponentPad*%
%ADD16O,1.700000X1.700000*%
%TD*%
%TA.AperFunction,ComponentPad*%
%ADD17RoundRect,0.287500X0.287500X-0.287500X0.287500X0.287500X-0.287500X0.287500X-0.287500X-0.287500X0*%
%TD*%
%TA.AperFunction,ComponentPad*%
%ADD18C,1.150000*%
%TD*%
%TA.AperFunction,ComponentPad*%
%ADD19RoundRect,0.250000X0.600000X-0.600000X0.600000X0.600000X-0.600000X0.600000X-0.600000X-0.600000X0*%
%TD*%
%TA.AperFunction,ComponentPad*%
%ADD20C,1.700000*%
%TD*%
%TA.AperFunction,ViaPad*%
%ADD21C,0.600000*%
%TD*%
%TA.AperFunction,ViaPad*%
%ADD22C,0.800000*%
%TD*%
%TA.AperFunction,Conductor*%
%ADD23C,0.350000*%
%TD*%
%TA.AperFunction,Conductor*%
%ADD24C,0.250000*%
%TD*%
G04 APERTURE END LIST*
D10*
%TO.P,D4,1,K*%
%TO.N,10V_REF*%
X61980000Y-118400000D03*
D11*
%TO.P,D4,2,A*%
%TO.N,CV2*%
X61980000Y-120940000D03*
%TD*%
D12*
%TO.P,R11,1*%
%TO.N,INV_ENV*%
X79530000Y-78770000D03*
D11*
%TO.P,R11,2*%
%TO.N,Net-(R10-Pad1)*%
X76990000Y-78770000D03*
%TD*%
D12*
%TO.P,R1,1*%
%TO.N,Net-(U1A-THR)*%
X54010000Y-128385000D03*
D11*
%TO.P,R1,2*%
%TO.N,Freq_1*%
X54010000Y-125845000D03*
%TD*%
D10*
%TO.P,D3,1,K*%
%TO.N,10V_REF*%
X58070000Y-118484315D03*
D11*
%TO.P,D3,2,A*%
%TO.N,CV1*%
X58070000Y-121024315D03*
%TD*%
D10*
%TO.P,D1,1,K*%
%TO.N,Net-(D1-K)*%
X59080000Y-50875686D03*
D11*
%TO.P,D1,2,A*%
%TO.N,Net-(D1-A)*%
X59080000Y-48335686D03*
%TD*%
D12*
%TO.P,C3,1*%
%TO.N,Freq_2*%
X70680000Y-130920000D03*
%TO.P,C3,2*%
%TO.N,GND*%
X70680000Y-135920000D03*
%TD*%
%TO.P,R10,1*%
%TO.N,Net-(R10-Pad1)*%
X72880000Y-82045000D03*
D11*
%TO.P,R10,2*%
%TO.N,Net-(U2D--)*%
X72880000Y-84585000D03*
%TD*%
D10*
%TO.P,C1,1*%
%TO.N,+12V*%
X73734888Y-49420000D03*
D12*
%TO.P,C1,2*%
%TO.N,GND*%
X76234888Y-49420000D03*
%TD*%
%TO.P,R15,1*%
%TO.N,5V_Ref*%
X71695000Y-56930000D03*
D11*
%TO.P,R15,2*%
%TO.N,+12V*%
X69155000Y-56930000D03*
%TD*%
D12*
%TO.P,R7,1*%
%TO.N,ENV1-Out*%
X57925000Y-102790000D03*
D11*
%TO.P,R7,2*%
%TO.N,ENV1*%
X60465000Y-102790000D03*
%TD*%
D10*
%TO.P,U1,1,DIS*%
%TO.N,Freq_1*%
X57660000Y-125775000D03*
D11*
%TO.P,U1,2,THR*%
%TO.N,Net-(U1A-THR)*%
X57660000Y-128315000D03*
%TO.P,U1,3,CV*%
%TO.N,CV1*%
X57660000Y-130855000D03*
%TO.P,U1,4,R*%
%TO.N,+12V*%
X57660000Y-133395000D03*
%TO.P,U1,5,Q*%
%TO.N,Net-(U1A-Q)*%
X57660000Y-135935000D03*
%TO.P,U1,6,TR*%
%TO.N,Net-(U1A-THR)*%
X57660000Y-138475000D03*
%TO.P,U1,7,GND*%
%TO.N,GND*%
X57660000Y-141015000D03*
%TO.P,U1,8,TR*%
%TO.N,Net-(U1A-Q)*%
X65280000Y-141015000D03*
%TO.P,U1,9,Q*%
%TO.N,APC_Out*%
X65280000Y-138475000D03*
%TO.P,U1,10,R*%
%TO.N,+12V*%
X65280000Y-135935000D03*
%TO.P,U1,11,CV*%
%TO.N,CV2*%
X65280000Y-133395000D03*
%TO.P,U1,12,THR*%
%TO.N,Freq_2*%
X65280000Y-130855000D03*
%TO.P,U1,13,DIS*%
X65280000Y-128315000D03*
%TO.P,U1,14,VCC*%
%TO.N,+12V*%
X65280000Y-125775000D03*
%TD*%
D12*
%TO.P,C6,1*%
%TO.N,Env1_AR*%
X55060000Y-93940000D03*
%TO.P,C6,2*%
%TO.N,GND*%
X50060000Y-93940000D03*
%TD*%
D13*
%TO.P,FB1,1*%
%TO.N,Net-(D1-K)*%
X64420000Y-49470000D03*
D14*
%TO.P,FB1,2*%
%TO.N,+12V*%
X69500000Y-49470000D03*
%TD*%
D10*
%TO.P,U2,1*%
%TO.N,Net-(D10-K)*%
X60510000Y-82135000D03*
D11*
%TO.P,U2,2,-*%
X60510000Y-84675000D03*
%TO.P,U2,3,+*%
%TO.N,Net-(D6-K)*%
X60510000Y-87215000D03*
%TO.P,U2,4,V+*%
%TO.N,+12V*%
X60510000Y-89755000D03*
%TO.P,U2,5,+*%
%TO.N,Env1_AR*%
X60510000Y-92295000D03*
%TO.P,U2,6,-*%
%TO.N,ENV1*%
X60510000Y-94835000D03*
%TO.P,U2,7*%
X60510000Y-97375000D03*
%TO.P,U2,8*%
%TO.N,Net-(U2C--)*%
X68130000Y-97375000D03*
%TO.P,U2,9,-*%
X68130000Y-94835000D03*
%TO.P,U2,10,+*%
%TO.N,Env2_AR*%
X68130000Y-92295000D03*
%TO.P,U2,11,V-*%
%TO.N,GND*%
X68130000Y-89755000D03*
%TO.P,U2,12,+*%
%TO.N,INV_REF*%
X68130000Y-87215000D03*
%TO.P,U2,13,-*%
%TO.N,Net-(U2D--)*%
X68130000Y-84675000D03*
%TO.P,U2,14*%
%TO.N,Net-(R10-Pad1)*%
X68130000Y-82135000D03*
%TD*%
D15*
%TO.P,J16,1,Pin_1*%
%TO.N,GND*%
X82400000Y-35800000D03*
D16*
%TO.P,J16,2,Pin_2*%
X82400000Y-38340000D03*
%TO.P,J16,3,Pin_3*%
%TO.N,+12V*%
X82400000Y-40880000D03*
%TO.P,J16,4,Pin_4*%
%TO.N,GND*%
X82400000Y-43420000D03*
%TO.P,J16,5,Pin_5*%
%TO.N,Freq_2*%
X82400000Y-45960000D03*
%TO.P,J16,6,Pin_6*%
%TO.N,Env1_R*%
X82400000Y-48500000D03*
%TO.P,J16,7,Pin_7*%
%TO.N,Env2_R*%
X82400000Y-51040000D03*
%TO.P,J16,8,Pin_8*%
%TO.N,Env2_AR*%
X82400000Y-53580000D03*
%TO.P,J16,9,Pin_9*%
%TO.N,ENV1*%
X82400000Y-56120000D03*
%TO.P,J16,10,Pin_10*%
%TO.N,GND*%
X82400000Y-58660000D03*
%TO.P,J16,11,Pin_11*%
%TO.N,APC_Out*%
X82400000Y-61200000D03*
%TO.P,J16,12,Pin_12*%
%TO.N,Ext_In*%
X82400000Y-63740000D03*
%TD*%
D12*
%TO.P,R3,1*%
%TO.N,10V_REF*%
X74010000Y-113265000D03*
D11*
%TO.P,R3,2*%
%TO.N,+12V*%
X74010000Y-110725000D03*
%TD*%
D12*
%TO.P,R12,1*%
%TO.N,Net-(C9-Pad2)*%
X81510000Y-117385000D03*
D11*
%TO.P,R12,2*%
%TO.N,Audio_Out*%
X81510000Y-119925000D03*
%TD*%
D12*
%TO.P,R8,1*%
%TO.N,ENV2*%
X70905000Y-102990000D03*
D11*
%TO.P,R8,2*%
%TO.N,Net-(U2C--)*%
X68365000Y-102990000D03*
%TD*%
D12*
%TO.P,C7,1*%
%TO.N,Env2_AR*%
X72800000Y-92250000D03*
%TO.P,C7,2*%
%TO.N,GND*%
X77800000Y-92250000D03*
%TD*%
D15*
%TO.P,J13,1,Pin_1*%
%TO.N,GND*%
X45900000Y-35800000D03*
D16*
%TO.P,J13,2,Pin_2*%
X45900000Y-38340000D03*
%TO.P,J13,3,Pin_3*%
%TO.N,+12V*%
X45900000Y-40880000D03*
%TO.P,J13,4,Pin_4*%
%TO.N,GND*%
X45900000Y-43420000D03*
%TO.P,J13,5,Pin_5*%
%TO.N,Freq_1*%
X45900000Y-45960000D03*
%TO.P,J13,6,Pin_6*%
%TO.N,Env1_AR*%
X45900000Y-48500000D03*
%TO.P,J13,7,Pin_7*%
%TO.N,Env1_A*%
X45900000Y-51040000D03*
%TO.P,J13,8,Pin_8*%
%TO.N,GND*%
X45900000Y-53580000D03*
%TO.P,J13,9,Pin_9*%
%TO.N,INV_REF*%
X45900000Y-56120000D03*
%TO.P,J13,10,Pin_10*%
%TO.N,GND*%
X45900000Y-58660000D03*
%TO.P,J13,11,Pin_11*%
%TO.N,10V_REF*%
X45900000Y-61200000D03*
%TO.P,J13,12,Pin_12*%
%TO.N,VCA_CV*%
X45900000Y-63740000D03*
%TD*%
D12*
%TO.P,R6,1*%
%TO.N,GND*%
X54220000Y-85450000D03*
D11*
%TO.P,R6,2*%
%TO.N,Net-(D6-K)*%
X56760000Y-85450000D03*
%TD*%
D10*
%TO.P,D7,1,K*%
%TO.N,Env1_A*%
X53740000Y-73014315D03*
D11*
%TO.P,D7,2,A*%
%TO.N,Net-(D10-K)*%
X53740000Y-75554315D03*
%TD*%
D12*
%TO.P,R14,1*%
%TO.N,GND*%
X77520000Y-56930000D03*
D11*
%TO.P,R14,2*%
%TO.N,5V_Ref*%
X74980000Y-56930000D03*
%TD*%
D12*
%TO.P,R9,1*%
%TO.N,Net-(U2D--)*%
X77570000Y-84625000D03*
D11*
%TO.P,R9,2*%
%TO.N,Net-(U2C--)*%
X77570000Y-87165000D03*
%TD*%
D10*
%TO.P,D8,1,K*%
%TO.N,Net-(D10-K)*%
X58840000Y-75865686D03*
D11*
%TO.P,D8,2,A*%
%TO.N,Env1_R*%
X58840000Y-73325686D03*
%TD*%
D12*
%TO.P,R5,1*%
%TO.N,Net-(D6-A)*%
X48820000Y-82500000D03*
D11*
%TO.P,R5,2*%
%TO.N,Gate_In*%
X46280000Y-82500000D03*
%TD*%
D12*
%TO.P,R4,1*%
%TO.N,CV2-In*%
X65840000Y-118695000D03*
D11*
%TO.P,R4,2*%
%TO.N,CV2*%
X65840000Y-121235000D03*
%TD*%
D12*
%TO.P,C5,1*%
%TO.N,GND*%
X49720000Y-133420000D03*
%TO.P,C5,2*%
%TO.N,+12V*%
X54720000Y-133420000D03*
%TD*%
%TO.P,C9,1*%
%TO.N,Net-(C8-Pad1)*%
X77400000Y-122420000D03*
%TO.P,C9,2*%
%TO.N,Net-(C9-Pad2)*%
X77400000Y-117420000D03*
%TD*%
D10*
%TO.P,D2,1,K*%
%TO.N,CV1*%
X49275686Y-121420000D03*
D11*
%TO.P,D2,2,A*%
%TO.N,GND*%
X46735686Y-121420000D03*
%TD*%
D12*
%TO.P,C4,1*%
%TO.N,+12V*%
X57810000Y-89740000D03*
%TO.P,C4,2*%
%TO.N,GND*%
X52810000Y-89740000D03*
%TD*%
D10*
%TO.P,D5,1,K*%
%TO.N,CV2*%
X70314315Y-121060000D03*
D11*
%TO.P,D5,2,A*%
%TO.N,GND*%
X72854315Y-121060000D03*
%TD*%
D15*
%TO.P,J11,1,Pin_1*%
%TO.N,ENV1-Out*%
X45900000Y-113400000D03*
D16*
%TO.P,J11,2,Pin_2*%
%TO.N,5V_Ref*%
X48440000Y-113400000D03*
%TO.P,J11,3,Pin_3*%
%TO.N,Gate_In*%
X50980000Y-113400000D03*
%TO.P,J11,4,Pin_4*%
%TO.N,GND*%
X53520000Y-113400000D03*
%TO.P,J11,5,Pin_5*%
%TO.N,INV_ENV*%
X56060000Y-113400000D03*
%TO.P,J11,6,Pin_6*%
%TO.N,GND*%
X58600000Y-113400000D03*
%TO.P,J11,7,Pin_7*%
%TO.N,CV1-In*%
X61140000Y-113400000D03*
%TO.P,J11,8,Pin_8*%
%TO.N,ENV2*%
X63680000Y-113400000D03*
%TO.P,J11,9,Pin_9*%
%TO.N,CV2-In*%
X66220000Y-113400000D03*
%TO.P,J11,10,Pin_10*%
%TO.N,Audio_Out*%
X68760000Y-113400000D03*
%TD*%
D10*
%TO.P,D6,1,K*%
%TO.N,Net-(D6-K)*%
X56655686Y-81740000D03*
D11*
%TO.P,D6,2,A*%
%TO.N,Net-(D6-A)*%
X54115686Y-81740000D03*
%TD*%
D17*
%TO.P,U3,1,-*%
%TO.N,GND*%
X77560000Y-140170000D03*
D18*
%TO.P,U3,2,+*%
%TO.N,VCA_CV*%
X81360000Y-140170000D03*
%TO.P,U3,3*%
%TO.N,Net-(C8-Pad1)*%
X77420000Y-125170000D03*
%TO.P,U3,4*%
%TO.N,Ext_In*%
X81470000Y-125170000D03*
%TD*%
D12*
%TO.P,C8,1*%
%TO.N,Net-(C8-Pad1)*%
X74910000Y-125260000D03*
%TO.P,C8,2*%
%TO.N,GND*%
X74910000Y-130260000D03*
%TD*%
%TO.P,R2,1*%
%TO.N,CV1-In*%
X53610000Y-118945000D03*
D11*
%TO.P,R2,2*%
%TO.N,CV1*%
X53610000Y-121485000D03*
%TD*%
D10*
%TO.P,D9,1,K*%
%TO.N,Env2_AR*%
X64200000Y-73134315D03*
D11*
%TO.P,D9,2,A*%
%TO.N,Net-(D10-K)*%
X64200000Y-75674315D03*
%TD*%
D10*
%TO.P,D10,1,K*%
%TO.N,Net-(D10-K)*%
X69860000Y-76105686D03*
D11*
%TO.P,D10,2,A*%
%TO.N,Env2_R*%
X69860000Y-73565686D03*
%TD*%
D12*
%TO.P,C2,1*%
%TO.N,Net-(U1A-THR)*%
X45720000Y-128170000D03*
%TO.P,C2,2*%
%TO.N,GND*%
X50720000Y-128170000D03*
%TD*%
D19*
%TO.P,J1,1,-12v*%
%TO.N,unconnected-(J1--12v-Pad1)*%
X69240000Y-43037500D03*
D20*
%TO.P,J1,2,-12v*%
%TO.N,unconnected-(J1--12v-Pad2)*%
X69240000Y-40497500D03*
%TO.P,J1,3,GND*%
%TO.N,GND*%
X66700000Y-43037500D03*
%TO.P,J1,4,GND*%
X66700000Y-40497500D03*
%TO.P,J1,5,GND*%
X64160000Y-43037500D03*
%TO.P,J1,6,GND*%
X64160000Y-40497500D03*
%TO.P,J1,7,GND*%
X61620000Y-43037500D03*
%TO.P,J1,8,GND*%
X61620000Y-40497500D03*
%TO.P,J1,9,12v*%
%TO.N,Net-(D1-A)*%
X59080000Y-43037500D03*
%TO.P,J1,10,12v*%
X59080000Y-40497500D03*
%TD*%
D21*
%TO.N,GND*%
X49110000Y-67370000D03*
D22*
X59998995Y-70852542D03*
X78232000Y-52578000D03*
X75692000Y-123444000D03*
X77160000Y-74530000D03*
X63080000Y-133610000D03*
X63940000Y-120030000D03*
X61468000Y-124206000D03*
X65278000Y-110744000D03*
X63880000Y-137220000D03*
X77660000Y-81400000D03*
X56134000Y-72898000D03*
X59470000Y-132730000D03*
X71440000Y-128050000D03*
X62484000Y-102108000D03*
X66548000Y-105156000D03*
X70358000Y-83312000D03*
X55880000Y-119634000D03*
X55600000Y-62530000D03*
X78190000Y-110600000D03*
X55626000Y-127254000D03*
%TO.N,10V_REF*%
X65532000Y-105918000D03*
X70743299Y-115701299D03*
%TO.N,APC_Out*%
X79280000Y-103740000D03*
%TO.N,ENV2*%
X69619050Y-107427550D03*
%TO.N,ENV1*%
X79615500Y-95000000D03*
%TO.N,Freq_2*%
X75280000Y-86140000D03*
X76943245Y-65457843D03*
X75550500Y-107540000D03*
%TO.N,INV_REF*%
X60534500Y-62738000D03*
X54610000Y-60198000D03*
%TO.N,VCA_CV*%
X54864000Y-63730000D03*
X62738000Y-63680000D03*
%TO.N,5V_Ref*%
X63665500Y-92202000D03*
%TO.N,Freq_1*%
X47004500Y-88646000D03*
X70104000Y-109982000D03*
X51524500Y-83820000D03*
X63504894Y-106421106D03*
%TD*%
D23*
%TO.N,+12V*%
X61870000Y-127160000D02*
X61870000Y-132320000D01*
X59785000Y-90480000D02*
X60510000Y-89755000D01*
X61770000Y-69750000D02*
X61770000Y-78060000D01*
X73684888Y-49470000D02*
X73734888Y-49420000D01*
X64757000Y-105596984D02*
X64757000Y-106667000D01*
X69500000Y-56585000D02*
X69155000Y-56930000D01*
X69155000Y-56930000D02*
X66130000Y-56930000D01*
X63160000Y-79450000D02*
X63160000Y-89100000D01*
X64770000Y-105583984D02*
X64757000Y-105596984D01*
X73734888Y-49420000D02*
X73734888Y-45795112D01*
X61870000Y-132320000D02*
X61337106Y-132852894D01*
X73734888Y-45795112D02*
X78650000Y-40880000D01*
X57660000Y-133395000D02*
X58255000Y-133990000D01*
X69500000Y-49470000D02*
X73684888Y-49470000D01*
X63255000Y-125775000D02*
X61870000Y-127160000D01*
X61770000Y-78060000D02*
X63160000Y-79450000D01*
X64770000Y-91777106D02*
X64770000Y-105583984D01*
X63242106Y-135935000D02*
X65280000Y-135935000D01*
X78650000Y-40880000D02*
X82400000Y-40880000D01*
X64440000Y-91447106D02*
X64770000Y-91777106D01*
X62505000Y-89755000D02*
X60510000Y-89755000D01*
X61297106Y-133990000D02*
X61337106Y-134030000D01*
X64280000Y-58780000D02*
X64280000Y-67240000D01*
X66844000Y-108754000D02*
X72039000Y-108754000D01*
X64280000Y-67240000D02*
X61770000Y-69750000D01*
X72039000Y-108754000D02*
X74010000Y-110725000D01*
X60510000Y-89755000D02*
X62755000Y-89755000D01*
X61337106Y-134030000D02*
X63242106Y-135935000D01*
X63160000Y-89100000D02*
X62505000Y-89755000D01*
X57810000Y-89740000D02*
X58550000Y-90480000D01*
X57635000Y-133420000D02*
X57660000Y-133395000D01*
X65280000Y-125775000D02*
X63255000Y-125775000D01*
X69500000Y-49470000D02*
X69500000Y-56585000D01*
X66130000Y-56930000D02*
X64280000Y-58780000D01*
X64757000Y-106667000D02*
X66844000Y-108754000D01*
X58255000Y-133990000D02*
X61297106Y-133990000D01*
X54720000Y-133420000D02*
X57635000Y-133420000D01*
X58550000Y-90480000D02*
X59785000Y-90480000D01*
X61337106Y-132852894D02*
X61337106Y-134030000D01*
X64440000Y-91440000D02*
X64440000Y-91447106D01*
X62755000Y-89755000D02*
X64440000Y-91440000D01*
D24*
%TO.N,Net-(U1A-THR)*%
X54080000Y-128315000D02*
X54010000Y-128385000D01*
X46460000Y-130620000D02*
X45720000Y-129880000D01*
X57660000Y-128315000D02*
X54080000Y-128315000D01*
X53410000Y-130620000D02*
X46460000Y-130620000D01*
X45720000Y-129880000D02*
X45720000Y-128170000D01*
X54010000Y-130020000D02*
X53410000Y-130620000D01*
X54010000Y-128385000D02*
X54010000Y-130020000D01*
%TO.N,Net-(C8-Pad1)*%
X77420000Y-122440000D02*
X77400000Y-122420000D01*
X77330000Y-125260000D02*
X77420000Y-125170000D01*
X77420000Y-125170000D02*
X77420000Y-122440000D01*
X74910000Y-125260000D02*
X77330000Y-125260000D01*
%TO.N,Net-(C9-Pad2)*%
X81475000Y-117420000D02*
X81510000Y-117385000D01*
X77400000Y-117420000D02*
X81475000Y-117420000D01*
D23*
%TO.N,Net-(D1-K)*%
X63014314Y-50875686D02*
X64420000Y-49470000D01*
X59080000Y-50875686D02*
X63014314Y-50875686D01*
%TO.N,Net-(D1-A)*%
X59080000Y-43037500D02*
X59080000Y-48335686D01*
X59080000Y-40497500D02*
X59080000Y-43037500D01*
D24*
%TO.N,CV1*%
X59540000Y-130080000D02*
X59540000Y-122494315D01*
X58070000Y-121024315D02*
X54070685Y-121024315D01*
X54070685Y-121024315D02*
X53610000Y-121485000D01*
X57660000Y-130855000D02*
X58765000Y-130855000D01*
X53610000Y-121485000D02*
X49340686Y-121485000D01*
X59540000Y-122494315D02*
X58070000Y-121024315D01*
X58765000Y-130855000D02*
X59540000Y-130080000D01*
X49340686Y-121485000D02*
X49275686Y-121420000D01*
D23*
%TO.N,10V_REF*%
X65532000Y-106664182D02*
X67071818Y-108204000D01*
X65532000Y-105918000D02*
X65532000Y-106664182D01*
X74225500Y-113265000D02*
X74010000Y-113265000D01*
X58154315Y-118400000D02*
X58070000Y-118484315D01*
X75185000Y-112305500D02*
X74225500Y-113265000D01*
X61980000Y-118400000D02*
X58154315Y-118400000D01*
X75185000Y-109983000D02*
X75185000Y-112305500D01*
X73406000Y-108204000D02*
X75185000Y-109983000D01*
X72917000Y-113265000D02*
X74010000Y-113265000D01*
X70743299Y-115438701D02*
X72917000Y-113265000D01*
X67071818Y-108204000D02*
X73406000Y-108204000D01*
X70743299Y-115701299D02*
X70743299Y-115438701D01*
D24*
%TO.N,CV2*%
X70139315Y-121235000D02*
X70314315Y-121060000D01*
X70314315Y-121060000D02*
X69555000Y-121819315D01*
X61980000Y-120940000D02*
X65545000Y-120940000D01*
X69555000Y-121819315D02*
X69555000Y-129120000D01*
X65545000Y-120940000D02*
X65840000Y-121235000D01*
X65840000Y-121235000D02*
X70139315Y-121235000D01*
X69555000Y-129120000D02*
X65280000Y-133395000D01*
%TO.N,Net-(D6-K)*%
X56760000Y-85450000D02*
X58490000Y-87180000D01*
X58670000Y-87180000D02*
X58705000Y-87215000D01*
X58705000Y-87215000D02*
X60510000Y-87215000D01*
X56655686Y-85345686D02*
X56760000Y-85450000D01*
X58490000Y-87180000D02*
X58670000Y-87180000D01*
X56655686Y-81740000D02*
X56655686Y-85345686D01*
%TO.N,Net-(D6-A)*%
X53355686Y-82500000D02*
X54115686Y-81740000D01*
X48820000Y-82500000D02*
X53355686Y-82500000D01*
%TO.N,Net-(D10-K)*%
X60510000Y-82135000D02*
X60510000Y-84675000D01*
X62600000Y-79600000D02*
X62600000Y-80880000D01*
X62600000Y-80880000D02*
X61345000Y-82135000D01*
X61345000Y-82135000D02*
X60510000Y-82135000D01*
X58840000Y-75865686D02*
X58865686Y-75865686D01*
X58865686Y-75865686D02*
X62600000Y-79600000D01*
%TO.N,APC_Out*%
X79280000Y-103740000D02*
X81400000Y-101620000D01*
X81400000Y-101620000D02*
X81400000Y-82910000D01*
X81960000Y-82350000D02*
X81960000Y-74540000D01*
X81400000Y-82910000D02*
X81960000Y-82350000D01*
X80410000Y-72990000D02*
X80410000Y-63190000D01*
X81960000Y-74540000D02*
X80410000Y-72990000D01*
X80410000Y-63190000D02*
X82400000Y-61200000D01*
%TO.N,ENV1-Out*%
X57925000Y-102790000D02*
X57925000Y-107554604D01*
X57925000Y-107554604D02*
X57267604Y-108212000D01*
X45900000Y-110491894D02*
X45900000Y-113400000D01*
X57267604Y-108212000D02*
X48179894Y-108212000D01*
X48179894Y-108212000D02*
X45900000Y-110491894D01*
%TO.N,ENV2*%
X69619050Y-107427550D02*
X70905000Y-106141600D01*
X70905000Y-106141600D02*
X70905000Y-102990000D01*
%TO.N,ENV1*%
X80950000Y-82723604D02*
X81510000Y-82163604D01*
X60510000Y-97375000D02*
X60510000Y-102745000D01*
X60510000Y-94835000D02*
X60510000Y-97375000D01*
X60510000Y-102745000D02*
X60465000Y-102790000D01*
X81510000Y-82163604D02*
X81510000Y-74726396D01*
X80950000Y-93665500D02*
X80950000Y-82723604D01*
X79960000Y-58560000D02*
X82400000Y-56120000D01*
X79615500Y-95000000D02*
X80950000Y-93665500D01*
X81510000Y-74726396D02*
X79960000Y-73176396D01*
X79960000Y-73176396D02*
X79960000Y-58560000D01*
%TO.N,Freq_2*%
X79060000Y-63341088D02*
X79060000Y-58187208D01*
X80010000Y-48350000D02*
X82400000Y-45960000D01*
X75550500Y-107540000D02*
X75550500Y-86410500D01*
X76943245Y-65457843D02*
X79060000Y-63341088D01*
X79060000Y-58187208D02*
X80010000Y-57237208D01*
X65280000Y-130855000D02*
X65280000Y-128315000D01*
X80010000Y-57237208D02*
X80010000Y-48350000D01*
X75550500Y-86410500D02*
X75280000Y-86140000D01*
%TO.N,Net-(U2C--)*%
X68130000Y-97375000D02*
X68130000Y-102755000D01*
X68130000Y-94835000D02*
X68130000Y-97375000D01*
X68130000Y-102755000D02*
X68365000Y-102990000D01*
%TO.N,Net-(U2D--)*%
X68130000Y-84675000D02*
X72790000Y-84675000D01*
X77530000Y-84585000D02*
X77570000Y-84625000D01*
X72790000Y-84675000D02*
X72880000Y-84585000D01*
X72880000Y-84585000D02*
X77530000Y-84585000D01*
%TO.N,Net-(R10-Pad1)*%
X76155000Y-78770000D02*
X76990000Y-78770000D01*
X72880000Y-82045000D02*
X76155000Y-78770000D01*
X68130000Y-82135000D02*
X72790000Y-82135000D01*
X72790000Y-82135000D02*
X72880000Y-82045000D01*
%TO.N,INV_REF*%
X60534500Y-62738000D02*
X60534500Y-62461299D01*
X60534500Y-62461299D02*
X58271201Y-60198000D01*
X58271201Y-60198000D02*
X54610000Y-60198000D01*
%TO.N,Net-(U1A-Q)*%
X59065000Y-134530000D02*
X57660000Y-135935000D01*
X61130000Y-134530000D02*
X59065000Y-134530000D01*
X62770000Y-136170000D02*
X61130000Y-134530000D01*
X64175000Y-141015000D02*
X62770000Y-139610000D01*
X62770000Y-139610000D02*
X62770000Y-136170000D01*
X65280000Y-141015000D02*
X64175000Y-141015000D01*
%TO.N,Env1_AR*%
X55060000Y-93940000D02*
X57750000Y-91250000D01*
X59465000Y-91250000D02*
X60510000Y-92295000D01*
X57750000Y-91250000D02*
X59465000Y-91250000D01*
%TO.N,Env2_AR*%
X63660000Y-79242894D02*
X63660000Y-89952894D01*
X72800000Y-92250000D02*
X68175000Y-92250000D01*
X64940000Y-91240000D02*
X65995000Y-92295000D01*
X62270000Y-77852894D02*
X63660000Y-79242894D01*
X64200000Y-73134315D02*
X64584315Y-73134315D01*
X63660000Y-89952894D02*
X64940000Y-91232894D01*
X65995000Y-92295000D02*
X68130000Y-92295000D01*
X64584315Y-73134315D02*
X62270000Y-75448630D01*
X68175000Y-92250000D02*
X68130000Y-92295000D01*
X64940000Y-91232894D02*
X64940000Y-91240000D01*
X62270000Y-75448630D02*
X62270000Y-77852894D01*
D23*
%TO.N,Env1_A*%
X53740000Y-55120000D02*
X49660000Y-51040000D01*
X49660000Y-51040000D02*
X45900000Y-51040000D01*
X53740000Y-73014315D02*
X53740000Y-55120000D01*
D24*
%TO.N,Env2_R*%
X80460000Y-52730000D02*
X80460000Y-57423604D01*
X82400000Y-51040000D02*
X82150000Y-51040000D01*
X79510000Y-63915686D02*
X69860000Y-73565686D01*
X79510000Y-58373604D02*
X79510000Y-63915686D01*
X82150000Y-51040000D02*
X80460000Y-52730000D01*
X80460000Y-57423604D02*
X79510000Y-58373604D01*
%TO.N,VCA_CV*%
X62688000Y-63730000D02*
X54864000Y-63730000D01*
X62738000Y-63680000D02*
X62688000Y-63730000D01*
%TO.N,CV1-In*%
X60380000Y-116890000D02*
X55665000Y-116890000D01*
X55665000Y-116890000D02*
X53610000Y-118945000D01*
X61140000Y-113400000D02*
X61140000Y-116130000D01*
X61140000Y-116130000D02*
X60380000Y-116890000D01*
%TO.N,CV2-In*%
X65840000Y-113780000D02*
X66220000Y-113400000D01*
X65840000Y-118695000D02*
X65840000Y-113780000D01*
D23*
%TO.N,5V_Ref*%
X48440000Y-113400000D02*
X47244000Y-112204000D01*
X63665500Y-103466500D02*
X63665500Y-92202000D01*
X47244000Y-109855000D02*
X48387000Y-108712000D01*
X71695000Y-56930000D02*
X74980000Y-56930000D01*
X48387000Y-108712000D02*
X58420000Y-108712000D01*
X47244000Y-112204000D02*
X47244000Y-109855000D01*
X58420000Y-108712000D02*
X63665500Y-103466500D01*
D24*
%TO.N,Audio_Out*%
X74070000Y-117710000D02*
X76285000Y-119925000D01*
X68760000Y-113400000D02*
X68760000Y-115090000D01*
X76285000Y-119925000D02*
X81510000Y-119925000D01*
X68760000Y-115090000D02*
X71380000Y-117710000D01*
X71380000Y-117710000D02*
X74070000Y-117710000D01*
%TO.N,Freq_1*%
X51524500Y-83820000D02*
X51524500Y-84126000D01*
X63504894Y-106421106D02*
X67065788Y-109982000D01*
X57590000Y-125845000D02*
X57660000Y-125775000D01*
X54010000Y-125845000D02*
X57590000Y-125845000D01*
X51524500Y-84126000D02*
X47004500Y-88646000D01*
X67065788Y-109982000D02*
X70104000Y-109982000D01*
%TD*%
%TA.AperFunction,Conductor*%
%TO.N,GND*%
G36*
X81217040Y-41569511D02*
G01*
X81261357Y-41608375D01*
X81361505Y-41751401D01*
X81528599Y-41918495D01*
X81714597Y-42048732D01*
X81753460Y-42093048D01*
X81767471Y-42150305D01*
X81753461Y-42207561D01*
X81714595Y-42251880D01*
X81528919Y-42381892D01*
X81361890Y-42548921D01*
X81226400Y-42742421D01*
X81126569Y-42956507D01*
X81069364Y-43169999D01*
X81069364Y-43170000D01*
X82526000Y-43170000D01*
X82588000Y-43186613D01*
X82633387Y-43232000D01*
X82650000Y-43294000D01*
X82650000Y-43546000D01*
X82633387Y-43608000D01*
X82588000Y-43653387D01*
X82526000Y-43670000D01*
X81069364Y-43670000D01*
X81126569Y-43883492D01*
X81226399Y-44097576D01*
X81361893Y-44291081D01*
X81528918Y-44458106D01*
X81714595Y-44588119D01*
X81753460Y-44632437D01*
X81767471Y-44689694D01*
X81753460Y-44746951D01*
X81714595Y-44791269D01*
X81528595Y-44921508D01*
X81361505Y-45088598D01*
X81225965Y-45282170D01*
X81126097Y-45496336D01*
X81064936Y-45724592D01*
X81044340Y-45959999D01*
X81064936Y-46195408D01*
X81091855Y-46295873D01*
X81091855Y-46360059D01*
X81059761Y-46415646D01*
X79626208Y-47849199D01*
X79610110Y-47862096D01*
X79562096Y-47913225D01*
X79559391Y-47916017D01*
X79539874Y-47935534D01*
X79537415Y-47938705D01*
X79529842Y-47947572D01*
X79499935Y-47979420D01*
X79490285Y-47996974D01*
X79479609Y-48013228D01*
X79467326Y-48029063D01*
X79449975Y-48069158D01*
X79444838Y-48079644D01*
X79423802Y-48117907D01*
X79418821Y-48137309D01*
X79412520Y-48155711D01*
X79404561Y-48174102D01*
X79397728Y-48217242D01*
X79395360Y-48228674D01*
X79384500Y-48270978D01*
X79384500Y-48291016D01*
X79382973Y-48310415D01*
X79379840Y-48330194D01*
X79383950Y-48373675D01*
X79384500Y-48385344D01*
X79384500Y-56926756D01*
X79375061Y-56974209D01*
X79348181Y-57014437D01*
X78985642Y-57376974D01*
X78930054Y-57409068D01*
X78865867Y-57409068D01*
X78810279Y-57376974D01*
X78778186Y-57321386D01*
X78778186Y-57257198D01*
X78805141Y-57156600D01*
X78824966Y-56930000D01*
X78805141Y-56703397D01*
X78746266Y-56483673D01*
X78650133Y-56277515D01*
X78599025Y-56204526D01*
X77520000Y-57283553D01*
X76794526Y-58009025D01*
X76794526Y-58009026D01*
X76867515Y-58060133D01*
X77073673Y-58156266D01*
X77293397Y-58215141D01*
X77520000Y-58234966D01*
X77746602Y-58215141D01*
X77966326Y-58156266D01*
X78172480Y-58060134D01*
X78239376Y-58013294D01*
X78302390Y-57991135D01*
X78367757Y-58004880D01*
X78416509Y-58050541D01*
X78434500Y-58114869D01*
X78434500Y-58128224D01*
X78432973Y-58147623D01*
X78429840Y-58167402D01*
X78433950Y-58210883D01*
X78434500Y-58222552D01*
X78434500Y-63030636D01*
X78425061Y-63078089D01*
X78398181Y-63118317D01*
X76995473Y-64521024D01*
X76955245Y-64547904D01*
X76907792Y-64557343D01*
X76848597Y-64557343D01*
X76663442Y-64596698D01*
X76490514Y-64673691D01*
X76337374Y-64784953D01*
X76210711Y-64925626D01*
X76116065Y-65089558D01*
X76057571Y-65269585D01*
X76037785Y-65457842D01*
X76057571Y-65646100D01*
X76116065Y-65826127D01*
X76210709Y-65990056D01*
X76210712Y-65990059D01*
X76293219Y-66081692D01*
X76321890Y-66136769D01*
X76320264Y-66198842D01*
X76288749Y-66252344D01*
X70274821Y-72266272D01*
X70219234Y-72298366D01*
X70155047Y-72298366D01*
X70086690Y-72280050D01*
X69859999Y-72260217D01*
X69633310Y-72280050D01*
X69413502Y-72338947D01*
X69207264Y-72435118D01*
X69020859Y-72565639D01*
X68859953Y-72726545D01*
X68729432Y-72912950D01*
X68633261Y-73119188D01*
X68574364Y-73338996D01*
X68554531Y-73565685D01*
X68574364Y-73792375D01*
X68633261Y-74012183D01*
X68729432Y-74218421D01*
X68859953Y-74404826D01*
X69020858Y-74565731D01*
X69045461Y-74582958D01*
X69084599Y-74627800D01*
X69098333Y-74685714D01*
X69083500Y-74743355D01*
X69043516Y-74787444D01*
X68987594Y-74807824D01*
X68952515Y-74811595D01*
X68817669Y-74861890D01*
X68702454Y-74948140D01*
X68616204Y-75063354D01*
X68565909Y-75198202D01*
X68559500Y-75257816D01*
X68559500Y-76953555D01*
X68562320Y-76979783D01*
X68565909Y-77013169D01*
X68616204Y-77148017D01*
X68702454Y-77263232D01*
X68817669Y-77349482D01*
X68952517Y-77399777D01*
X69012127Y-77406186D01*
X70707872Y-77406185D01*
X70767483Y-77399777D01*
X70902331Y-77349482D01*
X71017546Y-77263232D01*
X71103796Y-77148017D01*
X71154091Y-77013169D01*
X71160500Y-76953559D01*
X71160499Y-75257814D01*
X71154091Y-75198203D01*
X71103796Y-75063355D01*
X71017546Y-74948140D01*
X70902331Y-74861890D01*
X70767483Y-74811595D01*
X70732404Y-74807823D01*
X70676484Y-74787444D01*
X70636500Y-74743355D01*
X70621667Y-74685714D01*
X70635401Y-74627800D01*
X70674539Y-74582958D01*
X70690767Y-74571595D01*
X70699139Y-74565733D01*
X70860047Y-74404825D01*
X70990568Y-74218420D01*
X71086739Y-74012182D01*
X71145635Y-73792378D01*
X71165468Y-73565686D01*
X71145635Y-73338994D01*
X71127319Y-73270637D01*
X71127319Y-73206449D01*
X71159411Y-73150864D01*
X79122818Y-65187458D01*
X79172182Y-65157208D01*
X79229898Y-65152666D01*
X79283385Y-65174821D01*
X79320985Y-65218844D01*
X79334500Y-65275139D01*
X79334500Y-73093652D01*
X79332235Y-73114158D01*
X79334439Y-73184269D01*
X79334500Y-73188164D01*
X79334500Y-73215745D01*
X79335003Y-73219730D01*
X79335918Y-73231363D01*
X79337290Y-73275022D01*
X79342879Y-73294256D01*
X79346825Y-73313312D01*
X79349335Y-73333188D01*
X79365414Y-73373800D01*
X79369197Y-73384847D01*
X79381382Y-73426787D01*
X79391580Y-73444031D01*
X79400136Y-73461496D01*
X79407514Y-73480128D01*
X79407515Y-73480129D01*
X79433180Y-73515455D01*
X79439593Y-73525218D01*
X79461826Y-73562812D01*
X79461829Y-73562815D01*
X79461830Y-73562816D01*
X79475995Y-73576981D01*
X79488627Y-73591771D01*
X79500406Y-73607983D01*
X79534058Y-73635822D01*
X79542699Y-73643685D01*
X80848181Y-74949168D01*
X80875061Y-74989396D01*
X80884500Y-75036849D01*
X80884500Y-78043796D01*
X80868953Y-78103913D01*
X80826210Y-78148954D01*
X80766989Y-78167626D01*
X80706141Y-78155246D01*
X80658925Y-78114919D01*
X80530046Y-77930859D01*
X80369140Y-77769953D01*
X80182735Y-77639432D01*
X79976497Y-77543261D01*
X79756689Y-77484364D01*
X79530000Y-77464531D01*
X79303310Y-77484364D01*
X79083502Y-77543261D01*
X78877264Y-77639432D01*
X78690859Y-77769953D01*
X78529953Y-77930859D01*
X78399433Y-78117263D01*
X78372382Y-78175275D01*
X78326625Y-78227450D01*
X78260000Y-78246869D01*
X78193375Y-78227450D01*
X78147618Y-78175275D01*
X78120568Y-78117267D01*
X78120568Y-78117266D01*
X77990047Y-77930861D01*
X77990046Y-77930859D01*
X77829140Y-77769953D01*
X77642735Y-77639432D01*
X77436497Y-77543261D01*
X77216689Y-77484364D01*
X76990000Y-77464531D01*
X76763310Y-77484364D01*
X76543502Y-77543261D01*
X76337264Y-77639432D01*
X76150859Y-77769953D01*
X75989953Y-77930859D01*
X75859430Y-78117267D01*
X75810727Y-78221709D01*
X75790211Y-78252591D01*
X75777229Y-78263180D01*
X75754410Y-78285998D01*
X75739622Y-78298628D01*
X75723413Y-78310405D01*
X75695572Y-78344058D01*
X75687711Y-78352696D01*
X73294821Y-80745586D01*
X73239234Y-80777680D01*
X73175047Y-80777680D01*
X73106690Y-80759364D01*
X72879999Y-80739531D01*
X72653310Y-80759364D01*
X72433502Y-80818261D01*
X72227264Y-80914432D01*
X72040859Y-81044953D01*
X71879953Y-81205859D01*
X71749432Y-81392265D01*
X71728150Y-81437905D01*
X71682393Y-81490081D01*
X71615768Y-81509500D01*
X69344188Y-81509500D01*
X69286931Y-81495489D01*
X69242613Y-81456623D01*
X69130046Y-81295859D01*
X68969140Y-81134953D01*
X68782735Y-81004432D01*
X68576497Y-80908261D01*
X68356689Y-80849364D01*
X68130000Y-80829531D01*
X67903310Y-80849364D01*
X67683502Y-80908261D01*
X67477264Y-81004432D01*
X67290859Y-81134953D01*
X67129953Y-81295859D01*
X66999432Y-81482264D01*
X66903261Y-81688502D01*
X66844364Y-81908310D01*
X66824531Y-82135000D01*
X66844364Y-82361689D01*
X66903261Y-82581497D01*
X66999432Y-82787735D01*
X67129953Y-82974140D01*
X67290859Y-83135046D01*
X67454318Y-83249500D01*
X67477266Y-83265568D01*
X67535275Y-83292618D01*
X67587450Y-83338375D01*
X67606869Y-83405000D01*
X67587450Y-83471625D01*
X67535275Y-83517382D01*
X67477263Y-83544433D01*
X67290859Y-83674953D01*
X67129953Y-83835859D01*
X66999432Y-84022264D01*
X66903261Y-84228502D01*
X66844364Y-84448310D01*
X66824531Y-84675000D01*
X66844364Y-84901689D01*
X66903261Y-85121497D01*
X66999432Y-85327735D01*
X67129953Y-85514140D01*
X67290859Y-85675046D01*
X67474388Y-85803553D01*
X67477266Y-85805568D01*
X67535275Y-85832618D01*
X67587450Y-85878375D01*
X67606869Y-85945000D01*
X67587450Y-86011625D01*
X67535275Y-86057382D01*
X67477263Y-86084433D01*
X67290859Y-86214953D01*
X67129953Y-86375859D01*
X66999432Y-86562264D01*
X66903261Y-86768502D01*
X66844364Y-86988310D01*
X66824531Y-87215000D01*
X66844364Y-87441689D01*
X66903261Y-87661497D01*
X66999432Y-87867735D01*
X67129953Y-88054140D01*
X67290859Y-88215046D01*
X67477264Y-88345567D01*
X67477265Y-88345567D01*
X67477266Y-88345568D01*
X67535865Y-88372893D01*
X67588040Y-88418650D01*
X67607460Y-88485274D01*
X67588041Y-88551899D01*
X67535866Y-88597656D01*
X67477522Y-88624863D01*
X67291180Y-88755341D01*
X67130341Y-88916180D01*
X66999865Y-89102519D01*
X66903733Y-89308673D01*
X66851128Y-89504999D01*
X66851128Y-89505000D01*
X69408872Y-89505000D01*
X69408871Y-89504999D01*
X69356266Y-89308673D01*
X69260134Y-89102519D01*
X69129658Y-88916180D01*
X68968819Y-88755341D01*
X68782482Y-88624866D01*
X68724133Y-88597657D01*
X68671958Y-88551899D01*
X68652539Y-88485274D01*
X68671959Y-88418649D01*
X68724134Y-88372893D01*
X68782734Y-88345568D01*
X68969139Y-88215047D01*
X69130047Y-88054139D01*
X69260568Y-87867734D01*
X69356739Y-87661496D01*
X69415635Y-87441692D01*
X69435468Y-87215000D01*
X69415635Y-86988308D01*
X69356739Y-86768504D01*
X69260568Y-86562266D01*
X69238351Y-86530537D01*
X69130046Y-86375859D01*
X68969140Y-86214953D01*
X68782733Y-86084431D01*
X68724725Y-86057382D01*
X68672549Y-86011625D01*
X68653129Y-85945000D01*
X68672549Y-85878375D01*
X68724725Y-85832618D01*
X68782734Y-85805568D01*
X68969139Y-85675047D01*
X69130047Y-85514139D01*
X69242612Y-85353377D01*
X69286931Y-85314511D01*
X69344188Y-85300500D01*
X71728830Y-85300500D01*
X71786087Y-85314511D01*
X71830405Y-85353377D01*
X71879953Y-85424140D01*
X72040859Y-85585046D01*
X72227264Y-85715567D01*
X72227265Y-85715567D01*
X72227266Y-85715568D01*
X72433504Y-85811739D01*
X72653308Y-85870635D01*
X72880000Y-85890468D01*
X73106692Y-85870635D01*
X73326496Y-85811739D01*
X73532734Y-85715568D01*
X73719139Y-85585047D01*
X73880047Y-85424139D01*
X73966619Y-85300500D01*
X73992613Y-85263377D01*
X74036931Y-85224511D01*
X74094188Y-85210500D01*
X74645692Y-85210500D01*
X74705429Y-85225838D01*
X74750389Y-85268057D01*
X74769447Y-85326714D01*
X74757891Y-85387297D01*
X74718577Y-85434818D01*
X74674129Y-85467110D01*
X74547466Y-85607783D01*
X74452820Y-85771715D01*
X74394326Y-85951742D01*
X74374540Y-86140000D01*
X74394326Y-86328257D01*
X74452820Y-86508284D01*
X74547466Y-86672216D01*
X74634165Y-86768504D01*
X74674129Y-86812888D01*
X74827270Y-86924151D01*
X74851437Y-86934911D01*
X74890199Y-86962053D01*
X74915971Y-87001739D01*
X74925000Y-87048190D01*
X74925000Y-106841313D01*
X74916764Y-106885751D01*
X74893152Y-106924282D01*
X74867005Y-106953322D01*
X74817964Y-107007786D01*
X74723320Y-107171715D01*
X74664826Y-107351742D01*
X74645425Y-107536334D01*
X74645040Y-107540000D01*
X74650221Y-107589291D01*
X74664826Y-107728257D01*
X74723320Y-107908284D01*
X74817966Y-108072216D01*
X74944629Y-108212889D01*
X75097769Y-108324151D01*
X75270697Y-108401144D01*
X75455852Y-108440500D01*
X75455854Y-108440500D01*
X75645146Y-108440500D01*
X75645148Y-108440500D01*
X75768584Y-108414262D01*
X75830303Y-108401144D01*
X76003230Y-108324151D01*
X76156371Y-108212888D01*
X76283033Y-108072216D01*
X76377679Y-107908284D01*
X76436174Y-107728256D01*
X76455960Y-107540000D01*
X76436174Y-107351744D01*
X76377679Y-107171716D01*
X76377679Y-107171715D01*
X76283035Y-107007786D01*
X76233995Y-106953322D01*
X76207847Y-106924282D01*
X76184236Y-106885751D01*
X76176000Y-106841313D01*
X76176000Y-93329026D01*
X77074526Y-93329026D01*
X77147515Y-93380133D01*
X77353673Y-93476266D01*
X77573397Y-93535141D01*
X77800000Y-93554966D01*
X78026602Y-93535141D01*
X78246326Y-93476266D01*
X78452480Y-93380134D01*
X78525472Y-93329025D01*
X77800001Y-92603553D01*
X77800000Y-92603553D01*
X77074526Y-93329025D01*
X77074526Y-93329026D01*
X76176000Y-93329026D01*
X76176000Y-92250000D01*
X76495033Y-92250000D01*
X76514858Y-92476602D01*
X76573733Y-92696326D01*
X76669866Y-92902484D01*
X76720972Y-92975471D01*
X76720974Y-92975472D01*
X77446446Y-92250001D01*
X78153553Y-92250001D01*
X78879025Y-92975472D01*
X78930134Y-92902480D01*
X79026266Y-92696326D01*
X79085141Y-92476602D01*
X79104966Y-92250000D01*
X79085141Y-92023397D01*
X79026266Y-91803673D01*
X78930133Y-91597515D01*
X78879025Y-91524526D01*
X78153553Y-92250000D01*
X78153553Y-92250001D01*
X77446446Y-92250001D01*
X77446446Y-92250000D01*
X76720973Y-91524526D01*
X76720973Y-91524527D01*
X76669865Y-91597516D01*
X76573733Y-91803672D01*
X76514858Y-92023397D01*
X76495033Y-92250000D01*
X76176000Y-92250000D01*
X76176000Y-91170973D01*
X77074526Y-91170973D01*
X77799998Y-91896446D01*
X77799999Y-91896446D01*
X78525472Y-91170973D01*
X78525471Y-91170972D01*
X78452484Y-91119866D01*
X78246326Y-91023733D01*
X78026602Y-90964858D01*
X77800000Y-90945033D01*
X77573397Y-90964858D01*
X77353672Y-91023733D01*
X77147516Y-91119865D01*
X77074526Y-91170973D01*
X76176000Y-91170973D01*
X76176000Y-87812130D01*
X76193711Y-87748265D01*
X76241785Y-87702645D01*
X76306489Y-87688300D01*
X76369340Y-87709329D01*
X76412382Y-87759725D01*
X76439432Y-87817735D01*
X76569953Y-88004140D01*
X76730859Y-88165046D01*
X76917264Y-88295567D01*
X76917265Y-88295567D01*
X76917266Y-88295568D01*
X77123504Y-88391739D01*
X77343308Y-88450635D01*
X77570000Y-88470468D01*
X77796692Y-88450635D01*
X78016496Y-88391739D01*
X78222734Y-88295568D01*
X78409139Y-88165047D01*
X78570047Y-88004139D01*
X78700568Y-87817734D01*
X78796739Y-87611496D01*
X78855635Y-87391692D01*
X78875468Y-87165000D01*
X78855635Y-86938308D01*
X78796739Y-86718504D01*
X78700568Y-86512266D01*
X78670856Y-86469833D01*
X78570046Y-86325859D01*
X78409140Y-86164953D01*
X78222733Y-86034431D01*
X78181727Y-86015310D01*
X78164724Y-86007381D01*
X78112549Y-85961625D01*
X78093129Y-85895000D01*
X78112549Y-85828375D01*
X78164725Y-85782618D01*
X78222734Y-85755568D01*
X78409139Y-85625047D01*
X78570047Y-85464139D01*
X78700568Y-85277734D01*
X78796739Y-85071496D01*
X78855635Y-84851692D01*
X78875468Y-84625000D01*
X78855635Y-84398308D01*
X78796739Y-84178504D01*
X78700568Y-83972266D01*
X78691629Y-83959500D01*
X78570046Y-83785859D01*
X78409140Y-83624953D01*
X78222735Y-83494432D01*
X78016497Y-83398261D01*
X77796689Y-83339364D01*
X77570000Y-83319531D01*
X77343310Y-83339364D01*
X77123502Y-83398261D01*
X76917264Y-83494432D01*
X76730859Y-83624953D01*
X76569953Y-83785859D01*
X76485395Y-83906623D01*
X76441077Y-83945489D01*
X76383820Y-83959500D01*
X74094188Y-83959500D01*
X74036931Y-83945489D01*
X73992613Y-83906623D01*
X73880046Y-83745859D01*
X73719140Y-83584953D01*
X73532733Y-83454431D01*
X73474725Y-83427382D01*
X73422549Y-83381625D01*
X73403129Y-83315000D01*
X73422549Y-83248375D01*
X73474725Y-83202618D01*
X73532734Y-83175568D01*
X73719139Y-83045047D01*
X73880047Y-82884139D01*
X74010568Y-82697734D01*
X74106739Y-82491496D01*
X74165635Y-82271692D01*
X74185468Y-82045000D01*
X74165635Y-81818308D01*
X74147319Y-81749951D01*
X74147319Y-81685763D01*
X74179411Y-81630178D01*
X76011816Y-79797773D01*
X76060491Y-79767750D01*
X76117466Y-79762765D01*
X76170618Y-79783881D01*
X76337266Y-79900568D01*
X76543504Y-79996739D01*
X76763308Y-80055635D01*
X76990000Y-80075468D01*
X77216692Y-80055635D01*
X77436496Y-79996739D01*
X77642734Y-79900568D01*
X77829139Y-79770047D01*
X77990047Y-79609139D01*
X78120568Y-79422734D01*
X78147618Y-79364724D01*
X78193375Y-79312549D01*
X78260000Y-79293129D01*
X78326625Y-79312549D01*
X78372382Y-79364725D01*
X78399431Y-79422733D01*
X78529953Y-79609140D01*
X78690859Y-79770046D01*
X78877264Y-79900567D01*
X78877265Y-79900567D01*
X78877266Y-79900568D01*
X79083504Y-79996739D01*
X79303308Y-80055635D01*
X79530000Y-80075468D01*
X79756692Y-80055635D01*
X79976496Y-79996739D01*
X80182734Y-79900568D01*
X80369139Y-79770047D01*
X80530047Y-79609139D01*
X80609124Y-79496204D01*
X80658925Y-79425081D01*
X80706141Y-79384754D01*
X80766989Y-79372374D01*
X80826210Y-79391046D01*
X80868953Y-79436087D01*
X80884500Y-79496204D01*
X80884500Y-81853151D01*
X80875061Y-81900604D01*
X80848181Y-81940833D01*
X80566205Y-82222806D01*
X80550111Y-82235699D01*
X80502096Y-82286829D01*
X80499391Y-82289621D01*
X80479874Y-82309138D01*
X80477415Y-82312309D01*
X80469842Y-82321176D01*
X80439935Y-82353024D01*
X80430285Y-82370578D01*
X80419609Y-82386832D01*
X80407326Y-82402667D01*
X80389975Y-82442762D01*
X80384838Y-82453248D01*
X80363802Y-82491511D01*
X80358821Y-82510913D01*
X80352520Y-82529315D01*
X80344561Y-82547706D01*
X80337728Y-82590846D01*
X80335360Y-82602278D01*
X80324500Y-82644582D01*
X80324500Y-82664620D01*
X80322973Y-82684017D01*
X80322249Y-82688587D01*
X80319840Y-82703798D01*
X80323950Y-82747279D01*
X80324500Y-82758948D01*
X80324500Y-93355048D01*
X80315061Y-93402501D01*
X80288181Y-93442729D01*
X79667728Y-94063181D01*
X79627500Y-94090061D01*
X79580047Y-94099500D01*
X79520852Y-94099500D01*
X79335697Y-94138855D01*
X79162769Y-94215848D01*
X79009629Y-94327110D01*
X78882966Y-94467783D01*
X78788320Y-94631715D01*
X78729826Y-94811742D01*
X78719812Y-94907019D01*
X78710040Y-95000000D01*
X78716524Y-95061689D01*
X78729826Y-95188257D01*
X78788320Y-95368284D01*
X78882966Y-95532216D01*
X79009629Y-95672889D01*
X79162769Y-95784151D01*
X79335697Y-95861144D01*
X79520852Y-95900500D01*
X79520854Y-95900500D01*
X79710146Y-95900500D01*
X79710148Y-95900500D01*
X79833583Y-95874262D01*
X79895303Y-95861144D01*
X80068230Y-95784151D01*
X80219648Y-95674140D01*
X80221370Y-95672889D01*
X80348033Y-95532216D01*
X80442679Y-95368284D01*
X80470878Y-95281496D01*
X80501174Y-95188256D01*
X80518822Y-95020341D01*
X80530222Y-94979924D01*
X80554462Y-94945627D01*
X80562824Y-94937265D01*
X80612188Y-94907019D01*
X80669902Y-94902479D01*
X80723388Y-94924636D01*
X80760985Y-94968658D01*
X80774500Y-95024952D01*
X80774500Y-101309548D01*
X80765061Y-101357001D01*
X80738181Y-101397229D01*
X79332228Y-102803181D01*
X79292000Y-102830061D01*
X79244547Y-102839500D01*
X79185352Y-102839500D01*
X79000197Y-102878855D01*
X78827269Y-102955848D01*
X78674129Y-103067110D01*
X78547466Y-103207783D01*
X78452820Y-103371715D01*
X78394326Y-103551742D01*
X78374540Y-103739999D01*
X78394326Y-103928257D01*
X78452820Y-104108284D01*
X78547466Y-104272216D01*
X78674129Y-104412889D01*
X78827269Y-104524151D01*
X79000197Y-104601144D01*
X79185352Y-104640500D01*
X79185354Y-104640500D01*
X79374646Y-104640500D01*
X79374648Y-104640500D01*
X79498083Y-104614262D01*
X79559803Y-104601144D01*
X79732730Y-104524151D01*
X79885871Y-104412888D01*
X80012533Y-104272216D01*
X80107179Y-104108284D01*
X80165674Y-103928256D01*
X80183321Y-103760344D01*
X80194721Y-103719925D01*
X80218958Y-103685630D01*
X81783786Y-102120802D01*
X81799887Y-102107904D01*
X81801874Y-102105787D01*
X81801877Y-102105786D01*
X81847932Y-102056741D01*
X81850613Y-102053976D01*
X81856955Y-102047634D01*
X81870120Y-102034470D01*
X81872581Y-102031295D01*
X81880152Y-102022431D01*
X81910062Y-101990582D01*
X81919713Y-101973026D01*
X81930393Y-101956767D01*
X81942674Y-101940936D01*
X81960018Y-101900851D01*
X81965160Y-101890356D01*
X81986197Y-101852092D01*
X81991178Y-101832688D01*
X81997480Y-101814283D01*
X82005438Y-101795895D01*
X82012270Y-101752748D01*
X82014639Y-101741316D01*
X82025500Y-101699020D01*
X82025500Y-101678984D01*
X82027027Y-101659585D01*
X82028165Y-101652398D01*
X82030160Y-101639804D01*
X82026050Y-101596325D01*
X82025500Y-101584656D01*
X82025500Y-83220452D01*
X82034939Y-83172999D01*
X82061816Y-83132773D01*
X82343790Y-82850798D01*
X82359887Y-82837903D01*
X82361872Y-82835789D01*
X82361877Y-82835786D01*
X82407932Y-82786741D01*
X82410613Y-82783976D01*
X82412259Y-82782330D01*
X82430120Y-82764470D01*
X82432581Y-82761295D01*
X82440152Y-82752431D01*
X82470062Y-82720582D01*
X82479713Y-82703026D01*
X82490393Y-82686767D01*
X82502674Y-82670936D01*
X82520018Y-82630851D01*
X82525160Y-82620356D01*
X82529531Y-82612405D01*
X82546197Y-82582092D01*
X82551178Y-82562688D01*
X82557480Y-82544283D01*
X82565438Y-82525895D01*
X82572270Y-82482748D01*
X82574639Y-82471316D01*
X82585500Y-82429020D01*
X82585500Y-82408984D01*
X82587027Y-82389585D01*
X82590037Y-82370578D01*
X82590160Y-82369804D01*
X82586050Y-82326325D01*
X82585500Y-82314656D01*
X82585500Y-74622744D01*
X82587764Y-74602237D01*
X82585561Y-74532127D01*
X82585500Y-74528232D01*
X82585500Y-74500653D01*
X82584997Y-74496672D01*
X82584080Y-74485019D01*
X82582709Y-74441373D01*
X82577120Y-74422140D01*
X82573174Y-74403082D01*
X82570664Y-74383206D01*
X82554588Y-74342604D01*
X82550804Y-74331553D01*
X82544078Y-74308405D01*
X82538618Y-74289610D01*
X82528414Y-74272355D01*
X82519861Y-74254895D01*
X82512486Y-74236269D01*
X82512486Y-74236268D01*
X82486808Y-74200925D01*
X82480401Y-74191171D01*
X82468981Y-74171861D01*
X82458170Y-74153580D01*
X82444005Y-74139415D01*
X82431367Y-74124617D01*
X82419595Y-74108413D01*
X82385941Y-74080573D01*
X82377299Y-74072709D01*
X81071819Y-72767228D01*
X81044939Y-72727000D01*
X81035500Y-72679547D01*
X81035500Y-64539095D01*
X81051047Y-64478979D01*
X81093790Y-64433937D01*
X81153010Y-64415265D01*
X81213858Y-64427645D01*
X81261072Y-64467969D01*
X81361505Y-64611401D01*
X81528599Y-64778495D01*
X81722170Y-64914035D01*
X81936337Y-65013903D01*
X82164592Y-65075063D01*
X82400000Y-65095659D01*
X82635408Y-65075063D01*
X82863663Y-65013903D01*
X83077830Y-64914035D01*
X83271401Y-64778495D01*
X83438495Y-64611401D01*
X83473926Y-64560799D01*
X83521142Y-64520474D01*
X83581989Y-64508094D01*
X83641210Y-64526766D01*
X83683953Y-64571808D01*
X83699500Y-64631924D01*
X83699500Y-143375500D01*
X83682887Y-143437500D01*
X83637500Y-143482887D01*
X83575500Y-143499500D01*
X44724500Y-143499500D01*
X44662500Y-143482887D01*
X44617113Y-143437500D01*
X44600500Y-143375500D01*
X44600500Y-141265000D01*
X56381128Y-141265000D01*
X56433733Y-141461326D01*
X56529865Y-141667480D01*
X56660341Y-141853819D01*
X56821180Y-142014658D01*
X57007519Y-142145134D01*
X57213673Y-142241266D01*
X57409999Y-142293871D01*
X57410000Y-142293872D01*
X57410000Y-141265000D01*
X57910000Y-141265000D01*
X57910000Y-142293871D01*
X58106326Y-142241266D01*
X58312480Y-142145134D01*
X58498819Y-142014658D01*
X58659658Y-141853819D01*
X58790134Y-141667480D01*
X58886266Y-141461326D01*
X58938872Y-141265000D01*
X57910000Y-141265000D01*
X57410000Y-141265000D01*
X56381128Y-141265000D01*
X44600500Y-141265000D01*
X44600500Y-134499026D01*
X48994526Y-134499026D01*
X49067515Y-134550133D01*
X49273673Y-134646266D01*
X49493397Y-134705141D01*
X49720000Y-134724966D01*
X49946602Y-134705141D01*
X50166326Y-134646266D01*
X50372480Y-134550134D01*
X50445472Y-134499025D01*
X49720001Y-133773553D01*
X49720000Y-133773553D01*
X48994526Y-134499025D01*
X48994526Y-134499026D01*
X44600500Y-134499026D01*
X44600500Y-133420000D01*
X48415033Y-133420000D01*
X48434858Y-133646602D01*
X48493733Y-133866326D01*
X48589866Y-134072484D01*
X48640972Y-134145471D01*
X48640973Y-134145472D01*
X49366446Y-133419999D01*
X50073553Y-133419999D01*
X50799025Y-134145472D01*
X50850134Y-134072480D01*
X50946266Y-133866326D01*
X51005141Y-133646602D01*
X51024966Y-133420000D01*
X51005141Y-133193397D01*
X50946266Y-132973673D01*
X50850133Y-132767515D01*
X50799025Y-132694526D01*
X50073553Y-133419998D01*
X50073553Y-133419999D01*
X49366446Y-133419999D01*
X49366446Y-133419998D01*
X48640973Y-132694527D01*
X48589865Y-132767516D01*
X48493733Y-132973672D01*
X48434858Y-133193397D01*
X48415033Y-133420000D01*
X44600500Y-133420000D01*
X44600500Y-132340973D01*
X48994526Y-132340973D01*
X49719998Y-133066446D01*
X49719999Y-133066446D01*
X50445472Y-132340973D01*
X50445471Y-132340972D01*
X50372484Y-132289866D01*
X50166326Y-132193733D01*
X49946602Y-132134858D01*
X49720000Y-132115033D01*
X49493397Y-132134858D01*
X49273672Y-132193733D01*
X49067516Y-132289865D01*
X48994526Y-132340973D01*
X44600500Y-132340973D01*
X44600500Y-129189049D01*
X44614015Y-129132754D01*
X44651615Y-129088731D01*
X44705102Y-129066576D01*
X44762818Y-129071118D01*
X44812181Y-129101368D01*
X44880859Y-129170046D01*
X45041623Y-129282613D01*
X45080489Y-129326931D01*
X45094500Y-129384188D01*
X45094500Y-129797256D01*
X45092235Y-129817762D01*
X45094439Y-129887873D01*
X45094500Y-129891768D01*
X45094500Y-129919349D01*
X45095003Y-129923334D01*
X45095918Y-129934967D01*
X45097290Y-129978626D01*
X45102879Y-129997860D01*
X45106825Y-130016916D01*
X45109335Y-130036792D01*
X45125414Y-130077404D01*
X45129197Y-130088451D01*
X45141382Y-130130391D01*
X45151580Y-130147635D01*
X45160136Y-130165100D01*
X45167514Y-130183732D01*
X45167515Y-130183733D01*
X45193180Y-130219059D01*
X45199593Y-130228822D01*
X45221826Y-130266416D01*
X45221829Y-130266419D01*
X45221830Y-130266420D01*
X45235995Y-130280585D01*
X45248627Y-130295375D01*
X45260406Y-130311587D01*
X45294058Y-130339426D01*
X45302699Y-130347289D01*
X45959196Y-131003787D01*
X45972096Y-131019888D01*
X46023223Y-131067900D01*
X46026019Y-131070610D01*
X46045529Y-131090120D01*
X46048711Y-131092588D01*
X46057571Y-131100155D01*
X46089418Y-131130062D01*
X46106972Y-131139712D01*
X46123236Y-131150396D01*
X46134972Y-131159499D01*
X46139064Y-131162673D01*
X46163909Y-131173424D01*
X46179152Y-131180021D01*
X46189631Y-131185154D01*
X46227908Y-131206197D01*
X46247306Y-131211177D01*
X46265708Y-131217477D01*
X46284104Y-131225438D01*
X46327261Y-131232273D01*
X46338664Y-131234634D01*
X46380981Y-131245500D01*
X46401016Y-131245500D01*
X46420413Y-131247026D01*
X46440196Y-131250160D01*
X46483674Y-131246050D01*
X46495344Y-131245500D01*
X53327256Y-131245500D01*
X53347762Y-131247764D01*
X53350665Y-131247672D01*
X53350667Y-131247673D01*
X53417872Y-131245561D01*
X53421768Y-131245500D01*
X53449349Y-131245500D01*
X53449350Y-131245500D01*
X53453319Y-131244998D01*
X53464965Y-131244080D01*
X53508627Y-131242709D01*
X53527859Y-131237120D01*
X53546918Y-131233174D01*
X53554091Y-131232268D01*
X53566792Y-131230664D01*
X53607407Y-131214582D01*
X53618444Y-131210803D01*
X53660390Y-131198618D01*
X53677629Y-131188422D01*
X53695102Y-131179862D01*
X53713732Y-131172486D01*
X53749064Y-131146814D01*
X53758830Y-131140400D01*
X53796418Y-131118171D01*
X53796417Y-131118171D01*
X53796420Y-131118170D01*
X53810585Y-131104004D01*
X53825373Y-131091373D01*
X53841587Y-131079594D01*
X53869438Y-131045926D01*
X53877279Y-131037309D01*
X54393792Y-130520797D01*
X54409885Y-130507906D01*
X54411873Y-130505787D01*
X54411877Y-130505786D01*
X54457948Y-130456723D01*
X54460566Y-130454023D01*
X54480120Y-130434471D01*
X54482581Y-130431298D01*
X54490156Y-130422427D01*
X54520062Y-130390582D01*
X54529717Y-130373018D01*
X54540394Y-130356764D01*
X54552673Y-130340936D01*
X54570018Y-130300852D01*
X54575160Y-130290356D01*
X54579073Y-130283239D01*
X54596197Y-130252092D01*
X54601179Y-130232684D01*
X54607481Y-130214280D01*
X54615437Y-130195896D01*
X54622269Y-130152752D01*
X54624633Y-130141338D01*
X54635500Y-130099019D01*
X54635500Y-130078984D01*
X54637027Y-130059585D01*
X54638409Y-130050857D01*
X54640160Y-130039804D01*
X54636050Y-129996325D01*
X54635500Y-129984656D01*
X54635500Y-129599188D01*
X54649511Y-129541931D01*
X54688377Y-129497613D01*
X54769318Y-129440938D01*
X54849139Y-129385047D01*
X55010047Y-129224139D01*
X55140568Y-129037734D01*
X55152524Y-129012093D01*
X55198279Y-128959920D01*
X55264905Y-128940500D01*
X56445812Y-128940500D01*
X56503069Y-128954511D01*
X56547387Y-128993377D01*
X56659953Y-129154140D01*
X56820859Y-129315046D01*
X57007263Y-129445566D01*
X57007266Y-129445568D01*
X57065275Y-129472618D01*
X57117450Y-129518375D01*
X57136869Y-129585000D01*
X57117450Y-129651625D01*
X57065275Y-129697381D01*
X57044576Y-129707033D01*
X57007263Y-129724433D01*
X56820859Y-129854953D01*
X56659953Y-130015859D01*
X56529432Y-130202264D01*
X56433261Y-130408502D01*
X56374364Y-130628310D01*
X56354531Y-130855000D01*
X56374364Y-131081689D01*
X56433261Y-131301497D01*
X56529432Y-131507735D01*
X56659953Y-131694140D01*
X56820859Y-131855046D01*
X56913690Y-131920046D01*
X57007266Y-131985568D01*
X57065275Y-132012618D01*
X57117450Y-132058375D01*
X57136869Y-132125000D01*
X57117450Y-132191625D01*
X57065275Y-132237382D01*
X57007263Y-132264433D01*
X56820859Y-132394953D01*
X56659953Y-132555859D01*
X56564892Y-132691623D01*
X56520574Y-132730489D01*
X56463317Y-132744500D01*
X55899178Y-132744500D01*
X55841921Y-132730489D01*
X55797603Y-132691623D01*
X55720046Y-132580859D01*
X55559140Y-132419953D01*
X55372735Y-132289432D01*
X55166497Y-132193261D01*
X54946689Y-132134364D01*
X54720000Y-132114531D01*
X54493310Y-132134364D01*
X54273502Y-132193261D01*
X54067264Y-132289432D01*
X53880859Y-132419953D01*
X53719953Y-132580859D01*
X53589432Y-132767264D01*
X53493261Y-132973502D01*
X53434364Y-133193310D01*
X53414531Y-133419999D01*
X53434364Y-133646689D01*
X53493261Y-133866497D01*
X53589432Y-134072735D01*
X53719953Y-134259140D01*
X53880859Y-134420046D01*
X54067264Y-134550567D01*
X54067265Y-134550567D01*
X54067266Y-134550568D01*
X54273504Y-134646739D01*
X54493308Y-134705635D01*
X54720000Y-134725468D01*
X54946692Y-134705635D01*
X55166496Y-134646739D01*
X55372734Y-134550568D01*
X55559139Y-134420047D01*
X55720047Y-134259139D01*
X55797603Y-134148377D01*
X55841921Y-134109511D01*
X55899178Y-134095500D01*
X56498327Y-134095500D01*
X56555584Y-134109511D01*
X56599902Y-134148377D01*
X56659953Y-134234140D01*
X56820859Y-134395046D01*
X56856565Y-134420047D01*
X57007266Y-134525568D01*
X57065275Y-134552618D01*
X57117450Y-134598375D01*
X57136869Y-134665000D01*
X57117450Y-134731625D01*
X57065275Y-134777382D01*
X57007263Y-134804433D01*
X56820859Y-134934953D01*
X56659953Y-135095859D01*
X56529432Y-135282264D01*
X56433261Y-135488502D01*
X56374364Y-135708310D01*
X56354531Y-135935000D01*
X56374364Y-136161689D01*
X56433261Y-136381497D01*
X56529432Y-136587735D01*
X56659953Y-136774140D01*
X56820859Y-136935046D01*
X56912232Y-136999025D01*
X57007266Y-137065568D01*
X57065275Y-137092618D01*
X57117450Y-137138375D01*
X57136869Y-137205000D01*
X57117450Y-137271625D01*
X57065275Y-137317382D01*
X57007263Y-137344433D01*
X56820859Y-137474953D01*
X56659953Y-137635859D01*
X56529432Y-137822264D01*
X56433261Y-138028502D01*
X56374364Y-138248310D01*
X56354531Y-138474999D01*
X56374364Y-138701689D01*
X56433261Y-138921497D01*
X56529432Y-139127735D01*
X56659953Y-139314140D01*
X56820859Y-139475046D01*
X57007264Y-139605567D01*
X57007265Y-139605567D01*
X57007266Y-139605568D01*
X57065865Y-139632893D01*
X57118040Y-139678650D01*
X57137460Y-139745274D01*
X57118041Y-139811899D01*
X57065866Y-139857656D01*
X57007522Y-139884863D01*
X56821180Y-140015341D01*
X56660341Y-140176180D01*
X56529865Y-140362519D01*
X56433733Y-140568673D01*
X56381128Y-140764999D01*
X56381128Y-140765000D01*
X58938872Y-140765000D01*
X58938871Y-140764999D01*
X58886266Y-140568673D01*
X58790134Y-140362519D01*
X58659658Y-140176180D01*
X58498819Y-140015341D01*
X58312482Y-139884866D01*
X58254133Y-139857657D01*
X58201958Y-139811899D01*
X58182539Y-139745274D01*
X58201959Y-139678649D01*
X58254134Y-139632893D01*
X58312734Y-139605568D01*
X58499139Y-139475047D01*
X58660047Y-139314139D01*
X58790568Y-139127734D01*
X58886739Y-138921496D01*
X58945635Y-138701692D01*
X58965468Y-138475000D01*
X58945635Y-138248308D01*
X58886739Y-138028504D01*
X58790568Y-137822266D01*
X58660047Y-137635861D01*
X58660046Y-137635859D01*
X58499140Y-137474953D01*
X58312733Y-137344431D01*
X58254725Y-137317382D01*
X58202549Y-137271625D01*
X58183129Y-137205000D01*
X58202549Y-137138375D01*
X58254725Y-137092618D01*
X58312734Y-137065568D01*
X58499139Y-136935047D01*
X58660047Y-136774139D01*
X58790568Y-136587734D01*
X58886739Y-136381496D01*
X58945635Y-136161692D01*
X58965468Y-135935000D01*
X58964155Y-135919998D01*
X58945635Y-135708310D01*
X58945635Y-135708308D01*
X58927319Y-135639951D01*
X58927319Y-135575765D01*
X58959413Y-135520177D01*
X59287772Y-135191819D01*
X59328000Y-135164939D01*
X59375453Y-135155500D01*
X60819548Y-135155500D01*
X60867001Y-135164939D01*
X60907229Y-135191819D01*
X62108181Y-136392772D01*
X62135061Y-136433000D01*
X62144500Y-136480453D01*
X62144500Y-139527256D01*
X62142235Y-139547762D01*
X62144439Y-139617873D01*
X62144500Y-139621768D01*
X62144500Y-139649349D01*
X62145003Y-139653334D01*
X62145918Y-139664967D01*
X62147290Y-139708626D01*
X62152879Y-139727860D01*
X62156825Y-139746916D01*
X62159335Y-139766792D01*
X62175414Y-139807404D01*
X62179197Y-139818451D01*
X62191382Y-139860391D01*
X62201580Y-139877635D01*
X62210136Y-139895100D01*
X62217514Y-139913732D01*
X62217515Y-139913733D01*
X62243180Y-139949059D01*
X62249593Y-139958822D01*
X62271826Y-139996416D01*
X62271829Y-139996419D01*
X62271830Y-139996420D01*
X62285995Y-140010585D01*
X62298627Y-140025375D01*
X62310406Y-140041587D01*
X62344058Y-140069426D01*
X62352699Y-140077289D01*
X63674196Y-141398787D01*
X63687096Y-141414888D01*
X63738223Y-141462900D01*
X63741019Y-141465610D01*
X63760529Y-141485120D01*
X63763711Y-141487588D01*
X63772571Y-141495155D01*
X63804418Y-141525062D01*
X63821972Y-141534712D01*
X63838236Y-141545396D01*
X63849972Y-141554499D01*
X63854064Y-141557673D01*
X63878909Y-141568424D01*
X63894152Y-141575021D01*
X63904631Y-141580154D01*
X63942908Y-141601197D01*
X63962306Y-141606177D01*
X63980708Y-141612477D01*
X63999104Y-141620438D01*
X64042261Y-141627273D01*
X64053664Y-141629634D01*
X64093473Y-141639856D01*
X64133223Y-141658014D01*
X64164207Y-141688836D01*
X64279953Y-141854140D01*
X64440859Y-142015046D01*
X64627264Y-142145567D01*
X64627265Y-142145567D01*
X64627266Y-142145568D01*
X64833504Y-142241739D01*
X65053308Y-142300635D01*
X65280000Y-142320468D01*
X65506692Y-142300635D01*
X65726496Y-142241739D01*
X65932734Y-142145568D01*
X66119139Y-142015047D01*
X66280047Y-141854139D01*
X66410568Y-141667734D01*
X66506739Y-141461496D01*
X66565635Y-141241692D01*
X66585468Y-141015000D01*
X66565635Y-140788308D01*
X66506739Y-140568504D01*
X66437490Y-140420000D01*
X76485000Y-140420000D01*
X76485000Y-140501729D01*
X76499885Y-140633840D01*
X76558498Y-140801346D01*
X76652913Y-140951606D01*
X76778393Y-141077086D01*
X76928653Y-141171501D01*
X77096159Y-141230114D01*
X77228271Y-141245000D01*
X77310000Y-141245000D01*
X77310000Y-140420000D01*
X77810000Y-140420000D01*
X77810000Y-141245000D01*
X77891729Y-141245000D01*
X78023840Y-141230114D01*
X78191346Y-141171501D01*
X78341606Y-141077086D01*
X78467086Y-140951606D01*
X78561501Y-140801346D01*
X78620114Y-140633840D01*
X78635000Y-140501729D01*
X78635000Y-140420000D01*
X77810000Y-140420000D01*
X77310000Y-140420000D01*
X76485000Y-140420000D01*
X66437490Y-140420000D01*
X66410568Y-140362266D01*
X66304551Y-140210857D01*
X66280046Y-140175859D01*
X66274187Y-140170000D01*
X80279892Y-140170000D01*
X80298282Y-140368470D01*
X80352827Y-140560178D01*
X80389507Y-140633840D01*
X80441674Y-140738604D01*
X80489055Y-140801346D01*
X80561791Y-140897665D01*
X80709087Y-141031943D01*
X80709089Y-141031944D01*
X80709090Y-141031945D01*
X80878554Y-141136873D01*
X81064414Y-141208876D01*
X81260340Y-141245500D01*
X81459658Y-141245500D01*
X81459660Y-141245500D01*
X81655586Y-141208876D01*
X81841446Y-141136873D01*
X82010910Y-141031945D01*
X82158209Y-140897664D01*
X82278326Y-140738604D01*
X82367171Y-140560180D01*
X82407056Y-140420000D01*
X82421717Y-140368470D01*
X82423276Y-140351638D01*
X82440108Y-140170000D01*
X82421717Y-139971531D01*
X82421717Y-139971529D01*
X82367172Y-139779821D01*
X82316794Y-139678650D01*
X82278326Y-139601396D01*
X82182911Y-139475046D01*
X82158208Y-139442334D01*
X82010912Y-139308056D01*
X81841447Y-139203127D01*
X81748516Y-139167125D01*
X81655586Y-139131124D01*
X81459660Y-139094500D01*
X81260340Y-139094500D01*
X81082544Y-139127735D01*
X81064414Y-139131124D01*
X80878552Y-139203127D01*
X80709087Y-139308056D01*
X80561791Y-139442334D01*
X80441674Y-139601396D01*
X80352827Y-139779821D01*
X80298282Y-139971529D01*
X80279892Y-140170000D01*
X66274187Y-140170000D01*
X66119140Y-140014953D01*
X65983531Y-139920000D01*
X76485000Y-139920000D01*
X77310000Y-139920000D01*
X77310000Y-139095000D01*
X77810000Y-139095000D01*
X77810000Y-139920000D01*
X78635000Y-139920000D01*
X78635000Y-139838271D01*
X78620114Y-139706159D01*
X78561501Y-139538653D01*
X78467086Y-139388393D01*
X78341606Y-139262913D01*
X78191346Y-139168498D01*
X78023840Y-139109885D01*
X77891729Y-139095000D01*
X77810000Y-139095000D01*
X77310000Y-139095000D01*
X77228271Y-139095000D01*
X77096159Y-139109885D01*
X76928653Y-139168498D01*
X76778393Y-139262913D01*
X76652913Y-139388393D01*
X76558498Y-139538653D01*
X76499885Y-139706159D01*
X76485000Y-139838271D01*
X76485000Y-139920000D01*
X65983531Y-139920000D01*
X65932733Y-139884431D01*
X65874725Y-139857382D01*
X65822549Y-139811625D01*
X65803129Y-139745000D01*
X65822549Y-139678375D01*
X65874725Y-139632618D01*
X65897993Y-139621768D01*
X65932734Y-139605568D01*
X66119139Y-139475047D01*
X66280047Y-139314139D01*
X66410568Y-139127734D01*
X66506739Y-138921496D01*
X66565635Y-138701692D01*
X66585468Y-138475000D01*
X66565635Y-138248308D01*
X66506739Y-138028504D01*
X66410568Y-137822266D01*
X66280047Y-137635861D01*
X66280046Y-137635859D01*
X66119140Y-137474953D01*
X65932733Y-137344431D01*
X65874725Y-137317382D01*
X65822549Y-137271625D01*
X65803129Y-137205000D01*
X65822549Y-137138375D01*
X65874725Y-137092618D01*
X65932734Y-137065568D01*
X66027767Y-136999026D01*
X69954526Y-136999026D01*
X70027515Y-137050133D01*
X70233673Y-137146266D01*
X70453397Y-137205141D01*
X70680000Y-137224966D01*
X70906602Y-137205141D01*
X71126326Y-137146266D01*
X71332480Y-137050134D01*
X71405472Y-136999025D01*
X70680001Y-136273553D01*
X70680000Y-136273553D01*
X69954526Y-136999025D01*
X69954526Y-136999026D01*
X66027767Y-136999026D01*
X66119139Y-136935047D01*
X66280047Y-136774139D01*
X66410568Y-136587734D01*
X66506739Y-136381496D01*
X66565635Y-136161692D01*
X66585468Y-135935000D01*
X66584155Y-135919999D01*
X69375033Y-135919999D01*
X69394858Y-136146602D01*
X69453733Y-136366326D01*
X69549866Y-136572484D01*
X69600972Y-136645471D01*
X69600973Y-136645472D01*
X70326445Y-135920000D01*
X71033553Y-135920000D01*
X71759025Y-136645472D01*
X71810134Y-136572480D01*
X71906266Y-136366326D01*
X71965141Y-136146602D01*
X71984966Y-135920000D01*
X71965141Y-135693397D01*
X71906266Y-135473673D01*
X71810133Y-135267515D01*
X71759025Y-135194526D01*
X71033553Y-135919998D01*
X71033553Y-135920000D01*
X70326445Y-135920000D01*
X70326446Y-135919999D01*
X70326446Y-135919998D01*
X69600973Y-135194527D01*
X69549865Y-135267516D01*
X69453733Y-135473672D01*
X69394858Y-135693397D01*
X69375033Y-135919999D01*
X66584155Y-135919999D01*
X66584155Y-135919998D01*
X66565635Y-135708310D01*
X66565635Y-135708308D01*
X66506739Y-135488504D01*
X66410568Y-135282266D01*
X66400239Y-135267515D01*
X66280046Y-135095859D01*
X66119140Y-134934953D01*
X65984921Y-134840973D01*
X69954526Y-134840973D01*
X70680000Y-135566446D01*
X70680001Y-135566446D01*
X71405472Y-134840974D01*
X71405471Y-134840972D01*
X71332484Y-134789866D01*
X71126326Y-134693733D01*
X70906602Y-134634858D01*
X70680000Y-134615033D01*
X70453397Y-134634858D01*
X70233672Y-134693733D01*
X70027516Y-134789865D01*
X69954527Y-134840973D01*
X69954526Y-134840973D01*
X65984921Y-134840973D01*
X65932733Y-134804431D01*
X65874725Y-134777382D01*
X65822549Y-134731625D01*
X65803129Y-134665000D01*
X65822549Y-134598375D01*
X65874725Y-134552618D01*
X65932734Y-134525568D01*
X66119139Y-134395047D01*
X66280047Y-134234139D01*
X66410568Y-134047734D01*
X66506739Y-133841496D01*
X66565635Y-133621692D01*
X66585468Y-133395000D01*
X66565635Y-133168308D01*
X66547319Y-133099951D01*
X66547319Y-133035763D01*
X66579411Y-132980178D01*
X69276813Y-130282776D01*
X69336598Y-130249637D01*
X69404862Y-130253215D01*
X69460858Y-130292423D01*
X69487568Y-130355346D01*
X69476875Y-130422863D01*
X69453261Y-130473504D01*
X69394364Y-130693310D01*
X69374531Y-130920000D01*
X69394364Y-131146689D01*
X69453261Y-131366497D01*
X69549432Y-131572735D01*
X69679953Y-131759140D01*
X69840859Y-131920046D01*
X70027264Y-132050567D01*
X70027265Y-132050567D01*
X70027266Y-132050568D01*
X70233504Y-132146739D01*
X70453308Y-132205635D01*
X70680000Y-132225468D01*
X70906692Y-132205635D01*
X71126496Y-132146739D01*
X71332734Y-132050568D01*
X71519139Y-131920047D01*
X71680047Y-131759139D01*
X71810568Y-131572734D01*
X71906739Y-131366496D01*
X71914100Y-131339026D01*
X74184526Y-131339026D01*
X74257515Y-131390133D01*
X74463673Y-131486266D01*
X74683397Y-131545141D01*
X74910000Y-131564966D01*
X75136602Y-131545141D01*
X75356326Y-131486266D01*
X75562480Y-131390134D01*
X75635472Y-131339025D01*
X74910001Y-130613553D01*
X74910000Y-130613553D01*
X74184526Y-131339025D01*
X74184526Y-131339026D01*
X71914100Y-131339026D01*
X71965635Y-131146692D01*
X71985468Y-130920000D01*
X71984810Y-130912484D01*
X71965635Y-130693310D01*
X71965635Y-130693308D01*
X71906739Y-130473504D01*
X71810568Y-130267266D01*
X71805480Y-130260000D01*
X73605033Y-130260000D01*
X73624858Y-130486602D01*
X73683733Y-130706326D01*
X73779866Y-130912484D01*
X73830972Y-130985471D01*
X73830974Y-130985472D01*
X74556446Y-130260001D01*
X75263553Y-130260001D01*
X75989025Y-130985472D01*
X76040134Y-130912480D01*
X76136266Y-130706326D01*
X76195141Y-130486602D01*
X76214966Y-130260000D01*
X76195141Y-130033397D01*
X76136266Y-129813673D01*
X76040133Y-129607515D01*
X75989025Y-129534526D01*
X75263553Y-130260000D01*
X75263553Y-130260001D01*
X74556446Y-130260001D01*
X74556446Y-130260000D01*
X73830973Y-129534526D01*
X73830973Y-129534527D01*
X73779865Y-129607516D01*
X73683733Y-129813672D01*
X73624858Y-130033397D01*
X73605033Y-130260000D01*
X71805480Y-130260000D01*
X71680046Y-130080859D01*
X71519140Y-129919953D01*
X71332735Y-129789432D01*
X71126497Y-129693261D01*
X70906689Y-129634364D01*
X70680000Y-129614531D01*
X70453310Y-129634364D01*
X70233501Y-129693261D01*
X70178834Y-129718753D01*
X70112091Y-129729538D01*
X70049611Y-129703708D01*
X70009968Y-129648941D01*
X70004947Y-129581518D01*
X70036039Y-129521487D01*
X70065062Y-129490582D01*
X70074712Y-129473027D01*
X70085400Y-129456757D01*
X70086654Y-129455141D01*
X70097673Y-129440936D01*
X70115026Y-129400832D01*
X70120157Y-129390362D01*
X70123079Y-129385047D01*
X70141197Y-129352092D01*
X70146175Y-129332699D01*
X70152481Y-129314282D01*
X70158416Y-129300568D01*
X70160438Y-129295896D01*
X70167272Y-129252745D01*
X70169635Y-129241331D01*
X70180500Y-129199019D01*
X70180500Y-129180973D01*
X74184526Y-129180973D01*
X74910000Y-129906446D01*
X74910001Y-129906446D01*
X75635472Y-129180974D01*
X75635471Y-129180972D01*
X75562484Y-129129866D01*
X75356326Y-129033733D01*
X75136602Y-128974858D01*
X74910000Y-128955033D01*
X74683397Y-128974858D01*
X74463672Y-129033733D01*
X74257516Y-129129865D01*
X74184527Y-129180973D01*
X74184526Y-129180973D01*
X70180500Y-129180973D01*
X70180500Y-129178984D01*
X70182027Y-129159585D01*
X70182889Y-129154140D01*
X70185160Y-129139804D01*
X70181050Y-129096325D01*
X70180500Y-129084656D01*
X70180500Y-125260000D01*
X73604531Y-125260000D01*
X73624364Y-125486689D01*
X73683261Y-125706497D01*
X73779432Y-125912735D01*
X73909953Y-126099140D01*
X74070859Y-126260046D01*
X74257264Y-126390567D01*
X74257265Y-126390567D01*
X74257266Y-126390568D01*
X74463504Y-126486739D01*
X74683308Y-126545635D01*
X74910000Y-126565468D01*
X75136692Y-126545635D01*
X75356496Y-126486739D01*
X75562734Y-126390568D01*
X75749139Y-126260047D01*
X75910047Y-126099139D01*
X76022612Y-125938377D01*
X76066931Y-125899511D01*
X76124188Y-125885500D01*
X76560410Y-125885500D01*
X76605204Y-125893873D01*
X76643948Y-125917863D01*
X76769087Y-126031943D01*
X76769089Y-126031944D01*
X76769090Y-126031945D01*
X76938554Y-126136873D01*
X77124414Y-126208876D01*
X77320340Y-126245500D01*
X77519658Y-126245500D01*
X77519660Y-126245500D01*
X77715586Y-126208876D01*
X77901446Y-126136873D01*
X78070910Y-126031945D01*
X78218209Y-125897664D01*
X78338326Y-125738604D01*
X78427171Y-125560180D01*
X78430549Y-125548310D01*
X78481717Y-125368470D01*
X78485420Y-125328504D01*
X78500108Y-125170000D01*
X80389892Y-125170000D01*
X80408282Y-125368470D01*
X80462827Y-125560178D01*
X80491773Y-125618308D01*
X80551674Y-125738604D01*
X80579159Y-125775000D01*
X80671791Y-125897665D01*
X80819087Y-126031943D01*
X80819089Y-126031944D01*
X80819090Y-126031945D01*
X80988554Y-126136873D01*
X81174414Y-126208876D01*
X81370340Y-126245500D01*
X81569658Y-126245500D01*
X81569660Y-126245500D01*
X81765586Y-126208876D01*
X81951446Y-126136873D01*
X82120910Y-126031945D01*
X82268209Y-125897664D01*
X82388326Y-125738604D01*
X82477171Y-125560180D01*
X82480549Y-125548310D01*
X82531717Y-125368470D01*
X82535420Y-125328504D01*
X82550108Y-125170000D01*
X82531717Y-124971531D01*
X82531717Y-124971529D01*
X82477172Y-124779821D01*
X82409755Y-124644432D01*
X82388326Y-124601396D01*
X82288746Y-124469531D01*
X82268208Y-124442334D01*
X82120912Y-124308056D01*
X81951447Y-124203127D01*
X81858515Y-124167125D01*
X81765586Y-124131124D01*
X81569660Y-124094500D01*
X81370340Y-124094500D01*
X81183466Y-124129432D01*
X81174414Y-124131124D01*
X80988552Y-124203127D01*
X80819087Y-124308056D01*
X80671791Y-124442334D01*
X80551674Y-124601396D01*
X80462827Y-124779821D01*
X80408282Y-124971529D01*
X80389892Y-125170000D01*
X78500108Y-125170000D01*
X78481717Y-124971531D01*
X78481717Y-124971529D01*
X78427172Y-124779821D01*
X78359755Y-124644432D01*
X78338326Y-124601396D01*
X78238746Y-124469531D01*
X78218208Y-124442334D01*
X78085962Y-124321776D01*
X78056066Y-124280225D01*
X78045500Y-124230139D01*
X78045500Y-123620184D01*
X78059511Y-123562927D01*
X78098377Y-123518609D01*
X78239140Y-123420046D01*
X78400046Y-123259140D01*
X78530567Y-123072735D01*
X78530568Y-123072734D01*
X78626739Y-122866496D01*
X78685635Y-122646692D01*
X78705468Y-122420000D01*
X78685635Y-122193308D01*
X78626739Y-121973504D01*
X78530568Y-121767266D01*
X78512681Y-121741721D01*
X78400046Y-121580859D01*
X78239140Y-121419953D01*
X78052735Y-121289432D01*
X77846497Y-121193261D01*
X77626689Y-121134364D01*
X77400000Y-121114531D01*
X77173310Y-121134364D01*
X76953502Y-121193261D01*
X76747264Y-121289432D01*
X76560859Y-121419953D01*
X76399953Y-121580859D01*
X76269432Y-121767264D01*
X76173261Y-121973502D01*
X76114364Y-122193310D01*
X76094531Y-122419999D01*
X76114364Y-122646689D01*
X76173261Y-122866497D01*
X76269432Y-123072735D01*
X76399953Y-123259140D01*
X76560859Y-123420046D01*
X76741623Y-123546617D01*
X76780489Y-123590935D01*
X76794500Y-123648192D01*
X76794500Y-124230139D01*
X76783934Y-124280225D01*
X76754038Y-124321776D01*
X76621791Y-124442334D01*
X76513884Y-124585227D01*
X76470201Y-124621500D01*
X76414930Y-124634500D01*
X76124188Y-124634500D01*
X76066931Y-124620489D01*
X76022613Y-124581623D01*
X75910046Y-124420859D01*
X75749140Y-124259953D01*
X75562735Y-124129432D01*
X75356497Y-124033261D01*
X75136689Y-123974364D01*
X74910000Y-123954531D01*
X74683310Y-123974364D01*
X74463502Y-124033261D01*
X74257264Y-124129432D01*
X74070859Y-124259953D01*
X73909953Y-124420859D01*
X73779432Y-124607264D01*
X73683261Y-124813502D01*
X73624364Y-125033310D01*
X73604531Y-125260000D01*
X70180500Y-125260000D01*
X70180500Y-122484500D01*
X70197113Y-122422500D01*
X70242500Y-122377113D01*
X70304500Y-122360500D01*
X71162163Y-122360499D01*
X71162187Y-122360499D01*
X71221798Y-122354091D01*
X71356646Y-122303796D01*
X71471861Y-122217546D01*
X71558111Y-122102331D01*
X71608406Y-121967483D01*
X71612259Y-121931646D01*
X71632637Y-121875727D01*
X71676726Y-121835743D01*
X71734367Y-121820909D01*
X71792281Y-121834642D01*
X71837123Y-121873780D01*
X71854653Y-121898816D01*
X72015495Y-122059658D01*
X72201834Y-122190134D01*
X72407988Y-122286266D01*
X72604314Y-122338871D01*
X72604315Y-122338872D01*
X72604315Y-121310000D01*
X73104315Y-121310000D01*
X73104315Y-122338871D01*
X73300641Y-122286266D01*
X73506795Y-122190134D01*
X73693134Y-122059658D01*
X73853973Y-121898819D01*
X73984449Y-121712480D01*
X74080581Y-121506326D01*
X74133187Y-121310000D01*
X73104315Y-121310000D01*
X72604315Y-121310000D01*
X72604315Y-119781128D01*
X73104315Y-119781128D01*
X73104315Y-120810000D01*
X74133187Y-120810000D01*
X74133186Y-120809999D01*
X74080581Y-120613673D01*
X73984449Y-120407519D01*
X73853973Y-120221180D01*
X73693134Y-120060341D01*
X73506795Y-119929865D01*
X73300641Y-119833733D01*
X73104315Y-119781128D01*
X72604315Y-119781128D01*
X72604314Y-119781128D01*
X72407988Y-119833733D01*
X72201834Y-119929865D01*
X72015495Y-120060341D01*
X71854654Y-120221182D01*
X71837121Y-120246222D01*
X71792278Y-120285359D01*
X71734364Y-120299091D01*
X71676723Y-120284256D01*
X71632635Y-120244271D01*
X71612258Y-120188352D01*
X71608406Y-120152517D01*
X71558111Y-120017669D01*
X71471861Y-119902454D01*
X71356646Y-119816204D01*
X71221798Y-119765909D01*
X71162188Y-119759500D01*
X71162184Y-119759500D01*
X69466445Y-119759500D01*
X69406830Y-119765909D01*
X69271984Y-119816204D01*
X69156769Y-119902454D01*
X69070519Y-120017668D01*
X69020224Y-120152516D01*
X69013815Y-120212131D01*
X69013815Y-120485500D01*
X68997202Y-120547500D01*
X68951815Y-120592887D01*
X68889815Y-120609500D01*
X67054188Y-120609500D01*
X66996931Y-120595489D01*
X66952613Y-120556623D01*
X66840046Y-120395859D01*
X66679140Y-120234953D01*
X66492733Y-120104431D01*
X66434725Y-120077382D01*
X66382549Y-120031625D01*
X66363129Y-119965000D01*
X66382549Y-119898375D01*
X66434725Y-119852618D01*
X66492734Y-119825568D01*
X66679139Y-119695047D01*
X66840047Y-119534139D01*
X66970568Y-119347734D01*
X67066739Y-119141496D01*
X67125635Y-118921692D01*
X67145468Y-118695000D01*
X67125635Y-118468308D01*
X67066739Y-118248504D01*
X66970568Y-118042266D01*
X66967395Y-118037735D01*
X66840046Y-117855859D01*
X66679140Y-117694953D01*
X66518377Y-117582387D01*
X66479511Y-117538069D01*
X66465500Y-117480812D01*
X66465500Y-114827508D01*
X66477118Y-114775103D01*
X66509794Y-114732518D01*
X66557406Y-114707733D01*
X66683663Y-114673903D01*
X66897830Y-114574035D01*
X67091401Y-114438495D01*
X67258495Y-114271401D01*
X67388426Y-114085839D01*
X67432743Y-114046975D01*
X67490000Y-114032964D01*
X67547257Y-114046975D01*
X67591573Y-114085839D01*
X67721505Y-114271401D01*
X67888599Y-114438495D01*
X68081625Y-114573653D01*
X68120489Y-114617970D01*
X68134500Y-114675227D01*
X68134500Y-115007256D01*
X68132235Y-115027762D01*
X68134439Y-115097873D01*
X68134500Y-115101768D01*
X68134500Y-115129349D01*
X68135003Y-115133334D01*
X68135918Y-115144967D01*
X68137290Y-115188626D01*
X68142879Y-115207860D01*
X68146825Y-115226916D01*
X68149335Y-115246792D01*
X68165414Y-115287404D01*
X68169197Y-115298451D01*
X68181382Y-115340391D01*
X68191580Y-115357635D01*
X68200136Y-115375100D01*
X68207514Y-115393732D01*
X68207515Y-115393733D01*
X68233180Y-115429059D01*
X68239593Y-115438822D01*
X68261826Y-115476416D01*
X68261829Y-115476419D01*
X68261830Y-115476420D01*
X68275995Y-115490585D01*
X68288627Y-115505375D01*
X68300406Y-115521587D01*
X68334058Y-115549426D01*
X68342699Y-115557289D01*
X70879197Y-118093787D01*
X70892098Y-118109889D01*
X70894212Y-118111874D01*
X70894214Y-118111877D01*
X70941561Y-118156339D01*
X70943240Y-118157916D01*
X70946036Y-118160626D01*
X70965530Y-118180120D01*
X70968704Y-118182582D01*
X70977568Y-118190153D01*
X71009418Y-118220062D01*
X71016834Y-118224139D01*
X71026974Y-118229714D01*
X71043231Y-118240392D01*
X71059064Y-118252674D01*
X71074005Y-118259139D01*
X71099156Y-118270023D01*
X71109643Y-118275160D01*
X71147908Y-118296197D01*
X71167316Y-118301180D01*
X71185710Y-118307478D01*
X71204105Y-118315438D01*
X71247254Y-118322271D01*
X71258680Y-118324638D01*
X71274222Y-118328629D01*
X71300980Y-118335500D01*
X71300981Y-118335500D01*
X71321016Y-118335500D01*
X71340413Y-118337026D01*
X71360196Y-118340160D01*
X71403674Y-118336050D01*
X71415344Y-118335500D01*
X73759548Y-118335500D01*
X73807001Y-118344939D01*
X73847228Y-118371818D01*
X74823143Y-119347734D01*
X75784196Y-120308787D01*
X75797096Y-120324888D01*
X75848223Y-120372900D01*
X75851019Y-120375610D01*
X75870529Y-120395120D01*
X75873711Y-120397588D01*
X75882571Y-120405155D01*
X75914418Y-120435062D01*
X75931972Y-120444712D01*
X75948236Y-120455396D01*
X75959972Y-120464499D01*
X75964064Y-120467673D01*
X75988909Y-120478424D01*
X76004152Y-120485021D01*
X76014631Y-120490154D01*
X76052908Y-120511197D01*
X76072306Y-120516177D01*
X76090708Y-120522477D01*
X76109104Y-120530438D01*
X76152261Y-120537273D01*
X76163664Y-120539634D01*
X76205981Y-120550500D01*
X76226016Y-120550500D01*
X76245413Y-120552026D01*
X76265196Y-120555160D01*
X76308674Y-120551050D01*
X76320344Y-120550500D01*
X80295812Y-120550500D01*
X80353069Y-120564511D01*
X80397387Y-120603377D01*
X80509953Y-120764140D01*
X80670859Y-120925046D01*
X80857264Y-121055567D01*
X80857265Y-121055567D01*
X80857266Y-121055568D01*
X81063504Y-121151739D01*
X81283308Y-121210635D01*
X81510000Y-121230468D01*
X81736692Y-121210635D01*
X81956496Y-121151739D01*
X82162734Y-121055568D01*
X82349139Y-120925047D01*
X82510047Y-120764139D01*
X82640568Y-120577734D01*
X82736739Y-120371496D01*
X82795635Y-120151692D01*
X82815468Y-119925000D01*
X82795635Y-119698308D01*
X82736739Y-119478504D01*
X82640568Y-119272266D01*
X82623487Y-119247872D01*
X82510046Y-119085859D01*
X82349140Y-118924953D01*
X82162732Y-118794430D01*
X82104724Y-118767380D01*
X82052549Y-118721623D01*
X82033130Y-118654997D01*
X82052550Y-118588373D01*
X82104721Y-118542619D01*
X82162734Y-118515568D01*
X82349139Y-118385047D01*
X82510047Y-118224139D01*
X82640568Y-118037734D01*
X82736739Y-117831496D01*
X82795635Y-117611692D01*
X82815468Y-117385000D01*
X82795635Y-117158308D01*
X82736739Y-116938504D01*
X82640568Y-116732266D01*
X82585592Y-116653752D01*
X82510046Y-116545859D01*
X82349140Y-116384953D01*
X82162735Y-116254432D01*
X81956497Y-116158261D01*
X81736689Y-116099364D01*
X81510000Y-116079531D01*
X81283310Y-116099364D01*
X81063502Y-116158261D01*
X80857264Y-116254432D01*
X80670859Y-116384953D01*
X80509953Y-116545859D01*
X80373209Y-116741153D01*
X80369849Y-116738800D01*
X80338055Y-116775071D01*
X80271415Y-116794500D01*
X78614188Y-116794500D01*
X78556931Y-116780489D01*
X78512613Y-116741623D01*
X78400046Y-116580859D01*
X78239140Y-116419953D01*
X78052735Y-116289432D01*
X77846497Y-116193261D01*
X77626689Y-116134364D01*
X77400000Y-116114531D01*
X77173310Y-116134364D01*
X76953502Y-116193261D01*
X76747264Y-116289432D01*
X76560859Y-116419953D01*
X76399953Y-116580859D01*
X76269432Y-116767264D01*
X76173261Y-116973502D01*
X76114364Y-117193310D01*
X76094531Y-117420000D01*
X76114364Y-117646689D01*
X76173261Y-117866497D01*
X76269432Y-118072735D01*
X76399953Y-118259140D01*
X76560859Y-118420046D01*
X76747264Y-118550567D01*
X76747265Y-118550567D01*
X76747266Y-118550568D01*
X76953504Y-118646739D01*
X77173308Y-118705635D01*
X77400000Y-118725468D01*
X77626692Y-118705635D01*
X77846496Y-118646739D01*
X78052734Y-118550568D01*
X78239139Y-118420047D01*
X78400047Y-118259139D01*
X78469996Y-118159241D01*
X78512613Y-118098377D01*
X78556931Y-118059511D01*
X78614188Y-118045500D01*
X80320319Y-118045500D01*
X80377576Y-118059511D01*
X80421894Y-118098377D01*
X80509953Y-118224140D01*
X80670859Y-118385046D01*
X80789771Y-118468308D01*
X80857266Y-118515568D01*
X80915273Y-118542617D01*
X80967449Y-118588373D01*
X80986869Y-118654997D01*
X80967451Y-118721622D01*
X80915276Y-118767380D01*
X80857266Y-118794431D01*
X80670859Y-118924953D01*
X80509953Y-119085859D01*
X80397387Y-119246623D01*
X80353069Y-119285489D01*
X80295812Y-119299500D01*
X76595452Y-119299500D01*
X76547999Y-119290061D01*
X76507771Y-119263181D01*
X75552069Y-118307479D01*
X74570802Y-117326211D01*
X74557906Y-117310113D01*
X74506775Y-117262098D01*
X74503978Y-117259387D01*
X74484470Y-117239879D01*
X74481290Y-117237412D01*
X74472424Y-117229839D01*
X74440582Y-117199938D01*
X74423024Y-117190285D01*
X74406764Y-117179604D01*
X74390936Y-117167327D01*
X74350851Y-117149980D01*
X74340361Y-117144841D01*
X74302091Y-117123802D01*
X74282691Y-117118821D01*
X74264284Y-117112519D01*
X74245897Y-117104562D01*
X74202758Y-117097729D01*
X74191324Y-117095361D01*
X74149019Y-117084500D01*
X74128984Y-117084500D01*
X74109586Y-117082973D01*
X74102162Y-117081797D01*
X74089805Y-117079840D01*
X74089804Y-117079840D01*
X74056751Y-117082964D01*
X74046325Y-117083950D01*
X74034656Y-117084500D01*
X71690452Y-117084500D01*
X71642999Y-117075061D01*
X71602771Y-117048181D01*
X71208342Y-116653752D01*
X71179687Y-116608989D01*
X71172405Y-116556341D01*
X71187834Y-116505481D01*
X71223135Y-116465756D01*
X71349170Y-116374187D01*
X71475832Y-116233515D01*
X71570478Y-116069583D01*
X71628973Y-115889555D01*
X71648759Y-115701299D01*
X71634706Y-115567592D01*
X71641139Y-115513242D01*
X71670344Y-115466955D01*
X72933877Y-114203422D01*
X72989462Y-114171330D01*
X73053650Y-114171330D01*
X73109237Y-114203424D01*
X73170859Y-114265046D01*
X73357264Y-114395567D01*
X73357265Y-114395567D01*
X73357266Y-114395568D01*
X73563504Y-114491739D01*
X73783308Y-114550635D01*
X74010000Y-114570468D01*
X74236692Y-114550635D01*
X74456496Y-114491739D01*
X74662734Y-114395568D01*
X74849139Y-114265047D01*
X75010047Y-114104139D01*
X75140568Y-113917734D01*
X75236739Y-113711496D01*
X75295635Y-113491692D01*
X75315468Y-113265000D01*
X75309673Y-113198766D01*
X75316679Y-113145550D01*
X75345518Y-113100281D01*
X75645588Y-112800211D01*
X75651007Y-112795110D01*
X75694332Y-112756729D01*
X75727219Y-112709081D01*
X75731613Y-112703109D01*
X75767326Y-112657528D01*
X75771171Y-112648984D01*
X75782197Y-112629435D01*
X75783467Y-112627594D01*
X75787518Y-112621726D01*
X75808036Y-112567622D01*
X75810901Y-112560707D01*
X75834648Y-112507944D01*
X75834648Y-112507943D01*
X75834650Y-112507939D01*
X75836338Y-112498722D01*
X75842364Y-112477108D01*
X75845688Y-112468345D01*
X75852663Y-112410896D01*
X75853790Y-112403493D01*
X75864219Y-112346584D01*
X75860726Y-112288835D01*
X75860500Y-112281349D01*
X75860500Y-110007151D01*
X75860726Y-109999665D01*
X75861794Y-109982000D01*
X75864219Y-109941915D01*
X75853785Y-109884982D01*
X75852663Y-109877603D01*
X75845688Y-109820155D01*
X75845687Y-109820153D01*
X75845687Y-109820151D01*
X75842364Y-109811388D01*
X75836337Y-109789768D01*
X75834650Y-109780561D01*
X75810903Y-109727798D01*
X75808039Y-109720883D01*
X75787518Y-109666774D01*
X75782193Y-109659059D01*
X75771174Y-109639523D01*
X75767326Y-109630972D01*
X75731639Y-109585422D01*
X75727200Y-109579389D01*
X75694332Y-109531770D01*
X75651027Y-109493406D01*
X75645572Y-109488271D01*
X73900727Y-107743426D01*
X73895608Y-107737989D01*
X73857229Y-107694668D01*
X73809611Y-107661800D01*
X73803577Y-107657360D01*
X73785987Y-107643579D01*
X73758028Y-107621674D01*
X73756962Y-107621194D01*
X73749476Y-107617824D01*
X73729938Y-107606804D01*
X73722227Y-107601482D01*
X73668117Y-107580960D01*
X73661215Y-107578101D01*
X73635754Y-107566643D01*
X73608436Y-107554348D01*
X73599223Y-107552660D01*
X73577612Y-107546636D01*
X73568847Y-107543312D01*
X73511386Y-107536334D01*
X73503987Y-107535207D01*
X73447087Y-107524780D01*
X73391463Y-107528145D01*
X73389334Y-107528274D01*
X73381849Y-107528500D01*
X70702052Y-107528500D01*
X70645757Y-107514985D01*
X70601734Y-107477385D01*
X70579579Y-107423898D01*
X70584121Y-107366182D01*
X70614371Y-107316819D01*
X70923406Y-107007784D01*
X71288789Y-106642400D01*
X71304885Y-106629506D01*
X71306873Y-106627387D01*
X71306877Y-106627386D01*
X71352948Y-106578323D01*
X71355566Y-106575623D01*
X71375120Y-106556071D01*
X71377581Y-106552898D01*
X71385156Y-106544027D01*
X71415062Y-106512182D01*
X71424712Y-106494627D01*
X71435400Y-106478357D01*
X71447671Y-106462538D01*
X71447673Y-106462536D01*
X71465026Y-106422432D01*
X71470157Y-106411962D01*
X71491197Y-106373692D01*
X71496175Y-106354299D01*
X71502481Y-106335882D01*
X71504018Y-106332328D01*
X71510438Y-106317496D01*
X71517272Y-106274345D01*
X71519635Y-106262931D01*
X71530500Y-106220619D01*
X71530500Y-106200584D01*
X71532027Y-106181185D01*
X71535160Y-106161404D01*
X71531050Y-106117925D01*
X71530500Y-106106256D01*
X71530500Y-104204188D01*
X71544511Y-104146931D01*
X71583377Y-104102613D01*
X71657847Y-104050468D01*
X71744139Y-103990047D01*
X71905047Y-103829139D01*
X72035568Y-103642734D01*
X72131739Y-103436496D01*
X72190635Y-103216692D01*
X72210468Y-102990000D01*
X72190635Y-102763308D01*
X72131739Y-102543504D01*
X72035568Y-102337266D01*
X71972679Y-102247451D01*
X71905046Y-102150859D01*
X71744140Y-101989953D01*
X71557735Y-101859432D01*
X71351497Y-101763261D01*
X71131689Y-101704364D01*
X70905000Y-101684531D01*
X70678310Y-101704364D01*
X70458502Y-101763261D01*
X70252264Y-101859432D01*
X70065859Y-101989953D01*
X69904953Y-102150859D01*
X69774433Y-102337263D01*
X69747382Y-102395275D01*
X69701625Y-102447450D01*
X69635000Y-102466869D01*
X69568375Y-102447450D01*
X69522618Y-102395275D01*
X69495568Y-102337266D01*
X69446276Y-102266869D01*
X69365046Y-102150859D01*
X69204140Y-101989953D01*
X69017735Y-101859432D01*
X68827095Y-101770535D01*
X68774919Y-101724778D01*
X68755500Y-101658153D01*
X68755500Y-98589188D01*
X68769511Y-98531931D01*
X68808377Y-98487613D01*
X68969140Y-98375046D01*
X69130046Y-98214140D01*
X69260567Y-98027735D01*
X69260568Y-98027734D01*
X69356739Y-97821496D01*
X69415635Y-97601692D01*
X69435468Y-97375000D01*
X69415635Y-97148308D01*
X69356739Y-96928504D01*
X69260568Y-96722266D01*
X69130047Y-96535861D01*
X69130046Y-96535859D01*
X68969140Y-96374953D01*
X68808377Y-96262387D01*
X68769511Y-96218069D01*
X68755500Y-96160812D01*
X68755500Y-96049188D01*
X68769511Y-95991931D01*
X68808377Y-95947613D01*
X68969140Y-95835046D01*
X69130046Y-95674140D01*
X69229421Y-95532216D01*
X69260568Y-95487734D01*
X69356739Y-95281496D01*
X69415635Y-95061692D01*
X69435468Y-94835000D01*
X69415635Y-94608308D01*
X69356739Y-94388504D01*
X69260568Y-94182266D01*
X69230172Y-94138856D01*
X69130046Y-93995859D01*
X68969140Y-93834953D01*
X68782733Y-93704431D01*
X68724725Y-93677382D01*
X68672549Y-93631625D01*
X68653129Y-93565000D01*
X68672549Y-93498375D01*
X68724725Y-93452618D01*
X68745932Y-93442729D01*
X68782734Y-93425568D01*
X68969139Y-93295047D01*
X69130047Y-93134139D01*
X69260568Y-92947734D01*
X69260865Y-92947096D01*
X69261606Y-92946252D01*
X69266791Y-92938847D01*
X69267601Y-92939414D01*
X69306622Y-92894920D01*
X69373248Y-92875500D01*
X71585812Y-92875500D01*
X71643069Y-92889511D01*
X71687387Y-92928377D01*
X71799953Y-93089140D01*
X71960859Y-93250046D01*
X72147264Y-93380567D01*
X72147265Y-93380567D01*
X72147266Y-93380568D01*
X72353504Y-93476739D01*
X72573308Y-93535635D01*
X72800000Y-93555468D01*
X73026692Y-93535635D01*
X73246496Y-93476739D01*
X73452734Y-93380568D01*
X73639139Y-93250047D01*
X73800047Y-93089139D01*
X73930568Y-92902734D01*
X74026739Y-92696496D01*
X74085635Y-92476692D01*
X74105468Y-92250000D01*
X74085635Y-92023308D01*
X74026739Y-91803504D01*
X73930568Y-91597266D01*
X73882846Y-91529112D01*
X73800046Y-91410859D01*
X73639140Y-91249953D01*
X73452735Y-91119432D01*
X73246497Y-91023261D01*
X73026689Y-90964364D01*
X72799999Y-90944531D01*
X72573310Y-90964364D01*
X72353502Y-91023261D01*
X72147264Y-91119432D01*
X71960859Y-91249953D01*
X71799953Y-91410859D01*
X71687387Y-91571623D01*
X71643069Y-91610489D01*
X71585812Y-91624500D01*
X69312679Y-91624500D01*
X69255422Y-91610489D01*
X69211104Y-91571623D01*
X69130046Y-91455859D01*
X68969140Y-91294953D01*
X68782736Y-91164433D01*
X68724725Y-91137382D01*
X68724132Y-91137105D01*
X68671958Y-91091348D01*
X68652539Y-91024723D01*
X68671959Y-90958098D01*
X68724135Y-90912342D01*
X68782479Y-90885135D01*
X68968819Y-90754658D01*
X69129658Y-90593819D01*
X69260134Y-90407480D01*
X69356266Y-90201326D01*
X69408872Y-90005000D01*
X66851128Y-90005000D01*
X66903733Y-90201326D01*
X66999865Y-90407480D01*
X67130341Y-90593819D01*
X67291180Y-90754658D01*
X67477519Y-90885134D01*
X67535865Y-90912342D01*
X67588040Y-90958099D01*
X67607460Y-91024723D01*
X67588041Y-91091348D01*
X67535866Y-91137105D01*
X67477267Y-91164430D01*
X67290859Y-91294953D01*
X67129953Y-91455859D01*
X67017387Y-91616623D01*
X66973069Y-91655489D01*
X66915812Y-91669500D01*
X66305453Y-91669500D01*
X66258000Y-91660061D01*
X66217772Y-91633181D01*
X65459532Y-90874941D01*
X65440481Y-90850380D01*
X65438170Y-90846473D01*
X65424000Y-90832303D01*
X65411368Y-90817512D01*
X65399596Y-90801310D01*
X65399594Y-90801307D01*
X65365935Y-90773462D01*
X65357305Y-90765608D01*
X64321819Y-89730122D01*
X64294939Y-89689894D01*
X64285500Y-89642441D01*
X64285500Y-79325638D01*
X64287764Y-79305131D01*
X64285561Y-79235021D01*
X64285500Y-79231126D01*
X64285500Y-79203547D01*
X64284997Y-79199566D01*
X64284080Y-79187913D01*
X64282709Y-79144267D01*
X64277120Y-79125034D01*
X64273174Y-79105976D01*
X64270664Y-79086100D01*
X64254588Y-79045498D01*
X64250804Y-79034447D01*
X64244881Y-79014062D01*
X64238618Y-78992504D01*
X64228414Y-78975249D01*
X64219861Y-78957789D01*
X64212486Y-78939163D01*
X64212486Y-78939162D01*
X64186808Y-78903819D01*
X64180401Y-78894065D01*
X64158169Y-78856473D01*
X64144006Y-78842310D01*
X64131367Y-78827511D01*
X64119595Y-78811307D01*
X64085941Y-78783467D01*
X64077299Y-78775603D01*
X62931819Y-77630122D01*
X62904939Y-77589894D01*
X62895500Y-77542441D01*
X62895500Y-76471927D01*
X62911047Y-76411810D01*
X62953790Y-76366769D01*
X63013011Y-76348097D01*
X63073859Y-76360477D01*
X63121075Y-76400804D01*
X63199953Y-76513455D01*
X63360859Y-76674361D01*
X63547264Y-76804882D01*
X63547265Y-76804882D01*
X63547266Y-76804883D01*
X63753504Y-76901054D01*
X63973308Y-76959950D01*
X64124435Y-76973171D01*
X64199999Y-76979783D01*
X64199999Y-76979782D01*
X64200000Y-76979783D01*
X64426692Y-76959950D01*
X64646496Y-76901054D01*
X64852734Y-76804883D01*
X65039139Y-76674362D01*
X65200047Y-76513454D01*
X65330568Y-76327049D01*
X65426739Y-76120811D01*
X65485635Y-75901007D01*
X65505468Y-75674315D01*
X65485635Y-75447623D01*
X65426739Y-75227819D01*
X65330568Y-75021581D01*
X65327930Y-75017814D01*
X65200046Y-74835174D01*
X65039140Y-74674268D01*
X65014537Y-74657041D01*
X64975399Y-74612199D01*
X64961666Y-74554285D01*
X64976500Y-74496643D01*
X65016485Y-74452554D01*
X65072406Y-74432176D01*
X65107483Y-74428406D01*
X65242331Y-74378111D01*
X65357546Y-74291861D01*
X65443796Y-74176646D01*
X65494091Y-74041798D01*
X65500500Y-73982188D01*
X65500499Y-72286443D01*
X65494091Y-72226832D01*
X65443796Y-72091984D01*
X65357546Y-71976769D01*
X65242331Y-71890519D01*
X65107483Y-71840224D01*
X65047873Y-71833815D01*
X65047869Y-71833815D01*
X63352130Y-71833815D01*
X63292515Y-71840224D01*
X63157669Y-71890519D01*
X63042454Y-71976769D01*
X62956204Y-72091983D01*
X62905909Y-72226830D01*
X62905909Y-72226832D01*
X62900188Y-72280051D01*
X62899500Y-72286446D01*
X62899500Y-73883176D01*
X62890061Y-73930629D01*
X62863180Y-73970857D01*
X62680459Y-74153580D01*
X62657181Y-74176858D01*
X62607818Y-74207108D01*
X62550102Y-74211650D01*
X62496615Y-74189495D01*
X62459015Y-74145472D01*
X62445500Y-74089177D01*
X62445500Y-70081163D01*
X62454939Y-70033710D01*
X62481819Y-69993482D01*
X63041527Y-69433774D01*
X64740588Y-67734711D01*
X64746007Y-67729610D01*
X64789332Y-67691229D01*
X64822219Y-67643581D01*
X64826613Y-67637609D01*
X64862326Y-67592028D01*
X64866171Y-67583484D01*
X64877197Y-67563935D01*
X64878467Y-67562094D01*
X64882518Y-67556226D01*
X64903036Y-67502122D01*
X64905901Y-67495207D01*
X64929648Y-67442444D01*
X64929648Y-67442443D01*
X64929650Y-67442439D01*
X64931338Y-67433222D01*
X64937364Y-67411608D01*
X64940688Y-67402845D01*
X64947663Y-67345396D01*
X64948790Y-67337993D01*
X64959219Y-67281084D01*
X64955726Y-67223335D01*
X64955500Y-67215849D01*
X64955500Y-59111163D01*
X64964939Y-59063710D01*
X64991819Y-59023482D01*
X66373482Y-57641819D01*
X66413710Y-57614939D01*
X66461163Y-57605500D01*
X67975822Y-57605500D01*
X68033079Y-57619511D01*
X68077397Y-57658377D01*
X68154953Y-57769140D01*
X68315859Y-57930046D01*
X68502264Y-58060567D01*
X68502265Y-58060567D01*
X68502266Y-58060568D01*
X68708504Y-58156739D01*
X68928308Y-58215635D01*
X69155000Y-58235468D01*
X69381692Y-58215635D01*
X69601496Y-58156739D01*
X69807734Y-58060568D01*
X69994139Y-57930047D01*
X70155047Y-57769139D01*
X70285568Y-57582734D01*
X70312618Y-57524724D01*
X70358375Y-57472549D01*
X70425000Y-57453129D01*
X70491625Y-57472549D01*
X70537382Y-57524725D01*
X70564431Y-57582733D01*
X70694953Y-57769140D01*
X70855859Y-57930046D01*
X71042264Y-58060567D01*
X71042265Y-58060567D01*
X71042266Y-58060568D01*
X71248504Y-58156739D01*
X71468308Y-58215635D01*
X71695000Y-58235468D01*
X71921692Y-58215635D01*
X72141496Y-58156739D01*
X72347734Y-58060568D01*
X72534139Y-57930047D01*
X72695047Y-57769139D01*
X72725391Y-57725801D01*
X72772603Y-57658377D01*
X72816921Y-57619511D01*
X72874178Y-57605500D01*
X73800822Y-57605500D01*
X73858079Y-57619511D01*
X73902397Y-57658377D01*
X73979953Y-57769140D01*
X74140859Y-57930046D01*
X74327264Y-58060567D01*
X74327265Y-58060567D01*
X74327266Y-58060568D01*
X74533504Y-58156739D01*
X74753308Y-58215635D01*
X74980000Y-58235468D01*
X75206692Y-58215635D01*
X75426496Y-58156739D01*
X75632734Y-58060568D01*
X75819139Y-57930047D01*
X75980047Y-57769139D01*
X76110568Y-57582734D01*
X76137893Y-57524134D01*
X76183649Y-57471959D01*
X76250274Y-57452539D01*
X76316899Y-57471958D01*
X76362657Y-57524133D01*
X76389867Y-57582485D01*
X76440972Y-57655471D01*
X76440974Y-57655472D01*
X77166446Y-56930001D01*
X77166446Y-56930000D01*
X76440973Y-56204526D01*
X76440973Y-56204527D01*
X76389865Y-56277517D01*
X76362657Y-56335865D01*
X76316900Y-56388041D01*
X76250275Y-56407460D01*
X76183650Y-56388040D01*
X76137893Y-56335865D01*
X76133983Y-56327481D01*
X76110568Y-56277266D01*
X76107327Y-56272638D01*
X75980046Y-56090859D01*
X75819140Y-55929953D01*
X75706344Y-55850973D01*
X76794526Y-55850973D01*
X77520000Y-56576446D01*
X77520001Y-56576446D01*
X78245472Y-55850974D01*
X78245471Y-55850972D01*
X78172484Y-55799866D01*
X77966326Y-55703733D01*
X77746602Y-55644858D01*
X77520000Y-55625033D01*
X77293397Y-55644858D01*
X77073672Y-55703733D01*
X76867516Y-55799865D01*
X76794527Y-55850973D01*
X76794526Y-55850973D01*
X75706344Y-55850973D01*
X75632735Y-55799432D01*
X75426497Y-55703261D01*
X75206689Y-55644364D01*
X74980000Y-55624531D01*
X74753310Y-55644364D01*
X74533502Y-55703261D01*
X74327264Y-55799432D01*
X74140859Y-55929953D01*
X73979953Y-56090859D01*
X73902397Y-56201623D01*
X73858079Y-56240489D01*
X73800822Y-56254500D01*
X72874178Y-56254500D01*
X72816921Y-56240489D01*
X72772603Y-56201623D01*
X72695046Y-56090859D01*
X72534140Y-55929953D01*
X72347735Y-55799432D01*
X72141497Y-55703261D01*
X71921689Y-55644364D01*
X71695000Y-55624531D01*
X71468310Y-55644364D01*
X71248502Y-55703261D01*
X71042264Y-55799432D01*
X70855859Y-55929953D01*
X70694953Y-56090859D01*
X70564433Y-56277263D01*
X70537382Y-56335275D01*
X70491625Y-56387450D01*
X70425000Y-56406869D01*
X70358375Y-56387450D01*
X70312618Y-56335275D01*
X70298796Y-56305634D01*
X70285568Y-56277266D01*
X70282327Y-56272638D01*
X70197925Y-56152098D01*
X70181239Y-56118262D01*
X70175500Y-56080975D01*
X70175500Y-51110022D01*
X70194506Y-51044050D01*
X70245699Y-50998302D01*
X70352634Y-50946805D01*
X70563217Y-50803232D01*
X70750050Y-50629877D01*
X70908959Y-50430612D01*
X71011367Y-50253234D01*
X71037772Y-50207500D01*
X71083159Y-50162113D01*
X71145159Y-50145500D01*
X72310389Y-50145500D01*
X72372389Y-50162113D01*
X72417776Y-50207500D01*
X72432224Y-50261421D01*
X72433679Y-50261265D01*
X72440797Y-50327484D01*
X72464244Y-50390348D01*
X72491092Y-50462331D01*
X72577342Y-50577546D01*
X72692557Y-50663796D01*
X72827405Y-50714091D01*
X72887015Y-50720500D01*
X74582760Y-50720499D01*
X74642371Y-50714091D01*
X74777219Y-50663796D01*
X74892434Y-50577546D01*
X74951214Y-50499026D01*
X75509414Y-50499026D01*
X75582403Y-50550133D01*
X75788561Y-50646266D01*
X76008285Y-50705141D01*
X76234888Y-50724966D01*
X76461490Y-50705141D01*
X76681214Y-50646266D01*
X76887368Y-50550134D01*
X76960360Y-50499025D01*
X76234889Y-49773553D01*
X76234888Y-49773553D01*
X75509414Y-50499025D01*
X75509414Y-50499026D01*
X74951214Y-50499026D01*
X74978684Y-50462331D01*
X75028979Y-50327483D01*
X75035388Y-50267873D01*
X75035387Y-50267868D01*
X75036098Y-50261265D01*
X75037888Y-50261457D01*
X75053839Y-50205173D01*
X75103728Y-50159448D01*
X75150918Y-50150415D01*
X75881334Y-49420001D01*
X76588441Y-49420001D01*
X77313913Y-50145472D01*
X77365022Y-50072480D01*
X77461154Y-49866326D01*
X77520029Y-49646602D01*
X77539854Y-49420000D01*
X77520029Y-49193397D01*
X77461154Y-48973673D01*
X77365021Y-48767515D01*
X77313913Y-48694526D01*
X76588441Y-49420000D01*
X76588441Y-49420001D01*
X75881334Y-49420001D01*
X75881334Y-49420000D01*
X75150919Y-48689584D01*
X75103737Y-48680556D01*
X75053849Y-48634842D01*
X75037882Y-48578543D01*
X75036097Y-48578735D01*
X75034339Y-48562378D01*
X75028979Y-48512517D01*
X74978684Y-48377669D01*
X74951213Y-48340973D01*
X75509414Y-48340973D01*
X76234888Y-49066446D01*
X76234889Y-49066446D01*
X76960360Y-48340974D01*
X76960359Y-48340972D01*
X76887372Y-48289866D01*
X76681214Y-48193733D01*
X76461490Y-48134858D01*
X76234888Y-48115033D01*
X76008285Y-48134858D01*
X75788560Y-48193733D01*
X75582404Y-48289865D01*
X75509415Y-48340973D01*
X75509414Y-48340973D01*
X74951213Y-48340973D01*
X74892434Y-48262454D01*
X74777219Y-48176204D01*
X74642371Y-48125909D01*
X74582761Y-48119500D01*
X74582757Y-48119500D01*
X74534388Y-48119500D01*
X74472388Y-48102887D01*
X74427001Y-48057500D01*
X74410388Y-47995500D01*
X74410388Y-46126275D01*
X74419827Y-46078822D01*
X74446707Y-46038594D01*
X78893482Y-41591819D01*
X78933710Y-41564939D01*
X78981163Y-41555500D01*
X81159783Y-41555500D01*
X81217040Y-41569511D01*
G37*
%TD.AperFunction*%
%TA.AperFunction,Conductor*%
G36*
X64158079Y-136624511D02*
G01*
X64202397Y-136663377D01*
X64279953Y-136774140D01*
X64440859Y-136935046D01*
X64532232Y-136999025D01*
X64627266Y-137065568D01*
X64685275Y-137092618D01*
X64737450Y-137138375D01*
X64756869Y-137205000D01*
X64737450Y-137271625D01*
X64685275Y-137317382D01*
X64627263Y-137344433D01*
X64440859Y-137474953D01*
X64279953Y-137635859D01*
X64149432Y-137822264D01*
X64053261Y-138028502D01*
X63994364Y-138248310D01*
X63974531Y-138474999D01*
X63994364Y-138701689D01*
X64053261Y-138921497D01*
X64149432Y-139127735D01*
X64279953Y-139314140D01*
X64440859Y-139475046D01*
X64621308Y-139601396D01*
X64627266Y-139605568D01*
X64685275Y-139632618D01*
X64737450Y-139678375D01*
X64756869Y-139745000D01*
X64737450Y-139811625D01*
X64685275Y-139857382D01*
X64627263Y-139884433D01*
X64440859Y-140014953D01*
X64337883Y-140117930D01*
X64282296Y-140150024D01*
X64218108Y-140150024D01*
X64162521Y-140117930D01*
X63431819Y-139387228D01*
X63404939Y-139347000D01*
X63395500Y-139299547D01*
X63395500Y-136734500D01*
X63412113Y-136672500D01*
X63457500Y-136627113D01*
X63519500Y-136610500D01*
X64100822Y-136610500D01*
X64158079Y-136624511D01*
G37*
%TD.AperFunction*%
%TA.AperFunction,Conductor*%
G36*
X64158079Y-126464511D02*
G01*
X64202397Y-126503377D01*
X64279953Y-126614140D01*
X64440859Y-126775046D01*
X64597689Y-126884858D01*
X64627266Y-126905568D01*
X64685275Y-126932618D01*
X64737450Y-126978375D01*
X64756869Y-127045000D01*
X64737450Y-127111625D01*
X64685275Y-127157382D01*
X64627263Y-127184433D01*
X64440859Y-127314953D01*
X64279953Y-127475859D01*
X64149432Y-127662264D01*
X64053261Y-127868502D01*
X63994364Y-128088310D01*
X63974531Y-128315000D01*
X63994364Y-128541689D01*
X64053261Y-128761497D01*
X64149432Y-128967735D01*
X64279953Y-129154140D01*
X64440859Y-129315046D01*
X64601623Y-129427613D01*
X64640489Y-129471931D01*
X64654500Y-129529188D01*
X64654500Y-129640812D01*
X64640489Y-129698069D01*
X64601623Y-129742387D01*
X64440859Y-129854953D01*
X64279953Y-130015859D01*
X64149432Y-130202264D01*
X64053261Y-130408502D01*
X63994364Y-130628310D01*
X63974531Y-130855000D01*
X63994364Y-131081689D01*
X64053261Y-131301497D01*
X64149432Y-131507735D01*
X64279953Y-131694140D01*
X64440859Y-131855046D01*
X64533690Y-131920046D01*
X64627266Y-131985568D01*
X64685275Y-132012618D01*
X64737450Y-132058375D01*
X64756869Y-132125000D01*
X64737450Y-132191625D01*
X64685275Y-132237382D01*
X64627263Y-132264433D01*
X64440859Y-132394953D01*
X64279953Y-132555859D01*
X64149432Y-132742264D01*
X64053261Y-132948502D01*
X63994364Y-133168310D01*
X63974531Y-133395000D01*
X63994364Y-133621689D01*
X64053261Y-133841497D01*
X64149432Y-134047735D01*
X64279953Y-134234140D01*
X64440859Y-134395046D01*
X64476565Y-134420047D01*
X64627266Y-134525568D01*
X64685275Y-134552618D01*
X64737450Y-134598375D01*
X64756869Y-134665000D01*
X64737450Y-134731625D01*
X64685275Y-134777382D01*
X64627263Y-134804433D01*
X64440859Y-134934953D01*
X64279953Y-135095859D01*
X64202397Y-135206623D01*
X64158079Y-135245489D01*
X64100822Y-135259500D01*
X63573269Y-135259500D01*
X63525816Y-135250061D01*
X63485588Y-135223181D01*
X62048925Y-133786518D01*
X62022045Y-133746290D01*
X62012606Y-133698837D01*
X62012606Y-133184057D01*
X62022045Y-133136604D01*
X62048922Y-133096378D01*
X62330604Y-132814695D01*
X62336007Y-132809610D01*
X62379332Y-132771229D01*
X62412219Y-132723581D01*
X62416613Y-132717609D01*
X62452326Y-132672028D01*
X62456171Y-132663484D01*
X62467197Y-132643935D01*
X62468467Y-132642094D01*
X62472518Y-132636226D01*
X62493036Y-132582122D01*
X62495901Y-132575207D01*
X62519648Y-132522444D01*
X62519648Y-132522443D01*
X62519650Y-132522439D01*
X62521338Y-132513222D01*
X62527364Y-132491608D01*
X62530688Y-132482845D01*
X62537663Y-132425396D01*
X62538790Y-132417993D01*
X62541782Y-132401665D01*
X62549219Y-132361085D01*
X62548002Y-132340972D01*
X62545726Y-132303335D01*
X62545500Y-132295849D01*
X62545500Y-127491163D01*
X62554939Y-127443710D01*
X62581819Y-127403482D01*
X63498482Y-126486819D01*
X63538710Y-126459939D01*
X63586163Y-126450500D01*
X64100822Y-126450500D01*
X64158079Y-126464511D01*
G37*
%TD.AperFunction*%
%TA.AperFunction,Conductor*%
G36*
X60617501Y-119092113D02*
G01*
X60662888Y-119137500D01*
X60679501Y-119199500D01*
X60679501Y-119247870D01*
X60685909Y-119307484D01*
X60700922Y-119347735D01*
X60736204Y-119442331D01*
X60822454Y-119557546D01*
X60937669Y-119643796D01*
X61072517Y-119694091D01*
X61107594Y-119697862D01*
X61163513Y-119718239D01*
X61203497Y-119762327D01*
X61218332Y-119819968D01*
X61204600Y-119877881D01*
X61165464Y-119922724D01*
X61140860Y-119939952D01*
X60979953Y-120100859D01*
X60849432Y-120287264D01*
X60753261Y-120493502D01*
X60694364Y-120713310D01*
X60674531Y-120940000D01*
X60694364Y-121166689D01*
X60753261Y-121386497D01*
X60849432Y-121592735D01*
X60979953Y-121779140D01*
X61140859Y-121940046D01*
X61327264Y-122070567D01*
X61327265Y-122070567D01*
X61327266Y-122070568D01*
X61533504Y-122166739D01*
X61753308Y-122225635D01*
X61980000Y-122245468D01*
X62206692Y-122225635D01*
X62426496Y-122166739D01*
X62632734Y-122070568D01*
X62819139Y-121940047D01*
X62980047Y-121779139D01*
X63092612Y-121618377D01*
X63136931Y-121579511D01*
X63194188Y-121565500D01*
X64487031Y-121565500D01*
X64539435Y-121577118D01*
X64582020Y-121609794D01*
X64606806Y-121657406D01*
X64613261Y-121681497D01*
X64709432Y-121887735D01*
X64839953Y-122074140D01*
X65000859Y-122235046D01*
X65187264Y-122365567D01*
X65187265Y-122365567D01*
X65187266Y-122365568D01*
X65393504Y-122461739D01*
X65613308Y-122520635D01*
X65840000Y-122540468D01*
X66066692Y-122520635D01*
X66286496Y-122461739D01*
X66492734Y-122365568D01*
X66679139Y-122235047D01*
X66840047Y-122074139D01*
X66914728Y-121967483D01*
X66952613Y-121913377D01*
X66996931Y-121874511D01*
X67054188Y-121860500D01*
X68805500Y-121860500D01*
X68867500Y-121877113D01*
X68912887Y-121922500D01*
X68929500Y-121984500D01*
X68929500Y-128809548D01*
X68920061Y-128857001D01*
X68893181Y-128897229D01*
X66792819Y-130997589D01*
X66741392Y-131028490D01*
X66681477Y-131031630D01*
X66627102Y-131006274D01*
X66590995Y-130958358D01*
X66581610Y-130899100D01*
X66585468Y-130854999D01*
X66565635Y-130628310D01*
X66565635Y-130628308D01*
X66506739Y-130408504D01*
X66410568Y-130202266D01*
X66397591Y-130183733D01*
X66280046Y-130015859D01*
X66119140Y-129854953D01*
X65958377Y-129742387D01*
X65919511Y-129698069D01*
X65905500Y-129640812D01*
X65905500Y-129529188D01*
X65919511Y-129471931D01*
X65958377Y-129427613D01*
X66066233Y-129352092D01*
X66119139Y-129315047D01*
X66280047Y-129154139D01*
X66410568Y-128967734D01*
X66506739Y-128761496D01*
X66565635Y-128541692D01*
X66585468Y-128315000D01*
X66565635Y-128088308D01*
X66506739Y-127868504D01*
X66410568Y-127662266D01*
X66345830Y-127569810D01*
X66280046Y-127475859D01*
X66119140Y-127314953D01*
X65932736Y-127184433D01*
X65926710Y-127181623D01*
X65874722Y-127157380D01*
X65822548Y-127111623D01*
X65803129Y-127044997D01*
X65822549Y-126978372D01*
X65874721Y-126932619D01*
X65932734Y-126905568D01*
X66119139Y-126775047D01*
X66280047Y-126614139D01*
X66410568Y-126427734D01*
X66506739Y-126221496D01*
X66565635Y-126001692D01*
X66585468Y-125775000D01*
X66565635Y-125548308D01*
X66506739Y-125328504D01*
X66410568Y-125122266D01*
X66407327Y-125117638D01*
X66280046Y-124935859D01*
X66119140Y-124774953D01*
X65932735Y-124644432D01*
X65726497Y-124548261D01*
X65506689Y-124489364D01*
X65280000Y-124469531D01*
X65053310Y-124489364D01*
X64833502Y-124548261D01*
X64627264Y-124644432D01*
X64440859Y-124774953D01*
X64279953Y-124935859D01*
X64202397Y-125046623D01*
X64158079Y-125085489D01*
X64100822Y-125099500D01*
X63279151Y-125099500D01*
X63271665Y-125099274D01*
X63269385Y-125099136D01*
X63213912Y-125095780D01*
X63157011Y-125106207D01*
X63149612Y-125107333D01*
X63092157Y-125114310D01*
X63083383Y-125117638D01*
X63061776Y-125123661D01*
X63052562Y-125125349D01*
X62999782Y-125149102D01*
X62992868Y-125151965D01*
X62938775Y-125172481D01*
X62931058Y-125177807D01*
X62911524Y-125188824D01*
X62902973Y-125192673D01*
X62857417Y-125228363D01*
X62851387Y-125232800D01*
X62803770Y-125265668D01*
X62765406Y-125308972D01*
X62760273Y-125314424D01*
X61409424Y-126665273D01*
X61403972Y-126670406D01*
X61360668Y-126708770D01*
X61327800Y-126756387D01*
X61323363Y-126762417D01*
X61287673Y-126807973D01*
X61283824Y-126816524D01*
X61272807Y-126836058D01*
X61267481Y-126843775D01*
X61246965Y-126897868D01*
X61244102Y-126904782D01*
X61220349Y-126957562D01*
X61218661Y-126966776D01*
X61212638Y-126988383D01*
X61209310Y-126997157D01*
X61202333Y-127054612D01*
X61201207Y-127062011D01*
X61190780Y-127118912D01*
X61194274Y-127176664D01*
X61194500Y-127184151D01*
X61194500Y-131988837D01*
X61185061Y-132036290D01*
X61158183Y-132076515D01*
X60945266Y-132289432D01*
X60876530Y-132358168D01*
X60871078Y-132363300D01*
X60827774Y-132401664D01*
X60794906Y-132449281D01*
X60790469Y-132455311D01*
X60754779Y-132500867D01*
X60750930Y-132509418D01*
X60739913Y-132528952D01*
X60734587Y-132536669D01*
X60714071Y-132590762D01*
X60711208Y-132597676D01*
X60687455Y-132650456D01*
X60685767Y-132659670D01*
X60679744Y-132681277D01*
X60676416Y-132690051D01*
X60669439Y-132747506D01*
X60668313Y-132754905D01*
X60657886Y-132811806D01*
X60661380Y-132869558D01*
X60661606Y-132877045D01*
X60661606Y-133190500D01*
X60644993Y-133252500D01*
X60599606Y-133297887D01*
X60537606Y-133314500D01*
X59072050Y-133314500D01*
X59013199Y-133299645D01*
X58968449Y-133258638D01*
X58948522Y-133201306D01*
X58945635Y-133168309D01*
X58937140Y-133136604D01*
X58886739Y-132948504D01*
X58790568Y-132742266D01*
X58777509Y-132723616D01*
X58660046Y-132555859D01*
X58499140Y-132394953D01*
X58312733Y-132264431D01*
X58254725Y-132237382D01*
X58202549Y-132191625D01*
X58183129Y-132125000D01*
X58202549Y-132058375D01*
X58254725Y-132012618D01*
X58312734Y-131985568D01*
X58499139Y-131855047D01*
X58660047Y-131694139D01*
X58774806Y-131530243D01*
X58817407Y-131492290D01*
X58849065Y-131483750D01*
X58848580Y-131482081D01*
X58863625Y-131477709D01*
X58863627Y-131477709D01*
X58882859Y-131472120D01*
X58901918Y-131468174D01*
X58908196Y-131467381D01*
X58921792Y-131465664D01*
X58962407Y-131449582D01*
X58973444Y-131445803D01*
X59015390Y-131433618D01*
X59032629Y-131423422D01*
X59050102Y-131414862D01*
X59068732Y-131407486D01*
X59104064Y-131381814D01*
X59113830Y-131375400D01*
X59115622Y-131374340D01*
X59151420Y-131353170D01*
X59165585Y-131339004D01*
X59180373Y-131326373D01*
X59196587Y-131314594D01*
X59224438Y-131280926D01*
X59232279Y-131272309D01*
X59923786Y-130580802D01*
X59939887Y-130567904D01*
X59941874Y-130565787D01*
X59941877Y-130565786D01*
X59987932Y-130516741D01*
X59990613Y-130513976D01*
X59998803Y-130505786D01*
X60010120Y-130494470D01*
X60012581Y-130491295D01*
X60020152Y-130482431D01*
X60050062Y-130450582D01*
X60059713Y-130433026D01*
X60070393Y-130416767D01*
X60082674Y-130400936D01*
X60100018Y-130360851D01*
X60105160Y-130350356D01*
X60106846Y-130347289D01*
X60126197Y-130312092D01*
X60131178Y-130292688D01*
X60137480Y-130274283D01*
X60145438Y-130255895D01*
X60152270Y-130212748D01*
X60154639Y-130201316D01*
X60165500Y-130159020D01*
X60165500Y-130138984D01*
X60167027Y-130119585D01*
X60170160Y-130099804D01*
X60166050Y-130056325D01*
X60165500Y-130044656D01*
X60165500Y-122577059D01*
X60167764Y-122556552D01*
X60167562Y-122550134D01*
X60165561Y-122486442D01*
X60165500Y-122482547D01*
X60165500Y-122454968D01*
X60164997Y-122450987D01*
X60164080Y-122439334D01*
X60163551Y-122422500D01*
X60162709Y-122395688D01*
X60157120Y-122376455D01*
X60153174Y-122357397D01*
X60150664Y-122337521D01*
X60134588Y-122296919D01*
X60130804Y-122285868D01*
X60120689Y-122251054D01*
X60118618Y-122243925D01*
X60108414Y-122226670D01*
X60099861Y-122209210D01*
X60094093Y-122194642D01*
X60092486Y-122190583D01*
X60066808Y-122155240D01*
X60060401Y-122145486D01*
X60055817Y-122137735D01*
X60038170Y-122107895D01*
X60024005Y-122093730D01*
X60011367Y-122078932D01*
X59999595Y-122062728D01*
X59965941Y-122034888D01*
X59957299Y-122027024D01*
X59369413Y-121439137D01*
X59337319Y-121383549D01*
X59337319Y-121319362D01*
X59355635Y-121251007D01*
X59375468Y-121024315D01*
X59355635Y-120797623D01*
X59296739Y-120577819D01*
X59200568Y-120371581D01*
X59200509Y-120371497D01*
X59070046Y-120185174D01*
X58909140Y-120024268D01*
X58884537Y-120007041D01*
X58845399Y-119962199D01*
X58831666Y-119904285D01*
X58846500Y-119846643D01*
X58886485Y-119802554D01*
X58942406Y-119782176D01*
X58977483Y-119778406D01*
X59112331Y-119728111D01*
X59227546Y-119641861D01*
X59313796Y-119526646D01*
X59364091Y-119391798D01*
X59370500Y-119332188D01*
X59370500Y-119199500D01*
X59387113Y-119137500D01*
X59432500Y-119092113D01*
X59494500Y-119075500D01*
X60555501Y-119075500D01*
X60617501Y-119092113D01*
G37*
%TD.AperFunction*%
%TA.AperFunction,Conductor*%
G36*
X64043385Y-104191846D02*
G01*
X64080985Y-104235869D01*
X64094500Y-104292164D01*
X64094500Y-105441557D01*
X64093595Y-105456508D01*
X64089333Y-105491599D01*
X64088207Y-105499000D01*
X64083394Y-105525263D01*
X64061375Y-105576301D01*
X64019271Y-105612591D01*
X63965545Y-105626843D01*
X63910990Y-105616191D01*
X63784694Y-105559960D01*
X63599542Y-105520606D01*
X63599540Y-105520606D01*
X63410248Y-105520606D01*
X63410246Y-105520606D01*
X63225091Y-105559961D01*
X63052163Y-105636954D01*
X62899023Y-105748216D01*
X62772360Y-105888889D01*
X62677714Y-106052821D01*
X62619220Y-106232848D01*
X62599434Y-106421105D01*
X62619220Y-106609363D01*
X62677714Y-106789390D01*
X62772360Y-106953322D01*
X62899023Y-107093995D01*
X63052163Y-107205257D01*
X63225091Y-107282250D01*
X63410246Y-107321606D01*
X63410248Y-107321606D01*
X63469442Y-107321606D01*
X63516895Y-107331045D01*
X63557123Y-107357925D01*
X66564985Y-110365787D01*
X66577886Y-110381889D01*
X66580000Y-110383874D01*
X66580002Y-110383877D01*
X66614814Y-110416568D01*
X66629028Y-110429916D01*
X66631823Y-110432625D01*
X66651318Y-110452120D01*
X66654492Y-110454582D01*
X66663356Y-110462153D01*
X66695206Y-110492062D01*
X66705702Y-110497832D01*
X66712762Y-110501714D01*
X66729019Y-110512392D01*
X66744852Y-110524674D01*
X66760973Y-110531649D01*
X66784944Y-110542023D01*
X66795431Y-110547160D01*
X66833696Y-110568197D01*
X66853104Y-110573180D01*
X66871498Y-110579478D01*
X66889893Y-110587438D01*
X66933042Y-110594271D01*
X66944468Y-110596638D01*
X66960010Y-110600629D01*
X66986768Y-110607500D01*
X66986769Y-110607500D01*
X67006804Y-110607500D01*
X67026201Y-110609026D01*
X67045984Y-110612160D01*
X67089462Y-110608050D01*
X67101132Y-110607500D01*
X69400253Y-110607500D01*
X69450688Y-110618220D01*
X69492401Y-110648526D01*
X69498129Y-110654888D01*
X69651270Y-110766151D01*
X69651271Y-110766151D01*
X69651272Y-110766152D01*
X69824197Y-110843144D01*
X70009352Y-110882500D01*
X70009354Y-110882500D01*
X70198646Y-110882500D01*
X70198648Y-110882500D01*
X70322083Y-110856262D01*
X70383803Y-110843144D01*
X70556730Y-110766151D01*
X70613370Y-110725000D01*
X70709870Y-110654889D01*
X70715598Y-110648528D01*
X70836533Y-110514216D01*
X70931179Y-110350284D01*
X70989674Y-110170256D01*
X71009460Y-109982000D01*
X70989674Y-109793744D01*
X70931179Y-109613716D01*
X70927152Y-109601321D01*
X70928309Y-109600944D01*
X70915596Y-109553503D01*
X70932208Y-109491502D01*
X70977595Y-109446113D01*
X71039596Y-109429500D01*
X71707837Y-109429500D01*
X71755290Y-109438939D01*
X71795518Y-109465819D01*
X72695643Y-110365944D01*
X72727736Y-110421529D01*
X72727738Y-110485713D01*
X72724364Y-110498304D01*
X72704531Y-110725000D01*
X72724364Y-110951689D01*
X72783261Y-111171497D01*
X72879432Y-111377735D01*
X73009953Y-111564140D01*
X73170859Y-111725046D01*
X73357263Y-111855566D01*
X73357266Y-111855568D01*
X73415275Y-111882618D01*
X73467450Y-111928375D01*
X73486869Y-111995000D01*
X73467450Y-112061625D01*
X73415275Y-112107382D01*
X73357263Y-112134433D01*
X73170860Y-112264953D01*
X73009956Y-112425857D01*
X73009953Y-112425860D01*
X73009953Y-112425861D01*
X72937792Y-112528918D01*
X72930405Y-112539468D01*
X72895804Y-112572701D01*
X72851179Y-112590313D01*
X72834999Y-112593278D01*
X72819010Y-112596208D01*
X72811612Y-112597333D01*
X72754157Y-112604310D01*
X72745383Y-112607638D01*
X72723776Y-112613661D01*
X72714560Y-112615350D01*
X72661796Y-112639096D01*
X72654882Y-112641960D01*
X72600771Y-112662482D01*
X72593053Y-112667810D01*
X72573514Y-112678830D01*
X72564971Y-112682675D01*
X72519419Y-112718361D01*
X72513391Y-112722797D01*
X72465771Y-112755668D01*
X72427414Y-112798963D01*
X72422281Y-112804415D01*
X70341035Y-114885662D01*
X70303794Y-114911258D01*
X70290570Y-114917146D01*
X70137428Y-115028409D01*
X70010766Y-115169081D01*
X69986482Y-115211143D01*
X69947985Y-115252245D01*
X69895280Y-115272081D01*
X69839236Y-115266561D01*
X69791414Y-115236823D01*
X69421819Y-114867228D01*
X69394939Y-114827000D01*
X69385500Y-114779547D01*
X69385500Y-114675227D01*
X69399511Y-114617970D01*
X69438374Y-114573653D01*
X69631401Y-114438495D01*
X69798495Y-114271401D01*
X69934035Y-114077830D01*
X70033903Y-113863663D01*
X70095063Y-113635408D01*
X70115659Y-113400000D01*
X70095063Y-113164592D01*
X70033903Y-112936337D01*
X69934035Y-112722171D01*
X69798495Y-112528599D01*
X69631401Y-112361505D01*
X69437830Y-112225965D01*
X69223663Y-112126097D01*
X69153817Y-112107382D01*
X68995407Y-112064936D01*
X68760000Y-112044340D01*
X68524592Y-112064936D01*
X68296336Y-112126097D01*
X68082170Y-112225965D01*
X67888598Y-112361505D01*
X67721505Y-112528598D01*
X67591575Y-112714159D01*
X67547257Y-112753025D01*
X67490000Y-112767036D01*
X67432743Y-112753025D01*
X67388425Y-112714159D01*
X67336941Y-112640632D01*
X67258495Y-112528599D01*
X67091401Y-112361505D01*
X66897830Y-112225965D01*
X66683663Y-112126097D01*
X66613817Y-112107382D01*
X66455407Y-112064936D01*
X66220000Y-112044340D01*
X65984592Y-112064936D01*
X65756336Y-112126097D01*
X65542170Y-112225965D01*
X65348598Y-112361505D01*
X65181505Y-112528598D01*
X65051575Y-112714159D01*
X65007257Y-112753025D01*
X64950000Y-112767036D01*
X64892743Y-112753025D01*
X64848425Y-112714159D01*
X64796941Y-112640632D01*
X64718495Y-112528599D01*
X64551401Y-112361505D01*
X64357830Y-112225965D01*
X64143663Y-112126097D01*
X64073817Y-112107382D01*
X63915407Y-112064936D01*
X63680000Y-112044340D01*
X63444592Y-112064936D01*
X63216336Y-112126097D01*
X63002170Y-112225965D01*
X62808598Y-112361505D01*
X62641505Y-112528598D01*
X62511575Y-112714159D01*
X62467257Y-112753025D01*
X62410000Y-112767036D01*
X62352743Y-112753025D01*
X62308425Y-112714159D01*
X62256941Y-112640632D01*
X62178495Y-112528599D01*
X62011401Y-112361505D01*
X61817830Y-112225965D01*
X61603663Y-112126097D01*
X61533817Y-112107382D01*
X61375407Y-112064936D01*
X61140000Y-112044340D01*
X60904592Y-112064936D01*
X60676336Y-112126097D01*
X60462170Y-112225965D01*
X60268598Y-112361505D01*
X60101508Y-112528595D01*
X60101505Y-112528598D01*
X60101505Y-112528599D01*
X60023059Y-112640632D01*
X59971269Y-112714596D01*
X59926951Y-112753461D01*
X59869694Y-112767472D01*
X59812437Y-112753461D01*
X59768119Y-112714595D01*
X59638109Y-112528921D01*
X59471081Y-112361893D01*
X59277576Y-112226399D01*
X59063492Y-112126569D01*
X58850000Y-112069364D01*
X58850000Y-114730635D01*
X59063492Y-114673430D01*
X59277576Y-114573600D01*
X59471081Y-114438106D01*
X59638109Y-114271078D01*
X59768119Y-114085405D01*
X59812437Y-114046539D01*
X59869694Y-114032528D01*
X59926951Y-114046539D01*
X59971267Y-114085402D01*
X60101505Y-114271401D01*
X60268599Y-114438495D01*
X60461625Y-114573653D01*
X60500489Y-114617970D01*
X60514500Y-114675227D01*
X60514500Y-115819547D01*
X60505061Y-115867000D01*
X60478181Y-115907228D01*
X60157228Y-116228181D01*
X60117000Y-116255061D01*
X60069547Y-116264500D01*
X55747744Y-116264500D01*
X55727237Y-116262235D01*
X55657127Y-116264439D01*
X55653232Y-116264500D01*
X55625650Y-116264500D01*
X55621665Y-116265003D01*
X55610033Y-116265918D01*
X55566369Y-116267290D01*
X55547129Y-116272880D01*
X55528081Y-116276825D01*
X55508209Y-116279335D01*
X55467599Y-116295413D01*
X55456554Y-116299194D01*
X55414610Y-116311381D01*
X55397365Y-116321579D01*
X55379904Y-116330133D01*
X55361267Y-116337512D01*
X55325931Y-116363185D01*
X55316174Y-116369595D01*
X55278580Y-116391829D01*
X55264413Y-116405996D01*
X55249624Y-116418626D01*
X55233413Y-116430404D01*
X55205572Y-116464058D01*
X55197711Y-116472697D01*
X54024821Y-117645586D01*
X53969234Y-117677680D01*
X53905047Y-117677680D01*
X53836690Y-117659364D01*
X53609999Y-117639531D01*
X53383310Y-117659364D01*
X53163502Y-117718261D01*
X52957264Y-117814432D01*
X52770859Y-117944953D01*
X52609953Y-118105859D01*
X52479432Y-118292264D01*
X52383261Y-118498502D01*
X52324364Y-118718310D01*
X52304531Y-118945000D01*
X52324364Y-119171689D01*
X52383261Y-119391497D01*
X52479432Y-119597735D01*
X52609953Y-119784140D01*
X52770859Y-119945046D01*
X52874575Y-120017668D01*
X52957266Y-120075568D01*
X53015273Y-120102617D01*
X53067449Y-120148373D01*
X53086869Y-120214997D01*
X53067451Y-120281622D01*
X53015276Y-120327380D01*
X52957266Y-120354431D01*
X52770859Y-120484953D01*
X52609953Y-120645859D01*
X52497387Y-120806623D01*
X52453069Y-120845489D01*
X52395812Y-120859500D01*
X50700185Y-120859500D01*
X50638185Y-120842887D01*
X50592798Y-120797500D01*
X50576185Y-120735500D01*
X50576185Y-120572130D01*
X50573629Y-120548352D01*
X50569777Y-120512517D01*
X50519482Y-120377669D01*
X50433232Y-120262454D01*
X50318017Y-120176204D01*
X50183169Y-120125909D01*
X50123559Y-120119500D01*
X50123555Y-120119500D01*
X48427816Y-120119500D01*
X48368201Y-120125909D01*
X48233355Y-120176204D01*
X48118140Y-120262454D01*
X48031890Y-120377668D01*
X47981593Y-120512520D01*
X47977741Y-120548352D01*
X47957362Y-120604274D01*
X47913273Y-120644257D01*
X47855631Y-120659090D01*
X47797718Y-120645356D01*
X47752877Y-120606219D01*
X47735346Y-120581182D01*
X47574505Y-120420341D01*
X47388166Y-120289865D01*
X47182012Y-120193733D01*
X46985686Y-120141128D01*
X46985686Y-122698871D01*
X47182012Y-122646266D01*
X47388166Y-122550134D01*
X47574505Y-122419658D01*
X47735345Y-122258818D01*
X47752877Y-122233780D01*
X47797719Y-122194642D01*
X47855633Y-122180908D01*
X47913275Y-122195741D01*
X47957364Y-122235726D01*
X47977742Y-122291647D01*
X47979049Y-122303795D01*
X47981595Y-122327484D01*
X48000106Y-122377113D01*
X48031890Y-122462331D01*
X48118140Y-122577546D01*
X48233355Y-122663796D01*
X48368203Y-122714091D01*
X48427813Y-122720500D01*
X50123558Y-122720499D01*
X50183169Y-122714091D01*
X50318017Y-122663796D01*
X50433232Y-122577546D01*
X50519482Y-122462331D01*
X50569777Y-122327483D01*
X50576186Y-122267873D01*
X50576186Y-122234500D01*
X50592799Y-122172500D01*
X50638186Y-122127113D01*
X50700186Y-122110500D01*
X52395812Y-122110500D01*
X52453069Y-122124511D01*
X52497387Y-122163377D01*
X52609953Y-122324140D01*
X52770859Y-122485046D01*
X52957264Y-122615567D01*
X52957265Y-122615567D01*
X52957266Y-122615568D01*
X53163504Y-122711739D01*
X53383308Y-122770635D01*
X53610000Y-122790468D01*
X53836692Y-122770635D01*
X54056496Y-122711739D01*
X54262734Y-122615568D01*
X54449139Y-122485047D01*
X54610047Y-122324139D01*
X54740568Y-122137734D01*
X54836739Y-121931496D01*
X54887588Y-121741721D01*
X54912375Y-121694109D01*
X54954959Y-121661433D01*
X55007364Y-121649815D01*
X56855812Y-121649815D01*
X56913069Y-121663826D01*
X56957387Y-121702692D01*
X57069953Y-121863455D01*
X57230859Y-122024361D01*
X57417264Y-122154882D01*
X57417265Y-122154882D01*
X57417266Y-122154883D01*
X57623504Y-122251054D01*
X57843308Y-122309950D01*
X58070000Y-122329783D01*
X58296692Y-122309950D01*
X58365048Y-122291634D01*
X58429234Y-122291634D01*
X58484822Y-122323728D01*
X58878181Y-122717087D01*
X58905061Y-122757315D01*
X58914500Y-122804768D01*
X58914500Y-124442312D01*
X58895995Y-124507479D01*
X58846004Y-124553196D01*
X58779447Y-124565818D01*
X58716189Y-124541578D01*
X58702333Y-124531205D01*
X58702331Y-124531204D01*
X58567483Y-124480909D01*
X58507873Y-124474500D01*
X58507869Y-124474500D01*
X56812130Y-124474500D01*
X56752515Y-124480909D01*
X56617669Y-124531204D01*
X56502454Y-124617454D01*
X56416204Y-124732668D01*
X56365909Y-124867516D01*
X56359500Y-124927131D01*
X56359500Y-125095500D01*
X56342887Y-125157500D01*
X56297500Y-125202887D01*
X56235500Y-125219500D01*
X55224188Y-125219500D01*
X55166931Y-125205489D01*
X55122613Y-125166623D01*
X55010046Y-125005859D01*
X54849140Y-124844953D01*
X54662735Y-124714432D01*
X54456497Y-124618261D01*
X54236689Y-124559364D01*
X54010000Y-124539531D01*
X53783310Y-124559364D01*
X53563502Y-124618261D01*
X53357264Y-124714432D01*
X53170859Y-124844953D01*
X53009953Y-125005859D01*
X52879432Y-125192264D01*
X52783261Y-125398502D01*
X52724364Y-125618310D01*
X52704531Y-125845000D01*
X52724364Y-126071689D01*
X52783261Y-126291497D01*
X52879432Y-126497735D01*
X53009953Y-126684140D01*
X53170859Y-126845046D01*
X53357263Y-126975566D01*
X53357266Y-126975568D01*
X53415275Y-127002618D01*
X53467450Y-127048375D01*
X53486869Y-127115000D01*
X53467450Y-127181625D01*
X53415275Y-127227382D01*
X53357263Y-127254433D01*
X53170859Y-127384953D01*
X53009953Y-127545859D01*
X52879432Y-127732264D01*
X52783261Y-127938502D01*
X52724364Y-128158310D01*
X52704531Y-128385000D01*
X52724364Y-128611689D01*
X52783261Y-128831497D01*
X52879432Y-129037735D01*
X53009953Y-129224140D01*
X53170859Y-129385046D01*
X53331623Y-129497613D01*
X53370489Y-129541931D01*
X53384500Y-129599188D01*
X53384500Y-129709547D01*
X53375061Y-129757000D01*
X53348181Y-129797228D01*
X53187228Y-129958181D01*
X53147000Y-129985061D01*
X53099547Y-129994500D01*
X46770452Y-129994500D01*
X46722999Y-129985061D01*
X46682771Y-129958181D01*
X46381819Y-129657228D01*
X46354939Y-129617000D01*
X46345500Y-129569547D01*
X46345500Y-129384188D01*
X46359511Y-129326931D01*
X46398377Y-129282613D01*
X46446344Y-129249026D01*
X49994526Y-129249026D01*
X50067515Y-129300133D01*
X50273673Y-129396266D01*
X50493397Y-129455141D01*
X50720000Y-129474966D01*
X50946602Y-129455141D01*
X51166326Y-129396266D01*
X51372480Y-129300134D01*
X51445472Y-129249025D01*
X50720001Y-128523553D01*
X50720000Y-128523553D01*
X49994526Y-129249025D01*
X49994526Y-129249026D01*
X46446344Y-129249026D01*
X46543536Y-129180972D01*
X46559139Y-129170047D01*
X46720047Y-129009139D01*
X46850568Y-128822734D01*
X46946739Y-128616496D01*
X47005635Y-128396692D01*
X47025468Y-128170000D01*
X47025468Y-128169999D01*
X49415033Y-128169999D01*
X49434858Y-128396602D01*
X49493733Y-128616326D01*
X49589866Y-128822484D01*
X49640972Y-128895471D01*
X49640974Y-128895472D01*
X50366446Y-128170001D01*
X51073553Y-128170001D01*
X51799025Y-128895472D01*
X51850134Y-128822480D01*
X51946266Y-128616326D01*
X52005141Y-128396602D01*
X52024966Y-128169999D01*
X52005141Y-127943397D01*
X51946266Y-127723673D01*
X51850133Y-127517515D01*
X51799025Y-127444526D01*
X51073553Y-128170000D01*
X51073553Y-128170001D01*
X50366446Y-128170001D01*
X50366446Y-128170000D01*
X49640973Y-127444526D01*
X49640973Y-127444527D01*
X49589865Y-127517516D01*
X49493733Y-127723672D01*
X49434858Y-127943397D01*
X49415033Y-128169999D01*
X47025468Y-128169999D01*
X47005635Y-127943308D01*
X46946739Y-127723504D01*
X46850568Y-127517266D01*
X46842747Y-127506097D01*
X46720046Y-127330859D01*
X46559140Y-127169953D01*
X46446344Y-127090973D01*
X49994526Y-127090973D01*
X50720000Y-127816446D01*
X50720001Y-127816446D01*
X51445472Y-127090974D01*
X51445471Y-127090972D01*
X51372484Y-127039866D01*
X51166326Y-126943733D01*
X50946602Y-126884858D01*
X50720000Y-126865033D01*
X50493397Y-126884858D01*
X50273672Y-126943733D01*
X50067516Y-127039865D01*
X49994527Y-127090973D01*
X49994526Y-127090973D01*
X46446344Y-127090973D01*
X46372735Y-127039432D01*
X46166497Y-126943261D01*
X45946689Y-126884364D01*
X45720000Y-126864531D01*
X45493310Y-126884364D01*
X45273502Y-126943261D01*
X45067264Y-127039432D01*
X44880859Y-127169953D01*
X44812181Y-127238632D01*
X44762818Y-127268882D01*
X44705102Y-127273424D01*
X44651615Y-127251269D01*
X44614015Y-127207246D01*
X44600500Y-127150951D01*
X44600500Y-121670000D01*
X45456814Y-121670000D01*
X45509419Y-121866326D01*
X45605551Y-122072480D01*
X45736027Y-122258819D01*
X45896866Y-122419658D01*
X46083205Y-122550134D01*
X46289359Y-122646266D01*
X46485685Y-122698871D01*
X46485686Y-122698872D01*
X46485686Y-121670000D01*
X45456814Y-121670000D01*
X44600500Y-121670000D01*
X44600500Y-121170000D01*
X45456814Y-121170000D01*
X46485686Y-121170000D01*
X46485686Y-120141128D01*
X46485685Y-120141128D01*
X46289359Y-120193733D01*
X46083205Y-120289865D01*
X45896866Y-120420341D01*
X45736027Y-120581180D01*
X45605551Y-120767519D01*
X45509419Y-120973673D01*
X45456814Y-121169999D01*
X45456814Y-121170000D01*
X44600500Y-121170000D01*
X44600500Y-114786431D01*
X44619005Y-114721264D01*
X44668996Y-114675547D01*
X44735553Y-114662925D01*
X44798811Y-114687165D01*
X44807669Y-114693796D01*
X44942517Y-114744091D01*
X45002127Y-114750500D01*
X46797872Y-114750499D01*
X46857483Y-114744091D01*
X46992331Y-114693796D01*
X47107546Y-114607546D01*
X47193796Y-114492331D01*
X47242810Y-114360916D01*
X47277789Y-114310537D01*
X47332634Y-114283084D01*
X47393927Y-114285273D01*
X47446673Y-114316569D01*
X47568599Y-114438495D01*
X47762170Y-114574035D01*
X47976337Y-114673903D01*
X48204592Y-114735063D01*
X48440000Y-114755659D01*
X48675408Y-114735063D01*
X48903663Y-114673903D01*
X49117830Y-114574035D01*
X49311401Y-114438495D01*
X49478495Y-114271401D01*
X49608426Y-114085839D01*
X49652743Y-114046976D01*
X49710000Y-114032965D01*
X49767257Y-114046976D01*
X49811573Y-114085839D01*
X49941505Y-114271401D01*
X50108599Y-114438495D01*
X50302170Y-114574035D01*
X50516337Y-114673903D01*
X50744592Y-114735063D01*
X50980000Y-114755659D01*
X51215408Y-114735063D01*
X51443663Y-114673903D01*
X51657830Y-114574035D01*
X51851401Y-114438495D01*
X52018495Y-114271401D01*
X52148732Y-114085402D01*
X52193048Y-114046539D01*
X52250305Y-114032528D01*
X52307562Y-114046539D01*
X52351880Y-114085404D01*
X52481893Y-114271081D01*
X52648918Y-114438106D01*
X52842423Y-114573600D01*
X53056507Y-114673430D01*
X53269999Y-114730635D01*
X53270000Y-114730636D01*
X53270000Y-114730635D01*
X53770000Y-114730635D01*
X53983492Y-114673430D01*
X54197576Y-114573600D01*
X54391081Y-114438106D01*
X54558109Y-114271078D01*
X54688119Y-114085405D01*
X54732437Y-114046539D01*
X54789694Y-114032528D01*
X54846951Y-114046539D01*
X54891267Y-114085402D01*
X55021505Y-114271401D01*
X55188599Y-114438495D01*
X55382170Y-114574035D01*
X55596337Y-114673903D01*
X55824592Y-114735063D01*
X56060000Y-114755659D01*
X56295408Y-114735063D01*
X56523663Y-114673903D01*
X56737830Y-114574035D01*
X56931401Y-114438495D01*
X57098495Y-114271401D01*
X57228732Y-114085402D01*
X57273048Y-114046539D01*
X57330305Y-114032528D01*
X57387562Y-114046539D01*
X57431880Y-114085404D01*
X57561893Y-114271081D01*
X57728918Y-114438106D01*
X57922423Y-114573600D01*
X58136507Y-114673430D01*
X58349999Y-114730635D01*
X58350000Y-114730636D01*
X58350000Y-112069364D01*
X58349999Y-112069364D01*
X58136507Y-112126569D01*
X57922421Y-112226400D01*
X57728921Y-112361890D01*
X57561893Y-112528918D01*
X57431880Y-112714596D01*
X57387562Y-112753461D01*
X57330305Y-112767472D01*
X57273048Y-112753461D01*
X57228730Y-112714595D01*
X57224894Y-112709116D01*
X57098495Y-112528599D01*
X56931401Y-112361505D01*
X56737830Y-112225965D01*
X56523663Y-112126097D01*
X56453817Y-112107382D01*
X56295407Y-112064936D01*
X56060000Y-112044340D01*
X55824592Y-112064936D01*
X55596336Y-112126097D01*
X55382170Y-112225965D01*
X55188598Y-112361505D01*
X55021508Y-112528595D01*
X55021505Y-112528598D01*
X55021505Y-112528599D01*
X54943059Y-112640632D01*
X54891269Y-112714596D01*
X54846951Y-112753461D01*
X54789694Y-112767472D01*
X54732437Y-112753461D01*
X54688119Y-112714595D01*
X54558109Y-112528921D01*
X54391081Y-112361893D01*
X54197576Y-112226399D01*
X53983492Y-112126569D01*
X53770000Y-112069364D01*
X53770000Y-114730635D01*
X53270000Y-114730635D01*
X53270000Y-112069364D01*
X53269999Y-112069364D01*
X53056507Y-112126569D01*
X52842421Y-112226400D01*
X52648921Y-112361890D01*
X52481893Y-112528918D01*
X52351880Y-112714596D01*
X52307562Y-112753461D01*
X52250305Y-112767472D01*
X52193048Y-112753461D01*
X52148730Y-112714595D01*
X52144894Y-112709116D01*
X52018495Y-112528599D01*
X51851401Y-112361505D01*
X51657830Y-112225965D01*
X51443663Y-112126097D01*
X51373817Y-112107382D01*
X51215407Y-112064936D01*
X50980000Y-112044340D01*
X50744592Y-112064936D01*
X50516336Y-112126097D01*
X50302170Y-112225965D01*
X50108598Y-112361505D01*
X49941505Y-112528598D01*
X49811575Y-112714159D01*
X49767257Y-112753025D01*
X49710000Y-112767036D01*
X49652743Y-112753025D01*
X49608425Y-112714159D01*
X49556941Y-112640632D01*
X49478495Y-112528599D01*
X49311401Y-112361505D01*
X49117830Y-112225965D01*
X48903663Y-112126097D01*
X48833817Y-112107382D01*
X48675407Y-112064936D01*
X48440000Y-112044340D01*
X48204591Y-112064936D01*
X48159893Y-112076913D01*
X48095707Y-112076913D01*
X48040120Y-112044819D01*
X47955819Y-111960518D01*
X47928939Y-111920290D01*
X47919500Y-111872837D01*
X47919500Y-110186163D01*
X47928939Y-110138710D01*
X47955819Y-110098482D01*
X48630482Y-109423819D01*
X48670710Y-109396939D01*
X48718163Y-109387500D01*
X58395849Y-109387500D01*
X58403335Y-109387726D01*
X58461084Y-109391219D01*
X58461084Y-109391218D01*
X58461085Y-109391219D01*
X58517997Y-109380789D01*
X58525396Y-109379663D01*
X58582845Y-109372688D01*
X58591608Y-109369364D01*
X58613222Y-109363338D01*
X58622439Y-109361650D01*
X58622443Y-109361648D01*
X58622444Y-109361648D01*
X58675207Y-109337901D01*
X58682122Y-109335036D01*
X58736226Y-109314518D01*
X58743933Y-109309197D01*
X58763484Y-109298171D01*
X58772028Y-109294326D01*
X58817609Y-109258613D01*
X58823581Y-109254219D01*
X58871229Y-109221332D01*
X58909610Y-109178007D01*
X58914711Y-109172588D01*
X63882818Y-104204483D01*
X63932182Y-104174233D01*
X63989898Y-104169691D01*
X64043385Y-104191846D01*
G37*
%TD.AperFunction*%
%TA.AperFunction,Conductor*%
G36*
X56297501Y-126487113D02*
G01*
X56342888Y-126532500D01*
X56359501Y-126594500D01*
X56359501Y-126622870D01*
X56365909Y-126682484D01*
X56366527Y-126684140D01*
X56416204Y-126817331D01*
X56502454Y-126932546D01*
X56617669Y-127018796D01*
X56752517Y-127069091D01*
X56787594Y-127072862D01*
X56843513Y-127093239D01*
X56883497Y-127137327D01*
X56898332Y-127194968D01*
X56884600Y-127252881D01*
X56845464Y-127297724D01*
X56820860Y-127314952D01*
X56659953Y-127475859D01*
X56547387Y-127636623D01*
X56503069Y-127675489D01*
X56445812Y-127689500D01*
X55175174Y-127689500D01*
X55117917Y-127675489D01*
X55073599Y-127636623D01*
X55010046Y-127545859D01*
X54849140Y-127384953D01*
X54662736Y-127254433D01*
X54604723Y-127227381D01*
X54552548Y-127181623D01*
X54533129Y-127114997D01*
X54552549Y-127048372D01*
X54604721Y-127002619D01*
X54662734Y-126975568D01*
X54849139Y-126845047D01*
X55010047Y-126684139D01*
X55122612Y-126523377D01*
X55166931Y-126484511D01*
X55224188Y-126470500D01*
X56235501Y-126470500D01*
X56297501Y-126487113D01*
G37*
%TD.AperFunction*%
%TA.AperFunction,Conductor*%
G36*
X56707500Y-117532113D02*
G01*
X56752887Y-117577500D01*
X56769500Y-117639500D01*
X56769500Y-119332184D01*
X56775909Y-119391799D01*
X56801056Y-119459222D01*
X56826204Y-119526646D01*
X56912454Y-119641861D01*
X57027669Y-119728111D01*
X57162517Y-119778406D01*
X57197594Y-119782177D01*
X57253513Y-119802554D01*
X57293497Y-119846642D01*
X57308332Y-119904283D01*
X57294600Y-119962196D01*
X57255464Y-120007039D01*
X57230860Y-120024267D01*
X57069953Y-120185174D01*
X56957387Y-120345938D01*
X56913069Y-120384804D01*
X56855812Y-120398815D01*
X54365217Y-120398815D01*
X54327930Y-120393076D01*
X54294097Y-120376392D01*
X54262734Y-120354432D01*
X54262733Y-120354431D01*
X54262728Y-120354428D01*
X54204724Y-120327380D01*
X54152549Y-120281623D01*
X54133130Y-120214997D01*
X54152550Y-120148373D01*
X54204721Y-120102619D01*
X54262734Y-120075568D01*
X54449139Y-119945047D01*
X54610047Y-119784139D01*
X54740568Y-119597734D01*
X54836739Y-119391496D01*
X54895635Y-119171692D01*
X54915468Y-118945000D01*
X54895635Y-118718308D01*
X54880774Y-118662848D01*
X54877319Y-118649951D01*
X54877319Y-118585763D01*
X54909411Y-118530178D01*
X55887771Y-117551819D01*
X55928000Y-117524939D01*
X55975453Y-117515500D01*
X56645500Y-117515500D01*
X56707500Y-117532113D01*
G37*
%TD.AperFunction*%
%TA.AperFunction,Conductor*%
G36*
X65007257Y-114046976D02*
G01*
X65051573Y-114085839D01*
X65181505Y-114271401D01*
X65181508Y-114271404D01*
X65187728Y-114280287D01*
X65186782Y-114280949D01*
X65205061Y-114308305D01*
X65214500Y-114355758D01*
X65214500Y-117480812D01*
X65200489Y-117538069D01*
X65161623Y-117582387D01*
X65000859Y-117694953D01*
X64839953Y-117855859D01*
X64709432Y-118042264D01*
X64613261Y-118248502D01*
X64554364Y-118468310D01*
X64534531Y-118694999D01*
X64554364Y-118921689D01*
X64613261Y-119141497D01*
X64709432Y-119347735D01*
X64839953Y-119534140D01*
X65000859Y-119695046D01*
X65129064Y-119784815D01*
X65187266Y-119825568D01*
X65245275Y-119852618D01*
X65297450Y-119898375D01*
X65316869Y-119965000D01*
X65297450Y-120031625D01*
X65245275Y-120077382D01*
X65187263Y-120104433D01*
X65000860Y-120234952D01*
X64957634Y-120278180D01*
X64917405Y-120305061D01*
X64869952Y-120314500D01*
X63194188Y-120314500D01*
X63136931Y-120300489D01*
X63092613Y-120261623D01*
X62980046Y-120100859D01*
X62819140Y-119939953D01*
X62794537Y-119922726D01*
X62755399Y-119877884D01*
X62741666Y-119819970D01*
X62756500Y-119762328D01*
X62796485Y-119718239D01*
X62852406Y-119697861D01*
X62887483Y-119694091D01*
X63022331Y-119643796D01*
X63137546Y-119557546D01*
X63223796Y-119442331D01*
X63274091Y-119307483D01*
X63280500Y-119247873D01*
X63280499Y-117552128D01*
X63274091Y-117492517D01*
X63223796Y-117357669D01*
X63137546Y-117242454D01*
X63022331Y-117156204D01*
X62887483Y-117105909D01*
X62827873Y-117099500D01*
X62827869Y-117099500D01*
X61354451Y-117099500D01*
X61298156Y-117085985D01*
X61254133Y-117048385D01*
X61231978Y-116994898D01*
X61236520Y-116937182D01*
X61266768Y-116887821D01*
X61523789Y-116630800D01*
X61539885Y-116617906D01*
X61541873Y-116615787D01*
X61541877Y-116615786D01*
X61587948Y-116566723D01*
X61590566Y-116564023D01*
X61610120Y-116544471D01*
X61612581Y-116541298D01*
X61620156Y-116532427D01*
X61650062Y-116500582D01*
X61659717Y-116483018D01*
X61670394Y-116466764D01*
X61682673Y-116450936D01*
X61700018Y-116410852D01*
X61705160Y-116400356D01*
X61726197Y-116362092D01*
X61731179Y-116342684D01*
X61737481Y-116324280D01*
X61745437Y-116305896D01*
X61752269Y-116262752D01*
X61754633Y-116251338D01*
X61765500Y-116209019D01*
X61765500Y-116188984D01*
X61767027Y-116169585D01*
X61767068Y-116169321D01*
X61770160Y-116149804D01*
X61766050Y-116106325D01*
X61765500Y-116094656D01*
X61765500Y-114675227D01*
X61779511Y-114617970D01*
X61818374Y-114573653D01*
X62011401Y-114438495D01*
X62178495Y-114271401D01*
X62308426Y-114085839D01*
X62352743Y-114046976D01*
X62410000Y-114032965D01*
X62467257Y-114046976D01*
X62511573Y-114085839D01*
X62641505Y-114271401D01*
X62808599Y-114438495D01*
X63002170Y-114574035D01*
X63216337Y-114673903D01*
X63444592Y-114735063D01*
X63680000Y-114755659D01*
X63915408Y-114735063D01*
X64143663Y-114673903D01*
X64357830Y-114574035D01*
X64551401Y-114438495D01*
X64718495Y-114271401D01*
X64848426Y-114085839D01*
X64892743Y-114046976D01*
X64950000Y-114032965D01*
X65007257Y-114046976D01*
G37*
%TD.AperFunction*%
%TA.AperFunction,Conductor*%
G36*
X49376290Y-51724939D02*
G01*
X49416518Y-51751819D01*
X53028181Y-55363483D01*
X53055061Y-55403711D01*
X53064500Y-55451164D01*
X53064500Y-71589816D01*
X53047887Y-71651816D01*
X53002500Y-71697203D01*
X52940500Y-71713816D01*
X52892128Y-71713816D01*
X52862322Y-71717019D01*
X52832515Y-71720224D01*
X52697669Y-71770519D01*
X52582454Y-71856769D01*
X52496204Y-71971983D01*
X52445909Y-72106831D01*
X52439500Y-72166445D01*
X52439500Y-73862184D01*
X52445909Y-73921799D01*
X52464207Y-73970857D01*
X52496204Y-74056646D01*
X52582454Y-74171861D01*
X52697669Y-74258111D01*
X52832517Y-74308406D01*
X52867594Y-74312177D01*
X52923513Y-74332554D01*
X52963497Y-74376642D01*
X52978332Y-74434283D01*
X52964600Y-74492196D01*
X52925464Y-74537039D01*
X52900860Y-74554267D01*
X52739953Y-74715174D01*
X52609432Y-74901579D01*
X52513261Y-75107817D01*
X52454364Y-75327625D01*
X52434531Y-75554314D01*
X52454364Y-75781004D01*
X52513261Y-76000812D01*
X52609432Y-76207050D01*
X52739953Y-76393455D01*
X52900859Y-76554361D01*
X53087264Y-76684882D01*
X53087265Y-76684882D01*
X53087266Y-76684883D01*
X53293504Y-76781054D01*
X53513308Y-76839950D01*
X53740000Y-76859783D01*
X53966692Y-76839950D01*
X54186496Y-76781054D01*
X54392734Y-76684883D01*
X54579139Y-76554362D01*
X54740047Y-76393454D01*
X54870568Y-76207049D01*
X54966739Y-76000811D01*
X55025635Y-75781007D01*
X55045468Y-75554315D01*
X55025635Y-75327623D01*
X54966739Y-75107819D01*
X54870568Y-74901581D01*
X54842776Y-74861890D01*
X54740046Y-74715174D01*
X54579140Y-74554268D01*
X54554537Y-74537041D01*
X54515399Y-74492199D01*
X54501666Y-74434285D01*
X54516500Y-74376643D01*
X54556485Y-74332554D01*
X54612406Y-74312176D01*
X54647483Y-74308406D01*
X54782331Y-74258111D01*
X54897546Y-74171861D01*
X54983796Y-74056646D01*
X55034091Y-73921798D01*
X55040500Y-73862188D01*
X55040499Y-72166443D01*
X55034091Y-72106832D01*
X54983796Y-71971984D01*
X54897546Y-71856769D01*
X54782331Y-71770519D01*
X54647483Y-71720224D01*
X54587873Y-71713815D01*
X54587869Y-71713815D01*
X54539500Y-71713815D01*
X54477500Y-71697202D01*
X54432113Y-71651815D01*
X54415500Y-71589815D01*
X54415500Y-64706979D01*
X54430526Y-64647812D01*
X54471964Y-64602985D01*
X54529769Y-64583361D01*
X54571020Y-64590448D01*
X54571449Y-64588435D01*
X54769352Y-64630500D01*
X54769354Y-64630500D01*
X54958646Y-64630500D01*
X54958648Y-64630500D01*
X55088095Y-64602985D01*
X55143803Y-64591144D01*
X55316730Y-64514151D01*
X55469871Y-64402888D01*
X55475598Y-64396526D01*
X55517312Y-64366220D01*
X55567747Y-64355500D01*
X62095434Y-64355500D01*
X62133752Y-64361569D01*
X62168319Y-64379182D01*
X62285269Y-64464151D01*
X62458197Y-64541144D01*
X62643352Y-64580500D01*
X62643354Y-64580500D01*
X62832646Y-64580500D01*
X62832648Y-64580500D01*
X62985999Y-64547904D01*
X63017803Y-64541144D01*
X63190730Y-64464151D01*
X63343871Y-64352888D01*
X63388350Y-64303488D01*
X63437278Y-64270239D01*
X63496042Y-64263440D01*
X63551269Y-64284640D01*
X63590389Y-64329013D01*
X63604500Y-64386462D01*
X63604500Y-66908837D01*
X63595061Y-66956290D01*
X63568181Y-66996518D01*
X61309424Y-69255273D01*
X61303972Y-69260406D01*
X61260668Y-69298770D01*
X61227800Y-69346387D01*
X61223363Y-69352417D01*
X61187673Y-69397973D01*
X61183824Y-69406524D01*
X61172807Y-69426058D01*
X61167481Y-69433775D01*
X61146965Y-69487868D01*
X61144102Y-69494782D01*
X61120349Y-69547562D01*
X61118661Y-69556776D01*
X61112638Y-69578383D01*
X61109310Y-69587157D01*
X61102333Y-69644612D01*
X61101207Y-69652011D01*
X61090780Y-69708912D01*
X61094274Y-69766664D01*
X61094500Y-69774151D01*
X61094500Y-76910547D01*
X61080985Y-76966842D01*
X61043385Y-77010865D01*
X60989898Y-77033020D01*
X60932182Y-77028478D01*
X60882819Y-76998228D01*
X60176818Y-76292227D01*
X60149938Y-76251999D01*
X60140499Y-76204546D01*
X60140499Y-75017816D01*
X60137444Y-74989396D01*
X60134091Y-74958203D01*
X60083796Y-74823355D01*
X59997546Y-74708140D01*
X59882331Y-74621890D01*
X59747483Y-74571595D01*
X59712404Y-74567823D01*
X59656484Y-74547444D01*
X59616500Y-74503355D01*
X59601667Y-74445714D01*
X59615401Y-74387800D01*
X59654539Y-74342958D01*
X59656470Y-74341605D01*
X59679139Y-74325733D01*
X59840047Y-74164825D01*
X59970568Y-73978420D01*
X60066739Y-73772182D01*
X60125635Y-73552378D01*
X60145468Y-73325686D01*
X60125635Y-73098994D01*
X60066739Y-72879190D01*
X59970568Y-72672952D01*
X59895427Y-72565639D01*
X59840046Y-72486545D01*
X59679140Y-72325639D01*
X59492735Y-72195118D01*
X59286497Y-72098947D01*
X59066689Y-72040050D01*
X58840000Y-72020217D01*
X58613310Y-72040050D01*
X58393502Y-72098947D01*
X58187264Y-72195118D01*
X58000859Y-72325639D01*
X57839953Y-72486545D01*
X57709432Y-72672950D01*
X57613261Y-72879188D01*
X57554364Y-73098996D01*
X57534531Y-73325686D01*
X57554364Y-73552375D01*
X57613261Y-73772183D01*
X57709432Y-73978421D01*
X57839953Y-74164826D01*
X58000858Y-74325731D01*
X58025461Y-74342958D01*
X58064599Y-74387800D01*
X58078333Y-74445714D01*
X58063500Y-74503355D01*
X58023516Y-74547444D01*
X57967594Y-74567824D01*
X57932515Y-74571595D01*
X57797669Y-74621890D01*
X57682454Y-74708140D01*
X57596204Y-74823354D01*
X57545909Y-74958202D01*
X57539500Y-75017816D01*
X57539500Y-76713555D01*
X57545909Y-76773170D01*
X57570817Y-76839950D01*
X57596204Y-76908017D01*
X57682454Y-77023232D01*
X57797669Y-77109482D01*
X57932517Y-77159777D01*
X57992127Y-77166186D01*
X59230233Y-77166185D01*
X59277686Y-77175624D01*
X59317914Y-77202504D01*
X61938181Y-79822771D01*
X61965061Y-79862999D01*
X61974500Y-79910452D01*
X61974500Y-80569547D01*
X61965061Y-80617000D01*
X61938181Y-80657229D01*
X61715161Y-80880247D01*
X61665236Y-80910677D01*
X61606917Y-80914848D01*
X61553171Y-80891832D01*
X61552331Y-80891204D01*
X61417483Y-80840909D01*
X61357873Y-80834500D01*
X61357869Y-80834500D01*
X59662130Y-80834500D01*
X59602515Y-80840909D01*
X59467669Y-80891204D01*
X59352454Y-80977454D01*
X59266204Y-81092668D01*
X59215909Y-81227516D01*
X59209500Y-81287130D01*
X59209500Y-82982869D01*
X59215909Y-83042484D01*
X59222391Y-83059862D01*
X59266204Y-83177331D01*
X59352454Y-83292546D01*
X59467669Y-83378796D01*
X59602517Y-83429091D01*
X59637594Y-83432862D01*
X59693513Y-83453239D01*
X59733497Y-83497327D01*
X59748332Y-83554968D01*
X59734600Y-83612881D01*
X59695464Y-83657724D01*
X59670860Y-83674952D01*
X59509953Y-83835859D01*
X59379432Y-84022264D01*
X59283261Y-84228502D01*
X59224364Y-84448310D01*
X59204531Y-84675000D01*
X59224364Y-84901689D01*
X59283261Y-85121497D01*
X59379432Y-85327735D01*
X59509953Y-85514140D01*
X59670859Y-85675046D01*
X59854388Y-85803553D01*
X59857266Y-85805568D01*
X59915275Y-85832618D01*
X59967450Y-85878375D01*
X59986869Y-85945000D01*
X59967450Y-86011625D01*
X59915275Y-86057382D01*
X59857263Y-86084433D01*
X59670859Y-86214953D01*
X59509953Y-86375859D01*
X59397387Y-86536623D01*
X59353069Y-86575489D01*
X59295812Y-86589500D01*
X58906094Y-86589500D01*
X58856850Y-86579302D01*
X58845896Y-86574562D01*
X58827523Y-86571651D01*
X58802754Y-86567728D01*
X58791325Y-86565361D01*
X58781979Y-86562962D01*
X58725128Y-86530537D01*
X58059413Y-85864822D01*
X58027319Y-85809234D01*
X58027319Y-85745047D01*
X58035218Y-85715567D01*
X58045635Y-85676692D01*
X58065468Y-85450000D01*
X58063205Y-85424139D01*
X58049550Y-85268057D01*
X58045635Y-85223308D01*
X57986739Y-85003504D01*
X57890568Y-84797266D01*
X57839635Y-84724526D01*
X57760046Y-84610859D01*
X57599140Y-84449953D01*
X57412733Y-84319431D01*
X57352782Y-84291476D01*
X57300606Y-84245719D01*
X57281186Y-84179094D01*
X57281186Y-83164499D01*
X57297799Y-83102499D01*
X57343186Y-83057112D01*
X57405186Y-83040499D01*
X57503556Y-83040499D01*
X57503558Y-83040499D01*
X57563169Y-83034091D01*
X57698017Y-82983796D01*
X57813232Y-82897546D01*
X57899482Y-82782331D01*
X57949777Y-82647483D01*
X57956186Y-82587873D01*
X57956185Y-80892128D01*
X57949777Y-80832517D01*
X57899482Y-80697669D01*
X57813232Y-80582454D01*
X57698017Y-80496204D01*
X57563169Y-80445909D01*
X57503559Y-80439500D01*
X57503555Y-80439500D01*
X55807816Y-80439500D01*
X55748201Y-80445909D01*
X55613355Y-80496204D01*
X55498140Y-80582454D01*
X55411890Y-80697668D01*
X55361595Y-80832516D01*
X55357824Y-80867593D01*
X55337445Y-80923515D01*
X55293356Y-80963498D01*
X55235715Y-80978332D01*
X55177802Y-80964599D01*
X55132959Y-80925462D01*
X55115730Y-80900857D01*
X54954826Y-80739953D01*
X54768421Y-80609432D01*
X54562183Y-80513261D01*
X54342375Y-80454364D01*
X54115686Y-80434531D01*
X53888996Y-80454364D01*
X53669188Y-80513261D01*
X53462950Y-80609432D01*
X53276545Y-80739953D01*
X53115639Y-80900859D01*
X52985118Y-81087264D01*
X52888947Y-81293502D01*
X52830050Y-81513310D01*
X52809272Y-81750807D01*
X52808083Y-81750703D01*
X52797475Y-81806149D01*
X52751761Y-81856038D01*
X52686663Y-81874500D01*
X50034188Y-81874500D01*
X49976931Y-81860489D01*
X49932613Y-81821623D01*
X49820046Y-81660859D01*
X49659140Y-81499953D01*
X49472735Y-81369432D01*
X49266497Y-81273261D01*
X49046689Y-81214364D01*
X48820000Y-81194531D01*
X48593310Y-81214364D01*
X48373502Y-81273261D01*
X48167264Y-81369432D01*
X47980859Y-81499953D01*
X47819953Y-81660859D01*
X47689431Y-81847266D01*
X47662380Y-81905276D01*
X47616622Y-81957451D01*
X47549997Y-81976869D01*
X47483373Y-81957449D01*
X47437617Y-81905273D01*
X47425874Y-81880091D01*
X47410568Y-81847266D01*
X47381778Y-81806149D01*
X47280046Y-81660859D01*
X47119140Y-81499953D01*
X46932735Y-81369432D01*
X46726497Y-81273261D01*
X46506689Y-81214364D01*
X46280000Y-81194531D01*
X46053310Y-81214364D01*
X45833502Y-81273261D01*
X45627264Y-81369432D01*
X45440859Y-81499953D01*
X45279953Y-81660859D01*
X45149432Y-81847264D01*
X45053261Y-82053502D01*
X44994364Y-82273310D01*
X44974531Y-82500000D01*
X44994364Y-82726689D01*
X45053261Y-82946497D01*
X45149432Y-83152735D01*
X45279953Y-83339140D01*
X45440859Y-83500046D01*
X45627264Y-83630567D01*
X45627265Y-83630567D01*
X45627266Y-83630568D01*
X45833504Y-83726739D01*
X46053308Y-83785635D01*
X46280000Y-83805468D01*
X46506692Y-83785635D01*
X46726496Y-83726739D01*
X46932734Y-83630568D01*
X47119139Y-83500047D01*
X47280047Y-83339139D01*
X47410568Y-83152734D01*
X47437618Y-83094724D01*
X47483375Y-83042549D01*
X47550000Y-83023129D01*
X47616625Y-83042549D01*
X47662382Y-83094725D01*
X47689431Y-83152733D01*
X47819953Y-83339140D01*
X47980859Y-83500046D01*
X48167264Y-83630567D01*
X48167265Y-83630567D01*
X48167266Y-83630568D01*
X48373504Y-83726739D01*
X48593308Y-83785635D01*
X48820000Y-83805468D01*
X49046692Y-83785635D01*
X49266496Y-83726739D01*
X49472734Y-83630568D01*
X49659139Y-83500047D01*
X49820047Y-83339139D01*
X49932612Y-83178377D01*
X49976931Y-83139511D01*
X50034188Y-83125500D01*
X50670887Y-83125500D01*
X50732887Y-83142113D01*
X50778274Y-83187500D01*
X50794887Y-83249500D01*
X50778274Y-83311500D01*
X50697320Y-83451715D01*
X50638826Y-83631742D01*
X50619040Y-83820000D01*
X50638825Y-84008254D01*
X50638826Y-84008256D01*
X50643377Y-84022264D01*
X50644485Y-84025672D01*
X50647128Y-84092938D01*
X50614235Y-84151672D01*
X47056728Y-87709181D01*
X47016500Y-87736061D01*
X46969047Y-87745500D01*
X46909852Y-87745500D01*
X46724697Y-87784855D01*
X46551769Y-87861848D01*
X46398629Y-87973110D01*
X46271966Y-88113783D01*
X46177320Y-88277715D01*
X46118826Y-88457742D01*
X46099040Y-88646000D01*
X46118826Y-88834257D01*
X46177320Y-89014284D01*
X46271966Y-89178216D01*
X46398629Y-89318889D01*
X46551769Y-89430151D01*
X46724697Y-89507144D01*
X46909852Y-89546500D01*
X46909854Y-89546500D01*
X47099146Y-89546500D01*
X47099148Y-89546500D01*
X47222584Y-89520262D01*
X47284303Y-89507144D01*
X47457230Y-89430151D01*
X47610371Y-89318888D01*
X47737033Y-89178216D01*
X47831679Y-89014284D01*
X47890174Y-88834256D01*
X47907821Y-88666344D01*
X47909336Y-88660973D01*
X52084526Y-88660973D01*
X52810000Y-89386446D01*
X52810001Y-89386446D01*
X53535472Y-88660974D01*
X53535471Y-88660972D01*
X53462484Y-88609866D01*
X53256326Y-88513733D01*
X53036602Y-88454858D01*
X52810000Y-88435033D01*
X52583397Y-88454858D01*
X52363672Y-88513733D01*
X52157516Y-88609865D01*
X52084527Y-88660973D01*
X52084526Y-88660973D01*
X47909336Y-88660973D01*
X47919221Y-88625925D01*
X47943458Y-88591630D01*
X50006063Y-86529026D01*
X53494526Y-86529026D01*
X53567515Y-86580133D01*
X53773673Y-86676266D01*
X53993397Y-86735141D01*
X54220000Y-86754966D01*
X54446602Y-86735141D01*
X54666326Y-86676266D01*
X54872480Y-86580134D01*
X54945472Y-86529025D01*
X54220001Y-85803553D01*
X54220000Y-85803553D01*
X53494526Y-86529025D01*
X53494526Y-86529026D01*
X50006063Y-86529026D01*
X51085089Y-85450000D01*
X52915033Y-85450000D01*
X52934858Y-85676602D01*
X52993733Y-85896326D01*
X53089866Y-86102484D01*
X53140972Y-86175471D01*
X53140974Y-86175472D01*
X53866446Y-85450001D01*
X53866446Y-85450000D01*
X53140973Y-84724526D01*
X53140973Y-84724527D01*
X53089865Y-84797516D01*
X52993733Y-85003672D01*
X52934858Y-85223397D01*
X52915033Y-85450000D01*
X51085089Y-85450000D01*
X51877540Y-84657549D01*
X51914781Y-84631954D01*
X51977230Y-84604151D01*
X52130371Y-84492888D01*
X52240144Y-84370973D01*
X53494526Y-84370973D01*
X54220000Y-85096446D01*
X54220001Y-85096446D01*
X54945472Y-84370974D01*
X54945471Y-84370972D01*
X54872484Y-84319866D01*
X54666326Y-84223733D01*
X54446602Y-84164858D01*
X54220000Y-84145033D01*
X53993397Y-84164858D01*
X53773672Y-84223733D01*
X53567516Y-84319865D01*
X53494527Y-84370973D01*
X53494526Y-84370973D01*
X52240144Y-84370973D01*
X52257033Y-84352216D01*
X52351679Y-84188284D01*
X52410174Y-84008256D01*
X52429960Y-83820000D01*
X52410174Y-83631744D01*
X52367383Y-83500047D01*
X52351679Y-83451715D01*
X52270726Y-83311500D01*
X52254113Y-83249500D01*
X52270726Y-83187500D01*
X52316113Y-83142113D01*
X52378113Y-83125500D01*
X53272942Y-83125500D01*
X53293448Y-83127764D01*
X53296351Y-83127672D01*
X53296353Y-83127673D01*
X53363558Y-83125561D01*
X53367454Y-83125500D01*
X53395035Y-83125500D01*
X53395036Y-83125500D01*
X53399005Y-83124998D01*
X53410651Y-83124080D01*
X53454313Y-83122709D01*
X53473545Y-83117120D01*
X53492604Y-83113174D01*
X53498882Y-83112381D01*
X53512478Y-83110664D01*
X53553093Y-83094582D01*
X53564130Y-83090803D01*
X53606076Y-83078618D01*
X53623315Y-83068422D01*
X53640788Y-83059862D01*
X53659418Y-83052486D01*
X53694750Y-83026814D01*
X53704496Y-83020411D01*
X53711078Y-83016519D01*
X53757368Y-83000398D01*
X53806289Y-83003474D01*
X53888994Y-83025635D01*
X54115686Y-83045468D01*
X54342378Y-83025635D01*
X54562182Y-82966739D01*
X54768420Y-82870568D01*
X54954825Y-82740047D01*
X55115733Y-82579139D01*
X55132959Y-82554536D01*
X55177799Y-82515400D01*
X55235713Y-82501666D01*
X55293355Y-82516499D01*
X55337444Y-82556483D01*
X55357824Y-82612405D01*
X55361595Y-82647484D01*
X55380337Y-82697734D01*
X55411890Y-82782331D01*
X55498140Y-82897546D01*
X55613355Y-82983796D01*
X55748203Y-83034091D01*
X55807813Y-83040500D01*
X55906186Y-83040500D01*
X55968186Y-83057113D01*
X56013573Y-83102500D01*
X56030186Y-83164500D01*
X56030186Y-84308853D01*
X56016175Y-84366110D01*
X55977308Y-84410429D01*
X55920858Y-84449954D01*
X55759953Y-84610859D01*
X55629430Y-84797267D01*
X55602105Y-84855866D01*
X55556348Y-84908041D01*
X55489723Y-84927460D01*
X55423099Y-84908040D01*
X55377342Y-84855865D01*
X55350133Y-84797515D01*
X55299025Y-84724526D01*
X54573553Y-85449998D01*
X54573553Y-85449999D01*
X55299025Y-86175472D01*
X55350136Y-86102479D01*
X55377342Y-86044135D01*
X55423098Y-85991959D01*
X55489723Y-85972539D01*
X55556348Y-85991958D01*
X55602106Y-86044133D01*
X55629433Y-86102736D01*
X55759953Y-86289140D01*
X55920859Y-86450046D01*
X56107264Y-86580567D01*
X56107265Y-86580567D01*
X56107266Y-86580568D01*
X56313504Y-86676739D01*
X56533308Y-86735635D01*
X56760000Y-86755468D01*
X56986692Y-86735635D01*
X57055048Y-86717319D01*
X57119234Y-86717319D01*
X57174822Y-86749413D01*
X57989196Y-87563787D01*
X58002096Y-87579888D01*
X58053223Y-87627900D01*
X58056020Y-87630611D01*
X58075529Y-87650120D01*
X58078711Y-87652588D01*
X58087571Y-87660155D01*
X58117542Y-87688300D01*
X58119418Y-87690062D01*
X58136970Y-87699711D01*
X58153238Y-87710397D01*
X58169064Y-87722673D01*
X58209146Y-87740017D01*
X58219633Y-87745155D01*
X58257907Y-87766197D01*
X58266410Y-87768379D01*
X58277308Y-87771178D01*
X58295713Y-87777478D01*
X58314104Y-87785437D01*
X58357250Y-87792270D01*
X58368668Y-87794635D01*
X58410981Y-87805500D01*
X58431017Y-87805500D01*
X58450415Y-87807027D01*
X58485670Y-87812611D01*
X58485558Y-87813312D01*
X58528271Y-87820077D01*
X58528797Y-87820304D01*
X58529104Y-87820437D01*
X58572250Y-87827270D01*
X58583668Y-87829635D01*
X58625981Y-87840500D01*
X58646016Y-87840500D01*
X58665415Y-87842027D01*
X58685196Y-87845160D01*
X58728674Y-87841050D01*
X58740344Y-87840500D01*
X59295812Y-87840500D01*
X59353069Y-87854511D01*
X59397387Y-87893377D01*
X59509953Y-88054140D01*
X59670859Y-88215046D01*
X59785858Y-88295568D01*
X59857266Y-88345568D01*
X59915275Y-88372618D01*
X59967450Y-88418375D01*
X59986869Y-88485000D01*
X59967450Y-88551625D01*
X59915275Y-88597382D01*
X59857263Y-88624433D01*
X59670859Y-88754953D01*
X59509953Y-88915859D01*
X59379432Y-89102264D01*
X59283258Y-89308507D01*
X59281782Y-89314019D01*
X59249687Y-89369605D01*
X59194099Y-89401696D01*
X59129912Y-89401694D01*
X59074326Y-89369599D01*
X59042234Y-89314012D01*
X59040803Y-89308673D01*
X59036739Y-89293504D01*
X58940568Y-89087266D01*
X58935130Y-89079500D01*
X58810046Y-88900859D01*
X58649140Y-88739953D01*
X58462735Y-88609432D01*
X58256497Y-88513261D01*
X58036689Y-88454364D01*
X57810000Y-88434531D01*
X57583310Y-88454364D01*
X57363502Y-88513261D01*
X57157264Y-88609432D01*
X56970859Y-88739953D01*
X56809953Y-88900859D01*
X56679432Y-89087264D01*
X56583261Y-89293502D01*
X56524364Y-89513310D01*
X56504531Y-89740000D01*
X56524364Y-89966689D01*
X56583261Y-90186497D01*
X56679432Y-90392735D01*
X56809953Y-90579140D01*
X56970858Y-90740045D01*
X56970861Y-90740047D01*
X57087722Y-90821873D01*
X57123985Y-90861446D01*
X57140126Y-90912639D01*
X57133120Y-90965857D01*
X57104279Y-91011128D01*
X55474821Y-92640586D01*
X55419234Y-92672680D01*
X55355047Y-92672680D01*
X55286690Y-92654364D01*
X55059999Y-92634531D01*
X54833310Y-92654364D01*
X54613502Y-92713261D01*
X54407264Y-92809432D01*
X54220859Y-92939953D01*
X54059953Y-93100859D01*
X53929432Y-93287264D01*
X53833261Y-93493502D01*
X53774364Y-93713310D01*
X53754531Y-93939999D01*
X53774364Y-94166689D01*
X53833261Y-94386497D01*
X53929432Y-94592735D01*
X54059953Y-94779140D01*
X54220859Y-94940046D01*
X54407264Y-95070567D01*
X54407265Y-95070567D01*
X54407266Y-95070568D01*
X54613504Y-95166739D01*
X54833308Y-95225635D01*
X55060000Y-95245468D01*
X55286692Y-95225635D01*
X55506496Y-95166739D01*
X55712734Y-95070568D01*
X55899139Y-94940047D01*
X56060047Y-94779139D01*
X56190568Y-94592734D01*
X56286739Y-94386496D01*
X56345635Y-94166692D01*
X56365468Y-93940000D01*
X56345635Y-93713308D01*
X56327319Y-93644951D01*
X56327319Y-93580763D01*
X56359411Y-93525178D01*
X57972771Y-91911819D01*
X58013000Y-91884939D01*
X58060453Y-91875500D01*
X59114427Y-91875500D01*
X59169270Y-91888288D01*
X59212802Y-91924013D01*
X59236044Y-91975308D01*
X59234202Y-92031592D01*
X59224364Y-92068307D01*
X59204531Y-92295000D01*
X59224364Y-92521689D01*
X59283261Y-92741497D01*
X59379432Y-92947735D01*
X59509953Y-93134140D01*
X59670859Y-93295046D01*
X59829905Y-93406410D01*
X59857266Y-93425568D01*
X59894068Y-93442729D01*
X59915275Y-93452618D01*
X59967450Y-93498375D01*
X59986869Y-93565000D01*
X59967450Y-93631625D01*
X59915275Y-93677382D01*
X59857263Y-93704433D01*
X59670859Y-93834953D01*
X59509953Y-93995859D01*
X59379432Y-94182264D01*
X59283261Y-94388502D01*
X59224364Y-94608310D01*
X59204531Y-94834999D01*
X59224364Y-95061689D01*
X59283261Y-95281497D01*
X59379432Y-95487735D01*
X59509953Y-95674140D01*
X59670859Y-95835046D01*
X59831623Y-95947613D01*
X59870489Y-95991931D01*
X59884500Y-96049188D01*
X59884500Y-96160812D01*
X59870489Y-96218069D01*
X59831623Y-96262387D01*
X59670859Y-96374953D01*
X59509953Y-96535859D01*
X59379432Y-96722264D01*
X59283261Y-96928502D01*
X59224364Y-97148310D01*
X59204531Y-97375000D01*
X59224364Y-97601689D01*
X59283261Y-97821497D01*
X59379432Y-98027735D01*
X59509953Y-98214140D01*
X59670859Y-98375046D01*
X59831623Y-98487613D01*
X59870489Y-98531931D01*
X59884500Y-98589188D01*
X59884500Y-101546752D01*
X59865080Y-101613378D01*
X59820585Y-101652398D01*
X59821153Y-101653209D01*
X59813747Y-101658393D01*
X59812903Y-101659135D01*
X59812264Y-101659432D01*
X59625859Y-101789953D01*
X59464953Y-101950859D01*
X59334431Y-102137266D01*
X59307380Y-102195276D01*
X59261622Y-102247451D01*
X59194997Y-102266869D01*
X59128373Y-102247449D01*
X59082617Y-102195273D01*
X59061906Y-102150859D01*
X59055568Y-102137266D01*
X58981378Y-102031311D01*
X58925046Y-101950859D01*
X58764140Y-101789953D01*
X58577735Y-101659432D01*
X58371497Y-101563261D01*
X58151689Y-101504364D01*
X57925000Y-101484531D01*
X57698310Y-101504364D01*
X57478502Y-101563261D01*
X57272264Y-101659432D01*
X57085859Y-101789953D01*
X56924953Y-101950859D01*
X56794432Y-102137264D01*
X56698261Y-102343502D01*
X56639364Y-102563310D01*
X56619531Y-102789999D01*
X56639364Y-103016689D01*
X56698261Y-103236497D01*
X56794432Y-103442735D01*
X56924953Y-103629140D01*
X57085859Y-103790046D01*
X57246623Y-103902613D01*
X57285489Y-103946931D01*
X57299500Y-104004188D01*
X57299500Y-107244151D01*
X57290061Y-107291604D01*
X57263181Y-107331832D01*
X57044832Y-107550181D01*
X57004604Y-107577061D01*
X56957151Y-107586500D01*
X48262638Y-107586500D01*
X48242131Y-107584235D01*
X48172021Y-107586439D01*
X48168126Y-107586500D01*
X48140544Y-107586500D01*
X48136559Y-107587003D01*
X48124927Y-107587918D01*
X48081263Y-107589290D01*
X48062023Y-107594880D01*
X48042975Y-107598825D01*
X48023103Y-107601335D01*
X47982493Y-107617413D01*
X47971448Y-107621194D01*
X47929504Y-107633381D01*
X47912259Y-107643579D01*
X47894798Y-107652133D01*
X47876161Y-107659512D01*
X47840825Y-107685185D01*
X47831068Y-107691595D01*
X47793474Y-107713829D01*
X47779307Y-107727996D01*
X47764518Y-107740626D01*
X47748307Y-107752404D01*
X47720466Y-107786058D01*
X47712605Y-107794697D01*
X45516208Y-109991093D01*
X45500110Y-110003990D01*
X45452096Y-110055119D01*
X45449391Y-110057911D01*
X45429874Y-110077428D01*
X45427415Y-110080599D01*
X45419842Y-110089466D01*
X45389935Y-110121314D01*
X45380285Y-110138868D01*
X45369609Y-110155122D01*
X45357326Y-110170957D01*
X45339975Y-110211052D01*
X45334838Y-110221538D01*
X45313802Y-110259801D01*
X45308821Y-110279203D01*
X45302520Y-110297605D01*
X45294561Y-110315996D01*
X45287728Y-110359136D01*
X45285360Y-110370568D01*
X45274500Y-110412872D01*
X45274500Y-110432910D01*
X45272973Y-110452309D01*
X45269840Y-110472088D01*
X45273950Y-110515569D01*
X45274500Y-110527238D01*
X45274500Y-111925501D01*
X45257887Y-111987501D01*
X45212500Y-112032888D01*
X45150500Y-112049501D01*
X45002128Y-112049501D01*
X44987049Y-112051122D01*
X44942515Y-112055909D01*
X44807667Y-112106204D01*
X44798811Y-112112835D01*
X44735553Y-112137075D01*
X44668996Y-112124453D01*
X44619005Y-112078736D01*
X44600500Y-112013569D01*
X44600500Y-95019026D01*
X49334526Y-95019026D01*
X49407515Y-95070133D01*
X49613673Y-95166266D01*
X49833397Y-95225141D01*
X50060000Y-95244966D01*
X50286602Y-95225141D01*
X50506326Y-95166266D01*
X50712480Y-95070134D01*
X50785472Y-95019025D01*
X50060001Y-94293553D01*
X50060000Y-94293553D01*
X49334526Y-95019025D01*
X49334526Y-95019026D01*
X44600500Y-95019026D01*
X44600500Y-93939999D01*
X48755033Y-93939999D01*
X48774858Y-94166602D01*
X48833733Y-94386326D01*
X48929866Y-94592484D01*
X48980972Y-94665471D01*
X48980974Y-94665472D01*
X49706446Y-93940001D01*
X50413553Y-93940001D01*
X51139025Y-94665472D01*
X51190134Y-94592480D01*
X51286266Y-94386326D01*
X51345141Y-94166602D01*
X51364966Y-93939999D01*
X51345141Y-93713397D01*
X51286266Y-93493673D01*
X51190133Y-93287515D01*
X51139025Y-93214526D01*
X50413553Y-93940000D01*
X50413553Y-93940001D01*
X49706446Y-93940001D01*
X49706446Y-93940000D01*
X48980973Y-93214526D01*
X48980973Y-93214527D01*
X48929865Y-93287516D01*
X48833733Y-93493672D01*
X48774858Y-93713397D01*
X48755033Y-93939999D01*
X44600500Y-93939999D01*
X44600500Y-92860973D01*
X49334526Y-92860973D01*
X50060000Y-93586446D01*
X50060001Y-93586446D01*
X50785472Y-92860974D01*
X50785471Y-92860972D01*
X50712484Y-92809866D01*
X50506326Y-92713733D01*
X50286602Y-92654858D01*
X50059999Y-92635033D01*
X49833397Y-92654858D01*
X49613672Y-92713733D01*
X49407516Y-92809865D01*
X49334527Y-92860973D01*
X49334526Y-92860973D01*
X44600500Y-92860973D01*
X44600500Y-90819026D01*
X52084526Y-90819026D01*
X52157515Y-90870133D01*
X52363673Y-90966266D01*
X52583397Y-91025141D01*
X52810000Y-91044966D01*
X53036602Y-91025141D01*
X53256326Y-90966266D01*
X53462480Y-90870134D01*
X53535472Y-90819025D01*
X52810001Y-90093553D01*
X52810000Y-90093553D01*
X52084526Y-90819025D01*
X52084526Y-90819026D01*
X44600500Y-90819026D01*
X44600500Y-89740000D01*
X51505033Y-89740000D01*
X51524858Y-89966602D01*
X51583733Y-90186326D01*
X51679866Y-90392484D01*
X51730972Y-90465471D01*
X51730974Y-90465472D01*
X52456446Y-89740001D01*
X53163553Y-89740001D01*
X53889025Y-90465472D01*
X53940134Y-90392480D01*
X54036266Y-90186326D01*
X54095141Y-89966602D01*
X54114966Y-89740000D01*
X54095141Y-89513397D01*
X54036266Y-89293673D01*
X53940133Y-89087515D01*
X53889025Y-89014526D01*
X53163553Y-89740000D01*
X53163553Y-89740001D01*
X52456446Y-89740001D01*
X52456446Y-89740000D01*
X51730973Y-89014526D01*
X51730973Y-89014527D01*
X51679865Y-89087516D01*
X51583733Y-89293672D01*
X51524858Y-89513397D01*
X51505033Y-89740000D01*
X44600500Y-89740000D01*
X44600500Y-64631924D01*
X44616047Y-64571808D01*
X44658790Y-64526766D01*
X44718011Y-64508094D01*
X44778858Y-64520474D01*
X44826073Y-64560799D01*
X44861505Y-64611401D01*
X45028599Y-64778495D01*
X45222170Y-64914035D01*
X45436337Y-65013903D01*
X45664592Y-65075063D01*
X45900000Y-65095659D01*
X46135408Y-65075063D01*
X46363663Y-65013903D01*
X46577830Y-64914035D01*
X46771401Y-64778495D01*
X46938495Y-64611401D01*
X47074035Y-64417830D01*
X47173903Y-64203663D01*
X47235063Y-63975408D01*
X47255659Y-63740000D01*
X47235063Y-63504592D01*
X47173903Y-63276337D01*
X47074035Y-63062171D01*
X46938495Y-62868599D01*
X46771401Y-62701505D01*
X46585839Y-62571573D01*
X46546975Y-62527257D01*
X46532964Y-62470000D01*
X46546975Y-62412743D01*
X46585839Y-62368426D01*
X46771401Y-62238495D01*
X46938495Y-62071401D01*
X47074035Y-61877830D01*
X47173903Y-61663663D01*
X47235063Y-61435408D01*
X47255659Y-61200000D01*
X47235063Y-60964592D01*
X47173903Y-60736337D01*
X47074035Y-60522171D01*
X46938495Y-60328599D01*
X46771401Y-60161505D01*
X46585402Y-60031267D01*
X46546539Y-59986951D01*
X46532528Y-59929694D01*
X46546539Y-59872437D01*
X46585405Y-59828119D01*
X46771078Y-59698109D01*
X46938106Y-59531081D01*
X47073600Y-59337576D01*
X47173430Y-59123492D01*
X47230636Y-58910000D01*
X45774000Y-58910000D01*
X45712000Y-58893387D01*
X45666613Y-58848000D01*
X45650000Y-58786000D01*
X45650000Y-58534000D01*
X45666613Y-58472000D01*
X45712000Y-58426613D01*
X45774000Y-58410000D01*
X47230636Y-58410000D01*
X47230635Y-58409999D01*
X47173430Y-58196507D01*
X47073599Y-57982421D01*
X46938109Y-57788921D01*
X46771081Y-57621893D01*
X46585404Y-57491880D01*
X46546539Y-57447562D01*
X46532528Y-57390305D01*
X46546539Y-57333048D01*
X46585402Y-57288732D01*
X46771401Y-57158495D01*
X46938495Y-56991401D01*
X47074035Y-56797830D01*
X47173903Y-56583663D01*
X47235063Y-56355408D01*
X47255659Y-56120000D01*
X47235063Y-55884592D01*
X47173903Y-55656337D01*
X47074035Y-55442171D01*
X46938495Y-55248599D01*
X46771401Y-55081505D01*
X46585402Y-54951267D01*
X46546539Y-54906951D01*
X46532528Y-54849694D01*
X46546539Y-54792437D01*
X46585405Y-54748119D01*
X46771078Y-54618109D01*
X46938106Y-54451081D01*
X47073600Y-54257576D01*
X47173430Y-54043492D01*
X47230636Y-53830000D01*
X45774000Y-53830000D01*
X45712000Y-53813387D01*
X45666613Y-53768000D01*
X45650000Y-53706000D01*
X45650000Y-53454000D01*
X45666613Y-53392000D01*
X45712000Y-53346613D01*
X45774000Y-53330000D01*
X47230636Y-53330000D01*
X47230635Y-53329999D01*
X47173430Y-53116507D01*
X47073599Y-52902421D01*
X46938109Y-52708921D01*
X46771081Y-52541893D01*
X46585404Y-52411880D01*
X46546539Y-52367562D01*
X46532528Y-52310305D01*
X46546539Y-52253048D01*
X46585402Y-52208732D01*
X46771401Y-52078495D01*
X46938495Y-51911401D01*
X47038642Y-51768375D01*
X47082960Y-51729511D01*
X47140217Y-51715500D01*
X49328837Y-51715500D01*
X49376290Y-51724939D01*
G37*
%TD.AperFunction*%
%TA.AperFunction,Conductor*%
G36*
X65629230Y-92807708D02*
G01*
X65641965Y-92814708D01*
X65658238Y-92825397D01*
X65674064Y-92837673D01*
X65714146Y-92855017D01*
X65724633Y-92860155D01*
X65762907Y-92881197D01*
X65771410Y-92883379D01*
X65782308Y-92886178D01*
X65800713Y-92892478D01*
X65819104Y-92900437D01*
X65862250Y-92907270D01*
X65873668Y-92909635D01*
X65915981Y-92920500D01*
X65936016Y-92920500D01*
X65955415Y-92922027D01*
X65975196Y-92925160D01*
X66018674Y-92921050D01*
X66030344Y-92920500D01*
X66915812Y-92920500D01*
X66973069Y-92934511D01*
X67017387Y-92973377D01*
X67129953Y-93134140D01*
X67290859Y-93295046D01*
X67449905Y-93406410D01*
X67477266Y-93425568D01*
X67514068Y-93442729D01*
X67535275Y-93452618D01*
X67587450Y-93498375D01*
X67606869Y-93565000D01*
X67587450Y-93631625D01*
X67535275Y-93677382D01*
X67477263Y-93704433D01*
X67290859Y-93834953D01*
X67129953Y-93995859D01*
X66999432Y-94182264D01*
X66903261Y-94388502D01*
X66844364Y-94608310D01*
X66824531Y-94834999D01*
X66844364Y-95061689D01*
X66903261Y-95281497D01*
X66999432Y-95487735D01*
X67129953Y-95674140D01*
X67290859Y-95835046D01*
X67451623Y-95947613D01*
X67490489Y-95991931D01*
X67504500Y-96049188D01*
X67504500Y-96160812D01*
X67490489Y-96218069D01*
X67451623Y-96262387D01*
X67290859Y-96374953D01*
X67129953Y-96535859D01*
X66999432Y-96722264D01*
X66903261Y-96928502D01*
X66844364Y-97148310D01*
X66824531Y-97375000D01*
X66844364Y-97601689D01*
X66903261Y-97821497D01*
X66999432Y-98027735D01*
X67129953Y-98214140D01*
X67290859Y-98375046D01*
X67451623Y-98487613D01*
X67490489Y-98531931D01*
X67504500Y-98589188D01*
X67504500Y-101959952D01*
X67495061Y-102007405D01*
X67468183Y-102047630D01*
X67416565Y-102099248D01*
X67364950Y-102150863D01*
X67234432Y-102337264D01*
X67138261Y-102543502D01*
X67079364Y-102763310D01*
X67059531Y-102990000D01*
X67079364Y-103216689D01*
X67138261Y-103436497D01*
X67234432Y-103642735D01*
X67364953Y-103829140D01*
X67525859Y-103990046D01*
X67712264Y-104120567D01*
X67712265Y-104120567D01*
X67712266Y-104120568D01*
X67918504Y-104216739D01*
X68138308Y-104275635D01*
X68365000Y-104295468D01*
X68591692Y-104275635D01*
X68811496Y-104216739D01*
X69017734Y-104120568D01*
X69204139Y-103990047D01*
X69365047Y-103829139D01*
X69495568Y-103642734D01*
X69522618Y-103584724D01*
X69568375Y-103532549D01*
X69635000Y-103513129D01*
X69701625Y-103532549D01*
X69747382Y-103584725D01*
X69774431Y-103642733D01*
X69904953Y-103829140D01*
X70065859Y-103990046D01*
X70226623Y-104102613D01*
X70265489Y-104146931D01*
X70279500Y-104204188D01*
X70279500Y-105831148D01*
X70270061Y-105878601D01*
X70243181Y-105918829D01*
X69671278Y-106490731D01*
X69631050Y-106517611D01*
X69583597Y-106527050D01*
X69524402Y-106527050D01*
X69339247Y-106566405D01*
X69166319Y-106643398D01*
X69013179Y-106754660D01*
X68886516Y-106895333D01*
X68791870Y-107059265D01*
X68733376Y-107239292D01*
X68728861Y-107282250D01*
X68714650Y-107417463D01*
X68694131Y-107473840D01*
X68649545Y-107513985D01*
X68591330Y-107528500D01*
X67402982Y-107528500D01*
X67355529Y-107519061D01*
X67315301Y-107492181D01*
X66335034Y-106511915D01*
X66306193Y-106466644D01*
X66299187Y-106413426D01*
X66315329Y-106362233D01*
X66330543Y-106335882D01*
X66359179Y-106286284D01*
X66417674Y-106106256D01*
X66437460Y-105918000D01*
X66417674Y-105729744D01*
X66380778Y-105616191D01*
X66359179Y-105549715D01*
X66264533Y-105385783D01*
X66137870Y-105245110D01*
X65984730Y-105133848D01*
X65811802Y-105056855D01*
X65626648Y-105017500D01*
X65626646Y-105017500D01*
X65569500Y-105017500D01*
X65507500Y-105000887D01*
X65462113Y-104955500D01*
X65445500Y-104893500D01*
X65445500Y-92916374D01*
X65461789Y-92854939D01*
X65506375Y-92809644D01*
X65567546Y-92792389D01*
X65629230Y-92807708D01*
G37*
%TD.AperFunction*%
%TA.AperFunction,Conductor*%
G36*
X62471290Y-90439939D02*
G01*
X62511518Y-90466819D01*
X63258022Y-91213323D01*
X63288763Y-91264231D01*
X63292265Y-91323598D01*
X63267723Y-91377768D01*
X63220782Y-91414281D01*
X63212770Y-91417848D01*
X63059629Y-91529111D01*
X62932966Y-91669783D01*
X62838320Y-91833715D01*
X62779826Y-92013742D01*
X62760040Y-92202000D01*
X62779826Y-92390257D01*
X62838320Y-92570284D01*
X62932966Y-92734216D01*
X62958150Y-92762185D01*
X62981764Y-92800719D01*
X62990000Y-92845157D01*
X62990000Y-103135336D01*
X62980561Y-103182789D01*
X62953680Y-103223017D01*
X60790915Y-105385784D01*
X58762181Y-107414518D01*
X58712818Y-107444768D01*
X58655102Y-107449310D01*
X58601615Y-107427155D01*
X58564015Y-107383132D01*
X58550500Y-107326837D01*
X58550500Y-104004188D01*
X58564511Y-103946931D01*
X58603377Y-103902613D01*
X58764140Y-103790046D01*
X58925046Y-103629140D01*
X58925047Y-103629139D01*
X59055568Y-103442734D01*
X59082618Y-103384724D01*
X59128375Y-103332549D01*
X59195000Y-103313129D01*
X59261625Y-103332549D01*
X59307382Y-103384725D01*
X59334431Y-103442733D01*
X59464953Y-103629140D01*
X59625859Y-103790046D01*
X59812264Y-103920567D01*
X59812265Y-103920567D01*
X59812266Y-103920568D01*
X60018504Y-104016739D01*
X60238308Y-104075635D01*
X60465000Y-104095468D01*
X60691692Y-104075635D01*
X60911496Y-104016739D01*
X61117734Y-103920568D01*
X61304139Y-103790047D01*
X61465047Y-103629139D01*
X61595568Y-103442734D01*
X61691739Y-103236496D01*
X61750635Y-103016692D01*
X61770468Y-102790000D01*
X61750635Y-102563308D01*
X61691739Y-102343504D01*
X61595568Y-102137266D01*
X61584043Y-102120807D01*
X61465046Y-101950859D01*
X61304140Y-101789953D01*
X61188377Y-101708896D01*
X61149511Y-101664578D01*
X61135500Y-101607321D01*
X61135500Y-98589188D01*
X61149511Y-98531931D01*
X61188377Y-98487613D01*
X61349140Y-98375046D01*
X61510046Y-98214140D01*
X61640567Y-98027735D01*
X61640568Y-98027734D01*
X61736739Y-97821496D01*
X61795635Y-97601692D01*
X61815468Y-97375000D01*
X61795635Y-97148308D01*
X61736739Y-96928504D01*
X61640568Y-96722266D01*
X61510047Y-96535861D01*
X61510046Y-96535859D01*
X61349140Y-96374953D01*
X61188377Y-96262387D01*
X61149511Y-96218069D01*
X61135500Y-96160812D01*
X61135500Y-96049188D01*
X61149511Y-95991931D01*
X61188377Y-95947613D01*
X61349140Y-95835046D01*
X61510046Y-95674140D01*
X61609421Y-95532216D01*
X61640568Y-95487734D01*
X61736739Y-95281496D01*
X61795635Y-95061692D01*
X61815468Y-94835000D01*
X61795635Y-94608308D01*
X61736739Y-94388504D01*
X61640568Y-94182266D01*
X61610172Y-94138856D01*
X61510046Y-93995859D01*
X61349140Y-93834953D01*
X61162733Y-93704431D01*
X61104725Y-93677382D01*
X61052549Y-93631625D01*
X61033129Y-93565000D01*
X61052549Y-93498375D01*
X61104725Y-93452618D01*
X61125932Y-93442729D01*
X61162734Y-93425568D01*
X61349139Y-93295047D01*
X61510047Y-93134139D01*
X61640568Y-92947734D01*
X61736739Y-92741496D01*
X61795635Y-92521692D01*
X61815468Y-92295000D01*
X61795635Y-92068308D01*
X61736739Y-91848504D01*
X61640568Y-91642266D01*
X61628128Y-91624500D01*
X61510046Y-91455859D01*
X61349140Y-91294953D01*
X61162733Y-91164431D01*
X61104725Y-91137382D01*
X61052549Y-91091625D01*
X61033129Y-91025000D01*
X61052549Y-90958375D01*
X61104725Y-90912618D01*
X61135177Y-90898418D01*
X61162734Y-90885568D01*
X61349139Y-90755047D01*
X61510047Y-90594139D01*
X61587603Y-90483377D01*
X61631921Y-90444511D01*
X61689178Y-90430500D01*
X62423837Y-90430500D01*
X62471290Y-90439939D01*
G37*
%TD.AperFunction*%
%TA.AperFunction,Conductor*%
G36*
X71786087Y-82774511D02*
G01*
X71830405Y-82813377D01*
X71879953Y-82884140D01*
X72040859Y-83045046D01*
X72155045Y-83124999D01*
X72227266Y-83175568D01*
X72285275Y-83202618D01*
X72337450Y-83248375D01*
X72356869Y-83315000D01*
X72337450Y-83381625D01*
X72285275Y-83427382D01*
X72227263Y-83454433D01*
X72040859Y-83584953D01*
X71879953Y-83745859D01*
X71749432Y-83932265D01*
X71728150Y-83977905D01*
X71682393Y-84030081D01*
X71615768Y-84049500D01*
X69344188Y-84049500D01*
X69286931Y-84035489D01*
X69242613Y-83996623D01*
X69130046Y-83835859D01*
X68969140Y-83674953D01*
X68782733Y-83544431D01*
X68724725Y-83517382D01*
X68672549Y-83471625D01*
X68653129Y-83405000D01*
X68672549Y-83338375D01*
X68724725Y-83292618D01*
X68782734Y-83265568D01*
X68969139Y-83135047D01*
X69130047Y-82974139D01*
X69242612Y-82813377D01*
X69286931Y-82774511D01*
X69344188Y-82760500D01*
X71728830Y-82760500D01*
X71786087Y-82774511D01*
G37*
%TD.AperFunction*%
%TA.AperFunction,Conductor*%
G36*
X81079360Y-34519005D02*
G01*
X81125077Y-34568996D01*
X81137699Y-34635553D01*
X81113460Y-34698811D01*
X81106647Y-34707911D01*
X81056402Y-34842624D01*
X81050000Y-34902176D01*
X81050000Y-35550000D01*
X82526000Y-35550000D01*
X82588000Y-35566613D01*
X82633387Y-35612000D01*
X82650000Y-35674000D01*
X82650000Y-38466000D01*
X82633387Y-38528000D01*
X82588000Y-38573387D01*
X82526000Y-38590000D01*
X81069364Y-38590000D01*
X81126569Y-38803492D01*
X81226399Y-39017576D01*
X81361893Y-39211081D01*
X81528918Y-39378106D01*
X81714595Y-39508119D01*
X81753460Y-39552437D01*
X81767471Y-39609694D01*
X81753460Y-39666951D01*
X81714595Y-39711269D01*
X81528595Y-39841508D01*
X81361505Y-40008598D01*
X81261359Y-40151623D01*
X81217041Y-40190489D01*
X81159784Y-40204500D01*
X78674151Y-40204500D01*
X78666665Y-40204274D01*
X78664385Y-40204136D01*
X78608912Y-40200780D01*
X78552011Y-40211207D01*
X78544612Y-40212333D01*
X78487157Y-40219310D01*
X78478383Y-40222638D01*
X78456776Y-40228661D01*
X78447562Y-40230349D01*
X78394782Y-40254102D01*
X78387868Y-40256965D01*
X78333775Y-40277481D01*
X78326058Y-40282807D01*
X78306524Y-40293824D01*
X78297973Y-40297673D01*
X78252417Y-40333363D01*
X78246387Y-40337800D01*
X78198770Y-40370668D01*
X78160406Y-40413972D01*
X78155273Y-40419424D01*
X73274312Y-45300385D01*
X73268860Y-45305518D01*
X73225556Y-45343882D01*
X73192688Y-45391499D01*
X73188251Y-45397529D01*
X73152561Y-45443085D01*
X73148712Y-45451636D01*
X73137695Y-45471170D01*
X73132369Y-45478887D01*
X73111853Y-45532980D01*
X73108990Y-45539894D01*
X73085237Y-45592674D01*
X73083549Y-45601888D01*
X73077526Y-45623495D01*
X73074198Y-45632269D01*
X73067221Y-45689724D01*
X73066095Y-45697123D01*
X73055668Y-45754024D01*
X73059162Y-45811776D01*
X73059388Y-45819263D01*
X73059388Y-47995501D01*
X73042775Y-48057501D01*
X72997388Y-48102888D01*
X72935388Y-48119501D01*
X72887016Y-48119501D01*
X72857210Y-48122704D01*
X72827403Y-48125909D01*
X72692557Y-48176204D01*
X72577342Y-48262454D01*
X72491092Y-48377668D01*
X72440797Y-48512515D01*
X72440797Y-48512517D01*
X72435437Y-48562378D01*
X72434388Y-48572131D01*
X72434388Y-48670500D01*
X72417775Y-48732500D01*
X72372388Y-48777887D01*
X72310388Y-48794500D01*
X71145159Y-48794500D01*
X71083159Y-48777887D01*
X71037772Y-48732500D01*
X70945183Y-48572131D01*
X70908959Y-48509388D01*
X70750050Y-48310123D01*
X70563217Y-48136768D01*
X70352634Y-47993195D01*
X70123004Y-47882611D01*
X69879458Y-47807487D01*
X69627435Y-47769500D01*
X69372565Y-47769500D01*
X69120542Y-47807487D01*
X68876996Y-47882611D01*
X68647366Y-47993195D01*
X68594756Y-48029064D01*
X68436781Y-48136769D01*
X68249950Y-48310123D01*
X68091038Y-48509392D01*
X67963608Y-48730108D01*
X67870492Y-48967362D01*
X67813777Y-49215845D01*
X67794731Y-49470000D01*
X67813777Y-49724154D01*
X67870492Y-49972637D01*
X67963608Y-50209891D01*
X68083159Y-50416960D01*
X68091041Y-50430612D01*
X68249950Y-50629877D01*
X68436783Y-50803232D01*
X68647366Y-50946805D01*
X68647369Y-50946806D01*
X68647370Y-50946807D01*
X68754301Y-50998302D01*
X68805494Y-51044050D01*
X68824500Y-51110022D01*
X68824500Y-55577031D01*
X68812882Y-55629435D01*
X68780206Y-55672020D01*
X68732594Y-55696806D01*
X68708502Y-55703261D01*
X68502264Y-55799432D01*
X68315859Y-55929953D01*
X68154953Y-56090859D01*
X68077397Y-56201623D01*
X68033079Y-56240489D01*
X67975822Y-56254500D01*
X66154151Y-56254500D01*
X66146665Y-56254274D01*
X66144385Y-56254136D01*
X66088912Y-56250780D01*
X66032011Y-56261207D01*
X66024612Y-56262333D01*
X65967157Y-56269310D01*
X65958383Y-56272638D01*
X65936776Y-56278661D01*
X65927562Y-56280349D01*
X65874782Y-56304102D01*
X65867868Y-56306965D01*
X65813775Y-56327481D01*
X65806058Y-56332807D01*
X65786524Y-56343824D01*
X65777973Y-56347673D01*
X65732417Y-56383363D01*
X65726387Y-56387800D01*
X65678770Y-56420668D01*
X65640406Y-56463972D01*
X65635273Y-56469424D01*
X63819424Y-58285273D01*
X63813972Y-58290406D01*
X63770668Y-58328770D01*
X63737800Y-58376387D01*
X63733363Y-58382417D01*
X63697673Y-58427973D01*
X63693824Y-58436524D01*
X63682807Y-58456058D01*
X63677481Y-58463775D01*
X63656965Y-58517868D01*
X63654102Y-58524782D01*
X63630349Y-58577562D01*
X63628661Y-58586776D01*
X63622638Y-58608383D01*
X63619310Y-58617157D01*
X63612333Y-58674612D01*
X63611207Y-58682011D01*
X63600780Y-58738912D01*
X63604274Y-58796664D01*
X63604500Y-58804151D01*
X63604500Y-62973538D01*
X63590389Y-63030987D01*
X63551269Y-63075360D01*
X63496042Y-63096560D01*
X63437278Y-63089761D01*
X63388350Y-63056511D01*
X63343871Y-63007112D01*
X63333942Y-62999898D01*
X63190730Y-62895848D01*
X63017802Y-62818855D01*
X62832648Y-62779500D01*
X62832646Y-62779500D01*
X62643354Y-62779500D01*
X62643352Y-62779500D01*
X62458197Y-62818855D01*
X62285269Y-62895848D01*
X62132129Y-63007110D01*
X62081382Y-63063472D01*
X62039667Y-63093780D01*
X61989232Y-63104500D01*
X61532930Y-63104500D01*
X61476635Y-63090985D01*
X61432612Y-63053385D01*
X61410457Y-62999898D01*
X61414999Y-62942182D01*
X61420174Y-62926256D01*
X61439960Y-62738000D01*
X61420174Y-62549744D01*
X61380760Y-62428440D01*
X61361679Y-62369715D01*
X61267033Y-62205783D01*
X61140370Y-62065110D01*
X60987232Y-61953849D01*
X60900932Y-61915426D01*
X60871969Y-61902531D01*
X60834725Y-61876933D01*
X58772003Y-59814211D01*
X58759107Y-59798113D01*
X58707976Y-59750098D01*
X58705179Y-59747387D01*
X58685671Y-59727879D01*
X58682491Y-59725412D01*
X58673625Y-59717839D01*
X58641783Y-59687938D01*
X58624225Y-59678285D01*
X58607965Y-59667604D01*
X58592137Y-59655327D01*
X58552052Y-59637980D01*
X58541562Y-59632841D01*
X58503292Y-59611802D01*
X58483892Y-59606821D01*
X58465485Y-59600519D01*
X58447098Y-59592562D01*
X58403959Y-59585729D01*
X58392525Y-59583361D01*
X58350220Y-59572500D01*
X58330185Y-59572500D01*
X58310787Y-59570973D01*
X58303363Y-59569797D01*
X58291006Y-59567840D01*
X58291005Y-59567840D01*
X58257952Y-59570964D01*
X58247526Y-59571950D01*
X58235857Y-59572500D01*
X55313747Y-59572500D01*
X55263312Y-59561780D01*
X55221598Y-59531473D01*
X55215871Y-59525112D01*
X55062730Y-59413849D01*
X55062729Y-59413848D01*
X55062727Y-59413847D01*
X54889802Y-59336855D01*
X54704648Y-59297500D01*
X54704646Y-59297500D01*
X54539500Y-59297500D01*
X54477500Y-59280887D01*
X54432113Y-59235500D01*
X54415500Y-59173500D01*
X54415500Y-55144151D01*
X54415726Y-55136665D01*
X54415823Y-55135059D01*
X54419219Y-55078915D01*
X54408785Y-55021982D01*
X54407663Y-55014603D01*
X54400688Y-54957155D01*
X54400687Y-54957153D01*
X54400687Y-54957151D01*
X54397364Y-54948388D01*
X54391337Y-54926768D01*
X54389650Y-54917561D01*
X54365903Y-54864798D01*
X54363039Y-54857883D01*
X54358569Y-54846097D01*
X54342518Y-54803774D01*
X54337193Y-54796059D01*
X54326174Y-54776523D01*
X54322326Y-54767972D01*
X54319481Y-54764341D01*
X54286633Y-54722413D01*
X54282194Y-54716380D01*
X54249331Y-54668769D01*
X54206035Y-54630413D01*
X54200581Y-54625279D01*
X50154727Y-50579426D01*
X50149608Y-50573989D01*
X50111229Y-50530668D01*
X50063611Y-50497800D01*
X50057577Y-50493360D01*
X50012028Y-50457674D01*
X50012026Y-50457673D01*
X50003476Y-50453824D01*
X49983938Y-50442804D01*
X49976227Y-50437482D01*
X49922117Y-50416960D01*
X49915215Y-50414101D01*
X49889754Y-50402643D01*
X49862436Y-50390348D01*
X49853223Y-50388660D01*
X49831612Y-50382636D01*
X49822847Y-50379312D01*
X49765386Y-50372334D01*
X49757987Y-50371207D01*
X49701087Y-50360780D01*
X49645463Y-50364145D01*
X49643334Y-50364274D01*
X49635849Y-50364500D01*
X47140216Y-50364500D01*
X47082959Y-50350489D01*
X47038641Y-50311623D01*
X47008006Y-50267872D01*
X46938495Y-50168599D01*
X46771401Y-50001505D01*
X46585839Y-49871573D01*
X46546974Y-49827255D01*
X46532964Y-49769999D01*
X46546975Y-49712742D01*
X46585837Y-49668428D01*
X46771401Y-49538495D01*
X46938495Y-49371401D01*
X47074035Y-49177830D01*
X47173903Y-48963663D01*
X47235063Y-48735408D01*
X47255659Y-48500000D01*
X47235063Y-48264592D01*
X47173903Y-48036337D01*
X47074035Y-47822171D01*
X46938495Y-47628599D01*
X46771401Y-47461505D01*
X46585839Y-47331573D01*
X46546975Y-47287257D01*
X46532964Y-47230000D01*
X46546975Y-47172743D01*
X46585839Y-47128426D01*
X46771401Y-46998495D01*
X46938495Y-46831401D01*
X47074035Y-46637830D01*
X47173903Y-46423663D01*
X47235063Y-46195408D01*
X47255659Y-45960000D01*
X47235063Y-45724592D01*
X47173903Y-45496337D01*
X47074035Y-45282171D01*
X46938495Y-45088599D01*
X46771401Y-44921505D01*
X46585402Y-44791267D01*
X46546539Y-44746951D01*
X46532528Y-44689694D01*
X46546539Y-44632437D01*
X46585405Y-44588119D01*
X46771078Y-44458109D01*
X46938106Y-44291081D01*
X47073600Y-44097576D01*
X47173430Y-43883492D01*
X47230636Y-43670000D01*
X45774000Y-43670000D01*
X45712000Y-43653387D01*
X45666613Y-43608000D01*
X45650000Y-43546000D01*
X45650000Y-43294000D01*
X45666613Y-43232000D01*
X45712000Y-43186613D01*
X45774000Y-43170000D01*
X47230636Y-43170000D01*
X47230635Y-43169999D01*
X47195132Y-43037500D01*
X57724340Y-43037500D01*
X57744936Y-43272907D01*
X57776593Y-43391053D01*
X57806097Y-43501163D01*
X57905965Y-43715330D01*
X58041505Y-43908901D01*
X58208599Y-44075995D01*
X58351624Y-44176142D01*
X58390489Y-44220460D01*
X58404500Y-44277717D01*
X58404500Y-47156508D01*
X58390489Y-47213765D01*
X58351623Y-47258083D01*
X58240859Y-47335639D01*
X58079953Y-47496545D01*
X57949432Y-47682950D01*
X57853261Y-47889188D01*
X57794364Y-48108996D01*
X57774531Y-48335685D01*
X57794364Y-48562375D01*
X57853261Y-48782183D01*
X57949432Y-48988421D01*
X58079953Y-49174826D01*
X58240858Y-49335731D01*
X58265461Y-49352958D01*
X58304599Y-49397800D01*
X58318333Y-49455714D01*
X58303500Y-49513355D01*
X58263516Y-49557444D01*
X58207594Y-49577824D01*
X58172515Y-49581595D01*
X58037669Y-49631890D01*
X57922454Y-49718140D01*
X57836204Y-49833354D01*
X57785909Y-49968202D01*
X57779500Y-50027816D01*
X57779500Y-51723555D01*
X57785909Y-51783170D01*
X57811056Y-51850592D01*
X57836204Y-51918017D01*
X57922454Y-52033232D01*
X58037669Y-52119482D01*
X58172517Y-52169777D01*
X58232127Y-52176186D01*
X59927872Y-52176185D01*
X59987483Y-52169777D01*
X60122331Y-52119482D01*
X60237546Y-52033232D01*
X60323796Y-51918017D01*
X60374091Y-51783169D01*
X60380500Y-51723559D01*
X60380500Y-51675186D01*
X60397113Y-51613186D01*
X60442500Y-51567799D01*
X60504500Y-51551186D01*
X62990163Y-51551186D01*
X62997649Y-51551412D01*
X63055398Y-51554905D01*
X63055398Y-51554904D01*
X63055399Y-51554905D01*
X63112311Y-51544475D01*
X63119710Y-51543349D01*
X63177159Y-51536374D01*
X63185922Y-51533050D01*
X63207536Y-51527024D01*
X63216753Y-51525336D01*
X63216757Y-51525334D01*
X63216758Y-51525334D01*
X63269521Y-51501587D01*
X63276436Y-51498722D01*
X63330540Y-51478204D01*
X63338247Y-51472883D01*
X63357798Y-51461857D01*
X63366342Y-51458012D01*
X63411923Y-51422299D01*
X63417895Y-51417905D01*
X63465543Y-51385018D01*
X63503924Y-51341693D01*
X63509025Y-51336274D01*
X63737221Y-51108078D01*
X63795052Y-51075407D01*
X63861448Y-51077269D01*
X64040542Y-51132513D01*
X64292565Y-51170500D01*
X64547435Y-51170500D01*
X64799458Y-51132513D01*
X65043004Y-51057389D01*
X65272634Y-50946805D01*
X65483217Y-50803232D01*
X65670050Y-50629877D01*
X65828959Y-50430612D01*
X65956393Y-50209888D01*
X66049508Y-49972637D01*
X66106222Y-49724157D01*
X66125268Y-49470000D01*
X66106222Y-49215843D01*
X66049508Y-48967363D01*
X65956393Y-48730112D01*
X65932994Y-48689584D01*
X65865181Y-48572127D01*
X65828959Y-48509388D01*
X65670050Y-48310123D01*
X65483217Y-48136768D01*
X65272634Y-47993195D01*
X65043004Y-47882611D01*
X64799458Y-47807487D01*
X64547435Y-47769500D01*
X64292565Y-47769500D01*
X64040542Y-47807487D01*
X63796996Y-47882611D01*
X63567366Y-47993195D01*
X63514756Y-48029064D01*
X63356781Y-48136769D01*
X63169950Y-48310123D01*
X63011038Y-48509392D01*
X62883608Y-48730108D01*
X62790492Y-48967362D01*
X62733777Y-49215845D01*
X62714731Y-49470000D01*
X62733777Y-49724154D01*
X62790492Y-49972636D01*
X62809188Y-50020274D01*
X62817749Y-50067118D01*
X62808025Y-50113734D01*
X62781449Y-50153248D01*
X62770840Y-50163859D01*
X62730608Y-50190745D01*
X62683150Y-50200186D01*
X60504499Y-50200186D01*
X60442499Y-50183573D01*
X60397112Y-50138186D01*
X60380499Y-50076186D01*
X60380499Y-50027816D01*
X60377671Y-50001508D01*
X60374091Y-49968203D01*
X60323796Y-49833355D01*
X60237546Y-49718140D01*
X60122331Y-49631890D01*
X59987483Y-49581595D01*
X59952404Y-49577823D01*
X59896484Y-49557444D01*
X59856500Y-49513355D01*
X59841667Y-49455714D01*
X59855401Y-49397800D01*
X59894539Y-49352958D01*
X59896470Y-49351605D01*
X59919139Y-49335733D01*
X60080047Y-49174825D01*
X60210568Y-48988420D01*
X60306739Y-48782182D01*
X60365635Y-48562378D01*
X60385468Y-48335686D01*
X60365635Y-48108994D01*
X60306739Y-47889190D01*
X60210568Y-47682952D01*
X60207940Y-47679199D01*
X60080046Y-47496545D01*
X59919140Y-47335639D01*
X59808377Y-47258083D01*
X59769511Y-47213765D01*
X59755500Y-47156508D01*
X59755500Y-44277717D01*
X59769511Y-44220460D01*
X59808376Y-44176142D01*
X59842247Y-44152425D01*
X60858625Y-44152425D01*
X60942420Y-44211099D01*
X61156507Y-44310930D01*
X61384681Y-44372069D01*
X61620000Y-44392657D01*
X61855318Y-44372069D01*
X62083492Y-44310930D01*
X62297576Y-44211100D01*
X62381373Y-44152425D01*
X63398625Y-44152425D01*
X63482420Y-44211099D01*
X63696507Y-44310930D01*
X63924681Y-44372069D01*
X64160000Y-44392657D01*
X64395318Y-44372069D01*
X64623492Y-44310930D01*
X64837576Y-44211100D01*
X64921373Y-44152425D01*
X65938625Y-44152425D01*
X66022420Y-44211099D01*
X66236507Y-44310930D01*
X66464681Y-44372069D01*
X66700000Y-44392657D01*
X66935318Y-44372069D01*
X67163492Y-44310930D01*
X67377576Y-44211100D01*
X67461373Y-44152425D01*
X66700000Y-43391053D01*
X65938625Y-44152425D01*
X64921373Y-44152425D01*
X64160000Y-43391053D01*
X63398625Y-44152425D01*
X62381373Y-44152425D01*
X61620000Y-43391053D01*
X60858625Y-44152425D01*
X59842247Y-44152425D01*
X59951401Y-44075995D01*
X60118495Y-43908901D01*
X60248732Y-43722902D01*
X60293048Y-43684039D01*
X60350305Y-43670028D01*
X60407562Y-43684039D01*
X60451880Y-43722905D01*
X60505073Y-43798873D01*
X61266447Y-43037501D01*
X61973553Y-43037501D01*
X62734925Y-43798873D01*
X62788424Y-43722469D01*
X62832742Y-43683603D01*
X62889999Y-43669592D01*
X62947256Y-43683603D01*
X62991574Y-43722469D01*
X63045072Y-43798873D01*
X63045073Y-43798873D01*
X63806447Y-43037501D01*
X64513553Y-43037501D01*
X65274925Y-43798873D01*
X65328424Y-43722469D01*
X65372742Y-43683603D01*
X65429999Y-43669592D01*
X65487256Y-43683603D01*
X65531574Y-43722469D01*
X65585072Y-43798873D01*
X65585073Y-43798873D01*
X66346447Y-43037501D01*
X67053553Y-43037501D01*
X67818099Y-43802047D01*
X67857037Y-43807365D01*
X67902864Y-43837506D01*
X67931206Y-43884467D01*
X67955186Y-43956834D01*
X68047288Y-44106157D01*
X68171342Y-44230211D01*
X68171344Y-44230212D01*
X68320666Y-44322314D01*
X68432016Y-44359212D01*
X68487202Y-44377499D01*
X68497702Y-44378571D01*
X68589991Y-44388000D01*
X69890008Y-44387999D01*
X69992797Y-44377499D01*
X70159334Y-44322314D01*
X70308656Y-44230212D01*
X70432712Y-44106156D01*
X70524814Y-43956834D01*
X70579999Y-43790297D01*
X70590500Y-43687509D01*
X70590499Y-42387492D01*
X70579999Y-42284703D01*
X70524814Y-42118166D01*
X70432712Y-41968844D01*
X70432711Y-41968842D01*
X70308657Y-41844788D01*
X70183353Y-41767501D01*
X70159334Y-41752686D01*
X70151107Y-41749960D01*
X70095122Y-41711958D01*
X70067422Y-41650220D01*
X70076259Y-41583133D01*
X70106311Y-41546247D01*
X70103730Y-41543666D01*
X70111405Y-41535991D01*
X70278495Y-41368901D01*
X70414035Y-41175330D01*
X70513903Y-40961163D01*
X70575063Y-40732908D01*
X70595659Y-40497500D01*
X70575063Y-40262092D01*
X70513903Y-40033837D01*
X70414035Y-39819671D01*
X70278495Y-39626099D01*
X70111401Y-39459005D01*
X69917830Y-39323465D01*
X69703663Y-39223597D01*
X69642501Y-39207209D01*
X69475407Y-39162436D01*
X69240000Y-39141840D01*
X69004592Y-39162436D01*
X68776336Y-39223597D01*
X68562170Y-39323465D01*
X68368598Y-39459005D01*
X68201508Y-39626095D01*
X68201505Y-39626098D01*
X68201505Y-39626099D01*
X68071271Y-39812094D01*
X68071270Y-39812095D01*
X68026952Y-39850960D01*
X67969695Y-39864971D01*
X67912438Y-39850960D01*
X67868120Y-39812095D01*
X67814925Y-39736126D01*
X67814925Y-39736125D01*
X67053553Y-40497500D01*
X67053553Y-40497501D01*
X67814925Y-41258873D01*
X67868119Y-41182905D01*
X67912437Y-41144039D01*
X67969694Y-41130028D01*
X68026951Y-41144039D01*
X68071267Y-41182902D01*
X68201505Y-41368901D01*
X68201508Y-41368903D01*
X68201508Y-41368904D01*
X68376270Y-41543666D01*
X68373692Y-41546243D01*
X68403754Y-41583164D01*
X68412574Y-41650242D01*
X68384871Y-41711965D01*
X68328892Y-41749960D01*
X68320666Y-41752685D01*
X68171342Y-41844788D01*
X68047288Y-41968842D01*
X67955186Y-42118164D01*
X67931206Y-42190532D01*
X67902864Y-42237492D01*
X67857038Y-42267632D01*
X67818100Y-42272950D01*
X67053553Y-43037500D01*
X67053553Y-43037501D01*
X66346447Y-43037501D01*
X66346447Y-43037500D01*
X65585072Y-42276125D01*
X65585072Y-42276126D01*
X65531574Y-42352530D01*
X65487256Y-42391396D01*
X65429999Y-42405407D01*
X65372742Y-42391396D01*
X65328424Y-42352530D01*
X65274925Y-42276126D01*
X65274925Y-42276125D01*
X64513553Y-43037500D01*
X64513553Y-43037501D01*
X63806447Y-43037501D01*
X63806447Y-43037500D01*
X63045072Y-42276125D01*
X63045072Y-42276126D01*
X62991574Y-42352530D01*
X62947256Y-42391396D01*
X62889999Y-42405407D01*
X62832742Y-42391396D01*
X62788424Y-42352530D01*
X62734925Y-42276126D01*
X62734925Y-42276125D01*
X61973553Y-43037500D01*
X61973553Y-43037501D01*
X61266447Y-43037501D01*
X61266447Y-43037500D01*
X60505073Y-42276126D01*
X60451881Y-42352094D01*
X60407563Y-42390960D01*
X60350306Y-42404971D01*
X60293048Y-42390960D01*
X60248730Y-42352095D01*
X60118495Y-42166099D01*
X59951401Y-41999005D01*
X59842243Y-41922572D01*
X60858625Y-41922572D01*
X61620000Y-42683947D01*
X61620001Y-42683947D01*
X62381373Y-41922573D01*
X62381373Y-41922572D01*
X63398625Y-41922572D01*
X64160000Y-42683947D01*
X64160001Y-42683947D01*
X64921373Y-41922573D01*
X64921373Y-41922572D01*
X65938625Y-41922572D01*
X66700000Y-42683947D01*
X66700001Y-42683947D01*
X67461373Y-41922573D01*
X67461373Y-41922572D01*
X67384969Y-41869074D01*
X67346103Y-41824756D01*
X67332092Y-41767499D01*
X67346103Y-41710242D01*
X67384969Y-41665924D01*
X67461373Y-41612425D01*
X66700000Y-40851053D01*
X65938625Y-41612425D01*
X66015031Y-41665925D01*
X66053897Y-41710244D01*
X66067907Y-41767501D01*
X66053896Y-41824758D01*
X66015029Y-41869076D01*
X65938625Y-41922572D01*
X64921373Y-41922572D01*
X64844969Y-41869074D01*
X64806103Y-41824756D01*
X64792092Y-41767499D01*
X64806103Y-41710242D01*
X64844969Y-41665924D01*
X64921373Y-41612425D01*
X64160000Y-40851053D01*
X63398625Y-41612425D01*
X63475031Y-41665925D01*
X63513897Y-41710244D01*
X63527907Y-41767501D01*
X63513896Y-41824758D01*
X63475029Y-41869076D01*
X63398625Y-41922572D01*
X62381373Y-41922572D01*
X62304969Y-41869074D01*
X62266103Y-41824756D01*
X62252092Y-41767499D01*
X62266103Y-41710242D01*
X62304969Y-41665924D01*
X62381373Y-41612425D01*
X61620000Y-40851053D01*
X60858625Y-41612425D01*
X60935031Y-41665925D01*
X60973897Y-41710244D01*
X60987907Y-41767501D01*
X60973896Y-41824758D01*
X60935029Y-41869076D01*
X60858625Y-41922572D01*
X59842243Y-41922572D01*
X59808375Y-41898857D01*
X59769511Y-41854540D01*
X59755500Y-41797283D01*
X59755500Y-41737717D01*
X59769511Y-41680460D01*
X59808376Y-41636142D01*
X59951401Y-41535995D01*
X60118495Y-41368901D01*
X60248732Y-41182902D01*
X60293048Y-41144039D01*
X60350305Y-41130028D01*
X60407562Y-41144039D01*
X60451880Y-41182905D01*
X60505073Y-41258873D01*
X61266447Y-40497501D01*
X61973553Y-40497501D01*
X62734925Y-41258873D01*
X62788424Y-41182469D01*
X62832742Y-41143603D01*
X62889999Y-41129592D01*
X62947256Y-41143603D01*
X62991574Y-41182469D01*
X63045072Y-41258873D01*
X63045073Y-41258873D01*
X63806447Y-40497501D01*
X64513553Y-40497501D01*
X65274925Y-41258873D01*
X65328424Y-41182469D01*
X65372742Y-41143603D01*
X65429999Y-41129592D01*
X65487256Y-41143603D01*
X65531574Y-41182469D01*
X65585072Y-41258873D01*
X65585073Y-41258873D01*
X66346447Y-40497501D01*
X66346447Y-40497500D01*
X65585072Y-39736125D01*
X65585072Y-39736126D01*
X65531574Y-39812530D01*
X65487256Y-39851396D01*
X65429999Y-39865407D01*
X65372742Y-39851396D01*
X65328424Y-39812530D01*
X65274925Y-39736126D01*
X65274925Y-39736125D01*
X64513553Y-40497500D01*
X64513553Y-40497501D01*
X63806447Y-40497501D01*
X63806447Y-40497500D01*
X63045072Y-39736125D01*
X63045072Y-39736126D01*
X62991574Y-39812530D01*
X62947256Y-39851396D01*
X62889999Y-39865407D01*
X62832742Y-39851396D01*
X62788424Y-39812530D01*
X62734925Y-39736126D01*
X62734925Y-39736125D01*
X61973553Y-40497500D01*
X61973553Y-40497501D01*
X61266447Y-40497501D01*
X61266447Y-40497500D01*
X60505073Y-39736126D01*
X60451881Y-39812094D01*
X60407563Y-39850960D01*
X60350306Y-39864971D01*
X60293048Y-39850960D01*
X60248730Y-39812095D01*
X60118495Y-39626099D01*
X59951401Y-39459005D01*
X59842243Y-39382572D01*
X60858625Y-39382572D01*
X61620000Y-40143947D01*
X61620001Y-40143947D01*
X62381373Y-39382573D01*
X62381373Y-39382572D01*
X63398625Y-39382572D01*
X64160000Y-40143947D01*
X64160001Y-40143947D01*
X64921373Y-39382573D01*
X64921373Y-39382572D01*
X65938625Y-39382572D01*
X66700000Y-40143947D01*
X66700001Y-40143947D01*
X67461373Y-39382573D01*
X67461373Y-39382572D01*
X67377580Y-39323900D01*
X67163492Y-39224069D01*
X66935318Y-39162930D01*
X66700000Y-39142342D01*
X66464681Y-39162930D01*
X66236507Y-39224069D01*
X66022422Y-39323899D01*
X65938625Y-39382572D01*
X64921373Y-39382572D01*
X64837580Y-39323900D01*
X64623492Y-39224069D01*
X64395318Y-39162930D01*
X64160000Y-39142342D01*
X63924681Y-39162930D01*
X63696507Y-39224069D01*
X63482422Y-39323899D01*
X63398625Y-39382572D01*
X62381373Y-39382572D01*
X62297580Y-39323900D01*
X62083492Y-39224069D01*
X61855318Y-39162930D01*
X61620000Y-39142342D01*
X61384681Y-39162930D01*
X61156507Y-39224069D01*
X60942422Y-39323899D01*
X60858625Y-39382572D01*
X59842243Y-39382572D01*
X59757830Y-39323465D01*
X59543663Y-39223597D01*
X59482501Y-39207209D01*
X59315407Y-39162436D01*
X59080000Y-39141840D01*
X58844592Y-39162436D01*
X58616336Y-39223597D01*
X58402170Y-39323465D01*
X58208598Y-39459005D01*
X58041505Y-39626098D01*
X57905965Y-39819670D01*
X57806097Y-40033836D01*
X57744936Y-40262092D01*
X57724340Y-40497500D01*
X57744936Y-40732907D01*
X57776593Y-40851053D01*
X57806097Y-40961163D01*
X57905965Y-41175330D01*
X58041505Y-41368901D01*
X58208599Y-41535995D01*
X58351624Y-41636142D01*
X58390489Y-41680460D01*
X58404500Y-41737717D01*
X58404500Y-41797284D01*
X58390489Y-41854541D01*
X58351623Y-41898859D01*
X58208598Y-41999005D01*
X58041505Y-42166098D01*
X57905965Y-42359670D01*
X57806097Y-42573836D01*
X57744936Y-42802092D01*
X57724340Y-43037500D01*
X47195132Y-43037500D01*
X47173430Y-42956507D01*
X47073599Y-42742421D01*
X46938109Y-42548921D01*
X46771081Y-42381893D01*
X46585404Y-42251880D01*
X46546539Y-42207562D01*
X46532528Y-42150305D01*
X46546539Y-42093048D01*
X46585402Y-42048732D01*
X46771401Y-41918495D01*
X46938495Y-41751401D01*
X47074035Y-41557830D01*
X47173903Y-41343663D01*
X47235063Y-41115408D01*
X47255659Y-40880000D01*
X47235063Y-40644592D01*
X47173903Y-40416337D01*
X47074035Y-40202171D01*
X46938495Y-40008599D01*
X46771401Y-39841505D01*
X46585402Y-39711267D01*
X46546539Y-39666951D01*
X46532528Y-39609694D01*
X46546539Y-39552437D01*
X46585405Y-39508119D01*
X46771078Y-39378109D01*
X46938106Y-39211081D01*
X47073600Y-39017576D01*
X47173430Y-38803492D01*
X47230636Y-38590000D01*
X45774000Y-38590000D01*
X45712000Y-38573387D01*
X45666613Y-38528000D01*
X45650000Y-38466000D01*
X45650000Y-36050000D01*
X46150000Y-36050000D01*
X46150000Y-38090000D01*
X47230636Y-38090000D01*
X47230635Y-38089999D01*
X47173430Y-37876507D01*
X47073599Y-37662421D01*
X46938109Y-37468921D01*
X46815665Y-37346477D01*
X46784369Y-37293731D01*
X46782180Y-37232438D01*
X46809633Y-37177593D01*
X46860013Y-37142614D01*
X46992088Y-37093352D01*
X47107188Y-37007188D01*
X47193352Y-36892089D01*
X47243597Y-36757375D01*
X47250000Y-36697824D01*
X47250000Y-36050000D01*
X81050000Y-36050000D01*
X81050000Y-36697824D01*
X81056402Y-36757375D01*
X81106647Y-36892089D01*
X81192811Y-37007188D01*
X81307910Y-37093352D01*
X81439987Y-37142614D01*
X81490366Y-37177593D01*
X81517819Y-37232438D01*
X81515630Y-37293730D01*
X81484335Y-37346477D01*
X81361888Y-37468924D01*
X81226400Y-37662421D01*
X81126569Y-37876507D01*
X81069364Y-38089999D01*
X81069364Y-38090000D01*
X82150000Y-38090000D01*
X82150000Y-36050000D01*
X81050000Y-36050000D01*
X47250000Y-36050000D01*
X46150000Y-36050000D01*
X45650000Y-36050000D01*
X45650000Y-35674000D01*
X45666613Y-35612000D01*
X45712000Y-35566613D01*
X45774000Y-35550000D01*
X47250000Y-35550000D01*
X47250000Y-34902176D01*
X47243597Y-34842624D01*
X47193352Y-34707911D01*
X47186540Y-34698811D01*
X47162301Y-34635553D01*
X47174923Y-34568996D01*
X47220640Y-34519005D01*
X47285807Y-34500500D01*
X81014193Y-34500500D01*
X81079360Y-34519005D01*
G37*
%TD.AperFunction*%
%TA.AperFunction,Conductor*%
G36*
X58008202Y-60832939D02*
G01*
X58048430Y-60859819D01*
X59617050Y-62428440D01*
X59649943Y-62487172D01*
X59648003Y-62536553D01*
X59650188Y-62536783D01*
X59629040Y-62737999D01*
X59648826Y-62926257D01*
X59654001Y-62942182D01*
X59658543Y-62999898D01*
X59636388Y-63053385D01*
X59592365Y-63090985D01*
X59536070Y-63104500D01*
X55567747Y-63104500D01*
X55517312Y-63093780D01*
X55475598Y-63063473D01*
X55469871Y-63057112D01*
X55316730Y-62945849D01*
X55316729Y-62945848D01*
X55316727Y-62945847D01*
X55143802Y-62868855D01*
X54958648Y-62829500D01*
X54958646Y-62829500D01*
X54769354Y-62829500D01*
X54769352Y-62829500D01*
X54571449Y-62871565D01*
X54571020Y-62869551D01*
X54529769Y-62876639D01*
X54471964Y-62857015D01*
X54430526Y-62812188D01*
X54415500Y-62753021D01*
X54415500Y-61222500D01*
X54432113Y-61160500D01*
X54477500Y-61115113D01*
X54539500Y-61098500D01*
X54704648Y-61098500D01*
X54828083Y-61072262D01*
X54889803Y-61059144D01*
X55062730Y-60982151D01*
X55215871Y-60870888D01*
X55221598Y-60864526D01*
X55263312Y-60834220D01*
X55313747Y-60823500D01*
X57960749Y-60823500D01*
X58008202Y-60832939D01*
G37*
%TD.AperFunction*%
%TA.AperFunction,Conductor*%
G36*
X82588000Y-58426613D02*
G01*
X82633387Y-58472000D01*
X82650000Y-58534000D01*
X82650000Y-58786000D01*
X82633387Y-58848000D01*
X82588000Y-58893387D01*
X82526000Y-58910000D01*
X81069364Y-58910000D01*
X81126569Y-59123492D01*
X81226399Y-59337576D01*
X81361893Y-59531081D01*
X81528918Y-59698106D01*
X81714595Y-59828119D01*
X81753460Y-59872437D01*
X81767471Y-59929694D01*
X81753460Y-59986951D01*
X81714595Y-60031269D01*
X81528595Y-60161508D01*
X81361505Y-60328598D01*
X81225965Y-60522170D01*
X81126097Y-60736336D01*
X81064936Y-60964592D01*
X81044340Y-61199999D01*
X81064936Y-61435405D01*
X81091856Y-61535871D01*
X81091856Y-61600058D01*
X81059762Y-61655646D01*
X80797181Y-61918228D01*
X80747818Y-61948478D01*
X80690102Y-61953020D01*
X80636615Y-61930865D01*
X80599015Y-61886842D01*
X80585500Y-61830547D01*
X80585500Y-58870452D01*
X80594939Y-58822999D01*
X80621819Y-58782771D01*
X80787435Y-58617155D01*
X80958272Y-58446317D01*
X80998498Y-58419439D01*
X81045951Y-58410000D01*
X82526000Y-58410000D01*
X82588000Y-58426613D01*
G37*
%TD.AperFunction*%
%TD*%
M02*
