M48
; DRILL file {KiCad 7.0.1-0} date 2023 October 20, Friday 13:56:47
; FORMAT={-:-/ absolute / metric / decimal}
; #@! TF.CreationDate,2023-10-20T13:56:47+13:00
; #@! TF.GenerationSoftware,Kicad,Pcbnew,7.0.1-0
; #@! TF.FileFunction,Plated,1,2,PTH
FMAT,2
METRIC
; #@! TA.AperFunction,Plated,PTH,ViaDrill
T1C0.300
; #@! TA.AperFunction,Plated,PTH,ViaDrill
T2C0.400
; #@! TA.AperFunction,Plated,PTH,ComponentDrill
T3C0.550
; #@! TA.AperFunction,Plated,PTH,ComponentDrill
T4C0.800
; #@! TA.AperFunction,Plated,PTH,ComponentDrill
T5C1.000
; #@! TA.AperFunction,Plated,PTH,ComponentDrill
T6C1.200
%
G90
G05
T1
X47.03Y-71.09
T2
X47.005Y-88.646
X51.524Y-83.82
X54.61Y-60.198
X54.864Y-63.73
X55.626Y-62.23
X55.626Y-127.254
X55.88Y-119.634
X56.134Y-72.898
X59.47Y-132.73
X59.999Y-70.853
X60.534Y-62.738
X61.468Y-124.206
X62.484Y-102.108
X62.738Y-63.68
X63.08Y-133.61
X63.505Y-106.421
X63.665Y-92.202
X63.88Y-137.22
X63.94Y-120.03
X65.278Y-110.744
X65.532Y-105.918
X66.548Y-105.156
X69.619Y-107.428
X70.104Y-109.982
X70.358Y-83.312
X70.743Y-115.701
X71.44Y-128.05
X75.28Y-86.14
X75.55Y-107.54
X75.692Y-123.444
X76.943Y-65.458
X77.16Y-74.53
X77.66Y-81.4
X78.19Y-110.6
X78.232Y-52.578
X79.28Y-103.74
T3
X77.42Y-125.17
X77.56Y-140.17
X81.36Y-140.17
X81.47Y-125.17
T4
X45.72Y-128.17
X46.28Y-82.5
X46.736Y-121.42
X48.82Y-82.5
X49.276Y-121.42
X49.72Y-133.42
X50.06Y-93.94
X50.72Y-128.17
X52.81Y-89.74
X53.61Y-118.945
X53.61Y-121.485
X53.74Y-73.014
X53.74Y-75.554
X54.01Y-125.845
X54.01Y-128.385
X54.116Y-81.74
X54.22Y-85.45
X54.72Y-133.42
X55.06Y-93.94
X56.656Y-81.74
X56.76Y-85.45
X57.66Y-125.775
X57.66Y-128.315
X57.66Y-130.855
X57.66Y-133.395
X57.66Y-135.935
X57.66Y-138.475
X57.66Y-141.015
X57.81Y-89.74
X57.925Y-102.79
X58.07Y-118.484
X58.07Y-121.024
X58.84Y-73.326
X58.84Y-75.866
X59.08Y-48.336
X59.08Y-50.876
X60.465Y-102.79
X60.51Y-82.135
X60.51Y-84.675
X60.51Y-87.215
X60.51Y-89.755
X60.51Y-92.295
X60.51Y-94.835
X60.51Y-97.375
X61.98Y-118.4
X61.98Y-120.94
X64.2Y-73.134
X64.2Y-75.674
X65.28Y-125.775
X65.28Y-128.315
X65.28Y-130.855
X65.28Y-133.395
X65.28Y-135.935
X65.28Y-138.475
X65.28Y-141.015
X65.84Y-118.695
X65.84Y-121.235
X68.13Y-82.135
X68.13Y-84.675
X68.13Y-87.215
X68.13Y-89.755
X68.13Y-92.295
X68.13Y-94.835
X68.13Y-97.375
X68.365Y-102.99
X69.155Y-56.93
X69.86Y-73.566
X69.86Y-76.106
X70.314Y-121.06
X70.68Y-130.92
X70.68Y-135.92
X70.905Y-102.99
X71.695Y-56.93
X72.8Y-92.25
X72.854Y-121.06
X72.88Y-82.045
X72.88Y-84.585
X73.735Y-49.42
X74.01Y-110.725
X74.01Y-113.265
X74.91Y-125.26
X74.91Y-130.26
X74.98Y-56.93
X76.235Y-49.42
X76.99Y-78.77
X77.4Y-117.42
X77.4Y-122.42
X77.52Y-56.93
X77.57Y-84.625
X77.57Y-87.165
X77.8Y-92.25
X79.53Y-78.77
X81.51Y-117.385
X81.51Y-119.925
T5
X45.9Y-35.8
X45.9Y-38.34
X45.9Y-40.88
X45.9Y-43.42
X45.9Y-45.96
X45.9Y-48.5
X45.9Y-51.04
X45.9Y-53.58
X45.9Y-56.12
X45.9Y-58.66
X45.9Y-61.2
X45.9Y-63.74
X45.9Y-113.4
X48.44Y-113.4
X50.98Y-113.4
X53.52Y-113.4
X56.06Y-113.4
X58.6Y-113.4
X59.08Y-40.497
X59.08Y-43.038
X61.14Y-113.4
X61.62Y-40.497
X61.62Y-43.038
X63.68Y-113.4
X64.16Y-40.497
X64.16Y-43.038
X66.22Y-113.4
X66.7Y-40.497
X66.7Y-43.038
X68.76Y-113.4
X69.24Y-40.497
X69.24Y-43.038
X82.4Y-35.8
X82.4Y-38.34
X82.4Y-40.88
X82.4Y-43.42
X82.4Y-45.96
X82.4Y-48.5
X82.4Y-51.04
X82.4Y-53.58
X82.4Y-56.12
X82.4Y-58.66
X82.4Y-61.2
X82.4Y-63.74
T6
X64.42Y-49.47
X69.5Y-49.47
T0
M30
