%TF.GenerationSoftware,KiCad,Pcbnew,7.0.1-0*%
%TF.CreationDate,2023-10-20T13:56:45+13:00*%
%TF.ProjectId,Punkys-new-brew_main,50756e6b-7973-42d6-9e65-772d62726577,001*%
%TF.SameCoordinates,Original*%
%TF.FileFunction,Legend,Bot*%
%TF.FilePolarity,Positive*%
%FSLAX46Y46*%
G04 Gerber Fmt 4.6, Leading zero omitted, Abs format (unit mm)*
G04 Created by KiCad (PCBNEW 7.0.1-0) date 2023-10-20 13:56:45*
%MOMM*%
%LPD*%
G01*
G04 APERTURE LIST*
%ADD10C,0.150000*%
%ADD11C,0.120000*%
G04 APERTURE END LIST*
D10*
%TO.C,J1*%
X65033333Y-35362619D02*
X65033333Y-36076904D01*
X65033333Y-36076904D02*
X65080952Y-36219761D01*
X65080952Y-36219761D02*
X65176190Y-36315000D01*
X65176190Y-36315000D02*
X65319047Y-36362619D01*
X65319047Y-36362619D02*
X65414285Y-36362619D01*
X64033333Y-36362619D02*
X64604761Y-36362619D01*
X64319047Y-36362619D02*
X64319047Y-35362619D01*
X64319047Y-35362619D02*
X64414285Y-35505476D01*
X64414285Y-35505476D02*
X64509523Y-35600714D01*
X64509523Y-35600714D02*
X64604761Y-35648333D01*
D11*
X68740000Y-47187500D02*
X69190000Y-46287500D01*
X69640000Y-47187500D02*
X68740000Y-47187500D01*
X53870000Y-46327500D02*
X74450000Y-46327500D01*
X66210000Y-46327500D02*
X66210000Y-45017500D01*
X74450000Y-46327500D02*
X74450000Y-37207500D01*
X69190000Y-46287500D02*
X69640000Y-47187500D01*
X55170000Y-45017500D02*
X62110000Y-45017500D01*
X62110000Y-45017500D02*
X62110000Y-46327500D01*
X62110000Y-45017500D02*
X62110000Y-45017500D01*
X66210000Y-45017500D02*
X73150000Y-45017500D01*
X73150000Y-45017500D02*
X73150000Y-38517500D01*
X55170000Y-38517500D02*
X55170000Y-45017500D01*
X73150000Y-38517500D02*
X55170000Y-38517500D01*
X53870000Y-37207500D02*
X53870000Y-46327500D01*
X74450000Y-37207500D02*
X53870000Y-37207500D01*
%TD*%
M02*
